<svg xmlns="http://www.w3.org/2000/svg" xmlns:xlink="http://www.w3.org/1999/xlink" width="px" height="24px" viewBox="0 0 24 24" version="1.1">
<g id="surface1">
<path style=" stroke:none;fill-rule:nonzero;fill:#bf5300;fill-opacity:1;" d="M 14.464844 0.632812 C 14.203125 0.714844 13.921875 0.964844 13.753906 1.246094 C 13.632812 1.449219 13.59375 1.617188 13.570312 1.933594 C 13.539062 2.421875 13.609375 2.761719 13.878906 3.4375 C 13.992188 3.703125 14.078125 3.929688 14.078125 3.941406 C 14.078125 3.953125 13.71875 3.886719 13.285156 3.796875 C 11.925781 3.511719 11.011719 3.625 10.4375 4.140625 C 10.089844 4.453125 9.988281 4.730469 10.089844 5.082031 C 10.269531 5.675781 10.992188 6.105469 12.628906 6.578125 C 13.183594 6.738281 13.679688 6.894531 13.742188 6.929688 C 13.972656 7.050781 13.875 7.109375 12.796875 7.472656 C 12.339844 7.625 11.941406 7.804688 11.730469 7.949219 C 11.34375 8.214844 10.902344 8.664062 10.757812 8.949219 C 10.703125 9.058594 10.648438 9.15625 10.636719 9.167969 C 10.632812 9.179688 10.539062 9.09375 10.441406 8.984375 C 10.175781 8.675781 9.832031 8.566406 9.171875 8.578125 C 8.773438 8.585938 8.488281 8.625 8.117188 8.734375 C 7.839844 8.816406 7.605469 8.882812 7.59375 8.882812 C 7.574219 8.882812 7.625 8.683594 7.707031 8.433594 C 8.066406 7.28125 7.679688 6.460938 6.777344 6.460938 C 6.566406 6.460938 6.484375 6.496094 6.292969 6.664062 C 6.082031 6.855469 6.058594 6.917969 5.773438 7.949219 C 5.335938 9.523438 5.375 9.414062 5.234375 9.335938 C 5.164062 9.300781 4.78125 9.046875 4.382812 8.769531 C 3.472656 8.128906 3.015625 7.898438 2.597656 7.863281 C 2.214844 7.828125 2.058594 7.890625 1.902344 8.152344 C 1.570312 8.699219 1.9375 9.402344 3.027344 10.304688 L 3.316406 10.539062 L 3.117188 10.667969 C 3.003906 10.730469 2.746094 10.839844 2.539062 10.910156 C 1.488281 11.25 0.75 11.9375 0.75 12.570312 C 0.75 12.832031 0.945312 13.230469 1.160156 13.414062 C 1.582031 13.765625 2.164062 13.726562 3.480469 13.261719 C 3.917969 13.109375 4.304688 12.980469 4.339844 12.980469 C 4.375 12.980469 4.378906 13.148438 4.355469 13.425781 C 4.332031 13.671875 4.34375 14.070312 4.378906 14.3125 C 4.523438 15.363281 4.898438 15.921875 5.453125 15.921875 C 5.964844 15.921875 6.117188 15.632812 6.160156 14.585938 L 6.191406 13.847656 L 6.371094 14.265625 C 6.472656 14.5 6.722656 14.996094 6.921875 15.375 C 8.25 17.867188 8.527344 18.53125 8.796875 19.875 C 9.015625 20.953125 9.046875 21.65625 8.890625 22.25 C 8.742188 22.839844 8.742188 23.019531 8.890625 23.214844 C 8.984375 23.332031 9.058594 23.367188 9.226562 23.367188 C 9.496094 23.367188 9.699219 23.179688 9.796875 22.851562 C 9.929688 22.425781 9.988281 21.472656 9.921875 20.796875 C 9.777344 19.292969 9.46875 18.472656 7.96875 15.664062 C 7.679688 15.121094 7.363281 14.488281 7.269531 14.25 C 7.171875 14.011719 7.019531 13.667969 6.941406 13.484375 C 6.824219 13.242188 6.800781 13.136719 6.847656 13.089844 C 6.886719 13.050781 6.953125 13.039062 7 13.054688 C 7.1875 13.128906 8.289062 15.289062 8.796875 16.585938 C 9.589844 18.605469 10.425781 21.566406 10.527344 22.742188 C 10.59375 23.394531 10.914062 23.699219 11.285156 23.457031 C 11.527344 23.296875 11.601562 23 11.652344 22.066406 C 11.792969 19.617188 12.6875 15.546875 13.71875 12.664062 C 14.203125 11.320312 14.984375 9.433594 15.125 9.242188 C 15.195312 9.160156 15.507812 9.148438 15.625 9.226562 C 15.6875 9.257812 15.664062 9.347656 15.523438 9.625 C 15.425781 9.8125 15.25 10.242188 15.121094 10.570312 C 14.996094 10.890625 14.589844 11.890625 14.222656 12.777344 C 13.453125 14.625 13.113281 15.546875 12.835938 16.511719 C 12.144531 18.90625 12.105469 21.3125 12.734375 22.597656 C 12.976562 23.089844 13.339844 23.25 13.726562 23.046875 C 14.011719 22.902344 14.035156 22.585938 13.816406 21.976562 C 13.582031 21.3125 13.484375 20.648438 13.476562 19.703125 C 13.476562 17.996094 13.878906 16.414062 15.035156 13.660156 C 15.796875 11.84375 15.917969 11.542969 16.039062 11.105469 C 16.222656 10.441406 16.382812 10.03125 16.449219 10.066406 C 16.476562 10.089844 16.5 10.25 16.5 10.429688 C 16.5 10.910156 16.605469 11.75 16.703125 12.097656 C 16.984375 13.074219 17.988281 13.164062 18.433594 12.265625 C 18.675781 11.773438 18.753906 11.386719 18.789062 10.585938 C 18.820312 9.933594 18.808594 9.777344 18.699219 9.398438 C 18.632812 9.160156 18.578125 8.90625 18.578125 8.839844 L 18.578125 8.710938 L 18.882812 8.832031 C 19.738281 9.171875 21.082031 9.472656 21.808594 9.484375 C 22.269531 9.484375 22.394531 9.46875 22.597656 9.363281 C 23.089844 9.105469 23.410156 8.464844 23.347656 7.902344 C 23.238281 6.988281 22.535156 6.460938 20.742188 5.972656 C 20.203125 5.828125 19.738281 5.683594 19.714844 5.660156 C 19.683594 5.628906 19.925781 5.371094 20.246094 5.078125 C 21.136719 4.246094 21.578125 3.523438 21.578125 2.867188 C 21.578125 2.347656 21.203125 1.960938 20.695312 1.960938 C 20.058594 1.960938 18.941406 2.664062 17.503906 3.976562 C 17.261719 4.199219 17.023438 4.382812 16.984375 4.382812 C 16.9375 4.382812 16.890625 4.316406 16.871094 4.222656 C 16.449219 2.324219 15.941406 1.125 15.402344 0.773438 C 15.167969 0.617188 14.722656 0.546875 14.464844 0.632812 Z M 15.167969 0.953125 C 15.640625 1.195312 16.050781 2.078125 16.476562 3.746094 C 16.582031 4.164062 16.703125 4.546875 16.738281 4.59375 C 16.898438 4.789062 17.113281 4.691406 17.75 4.121094 C 19.136719 2.890625 20.128906 2.25 20.652344 2.25 C 21.179688 2.25 21.425781 2.636719 21.265625 3.183594 C 21.109375 3.714844 20.804688 4.140625 20.078125 4.851562 C 19.523438 5.382812 19.382812 5.550781 19.382812 5.675781 C 19.382812 5.875 19.472656 5.914062 20.652344 6.230469 C 22.382812 6.699219 23.078125 7.21875 23.078125 8.046875 C 23.078125 8.53125 22.769531 9.015625 22.367188 9.167969 C 22.136719 9.253906 21.679688 9.25 21.082031 9.144531 C 20.417969 9.027344 19.375 8.75 19.019531 8.597656 C 18.859375 8.519531 18.65625 8.480469 18.53125 8.492188 C 18.339844 8.507812 18.316406 8.527344 18.300781 8.6875 C 18.289062 8.785156 18.339844 9.085938 18.410156 9.351562 C 18.726562 10.527344 18.425781 12.195312 17.832031 12.542969 C 17.683594 12.628906 17.601562 12.640625 17.433594 12.601562 C 17.046875 12.5 16.878906 12.023438 16.789062 10.730469 C 16.71875 9.847656 16.65625 9.667969 16.417969 9.703125 C 16.230469 9.734375 16.074219 10.039062 15.84375 10.804688 C 15.726562 11.203125 15.363281 12.179688 15.027344 12.976562 C 13.625 16.339844 13.285156 17.53125 13.230469 19.316406 C 13.1875 20.519531 13.257812 21.136719 13.539062 21.992188 C 13.753906 22.644531 13.75 22.800781 13.503906 22.863281 C 13.210938 22.9375 12.957031 22.605469 12.738281 21.835938 C 12.617188 21.414062 12.605469 21.265625 12.605469 20.046875 C 12.613281 18.667969 12.65625 18.25 12.929688 17.164062 C 13.199219 16.101562 13.847656 14.332031 14.671875 12.402344 C 14.808594 12.070312 15.074219 11.421875 15.253906 10.960938 C 15.433594 10.5 15.667969 9.941406 15.785156 9.714844 C 15.957031 9.375 15.980469 9.28125 15.929688 9.183594 C 15.761719 8.875 15.3125 8.785156 15.027344 9.011719 C 14.664062 9.292969 13.453125 12.386719 12.753906 14.804688 C 12.09375 17.105469 11.429688 20.542969 11.421875 21.722656 C 11.417969 22.296875 11.324219 22.957031 11.222656 23.117188 C 11.117188 23.273438 10.933594 23.289062 10.875 23.144531 C 10.859375 23.09375 10.8125 22.816406 10.78125 22.535156 C 10.636719 21.121094 9.578125 17.636719 8.683594 15.605469 C 8.261719 14.652344 8.152344 14.429688 7.679688 13.597656 C 7.382812 13.074219 7.257812 12.90625 7.109375 12.832031 C 6.953125 12.753906 6.898438 12.753906 6.765625 12.820312 C 6.566406 12.917969 6.46875 13.171875 6.570312 13.339844 C 6.613281 13.402344 6.761719 13.742188 6.898438 14.089844 C 7.039062 14.433594 7.5 15.375 7.925781 16.171875 C 9.074219 18.316406 9.421875 19.183594 9.617188 20.453125 C 9.726562 21.179688 9.691406 22.269531 9.535156 22.730469 C 9.445312 23.019531 9.414062 23.046875 9.25 23.066406 C 9.0625 23.082031 9.058594 23.078125 9.058594 22.878906 C 9.058594 22.769531 9.109375 22.453125 9.179688 22.171875 C 9.3125 21.617188 9.304688 21.25 9.144531 20.222656 C 8.925781 18.824219 8.585938 17.90625 7.597656 16.078125 C 6.882812 14.75 6.675781 14.324219 6.449219 13.742188 C 6.359375 13.5 6.3125 13.441406 6.207031 13.441406 C 5.953125 13.441406 5.914062 13.574219 5.882812 14.488281 C 5.863281 15.242188 5.84375 15.359375 5.734375 15.5 C 5.636719 15.628906 5.566406 15.664062 5.417969 15.652344 C 5.152344 15.640625 4.949219 15.402344 4.78125 14.90625 C 4.667969 14.574219 4.644531 14.382812 4.632812 13.730469 C 4.632812 13.304688 4.621094 12.917969 4.621094 12.875 C 4.617188 12.835938 4.550781 12.777344 4.476562 12.746094 C 4.367188 12.691406 4.175781 12.738281 3.371094 13.015625 C 2.53125 13.296875 2.332031 13.34375 1.949219 13.351562 C 1.558594 13.355469 1.496094 13.339844 1.355469 13.210938 C 0.992188 12.875 0.933594 12.449219 1.199219 12.082031 C 1.488281 11.683594 1.886719 11.441406 2.734375 11.128906 C 3.589844 10.824219 3.726562 10.539062 3.25 10.128906 C 2.394531 9.386719 2.054688 8.949219 2.054688 8.554688 C 2.054688 8.089844 2.515625 8 3.195312 8.335938 C 3.421875 8.453125 3.917969 8.761719 4.296875 9.035156 C 5.070312 9.589844 5.457031 9.800781 5.53125 9.714844 C 5.554688 9.6875 5.730469 9.117188 5.90625 8.453125 C 6.085938 7.78125 6.269531 7.152344 6.316406 7.050781 C 6.46875 6.714844 6.847656 6.640625 7.25 6.859375 C 7.558594 7.019531 7.644531 7.703125 7.441406 8.367188 C 7.304688 8.816406 7.292969 9.203125 7.414062 9.253906 C 7.460938 9.269531 7.636719 9.21875 7.8125 9.136719 C 8.769531 8.699219 10.050781 8.75 10.296875 9.238281 C 10.425781 9.472656 10.40625 9.554688 10.175781 9.808594 C 9.953125 10.054688 9.125 10.484375 8.335938 10.757812 C 7.835938 10.933594 7.671875 11.042969 7.671875 11.191406 C 7.671875 11.394531 8 11.578125 8.683594 11.769531 C 9.578125 12.015625 10.078125 12.390625 10.242188 12.941406 C 10.351562 13.316406 10.242188 13.570312 9.90625 13.703125 C 9.617188 13.816406 9.433594 13.78125 8.90625 13.496094 C 8.421875 13.230469 8.164062 13.199219 8.070312 13.40625 C 8.011719 13.535156 8.1875 14.007812 9.496094 17.285156 C 11.175781 21.480469 11.007812 21.207031 11.128906 19.921875 C 11.238281 18.796875 11.488281 17.71875 12.230469 15.117188 C 12.777344 13.207031 13.089844 12.28125 13.582031 11.117188 C 14.113281 9.859375 14.167969 9.578125 13.902344 9.492188 C 13.769531 9.449219 13.632812 9.519531 13.183594 9.859375 C 12.765625 10.175781 12.074219 10.503906 11.742188 10.546875 C 11.226562 10.605469 10.828125 10.222656 10.828125 9.675781 C 10.828125 9.292969 10.945312 9.070312 11.355469 8.640625 C 11.785156 8.1875 12.109375 7.996094 12.871094 7.738281 C 13.890625 7.390625 14 7.339844 14.078125 7.148438 C 14.117188 7.054688 14.132812 6.945312 14.117188 6.898438 C 14.058594 6.753906 13.667969 6.59375 12.644531 6.292969 C 11.1875 5.863281 10.609375 5.574219 10.417969 5.167969 C 10.261719 4.835938 10.296875 4.683594 10.605469 4.382812 C 11.128906 3.855469 11.941406 3.785156 13.511719 4.125 C 14.023438 4.242188 14.453125 4.316406 14.46875 4.296875 C 14.488281 4.285156 14.421875 4.085938 14.335938 3.855469 C 14.25 3.625 14.101562 3.226562 14.007812 2.972656 C 13.660156 2.035156 13.828125 1.28125 14.453125 0.933594 C 14.613281 0.84375 14.976562 0.847656 15.167969 0.953125 Z M 13.789062 9.824219 C 13.789062 9.898438 13.515625 10.597656 13.222656 11.289062 C 12.523438 12.921875 11.300781 17.128906 10.996094 18.953125 C 10.828125 19.945312 10.835938 19.9375 10.625 19.382812 C 10.5625 19.210938 10.015625 17.839844 9.410156 16.332031 C 8.804688 14.828125 8.320312 13.585938 8.335938 13.5625 C 8.355469 13.546875 8.585938 13.644531 8.851562 13.777344 C 9.414062 14.058594 9.8125 14.101562 10.140625 13.902344 C 10.75 13.535156 10.679688 12.722656 9.980469 12.097656 C 9.6875 11.832031 9.375 11.6875 8.488281 11.410156 C 8.25 11.335938 8.046875 11.25 8.035156 11.222656 C 8.03125 11.1875 8.261719 11.078125 8.554688 10.972656 C 9.347656 10.683594 9.976562 10.367188 10.28125 10.101562 L 10.546875 9.867188 L 10.617188 10.074219 C 10.78125 10.570312 11.296875 10.890625 11.808594 10.816406 C 12.167969 10.769531 12.917969 10.40625 13.355469 10.074219 C 13.667969 9.835938 13.789062 9.765625 13.789062 9.824219 Z M 13.789062 9.824219 "/>
</g>
</svg>