<svg xmlns="http://www.w3.org/2000/svg" xmlns:xlink="http://www.w3.org/1999/xlink" width="px" height="24px" viewBox="0 0 24 24" version="1.1">
<g id="surface1">
<path style=" stroke:none;fill-rule:nonzero;fill:#bf5300;fill-opacity:1;" d="M 10.683594 0.644531 C 10.386719 0.710938 9.984375 1.152344 9.820312 1.605469 C 9.644531 2.074219 9.632812 3.28125 9.804688 3.714844 C 10.195312 4.734375 11.335938 4.765625 11.789062 3.773438 C 11.992188 3.320312 12.019531 2.144531 11.839844 1.542969 C 11.621094 0.820312 11.25 0.53125 10.683594 0.644531 Z M 11.238281 1.332031 C 11.707031 2.035156 11.539062 3.804688 10.988281 3.992188 C 10.695312 4.09375 10.476562 3.972656 10.296875 3.613281 C 10.164062 3.34375 10.136719 3.203125 10.136719 2.71875 C 10.136719 2.046875 10.273438 1.578125 10.554688 1.28125 C 10.796875 1.015625 11.039062 1.035156 11.238281 1.332031 Z M 11.238281 1.332031 "/>
<path style=" stroke:none;fill-rule:nonzero;fill:#bf5300;fill-opacity:1;" d="M 15.320312 2.097656 C 14.679688 2.496094 14.195312 3.582031 14.390625 4.183594 C 14.476562 4.433594 14.761719 4.714844 15.007812 4.773438 C 15.433594 4.878906 16.234375 4.292969 16.5625 3.632812 C 16.90625 2.949219 16.796875 2.328125 16.292969 2.089844 C 15.996094 1.949219 15.5625 1.949219 15.320312 2.097656 Z M 16.152344 2.589844 C 16.242188 2.671875 16.3125 2.816406 16.3125 2.902344 C 16.3125 3.421875 15.574219 4.285156 15.132812 4.285156 C 14.6875 4.285156 14.761719 3.421875 15.269531 2.761719 C 15.542969 2.40625 15.902344 2.335938 16.152344 2.589844 Z M 16.152344 2.589844 "/>
<path style=" stroke:none;fill-rule:nonzero;fill:#bf5300;fill-opacity:1;" d="M 5.003906 2.335938 C 4.765625 2.4375 4.546875 2.839844 4.542969 3.179688 C 4.535156 4.035156 5.238281 5.429688 5.847656 5.789062 C 6.152344 5.96875 6.371094 5.988281 6.679688 5.859375 C 7.066406 5.691406 7.351562 5.15625 7.265625 4.71875 C 7.214844 4.433594 6.652344 3.492188 6.230469 2.980469 C 5.691406 2.328125 5.386719 2.167969 5.003906 2.335938 Z M 5.671875 3.050781 C 5.828125 3.222656 6.078125 3.542969 6.230469 3.773438 C 6.832031 4.667969 6.921875 5.003906 6.632812 5.296875 C 6.3125 5.609375 6.007812 5.460938 5.558594 4.777344 C 5.003906 3.925781 4.847656 2.75 5.296875 2.75 C 5.347656 2.75 5.519531 2.886719 5.671875 3.050781 Z M 5.671875 3.050781 "/>
<path style=" stroke:none;fill-rule:nonzero;fill:#bf5300;fill-opacity:1;" d="M 20.097656 4.484375 C 19.796875 4.636719 19.453125 5.007812 19.28125 5.367188 C 19.214844 5.496094 19.152344 5.78125 19.136719 6.011719 C 19.121094 6.363281 19.132812 6.453125 19.253906 6.601562 C 19.496094 6.914062 20.144531 6.984375 20.601562 6.75 C 21.644531 6.203125 21.839844 4.914062 20.941406 4.476562 C 20.617188 4.316406 20.4375 4.316406 20.097656 4.484375 Z M 20.917969 5.039062 C 21.300781 5.519531 20.691406 6.398438 19.984375 6.398438 C 19.683594 6.398438 19.574219 6.308594 19.574219 6.0625 C 19.574219 5.507812 20.269531 4.738281 20.671875 4.847656 C 20.738281 4.863281 20.847656 4.949219 20.917969 5.039062 Z M 20.917969 5.039062 "/>
<path style=" stroke:none;fill-rule:nonzero;fill:#bf5300;fill-opacity:1;" d="M 11.003906 5.929688 C 9.050781 6.113281 7.332031 6.941406 6.097656 8.285156 C 4.6875 9.804688 4.191406 11.878906 4.664062 14.167969 C 5.296875 17.21875 7.765625 19.285156 10.945312 19.425781 C 13.285156 19.527344 15.300781 18.644531 16.808594 16.847656 C 17.691406 15.800781 18.230469 14.726562 18.714844 13.035156 C 19.175781 11.425781 19.28125 10.785156 19.28125 9.402344 C 19.285156 8.285156 19.273438 8.109375 19.144531 7.703125 C 18.882812 6.882812 18.363281 6.3125 17.710938 6.140625 C 17.199219 6 16.695312 6.238281 16.457031 6.714844 C 16.175781 7.265625 16.3125 7.726562 16.863281 8.089844 C 17.054688 8.21875 17.238281 8.386719 17.285156 8.460938 C 17.410156 8.691406 17.429688 10.355469 17.308594 11.035156 C 16.785156 14.078125 14.941406 16.617188 12.761719 17.308594 C 11.019531 17.859375 9.363281 17.53125 8.109375 16.382812 C 6.421875 14.832031 5.960938 12.148438 7.050781 10.242188 C 7.484375 9.484375 8.367188 8.730469 9.257812 8.355469 C 10.050781 8.019531 10.648438 7.898438 11.515625 7.898438 C 12.242188 7.898438 12.34375 7.914062 12.664062 8.066406 C 13.175781 8.308594 13.402344 8.519531 13.648438 9.019531 C 14.175781 10.082031 14.089844 11.347656 13.394531 12.671875 C 12.640625 14.109375 10.988281 14.777344 9.820312 14.117188 C 9.371094 13.867188 9.097656 13.285156 9.171875 12.769531 C 9.230469 12.414062 9.484375 11.867188 9.75 11.546875 C 10.085938 11.136719 10.503906 10.945312 11.214844 10.878906 C 11.867188 10.816406 12.027344 10.757812 12.179688 10.542969 C 12.308594 10.363281 12.3125 9.964844 12.191406 9.730469 C 12.058594 9.472656 11.628906 9.109375 11.355469 9.019531 C 10.949219 8.886719 10.242188 8.96875 9.773438 9.199219 C 8.761719 9.703125 7.785156 10.816406 7.382812 11.9375 C 7.101562 12.710938 7.203125 13.796875 7.632812 14.609375 C 7.914062 15.140625 8.304688 15.5 8.910156 15.800781 C 9.691406 16.183594 10.113281 16.265625 11.035156 16.234375 C 11.691406 16.207031 11.878906 16.175781 12.332031 16.003906 C 13.71875 15.484375 14.988281 14.214844 15.539062 12.792969 C 15.855469 11.96875 15.945312 11.375 15.914062 10.242188 C 15.890625 9.363281 15.863281 9.179688 15.710938 8.730469 C 15.480469 8.066406 15.179688 7.578125 14.707031 7.105469 C 14.289062 6.695312 13.578125 6.289062 12.984375 6.113281 C 12.632812 6.019531 11.597656 5.878906 11.355469 5.898438 C 11.285156 5.902344 11.125 5.917969 11.003906 5.929688 Z M 12.640625 6.523438 C 13.984375 6.863281 14.859375 7.664062 15.261719 8.917969 C 15.480469 9.59375 15.542969 10.777344 15.398438 11.546875 C 15.179688 12.703125 14.628906 13.707031 13.773438 14.519531 C 12.902344 15.34375 12.070312 15.730469 11.035156 15.78125 C 10.332031 15.820312 9.78125 15.703125 9.152344 15.382812 C 8.539062 15.078125 8.296875 14.839844 8.035156 14.320312 C 7.757812 13.773438 7.648438 13.273438 7.6875 12.722656 C 7.785156 11.386719 9.421875 9.554688 10.648438 9.421875 C 11.035156 9.378906 11.46875 9.542969 11.671875 9.8125 C 11.988281 10.226562 11.851562 10.363281 11.078125 10.425781 C 10.335938 10.492188 9.953125 10.664062 9.511719 11.125 C 8.9375 11.726562 8.648438 12.460938 8.71875 13.175781 C 8.757812 13.605469 8.886719 13.886719 9.203125 14.21875 C 9.59375 14.636719 10.136719 14.839844 10.84375 14.839844 C 11.710938 14.839844 12.402344 14.527344 13.121094 13.808594 C 13.507812 13.421875 13.667969 13.203125 13.90625 12.722656 C 14.335938 11.851562 14.425781 11.449219 14.417969 10.457031 C 14.410156 9.773438 14.390625 9.5625 14.277344 9.25 C 13.988281 8.460938 13.527344 7.933594 12.902344 7.644531 C 11.707031 7.09375 9.398438 7.515625 7.96875 8.53125 C 6.539062 9.554688 5.808594 11.289062 6.019531 13.171875 C 6.273438 15.453125 7.792969 17.320312 9.851562 17.890625 C 10.472656 18.0625 11.941406 18.042969 12.632812 17.851562 C 15.351562 17.117188 17.5 14.085938 17.847656 10.492188 C 17.902344 9.925781 17.902344 9.554688 17.851562 9.082031 C 17.757812 8.226562 17.679688 8.054688 17.246094 7.773438 C 17.046875 7.648438 16.863281 7.492188 16.824219 7.414062 C 16.648438 7.09375 16.976562 6.589844 17.359375 6.589844 C 18.050781 6.589844 18.632812 7.285156 18.8125 8.335938 C 19.0625 9.832031 18.492188 12.832031 17.597656 14.75 C 15.933594 18.300781 12.113281 19.898438 8.71875 18.46875 C 7.65625 18.019531 6.660156 17.199219 6.058594 16.296875 C 4.855469 14.476562 4.613281 11.917969 5.476562 10.054688 C 6.28125 8.296875 8.066406 6.964844 10.242188 6.492188 C 10.875 6.359375 12.03125 6.371094 12.640625 6.523438 Z M 12.640625 6.523438 "/>
<path style=" stroke:none;fill-rule:nonzero;fill:#bf5300;fill-opacity:1;" d="M 2.410156 8.125 C 1.695312 8.238281 1.214844 8.558594 1.082031 9.027344 C 0.804688 9.933594 2.1875 10.753906 3.398438 10.40625 C 4.195312 10.171875 4.585938 9.339844 4.203125 8.671875 C 3.941406 8.207031 3.25 7.996094 2.410156 8.125 Z M 3.589844 8.71875 C 3.882812 8.917969 3.953125 9.191406 3.800781 9.503906 C 3.621094 9.863281 3.332031 10.011719 2.78125 10.003906 C 2.074219 10.003906 1.503906 9.632812 1.546875 9.210938 C 1.585938 8.828125 2.105469 8.578125 2.886719 8.570312 C 3.289062 8.570312 3.410156 8.597656 3.589844 8.71875 Z M 3.589844 8.71875 "/>
<path style=" stroke:none;fill-rule:nonzero;fill:#bf5300;fill-opacity:1;" d="M 20.539062 9.890625 C 19.957031 10.183594 19.65625 10.746094 19.847656 11.207031 C 19.976562 11.519531 20.304688 11.742188 20.808594 11.878906 C 21.167969 11.972656 21.28125 11.980469 21.59375 11.910156 C 22.253906 11.777344 22.703125 11.265625 22.613281 10.746094 C 22.554688 10.414062 22.261719 10.011719 21.945312 9.851562 C 21.5625 9.660156 20.972656 9.671875 20.539062 9.890625 Z M 21.683594 10.265625 C 22.0625 10.457031 22.226562 10.835938 22.066406 11.136719 C 21.839844 11.550781 20.796875 11.578125 20.386719 11.167969 C 20.144531 10.925781 20.347656 10.503906 20.816406 10.292969 C 21.132812 10.144531 21.433594 10.136719 21.683594 10.265625 Z M 21.683594 10.265625 "/>
<path style=" stroke:none;fill-rule:nonzero;fill:#bf5300;fill-opacity:1;" d="M 20.390625 14.007812 C 19.777344 14.117188 19.535156 14.386719 19.546875 14.9375 C 19.5625 15.480469 19.804688 15.8125 20.375 16.0625 C 20.769531 16.234375 21.453125 16.292969 21.84375 16.183594 C 22.707031 15.941406 22.898438 14.789062 22.152344 14.304688 C 21.742188 14.039062 20.960938 13.90625 20.390625 14.007812 Z M 21.503906 14.519531 C 21.890625 14.628906 22.132812 14.871094 22.132812 15.152344 C 22.132812 15.453125 21.996094 15.644531 21.710938 15.734375 C 21.191406 15.910156 20.246094 15.613281 20.089844 15.238281 C 19.96875 14.941406 20.019531 14.636719 20.214844 14.539062 C 20.40625 14.445312 21.179688 14.429688 21.503906 14.519531 Z M 21.503906 14.519531 "/>
<path style=" stroke:none;fill-rule:nonzero;fill:#bf5300;fill-opacity:1;" d="M 2.496094 15.773438 C 1.898438 16.074219 1.304688 16.644531 1.246094 16.976562 C 1.105469 17.726562 1.515625 18.167969 2.355469 18.167969 C 3.113281 18.167969 3.921875 17.789062 4.234375 17.289062 C 4.351562 17.097656 4.382812 16.957031 4.382812 16.625 C 4.382812 16.265625 4.355469 16.171875 4.203125 15.972656 C 3.820312 15.46875 3.25 15.398438 2.496094 15.773438 Z M 3.609375 16.0625 C 3.695312 16.105469 3.8125 16.234375 3.871094 16.351562 C 4.164062 16.96875 3.453125 17.628906 2.417969 17.707031 C 2.027344 17.730469 1.984375 17.726562 1.828125 17.570312 C 1.734375 17.476562 1.664062 17.335938 1.664062 17.226562 C 1.664062 16.863281 2.796875 15.992188 3.269531 15.992188 C 3.371094 15.992188 3.519531 16.023438 3.609375 16.0625 Z M 3.609375 16.0625 "/>
<path style=" stroke:none;fill-rule:nonzero;fill:#bf5300;fill-opacity:1;" d="M 16.949219 17.832031 C 16.3125 18.152344 16.394531 19.125 17.136719 19.96875 C 18.007812 20.957031 19.28125 20.738281 19.265625 19.597656 C 19.261719 19.152344 19.035156 18.722656 18.554688 18.28125 C 17.988281 17.757812 17.425781 17.597656 16.949219 17.832031 Z M 17.847656 18.328125 C 18.359375 18.59375 18.804688 19.203125 18.804688 19.632812 C 18.804688 19.867188 18.5625 20.148438 18.363281 20.148438 C 17.859375 20.148438 17.109375 19.363281 16.976562 18.691406 C 16.945312 18.53125 16.96875 18.460938 17.105469 18.328125 C 17.246094 18.183594 17.308594 18.167969 17.480469 18.199219 C 17.597656 18.222656 17.757812 18.28125 17.847656 18.328125 Z M 17.847656 18.328125 "/>
<path style=" stroke:none;fill-rule:nonzero;fill:#bf5300;fill-opacity:1;" d="M 7.035156 19.773438 C 6.691406 19.925781 5.671875 20.902344 5.488281 21.261719 C 5.320312 21.589844 5.316406 22.121094 5.476562 22.394531 C 5.730469 22.824219 6.289062 22.949219 6.773438 22.695312 C 7.253906 22.433594 8.320312 21.484375 8.449219 21.203125 C 8.917969 20.179688 8.058594 19.3125 7.035156 19.773438 Z M 8.015625 20.285156 C 8.265625 20.589844 8.097656 21.019531 7.542969 21.5 C 6.703125 22.222656 6.539062 22.335938 6.308594 22.34375 C 5.867188 22.355469 5.6875 21.945312 5.921875 21.460938 C 6.0625 21.167969 6.902344 20.367188 7.234375 20.214844 C 7.566406 20.058594 7.847656 20.085938 8.015625 20.285156 Z M 8.015625 20.285156 "/>
<path style=" stroke:none;fill-rule:nonzero;fill:#bf5300;fill-opacity:1;" d="M 12.453125 20.246094 C 12.320312 20.289062 12.183594 20.347656 12.167969 20.375 C 12.140625 20.398438 12.121094 20.691406 12.121094 21.03125 C 12.128906 21.5 12.160156 21.753906 12.269531 22.074219 C 12.472656 22.664062 12.78125 23.148438 13.09375 23.367188 C 13.3125 23.527344 13.421875 23.558594 13.726562 23.550781 C 14.699219 23.546875 15 22.527344 14.398438 21.257812 C 13.957031 20.335938 13.242188 19.957031 12.453125 20.246094 Z M 13.367188 20.738281 C 13.597656 20.859375 13.695312 20.96875 13.886719 21.328125 C 14.304688 22.09375 14.355469 22.84375 14.007812 23.027344 C 13.472656 23.316406 12.863281 22.667969 12.625 21.570312 C 12.5 20.9375 12.503906 20.730469 12.683594 20.660156 C 12.914062 20.570312 13.066406 20.589844 13.367188 20.738281 Z M 13.367188 20.738281 "/>
</g>
</svg>