<svg xmlns="http://www.w3.org/2000/svg" xmlns:xlink="http://www.w3.org/1999/xlink" width="px" height="24px" viewBox="0 0 24 24" version="1.1">
<g id="surface1">
<path style=" stroke:none;fill-rule:nonzero;fill:#bf5300;fill-opacity:1;" d="M 7.167969 8.320312 C 7.160156 8.328125 7.027344 8.347656 6.875 8.359375 C 6.4375 8.402344 6.300781 8.425781 5.890625 8.53125 C 3.910156 9.050781 2.273438 10.375 1.382812 12.175781 C 0.921875 13.117188 0.730469 13.902344 0.699219 14.988281 L 0.679688 15.734375 L 23.355469 15.734375 L 23.328125 14.964844 C 23.296875 13.898438 23.136719 13.230469 22.6875 12.277344 C 21.761719 10.308594 19.957031 8.90625 17.765625 8.441406 C 17.039062 8.292969 15.898438 8.292969 15.195312 8.441406 C 15.125 8.460938 15.015625 8.480469 14.957031 8.488281 C 14.894531 8.5 14.679688 8.558594 14.476562 8.621094 C 13.738281 8.835938 12.957031 9.234375 12.316406 9.714844 L 12.011719 9.9375 L 11.636719 9.65625 C 11.015625 9.195312 9.714844 8.601562 9.078125 8.488281 C 9.015625 8.480469 8.921875 8.460938 8.863281 8.445312 C 8.746094 8.421875 8.605469 8.398438 8.300781 8.359375 C 8.0625 8.335938 7.1875 8.304688 7.167969 8.320312 Z M 8.496094 8.667969 C 8.734375 8.707031 9.023438 8.757812 9.125 8.792969 L 9.316406 8.847656 L 8.984375 9.011719 C 8.660156 9.175781 8.640625 9.179688 8.421875 9.132812 C 8.214844 9.089844 6.890625 9.089844 6.679688 9.132812 C 6.632812 9.144531 6.535156 9.164062 6.460938 9.175781 C 6.394531 9.195312 6.285156 9.214844 6.226562 9.226562 C 5.628906 9.324219 4.492188 9.851562 3.886719 10.308594 C 3.195312 10.824219 2.445312 11.714844 2.074219 12.445312 C 1.765625 13.066406 1.523438 13.921875 1.449219 14.660156 L 1.417969 14.949219 L 5.863281 14.976562 C 9.90625 15.007812 22.554688 14.976562 22.597656 14.941406 C 22.632812 14.902344 22.507812 14.050781 22.410156 13.664062 C 21.980469 12.015625 20.808594 10.554688 19.289062 9.777344 C 18.921875 9.589844 18.097656 9.273438 17.855469 9.234375 C 17.765625 9.214844 17.46875 9.15625 17.355469 9.132812 C 17.160156 9.089844 15.824219 9.089844 15.605469 9.128906 C 15.375 9.171875 15.355469 9.167969 15.042969 9.011719 C 14.820312 8.902344 14.746094 8.84375 14.789062 8.820312 C 14.988281 8.710938 15.753906 8.625 16.492188 8.625 C 17.59375 8.628906 18.351562 8.796875 19.304688 9.25 C 20.390625 9.769531 21.4375 10.710938 22.078125 11.734375 C 22.667969 12.679688 23.035156 13.90625 23.054688 14.992188 L 23.0625 15.453125 L 0.972656 15.453125 L 0.980469 14.957031 C 1.003906 14.042969 1.230469 13.136719 1.671875 12.253906 C 2.675781 10.253906 4.566406 8.925781 6.851562 8.632812 C 7.183594 8.589844 8.09375 8.605469 8.496094 8.667969 Z M 10.484375 9.289062 C 11.152344 9.617188 11.675781 9.996094 12.191406 10.507812 C 13.160156 11.484375 13.855469 12.808594 14.066406 14.089844 C 14.164062 14.675781 14.171875 14.652344 13.933594 14.652344 L 13.726562 14.652344 L 13.652344 14.199219 C 13.507812 13.328125 13.125 12.402344 12.601562 11.671875 C 12.378906 11.367188 12.046875 10.980469 12.007812 10.980469 C 11.933594 10.980469 11.273438 11.886719 11.035156 12.320312 C 10.738281 12.859375 10.433594 13.808594 10.351562 14.460938 L 10.328125 14.675781 L 10.097656 14.664062 L 9.875 14.644531 L 9.90625 14.363281 C 10.046875 13.21875 10.609375 11.914062 11.355469 11.015625 C 11.589844 10.730469 11.59375 10.550781 11.378906 10.378906 C 11.019531 10.097656 10.265625 9.65625 9.921875 9.527344 C 9.785156 9.480469 9.6875 9.503906 9.285156 9.703125 C 8.804688 9.945312 8.617188 10.066406 8.191406 10.394531 C 7.378906 11.027344 6.683594 11.964844 6.292969 12.960938 C 6.136719 13.347656 5.921875 14.179688 5.921875 14.394531 C 5.917969 14.652344 5.882812 14.699219 5.660156 14.699219 L 5.445312 14.699219 L 5.445312 14.519531 C 5.445312 14.261719 5.605469 13.523438 5.757812 13.078125 C 5.921875 12.582031 6.25 11.925781 6.554688 11.46875 C 6.855469 11.015625 7.558594 10.273438 8.027344 9.925781 C 8.683594 9.433594 9.597656 8.96875 9.835938 9.011719 C 9.90625 9.027344 10.199219 9.152344 10.484375 9.289062 Z M 14.671875 9.144531 C 16.050781 9.742188 17.257812 10.898438 17.933594 12.265625 C 18.277344 12.945312 18.515625 13.742188 18.570312 14.382812 L 18.601562 14.699219 L 18.160156 14.699219 L 18.132812 14.53125 C 17.996094 13.636719 17.824219 13.078125 17.5 12.4375 C 16.898438 11.265625 15.957031 10.3125 14.828125 9.746094 C 14.410156 9.535156 14.21875 9.472656 14.136719 9.511719 C 14.101562 9.527344 13.9375 9.609375 13.769531 9.6875 C 13.605469 9.769531 13.261719 9.972656 13.007812 10.140625 L 12.542969 10.453125 L 12.410156 10.3125 C 12.335938 10.234375 12.277344 10.152344 12.277344 10.132812 C 12.277344 9.96875 13.976562 8.996094 14.265625 8.992188 C 14.300781 8.992188 14.480469 9.058594 14.671875 9.144531 Z M 8.082031 9.371094 L 8.277344 9.402344 L 7.992188 9.601562 C 6.445312 10.707031 5.355469 12.558594 5.164062 14.402344 L 5.136719 14.699219 L 1.726562 14.699219 L 1.75 14.488281 C 2.015625 12.535156 3.210938 10.851562 4.957031 9.972656 C 5.882812 9.503906 7.234375 9.246094 8.082031 9.371094 Z M 17.582031 9.460938 C 18.761719 9.703125 19.753906 10.242188 20.601562 11.089844 C 21.285156 11.773438 21.746094 12.535156 22.039062 13.445312 C 22.152344 13.808594 22.191406 13.980469 22.289062 14.554688 L 22.308594 14.699219 L 18.902344 14.699219 L 18.875 14.425781 C 18.664062 12.5625 17.648438 10.8125 16.105469 9.65625 L 15.761719 9.402344 L 15.933594 9.371094 C 16.230469 9.320312 17.121094 9.371094 17.582031 9.460938 Z M 10.226562 10.007812 C 10.605469 10.207031 11.238281 10.621094 11.238281 10.671875 C 11.238281 10.6875 11.09375 10.894531 10.917969 11.125 C 10.527344 11.644531 10.132812 12.402344 9.929688 13.011719 C 9.773438 13.46875 9.597656 14.285156 9.597656 14.527344 L 9.597656 14.652344 L 7.890625 14.652344 C 6.355469 14.652344 6.179688 14.644531 6.179688 14.585938 C 6.179688 14.546875 6.21875 14.324219 6.269531 14.097656 C 6.582031 12.535156 7.460938 11.203125 8.746094 10.335938 C 9.074219 10.109375 9.652344 9.8125 9.757812 9.8125 C 9.808594 9.8125 10.019531 9.898438 10.226562 10.007812 Z M 14.625 9.945312 C 15.105469 10.1875 15.609375 10.554688 16.058594 10.988281 C 16.753906 11.652344 17.230469 12.390625 17.546875 13.285156 C 17.667969 13.628906 17.851562 14.417969 17.851562 14.585938 C 17.851562 14.644531 17.679688 14.652344 16.171875 14.652344 C 14.601562 14.652344 14.484375 14.648438 14.464844 14.578125 C 14.457031 14.539062 14.433594 14.386719 14.417969 14.242188 C 14.367188 13.828125 14.160156 13.0625 13.96875 12.601562 C 13.738281 12.054688 13.46875 11.585938 13.09375 11.078125 C 12.929688 10.863281 12.796875 10.671875 12.796875 10.660156 C 12.796875 10.558594 14.074219 9.816406 14.257812 9.8125 C 14.308594 9.8125 14.476562 9.875 14.625 9.945312 Z M 12.269531 11.753906 C 12.839844 12.519531 13.179688 13.371094 13.375 14.511719 L 13.394531 14.648438 L 12.015625 14.664062 L 10.632812 14.675781 L 10.632812 14.582031 C 10.632812 14.433594 10.75 13.863281 10.851562 13.523438 C 10.960938 13.140625 11.238281 12.53125 11.472656 12.148438 C 11.621094 11.902344 11.972656 11.410156 12.003906 11.410156 C 12.011719 11.410156 12.128906 11.5625 12.269531 11.753906 Z M 12.269531 11.753906 "/>
</g>
</svg>