<svg xmlns="http://www.w3.org/2000/svg" xmlns:xlink="http://www.w3.org/1999/xlink" width="px" height="24px" viewBox="0 0 24 23" version="1.1">
<g id="surface1">
<path style=" stroke:none;fill-rule:nonzero;fill:#bf5300;fill-opacity:1;" d="M 11.25 1.746094 C 11.015625 1.769531 10.816406 1.839844 10.554688 1.976562 C 9.625 2.480469 9.65625 2.46875 9.042969 2.304688 C 8.480469 2.152344 8.027344 2.191406 7.511719 2.433594 C 7.085938 2.632812 6.925781 2.78125 6.421875 3.417969 C 6.230469 3.671875 5.988281 3.917969 5.894531 3.96875 C 5.777344 4.035156 5.554688 4.082031 5.222656 4.101562 C 4.664062 4.144531 4.34375 4.277344 3.902344 4.65625 C 3.378906 5.109375 2.816406 5.976562 2.753906 6.441406 C 2.691406 6.855469 2.605469 6.996094 2.191406 7.347656 C 1.476562 7.957031 1.121094 8.53125 0.851562 9.523438 C 0.699219 10.058594 0.683594 11.097656 0.816406 11.613281 C 1.1875 13.050781 1.867188 13.988281 4.40625 16.558594 L 5.257812 17.417969 L 5.21875 17.722656 C 5.203125 17.886719 5.089844 18.375 4.972656 18.804688 C 4.570312 20.289062 4.621094 20.644531 5.289062 20.972656 C 5.714844 21.175781 6.117188 21.21875 7.648438 21.207031 C 8.429688 21.203125 9.171875 21.214844 9.300781 21.234375 C 9.453125 21.257812 9.691406 21.371094 10.042969 21.59375 C 10.742188 22.050781 11.101562 22.148438 11.886719 22.117188 C 12.625 22.085938 13.222656 21.90625 13.742188 21.566406 C 14.316406 21.191406 14.265625 21.203125 15.925781 21.207031 C 17.140625 21.214844 17.476562 21.199219 17.796875 21.125 C 18.304688 21.011719 18.640625 20.792969 18.816406 20.464844 C 19.019531 20.082031 18.996094 19.699219 18.722656 18.878906 C 18.589844 18.476562 18.503906 18.121094 18.503906 17.96875 C 18.503906 17.671875 18.4375 17.753906 19.792969 16.351562 C 21.089844 15 21.203125 14.878906 21.566406 14.347656 C 22.359375 13.195312 22.695312 12.246094 22.695312 11.167969 C 22.691406 10.417969 22.597656 10.011719 22.277344 9.371094 C 21.988281 8.800781 21.75 8.472656 21.453125 8.269531 C 21.148438 8.054688 21.070312 7.875 21.011719 7.296875 C 20.953125 6.667969 20.925781 6.546875 20.777344 6.261719 C 20.453125 5.652344 19.898438 5.277344 18.859375 4.976562 C 18.257812 4.800781 18.058594 4.675781 17.996094 4.425781 C 17.980469 4.347656 17.886719 4.144531 17.796875 3.964844 C 17.667969 3.703125 17.570312 3.59375 17.308594 3.402344 C 16.878906 3.101562 16.394531 2.871094 15.828125 2.695312 C 15.347656 2.550781 14.941406 2.519531 14.421875 2.59375 L 14.117188 2.632812 L 13.78125 2.320312 C 13.390625 1.964844 13.042969 1.832031 12.25 1.746094 C 11.753906 1.6875 11.738281 1.6875 11.25 1.746094 Z M 12.402344 2.363281 C 12.828125 2.429688 13.085938 2.558594 13.328125 2.8125 C 13.671875 3.183594 13.714844 3.410156 13.710938 4.75 C 13.707031 5.394531 13.671875 6.289062 13.640625 6.726562 C 13.488281 8.753906 13.222656 11.363281 12.910156 14.066406 C 12.722656 15.6875 12.566406 17.082031 12.566406 17.15625 C 12.566406 17.292969 12.578125 17.296875 12.714844 17.246094 C 12.871094 17.1875 13.085938 17.019531 13.15625 16.886719 C 13.261719 16.699219 13.605469 14.40625 13.769531 12.785156 C 13.898438 11.484375 14 10.140625 14.171875 7.339844 C 14.390625 3.738281 14.386719 3.804688 14.492188 3.558594 C 14.632812 3.253906 14.835938 3.164062 15.304688 3.191406 C 15.769531 3.230469 16.34375 3.484375 16.765625 3.859375 C 17.105469 4.160156 17.292969 4.4375 17.378906 4.785156 C 17.511719 5.289062 17.246094 6.496094 16.328125 9.574219 C 15.550781 12.175781 15.449219 12.507812 14.535156 15.140625 C 13.816406 17.195312 13.78125 17.320312 13.855469 17.449219 C 13.945312 17.605469 14.183594 17.65625 14.316406 17.546875 C 14.46875 17.429688 14.679688 16.902344 15.320312 15.066406 C 16.351562 12.101562 16.664062 11.039062 17.40625 7.957031 C 17.699219 6.757812 17.894531 6.046875 18.015625 5.734375 C 18.101562 5.515625 18.390625 5.417969 18.722656 5.492188 C 19.300781 5.625 20.054688 6.273438 20.265625 6.816406 C 20.367188 7.0625 20.378906 7.1875 20.359375 7.597656 C 20.34375 8.019531 20.304688 8.164062 20.105469 8.644531 C 19.539062 10.03125 17.507812 13.570312 16.042969 15.710938 C 15.25 16.871094 14.757812 17.703125 14.757812 17.875 C 14.757812 18.011719 14.894531 18.046875 15.085938 17.96875 C 15.335938 17.867188 15.734375 17.402344 16.445312 16.378906 C 17.53125 14.804688 18.140625 13.765625 19.835938 10.566406 C 20.367188 9.554688 20.835938 8.71875 20.859375 8.695312 C 21.011719 8.609375 21.648438 9.453125 21.867188 10.027344 C 21.984375 10.351562 22.003906 10.472656 22.003906 11.039062 C 22.003906 11.550781 21.980469 11.761719 21.882812 12.089844 C 21.621094 12.964844 20.988281 14.03125 20.105469 15.09375 C 19.089844 16.316406 16.160156 18.953125 14.277344 20.339844 C 12.792969 21.433594 12.085938 21.679688 11.191406 21.414062 C 10.511719 21.21875 10.21875 21.003906 8.878906 19.738281 C 8.1875 19.089844 7.332031 18.300781 6.980469 17.996094 C 4.511719 15.832031 3.308594 14.601562 2.394531 13.296875 C 1.640625 12.222656 1.476562 11.726562 1.46875 10.523438 C 1.46875 9.796875 1.488281 9.621094 1.59375 9.277344 C 1.75 8.75 1.972656 8.335938 2.242188 8.074219 C 2.4375 7.875 2.871094 7.613281 2.917969 7.664062 C 2.929688 7.675781 3.164062 8.1875 3.445312 8.808594 C 4.285156 10.695312 4.917969 11.988281 5.695312 13.398438 C 6.796875 15.40625 8.332031 17.867188 8.578125 18.03125 C 8.695312 18.105469 8.878906 18.066406 8.960938 17.941406 C 9.03125 17.839844 9.039062 17.789062 8.984375 17.625 C 8.871094 17.285156 8.378906 16.433594 7.667969 15.351562 C 6.003906 12.804688 3.605469 8.082031 3.433594 7.007812 C 3.335938 6.433594 3.550781 5.894531 4.085938 5.34375 C 4.710938 4.714844 5.289062 4.574219 5.683594 4.96875 C 6.011719 5.292969 6.277344 6.144531 6.824219 8.574219 C 7.421875 11.234375 8.183594 13.605469 9.316406 16.367188 L 9.738281 17.402344 L 10.332031 17.402344 L 10.292969 17.195312 C 10.246094 16.917969 9.886719 15.910156 9.421875 14.730469 C 8.664062 12.804688 7.59375 9.230469 6.765625 5.832031 C 6.417969 4.410156 6.417969 4.328125 6.816406 3.808594 C 7.511719 2.902344 8.808594 2.550781 9.433594 3.101562 L 9.613281 3.261719 L 10.375 10.449219 C 10.792969 14.402344 11.144531 17.644531 11.15625 17.65625 C 11.203125 17.707031 11.453125 17.523438 11.5625 17.363281 L 11.671875 17.183594 L 11.449219 15.433594 C 11.15625 13.136719 11.054688 12.230469 10.835938 9.855469 C 10.570312 7.121094 10.363281 4.410156 10.359375 3.640625 C 10.347656 3.007812 10.347656 2.992188 10.496094 2.808594 C 10.582031 2.699219 10.710938 2.578125 10.785156 2.53125 C 11.105469 2.324219 11.742188 2.265625 12.402344 2.363281 Z M 6.648438 18.667969 C 7.320312 19.207031 8.511719 20.308594 8.613281 20.488281 C 8.664062 20.582031 8.621094 20.585938 7.378906 20.585938 C 5.984375 20.585938 5.84375 20.566406 5.550781 20.292969 C 5.359375 20.121094 5.363281 20.039062 5.5625 19.132812 C 5.75 18.316406 5.8125 18.121094 5.902344 18.121094 C 5.941406 18.121094 6.273438 18.371094 6.648438 18.667969 Z M 17.878906 18.6875 C 18.042969 18.871094 18.234375 19.351562 18.273438 19.667969 C 18.308594 19.964844 18.15625 20.261719 17.859375 20.457031 L 17.664062 20.585938 L 16.4375 20.578125 L 15.214844 20.5625 L 15.722656 20.074219 C 16.222656 19.589844 17.160156 18.796875 17.429688 18.625 C 17.625 18.496094 17.726562 18.511719 17.878906 18.6875 Z M 17.878906 18.6875 "/>
</g>
</svg>