<svg xmlns="http://www.w3.org/2000/svg" xmlns:xlink="http://www.w3.org/1999/xlink" width="px" height="24px" viewBox="0 0 24 24" version="1.1">
<g id="surface1">
<path style=" stroke:none;fill-rule:nonzero;fill:#bf5300;fill-opacity:1;" d="M 8.761719 1.429688 C 6.0625 1.988281 4.160156 3.6875 4.253906 5.46875 C 4.273438 5.882812 4.292969 5.9375 4.476562 6.132812 C 4.714844 6.375 5.027344 6.488281 5.480469 6.488281 L 5.800781 6.488281 L 5.800781 6.921875 C 5.800781 7.277344 5.824219 7.382812 5.925781 7.484375 C 6.101562 7.660156 6.53125 7.671875 6.917969 7.507812 C 7.199219 7.390625 7.234375 7.398438 7.234375 7.558594 C 7.234375 7.800781 7.359375 8.171875 7.492188 8.300781 C 7.570312 8.382812 7.695312 8.421875 7.882812 8.421875 C 8.226562 8.421875 8.46875 8.265625 9.175781 7.570312 C 9.566406 7.191406 9.753906 7.046875 9.875 7.046875 C 10.117188 7.046875 10.382812 7.367188 10.535156 7.808594 C 10.648438 8.15625 10.789062 8.832031 10.789062 9.007812 C 10.789062 9.050781 10.472656 9.074219 9.84375 9.074219 C 9.019531 9.074219 8.824219 9.09375 8.421875 9.21875 C 7.210938 9.597656 6.324219 10.367188 5.226562 12 C 3.886719 14.003906 3.238281 16.183594 3.742188 17.015625 C 3.8125 17.121094 3.9375 17.226562 4.023438 17.25 C 4.230469 17.300781 4.632812 17.144531 5.027344 16.871094 L 5.328125 16.660156 L 5.53125 16.964844 C 5.644531 17.132812 5.800781 17.308594 5.875 17.34375 C 6.085938 17.464844 6.574219 17.382812 6.828125 17.183594 L 7.058594 17.015625 L 7.261719 17.234375 C 7.554688 17.550781 7.789062 17.582031 8.3125 17.371094 C 8.40625 17.332031 8.421875 17.363281 8.421875 17.675781 C 8.421875 18.792969 7.617188 20.855469 6.765625 21.910156 C 6.511719 22.230469 6.425781 22.382812 6.425781 22.539062 C 6.425781 22.808594 6.523438 22.890625 6.859375 22.890625 C 7.253906 22.890625 7.640625 22.628906 8.082031 22.058594 C 8.550781 21.460938 8.894531 20.863281 9.210938 20.070312 C 9.921875 18.324219 9.996094 16.925781 9.40625 16.296875 C 9.199219 16.074219 8.789062 15.949219 8.390625 15.980469 C 8.046875 16.011719 8.046875 16.011719 7.820312 15.734375 C 7.632812 15.503906 7.566406 15.46875 7.367188 15.46875 C 7.179688 15.46875 7.046875 15.53125 6.761719 15.753906 C 6.429688 16.003906 6.386719 16.023438 6.332031 15.929688 C 6.175781 15.667969 5.90625 15.410156 5.738281 15.375 C 5.621094 15.347656 5.457031 15.378906 5.265625 15.460938 C 4.914062 15.617188 4.925781 15.617188 4.925781 15.480469 C 4.925781 15.0625 5.625 13.585938 6.285156 12.59375 C 7.402344 10.925781 8.738281 10.109375 9.980469 10.339844 C 11.019531 10.535156 11.605469 10.996094 12.101562 12 C 12.566406 12.949219 12.792969 13.847656 13.382812 17.089844 C 13.808594 19.410156 14.035156 20.152344 14.667969 21.269531 C 15.363281 22.484375 15.449219 22.578125 15.890625 22.578125 C 16.214844 22.578125 16.472656 22.441406 16.621094 22.191406 C 16.851562 21.796875 16.628906 21.210938 15.835938 20.144531 C 14.960938 18.960938 14.6875 18.074219 14.3125 15.25 C 13.925781 12.292969 13.445312 11.082031 12.230469 9.972656 L 11.800781 9.574219 L 11.855469 9.230469 C 11.960938 8.601562 11.792969 7.660156 11.464844 7.035156 C 11.039062 6.238281 10.601562 5.925781 9.917969 5.925781 C 9.394531 5.925781 9.105469 6.070312 8.613281 6.585938 L 8.214844 6.996094 L 8.121094 6.804688 C 7.925781 6.394531 7.660156 6.261719 7.105469 6.292969 C 6.90625 6.304688 6.875 6.285156 6.835938 6.144531 C 6.730469 5.738281 6.101562 5.300781 5.601562 5.300781 C 5.382812 5.300781 5.375 5.207031 5.589844 4.757812 C 6.007812 3.886719 7.402344 2.917969 8.757812 2.5625 C 9.449219 2.382812 9.542969 2.40625 8.949219 2.613281 C 8.328125 2.832031 7.703125 3.144531 7.507812 3.335938 C 7.347656 3.5 7.304688 3.847656 7.433594 3.980469 C 7.476562 4.023438 7.609375 4.054688 7.726562 4.054688 L 7.941406 4.054688 L 7.695312 4.234375 C 7.296875 4.523438 7.109375 4.777344 7.109375 5.046875 C 7.109375 5.296875 7.253906 5.488281 7.445312 5.488281 C 7.597656 5.488281 7.738281 5.402344 8.308594 4.984375 C 8.84375 4.589844 9.199219 4.445312 9.855469 4.390625 C 10.597656 4.320312 11.402344 4.621094 12 5.195312 C 12.199219 5.382812 12.25 5.449219 12.132812 5.375 C 11.425781 4.914062 10.632812 4.679688 9.804688 4.679688 C 8.9375 4.679688 8.605469 4.871094 8.605469 5.375 L 8.605469 5.613281 L 9.09375 5.613281 C 10.023438 5.613281 10.734375 5.808594 11.25 6.207031 C 11.78125 6.605469 12.1875 7.617188 12.164062 8.449219 C 12.15625 8.726562 12.148438 9.054688 12.144531 9.1875 C 12.136719 9.519531 12.367188 9.75 12.71875 9.75 C 13.167969 9.75 13.410156 9.394531 13.410156 8.730469 C 13.410156 7.894531 12.996094 6.511719 12.519531 5.769531 C 12.410156 5.601562 12.425781 5.605469 12.585938 5.800781 C 12.875 6.132812 13.308594 6.886719 13.558594 7.496094 C 13.996094 8.550781 14.21875 9.785156 14.53125 12.785156 C 14.84375 15.847656 15.070312 17.132812 15.535156 18.554688 C 15.980469 19.882812 16.871094 21.5 17.339844 21.816406 C 17.769531 22.105469 18.332031 21.890625 18.335938 21.4375 C 18.335938 21.210938 18.210938 20.976562 17.777344 20.363281 C 17.3125 19.714844 17.15625 19.433594 16.851562 18.710938 C 16.382812 17.613281 16.035156 16.277344 15.847656 14.882812 C 15.8125 14.613281 15.691406 13.535156 15.59375 12.480469 C 15.367188 10.222656 15.210938 9.132812 14.96875 8.203125 C 14.289062 5.59375 12.953125 3.910156 11.195312 3.460938 C 10.996094 3.410156 10.738281 3.367188 10.632812 3.363281 C 10.445312 3.363281 10.445312 3.363281 10.601562 3.300781 C 10.902344 3.179688 11.039062 2.992188 11.039062 2.707031 L 11.039062 2.445312 L 11.277344 2.507812 C 11.945312 2.6875 12.78125 3.238281 13.402344 3.898438 C 14.8125 5.40625 15.554688 7.410156 16.714844 12.785156 C 17.539062 16.617188 18.070312 18.355469 18.898438 20.027344 C 19.265625 20.777344 19.902344 21.753906 20.234375 22.089844 C 20.445312 22.308594 20.496094 22.328125 20.792969 22.328125 C 21.167969 22.328125 21.394531 22.199219 21.554688 21.878906 C 21.710938 21.585938 21.625 21.363281 21.070312 20.613281 C 19.941406 19.078125 19.253906 17.144531 18.210938 12.535156 C 17.382812 8.863281 16.820312 7.046875 16.015625 5.457031 C 14.960938 3.355469 13.523438 1.964844 11.914062 1.492188 C 11.238281 1.296875 9.566406 1.261719 8.761719 1.429688 Z M 11.007812 1.566406 C 11.789062 1.660156 12.472656 1.910156 13.136719 2.332031 C 14.21875 3.042969 15.117188 4.148438 15.875 5.707031 C 16.679688 7.359375 17.15625 8.949219 18.117188 13.160156 C 18.742188 15.90625 19.203125 17.476562 19.753906 18.773438 C 20.113281 19.621094 20.320312 19.976562 20.875 20.726562 C 21.125 21.0625 21.347656 21.410156 21.367188 21.492188 C 21.425781 21.710938 21.3125 21.929688 21.082031 22.046875 C 20.675781 22.253906 20.371094 22.027344 19.738281 21.0625 C 18.667969 19.410156 17.960938 17.351562 17.089844 13.359375 C 16.121094 8.960938 15.671875 7.359375 15 5.945312 C 14.5 4.894531 14.046875 4.234375 13.320312 3.523438 C 12.785156 2.992188 12.605469 2.851562 12.101562 2.601562 C 11.121094 2.109375 10.265625 2.007812 9.101562 2.246094 C 7.527344 2.5625 6.15625 3.417969 5.476562 4.492188 C 5.3125 4.746094 5.265625 4.890625 5.152344 5.375 L 5.113281 5.550781 L 5.476562 5.550781 C 6.074219 5.550781 6.671875 5.960938 6.671875 6.386719 C 6.671875 6.640625 6.75 6.671875 7.058594 6.5625 C 7.335938 6.46875 7.367188 6.46875 7.570312 6.566406 C 7.777344 6.660156 7.894531 6.835938 8.007812 7.183594 C 8.070312 7.390625 8.246094 7.304688 8.699219 6.835938 C 9.21875 6.304688 9.425781 6.179688 9.84375 6.136719 C 10.496094 6.054688 11.152344 6.671875 11.480469 7.671875 C 11.605469 8.0625 11.632812 8.25 11.621094 8.792969 C 11.613281 9.15625 11.601562 9.511719 11.589844 9.585938 C 11.574219 9.6875 11.664062 9.792969 11.945312 10.023438 C 12.425781 10.410156 12.847656 10.941406 13.152344 11.53125 C 13.609375 12.410156 13.832031 13.351562 14.125 15.574219 C 14.464844 18.148438 14.75 19.042969 15.625 20.234375 C 16.171875 20.992188 16.464844 21.53125 16.464844 21.804688 C 16.464844 22.191406 16.066406 22.472656 15.703125 22.335938 C 15.378906 22.210938 14.40625 20.414062 14.125 19.429688 C 14.035156 19.117188 13.878906 18.417969 13.769531 17.867188 C 13.191406 14.84375 12.898438 13.441406 12.730469 12.9375 C 12.125 11.082031 11.363281 10.308594 9.941406 10.109375 C 8.414062 9.890625 7.027344 10.859375 5.730469 13.042969 C 5.027344 14.226562 4.679688 15.136719 4.679688 15.796875 L 4.679688 16.179688 L 4.851562 16.015625 C 5.089844 15.792969 5.433594 15.59375 5.589844 15.59375 C 5.789062 15.59375 6.023438 15.8125 6.136719 16.089844 C 6.191406 16.230469 6.25 16.339844 6.273438 16.339844 C 6.347656 16.339844 6.585938 16.191406 6.828125 15.992188 C 7.308594 15.605469 7.492188 15.605469 7.734375 15.996094 C 7.863281 16.214844 7.871094 16.214844 8.3125 16.203125 C 9.625 16.179688 9.921875 17.226562 9.222656 19.351562 C 8.6875 21 7.664062 22.496094 6.964844 22.671875 C 6.804688 22.714844 6.609375 22.628906 6.609375 22.515625 C 6.609375 22.484375 6.734375 22.308594 6.890625 22.117188 C 7.859375 20.929688 8.570312 19.128906 8.652344 17.664062 C 8.667969 17.28125 8.675781 16.964844 8.65625 16.964844 C 8.636719 16.964844 8.464844 17.035156 8.269531 17.121094 C 7.726562 17.359375 7.546875 17.320312 7.335938 16.914062 C 7.277344 16.808594 7.191406 16.714844 7.140625 16.714844 C 7.089844 16.714844 6.921875 16.816406 6.761719 16.933594 C 6.605469 17.050781 6.410156 17.171875 6.332031 17.1875 C 6.113281 17.246094 5.832031 17.046875 5.644531 16.707031 C 5.558594 16.539062 5.457031 16.390625 5.433594 16.378906 C 5.40625 16.359375 5.152344 16.496094 4.863281 16.683594 C 4.171875 17.144531 3.929688 17.125 3.828125 16.609375 C 3.574219 15.238281 4.945312 12.3125 6.636719 10.632812 C 7.285156 9.992188 7.683594 9.730469 8.402344 9.46875 C 8.824219 9.316406 10.105469 9.25 10.683594 9.34375 L 11.050781 9.398438 L 11.007812 8.957031 C 10.910156 7.953125 10.597656 7.152344 10.210938 6.917969 C 9.835938 6.691406 9.722656 6.742188 9.023438 7.410156 C 8.34375 8.046875 7.925781 8.308594 7.746094 8.1875 C 7.578125 8.089844 7.484375 7.847656 7.484375 7.503906 C 7.484375 7.328125 7.453125 7.160156 7.421875 7.140625 C 7.382812 7.117188 7.148438 7.171875 6.890625 7.261719 C 6.304688 7.460938 6.207031 7.460938 6.070312 7.261719 C 5.976562 7.109375 5.96875 7.058594 6.054688 6.648438 L 6.144531 6.207031 L 5.613281 6.222656 C 4.964844 6.242188 4.703125 6.136719 4.527344 5.777344 C 4.421875 5.558594 4.414062 5.496094 4.492188 5.101562 C 4.527344 4.863281 4.664062 4.472656 4.785156 4.234375 C 5.457031 2.882812 7.335938 1.808594 9.457031 1.566406 C 10.089844 1.492188 10.382812 1.492188 11.007812 1.566406 Z M 10.789062 2.621094 C 10.878906 2.78125 10.777344 2.980469 10.566406 3.054688 C 10.476562 3.09375 10.121094 3.136719 9.773438 3.15625 C 9.007812 3.199219 8.824219 3.25 8.28125 3.5625 C 7.796875 3.847656 7.515625 3.886719 7.578125 3.660156 C 7.632812 3.488281 7.738281 3.40625 8.171875 3.179688 C 8.832031 2.851562 9.980469 2.511719 10.492188 2.5 C 10.664062 2.496094 10.738281 2.527344 10.789062 2.621094 Z M 11.238281 3.71875 C 13.171875 4.285156 14.496094 6.367188 15.03125 9.667969 C 15.101562 10.097656 15.253906 11.425781 15.375 12.628906 C 15.667969 15.578125 15.875 16.707031 16.347656 18.0625 C 16.621094 18.847656 17.15625 19.941406 17.457031 20.320312 C 18.050781 21.070312 18.210938 21.460938 17.992188 21.640625 C 17.855469 21.753906 17.625 21.734375 17.445312 21.605469 C 17.035156 21.304688 16.167969 19.703125 15.773438 18.523438 C 15.300781 17.101562 15.082031 15.867188 14.78125 12.941406 C 14.402344 9.191406 14.15625 8.070312 13.460938 6.722656 C 12.386719 4.671875 10.796875 3.785156 9.070312 4.296875 C 8.769531 4.382812 8.488281 4.539062 8.015625 4.902344 C 7.765625 5.089844 7.523438 5.238281 7.464844 5.238281 C 7.304688 5.238281 7.265625 4.996094 7.402344 4.808594 C 7.714844 4.390625 8.925781 3.710938 9.53125 3.617188 C 9.984375 3.550781 10.820312 3.597656 11.238281 3.71875 Z M 10.972656 5.089844 C 11.574219 5.296875 12.007812 5.527344 12.207031 5.769531 C 12.4375 6.039062 12.816406 6.867188 12.972656 7.453125 C 13.140625 8.078125 13.203125 9.070312 13.085938 9.292969 C 12.964844 9.519531 12.710938 9.59375 12.503906 9.457031 C 12.34375 9.347656 12.34375 9.347656 12.386719 8.714844 C 12.429688 7.988281 12.347656 7.535156 12.042969 6.890625 C 11.574219 5.898438 10.769531 5.457031 9.375 5.414062 C 8.9375 5.394531 8.855469 5.375 8.855469 5.289062 C 8.855469 5.144531 9.019531 4.996094 9.21875 4.953125 C 9.3125 4.933594 9.417969 4.902344 9.449219 4.890625 C 9.609375 4.828125 10.546875 4.945312 10.972656 5.089844 Z M 10.972656 5.089844 "/>
<path style=" stroke:none;fill-rule:nonzero;fill:#bf5300;fill-opacity:1;" d="M 8.65625 11.421875 C 8.277344 11.507812 7.664062 11.78125 7.234375 12.070312 C 6.355469 12.636719 5.769531 13.441406 5.695312 14.171875 L 5.65625 14.519531 L 5.957031 14.488281 C 6.230469 14.457031 6.285156 14.414062 6.941406 13.753906 C 7.539062 13.152344 7.714844 13.015625 8.171875 12.792969 C 8.539062 12.617188 8.820312 12.523438 9.082031 12.5 C 9.417969 12.460938 9.503906 12.480469 9.960938 12.679688 C 10.714844 13.011719 10.871094 13.027344 11.101562 12.796875 C 11.332031 12.566406 11.351562 12.261719 11.15625 12.011719 C 10.796875 11.550781 9.449219 11.234375 8.65625 11.421875 Z M 10.011719 11.695312 C 10.820312 11.90625 11.183594 12.210938 11.019531 12.542969 C 10.910156 12.761719 10.726562 12.753906 10.171875 12.511719 C 9.90625 12.394531 9.585938 12.273438 9.46875 12.253906 C 9.191406 12.207031 8.445312 12.363281 8.058594 12.5625 C 7.601562 12.792969 6.875 13.398438 6.519531 13.832031 C 6.292969 14.109375 6.164062 14.21875 6.054688 14.21875 C 5.925781 14.21875 5.914062 14.203125 5.957031 13.988281 C 6.082031 13.304688 6.847656 12.492188 7.859375 11.976562 C 8.574219 11.605469 9.300781 11.511719 10.011719 11.695312 Z M 10.011719 11.695312 "/>
<path style=" stroke:none;fill-rule:nonzero;fill:#bf5300;fill-opacity:1;" d="M 8.625 12.941406 C 8.132812 13.078125 7.578125 13.378906 7.265625 13.679688 C 6.964844 13.964844 6.921875 14.140625 7.058594 14.4375 C 7.167969 14.667969 7.382812 14.636719 8.113281 14.28125 C 8.800781 13.945312 9.082031 13.902344 9.5625 14.046875 C 9.847656 14.132812 10.445312 14.65625 10.628906 14.976562 L 10.746094 15.1875 L 10.503906 14.957031 C 10.023438 14.5 9.113281 14.265625 8.328125 14.394531 C 7.820312 14.476562 7.609375 14.636719 7.609375 14.949219 C 7.609375 15.242188 7.789062 15.332031 8.570312 15.4375 C 9.40625 15.542969 9.648438 15.660156 9.855469 16.066406 C 9.996094 16.347656 10.011719 16.429688 10.003906 17.246094 C 10.003906 17.96875 9.972656 18.242188 9.828125 18.867188 C 9.605469 19.839844 9.40625 20.449219 9.132812 21.0625 C 9.007812 21.332031 8.894531 21.691406 8.875 21.867188 C 8.84375 22.152344 8.855469 22.191406 9.011719 22.316406 C 9.136719 22.414062 9.273438 22.453125 9.488281 22.453125 C 9.78125 22.453125 9.792969 22.445312 9.910156 22.183594 C 10.738281 20.371094 11.183594 18.609375 11.1875 17.15625 C 11.195312 16.339844 11.195312 16.328125 11.277344 16.660156 C 11.40625 17.203125 11.332031 18.15625 11.078125 19.398438 C 10.707031 21.15625 10.714844 21.796875 11.121094 22.398438 C 11.238281 22.578125 11.300781 22.609375 11.542969 22.628906 C 11.78125 22.640625 11.867188 22.617188 12.03125 22.484375 C 12.25 22.296875 12.28125 22.097656 12.132812 21.75 C 11.992188 21.410156 12.019531 20.945312 12.222656 20.144531 C 12.710938 18.253906 12.59375 16.148438 11.914062 14.75 C 11.511719 13.921875 10.878906 13.273438 10.230469 13.027344 C 9.78125 12.859375 9.050781 12.816406 8.625 12.941406 Z M 10.308594 13.335938 C 11.125 13.738281 11.757812 14.644531 12.074219 15.878906 C 12.375 17.050781 12.34375 18.828125 12.007812 20.0625 C 11.78125 20.855469 11.746094 21.386719 11.875 21.734375 C 12.019531 22.097656 11.988281 22.277344 11.761719 22.378906 C 11.488281 22.507812 11.328125 22.402344 11.171875 21.984375 C 10.976562 21.460938 11.003906 20.949219 11.289062 19.496094 C 11.605469 17.929688 11.644531 17.476562 11.511719 16.734375 C 11.339844 15.71875 10.777344 14.59375 10.242188 14.171875 C 9.804688 13.828125 9.605469 13.753906 9.101562 13.753906 C 8.652344 13.753906 8.589844 13.769531 8.058594 14.046875 C 7.378906 14.402344 7.234375 14.421875 7.234375 14.15625 C 7.234375 14.007812 7.296875 13.925781 7.566406 13.734375 C 8.214844 13.246094 8.6875 13.089844 9.398438 13.117188 C 9.816406 13.136719 9.972656 13.171875 10.308594 13.335938 Z M 9.511719 14.6875 C 10.253906 14.882812 10.691406 15.378906 10.890625 16.265625 C 11.152344 17.445312 10.769531 19.539062 9.9375 21.53125 L 9.65625 22.203125 L 9.417969 22.203125 C 8.988281 22.203125 8.980469 21.941406 9.386719 21.070312 C 9.671875 20.4375 9.996094 19.308594 10.160156 18.34375 C 10.371094 17.078125 10.320312 16.359375 9.972656 15.8125 C 9.742188 15.449219 9.449219 15.3125 8.714844 15.21875 C 8.414062 15.179688 8.101562 15.125 8.015625 15.09375 C 7.851562 15.03125 7.800781 14.824219 7.933594 14.746094 C 8.1875 14.582031 8.988281 14.558594 9.511719 14.6875 Z M 9.511719 14.6875 "/>
<path style=" stroke:none;fill-rule:nonzero;fill:#bf5300;fill-opacity:1;" d="M 12.550781 20.21875 C 12.566406 21.117188 12.578125 21.191406 12.742188 21.5 C 13.183594 22.351562 13.769531 22.664062 14.214844 22.292969 C 14.53125 22.023438 14.488281 21.855469 13.910156 21.144531 C 13.839844 21.054688 13.707031 20.695312 13.621094 20.332031 C 13.535156 19.976562 13.421875 19.609375 13.378906 19.515625 C 13.292969 19.347656 13.078125 19.273438 12.710938 19.273438 L 12.523438 19.273438 Z M 13.203125 19.722656 C 13.246094 19.832031 13.335938 20.164062 13.410156 20.457031 C 13.566406 21.070312 13.609375 21.164062 13.882812 21.46875 C 14.207031 21.835938 14.246094 21.929688 14.09375 22.078125 C 13.796875 22.378906 13.304688 22.097656 12.980469 21.441406 C 12.792969 21.082031 12.785156 21.023438 12.785156 20.289062 L 12.785156 19.523438 L 12.960938 19.523438 C 13.105469 19.523438 13.148438 19.558594 13.203125 19.722656 Z M 13.203125 19.722656 "/>
</g>
</svg>