<svg xmlns="http://www.w3.org/2000/svg" xmlns:xlink="http://www.w3.org/1999/xlink" width="px" height="24px" viewBox="0 0 24 24" version="1.1">
<g id="surface1">
<path style=" stroke:none;fill-rule:nonzero;fill:#bf5300;fill-opacity:1;" d="M 13.550781 1.441406 C 13.398438 1.613281 13.300781 2.109375 13.300781 2.769531 C 13.300781 3.507812 13.125 3.773438 12.636719 3.773438 C 12.203125 3.773438 11.945312 4.101562 11.820312 4.800781 C 11.722656 5.375 11.886719 5.875 12.222656 6.007812 C 12.414062 6.074219 12.457031 6.054688 12.558594 5.8125 C 12.613281 5.683594 12.75 5.566406 13.003906 5.429688 C 13.644531 5.089844 14.152344 4.375 14.355469 3.527344 C 14.53125 2.789062 14.414062 1.730469 14.121094 1.410156 C 13.980469 1.253906 13.71875 1.269531 13.550781 1.441406 Z M 14.023438 1.921875 C 14.132812 2.238281 14.121094 3.199219 14.003906 3.59375 C 13.800781 4.28125 13.378906 4.84375 12.898438 5.085938 C 12.761719 5.152344 12.5625 5.292969 12.453125 5.394531 C 12.347656 5.5 12.230469 5.5625 12.191406 5.542969 C 12.105469 5.488281 12.105469 4.835938 12.191406 4.570312 C 12.304688 4.242188 12.421875 4.144531 12.707031 4.144531 C 13.03125 4.144531 13.3125 3.972656 13.453125 3.675781 C 13.570312 3.433594 13.664062 2.800781 13.671875 2.238281 C 13.671875 1.675781 13.875 1.496094 14.023438 1.921875 Z M 14.023438 1.921875 "/>
<path style=" stroke:none;fill-rule:nonzero;fill:#bf5300;fill-opacity:1;" d="M 11.511719 2.980469 C 11.066406 3.105469 10.390625 3.707031 10.0625 4.269531 C 9.648438 4.980469 9.335938 6.371094 9.222656 7.980469 C 9.117188 9.476562 9.066406 16.09375 9.15625 17.195312 C 9.339844 19.625 9.796875 21.136719 10.601562 21.976562 C 11.132812 22.535156 11.535156 22.632812 11.8125 22.285156 C 11.9375 22.132812 11.9375 22.015625 11.9375 14.457031 L 11.9375 6.792969 L 11.753906 6.582031 C 11.5 6.285156 11.425781 5.957031 11.457031 5.164062 C 11.472656 4.652344 11.511719 4.417969 11.605469 4.207031 C 11.785156 3.816406 12.082031 3.539062 12.402344 3.457031 C 12.679688 3.390625 12.765625 3.289062 12.699219 3.117188 C 12.625 2.914062 11.988281 2.839844 11.511719 2.980469 Z M 11.8125 3.316406 C 11.8125 3.335938 11.714844 3.464844 11.597656 3.605469 C 11.28125 3.972656 11.121094 4.527344 11.117188 5.257812 C 11.109375 5.96875 11.207031 6.410156 11.449219 6.742188 L 11.628906 6.988281 L 11.628906 14.5 C 11.628906 22.847656 11.660156 22.269531 11.226562 22.0625 C 10.894531 21.902344 10.355469 21.203125 10.136719 20.636719 C 9.476562 18.914062 9.359375 17.417969 9.457031 11.8125 C 9.539062 6.988281 9.625 6.113281 10.152344 4.84375 C 10.378906 4.300781 10.96875 3.617188 11.398438 3.410156 C 11.660156 3.277344 11.8125 3.246094 11.8125 3.316406 Z M 11.8125 3.316406 "/>
<path style=" stroke:none;fill-rule:nonzero;fill:#bf5300;fill-opacity:1;" d="M 13.25 5.628906 C 12.921875 5.839844 12.839844 5.933594 12.648438 6.304688 L 12.433594 6.742188 L 12.433594 14.523438 C 12.433594 23.175781 12.402344 22.578125 12.839844 22.578125 C 13.285156 22.578125 13.589844 22.292969 13.90625 21.582031 C 14.003906 21.363281 14.132812 20.988281 14.191406 20.753906 C 14.46875 19.558594 14.640625 16.375 14.5625 13.824219 C 14.535156 12.941406 14.511719 10.980469 14.511719 9.464844 C 14.503906 7.15625 14.488281 6.625 14.398438 6.199219 C 14.265625 5.523438 14.171875 5.382812 13.863281 5.382812 C 13.695312 5.382812 13.523438 5.449219 13.25 5.628906 Z M 14.023438 6.039062 C 14.175781 6.644531 14.234375 7.917969 14.191406 9.792969 C 14.160156 11.085938 14.171875 12 14.226562 12.859375 C 14.320312 14.292969 14.234375 17.980469 14.070312 19.433594 C 13.878906 21.128906 13.453125 22.164062 12.929688 22.21875 L 12.773438 22.238281 L 12.761719 14.503906 L 12.742188 6.773438 L 12.945312 6.433594 C 13.09375 6.1875 13.242188 6.039062 13.484375 5.886719 C 13.671875 5.777344 13.847656 5.695312 13.886719 5.710938 C 13.917969 5.722656 13.984375 5.871094 14.023438 6.039062 Z M 14.023438 6.039062 "/>
</g>
</svg>