<?xml version="1.0" standalone="no"?>
<!DOCTYPE svg PUBLIC "-//W3C//DTD SVG 20010904//EN"
 "http://www.w3.org/TR/2001/REC-SVG-20010904/DTD/svg10.dtd">
<svg version="1.0" xmlns="http://www.w3.org/2000/svg"
 width="600.000000pt" height="600.000000pt" viewBox="0 0 600.000000 600.000000"
 preserveAspectRatio="xMidYMid meet">

<g transform="translate(0.000000,600.000000) scale(0.100000,-0.100000)"
fill="#000000" stroke="none">
<path d="M2899 5669 c-145 -103 -283 -287 -418 -556 -199 -397 -328 -857 -400
-1423 -54 -426 -56 -954 -6 -1415 102 -923 297 -1485 631 -1810 158 -155 238
-181 347 -115 67 41 204 171 268 255 248 327 421 862 524 1620 39 293 49 460
49 815 0 352 -11 562 -45 813 -99 745 -370 1407 -709 1731 -133 127 -166 138
-241 85z m640 -931 c8 -23 8 -23 -113 -29 -66 -4 -152 -14 -191 -23 -281 -67
-625 -224 -850 -388 l-80 -59 51 49 c197 186 543 367 837 436 137 33 138 33
245 35 88 1 93 0 101 -21z m129 -403 c7 -25 12 -50 12 -55 0 -6 -68 -10 -179
-10 -140 0 -204 -5 -288 -20 -300 -57 -593 -163 -780 -280 -34 -22 -63 -38
-63 -36 0 11 120 95 195 138 234 132 500 224 805 277 130 23 164 27 235 29
l51 2 12 -45z m46 -207 c3 -7 7 -26 11 -41 l6 -28 -118 6 c-105 6 -172 2 -358
-21 -30 -3 -35 -2 -19 5 46 20 236 62 344 75 63 7 119 14 123 15 4 0 9 -5 11
-11z m41 -218 l7 -55 -175 3 c-239 6 -551 -20 -720 -58 -77 -17 -49 -2 60 33
137 44 273 70 538 102 116 14 224 30 240 34 17 5 33 5 37 2 3 -3 9 -31 13 -61z
m-5 -177 c26 -5 28 -9 34 -72 29 -319 32 -838 6 -1141 -24 -283 -85 -664 -145
-910 -73 -297 -175 -487 -325 -604 -51 -40 -69 -48 -155 -73 -41 -12 -71 -61
-78 -127 -5 -53 -49 -166 -65 -166 -4 0 -7 51 -7 113 0 61 -4 155 -8 207 l-9
95 56 30 c68 37 57 46 -13 11 l-50 -26 -6 43 c-19 142 -25 248 -25 458 0 391
36 722 91 844 16 36 34 63 38 60 11 -6 41 -92 41 -117 0 -21 11 -23 29 -5 11
10 12 7 5 -13 -5 -14 -9 -43 -9 -65 0 -42 8 -46 49 -30 16 7 17 6 7 -13 -14
-26 -14 -82 -1 -118 10 -26 11 -26 26 -8 15 19 15 19 9 -1 -3 -10 -9 -39 -12
-64 -5 -33 -3 -42 6 -37 8 5 6 -6 -4 -31 -31 -72 -31 -70 -11 -54 16 14 16 12
0 -30 -9 -24 -21 -48 -26 -53 -4 -6 -8 -15 -8 -20 1 -24 92 132 122 208 27 70
32 94 32 171 1 77 -3 98 -26 148 -15 32 -37 71 -48 88 -34 47 -12 34 68 -42
73 -69 75 -71 87 -50 11 21 12 20 24 -18 13 -44 31 -55 31 -19 0 31 14 11 29
-39 6 -24 16 -43 21 -43 5 0 12 -17 16 -37 4 -21 11 -49 16 -63 27 -73 40 112
13 191 -47 137 -215 259 -356 259 -26 0 -50 4 -53 9 -8 13 45 21 135 21 77 0
79 1 79 24 0 24 1 24 28 10 33 -17 42 -17 93 -1 30 9 39 16 35 29 -3 15 1 15
35 -5 32 -18 41 -19 48 -8 7 11 13 10 34 -4 15 -9 30 -14 35 -11 5 3 23 -4 40
-15 43 -25 50 -24 24 4 -12 13 -20 26 -17 29 9 8 -88 67 -146 89 -106 41 -236
35 -347 -16 -30 -14 -57 -23 -59 -21 -3 2 29 27 71 55 42 29 76 54 76 58 0 4
-7 14 -15 24 -15 15 -13 17 17 23 45 9 67 23 50 34 -8 5 7 14 43 26 30 9 55
21 55 27 0 14 -119 10 -163 -5 -106 -38 -221 -142 -264 -238 -19 -43 -33 -49
-33 -15 0 37 -66 163 -110 211 -80 86 -177 131 -270 124 l-45 -3 60 -32 c33
-18 54 -32 46 -33 -23 0 7 -28 45 -40 35 -12 35 -12 17 -32 -18 -20 -17 -22
52 -84 76 -69 80 -81 13 -34 -64 45 -151 72 -246 78 l-83 5 66 43 c36 25 65
46 65 49 0 6 -164 -53 -257 -92 -68 -29 -149 -78 -210 -129 l-33 -27 0 36 c0
29 8 41 53 79 145 124 390 248 633 318 155 45 282 69 458 85 87 8 161 17 164
20 3 3 -143 5 -324 5 -304 0 -422 -7 -629 -35 -51 -7 -34 4 66 44 91 36 229
73 380 102 99 19 159 22 454 26 187 3 346 8 353 12 8 5 -11 14 -50 24 -227 60
-407 76 -647 58 -91 -7 -212 -21 -268 -32 -194 -37 -420 -112 -573 -189 -33
-17 -62 -30 -65 -30 -4 0 -5 17 -3 38 3 36 6 38 85 78 106 52 306 117 458 148
245 50 333 59 642 60 161 0 282 5 270 9 -49 18 -260 48 -419 59 -185 13 -426
1 -547 -27 -35 -9 -65 -14 -67 -12 -5 5 85 40 166 66 140 45 297 74 560 105
45 5 434 -3 470 -11z m-1297 -990 c-35 -24 -28 -36 17 -28 25 4 40 3 40 -4 0
-19 72 -25 102 -8 28 16 28 16 28 -13 l0 -30 74 0 c40 0 88 -5 107 -12 34 -12
33 -12 -51 -25 -119 -18 -230 -73 -308 -151 -66 -66 -120 -164 -129 -233 -6
-40 -5 -43 10 -30 10 7 27 31 39 52 12 21 25 36 29 33 4 -2 19 12 33 33 18 26
26 32 26 19 0 -24 21 -15 45 20 11 16 27 28 35 26 9 -1 36 11 60 27 48 32 57
33 41 4 -16 -31 -24 -117 -16 -187 7 -71 19 -85 29 -36 3 17 9 44 12 61 4 20
11 28 20 25 8 -3 14 1 14 10 0 8 8 17 18 21 26 9 52 45 52 74 0 19 5 26 17 25
12 0 19 7 21 22 4 25 12 28 30 10 9 -9 17 -7 35 10 32 31 43 28 60 -17 15 -37
15 -46 -8 -153 -20 -96 -38 -195 -60 -343 l-5 -30 -182 0 c-172 0 -188 -2
-263 -27 -44 -15 -102 -41 -128 -58 -54 -34 -57 -35 -57 -17 0 36 132 129 285
201 61 29 130 62 155 74 l45 21 -40 0 c-107 1 -307 -58 -406 -119 -51 -31 -69
-37 -69 -21 0 5 -3 16 -6 25 -7 18 -13 15 176 87 141 53 191 77 225 103 19 15
18 16 -10 5 -16 -6 -86 -17 -155 -25 -69 -8 -150 -21 -181 -29 -79 -21 -79
-21 -79 29 0 41 4 47 71 110 39 36 68 66 65 66 -4 0 -37 -16 -75 -35 -75 -37
-81 -35 -81 24 0 30 7 36 233 211 81 62 146 115 144 116 -8 9 -331 -140 -364
-167 -17 -15 -33 -2 -33 26 0 20 17 34 98 81 120 71 169 107 152 112 -7 3 4
15 26 28 43 26 72 32 37 7z m-133 -38 c-7 -9 -15 -13 -19 -10 -3 3 1 10 9 15
21 14 24 12 10 -5z m536 -952 c-3 -64 -8 -118 -10 -121 -3 -2 -55 -12 -117
-23 -122 -21 -247 -67 -341 -125 -32 -19 -62 -33 -67 -29 -6 3 -13 25 -16 49
-6 39 -3 50 24 90 74 107 230 195 455 256 39 10 73 19 75 19 2 1 1 -52 -3
-116z m-15 -210 c0 -27 4 -169 8 -318 l8 -270 -25 -44 c-30 -51 -39 -40 -23
26 7 25 10 47 8 50 -11 10 -41 -88 -47 -152 l-6 -70 -19 40 c-26 58 -24 183 4
254 11 30 19 56 17 58 -2 2 -13 -9 -25 -26 -61 -85 -83 -204 -58 -301 l15 -55
-33 38 c-50 57 -70 133 -69 257 1 126 22 193 90 276 24 30 40 54 35 54 -20 0
-133 -85 -165 -123 -39 -48 -86 -136 -86 -163 0 -29 -16 -5 -45 66 -30 76 -28
105 16 192 52 104 132 168 279 224 116 45 120 45 121 -13z m19 -773 c-4 -23
-13 -47 -20 -53 -10 -10 -11 0 -7 49 4 33 10 69 14 79 12 32 22 -26 13 -75z"/>
</g>
</svg>
