<svg xmlns="http://www.w3.org/2000/svg" version="1.0" width="740.000000pt" height="740.000000pt" viewBox="0 0 740.000000 740.000000" preserveAspectRatio="xMidYMid meet">

<g transform="translate(0.000000,740.000000) scale(0.100000,-0.100000)" fill="#efede8" stroke="none">
<path d="M920 7390 c0 -9 100 -138 159 -204 l26 -30 -40 32 c-22 18 -54 44 -72 58 -18 14 -40 24 -50 22 -21 -4 -30 5 141 -136 91 -76 161 -152 140 -152 -10 0 -149 92 -167 111 -20 21 -37 25 -37 9 0 -6 16 -20 35 -31 19 -12 35 -23 35 -26 0 -3 -20 7 -44 21 -47 27 -72 34 -60 15 3 -6 38 -31 77 -56 38 -25 88 -64 111 -86 l41 -40 -30 7 c-16 4 -97 9 -180 12 -115 5 -167 2 -223 -10 -136 -29 -273 -104 -393 -215 -79 -74 -64 -80 22 -8 67 55 68 50 8 -23 -35 -43 -89 -130 -89 -143 0 -15 31 -6 42 12 6 10 17 17 23 15 11 -5 125 116 125 132 0 4 -17 -8 -37 -27 -24 -22 -31 -25 -18 -9 37 47 110 122 140 142 17 11 4 -4 -28 -33 -32 -30 -57 -58 -57 -63 0 -5 10 -1 22 10 l22 19 -17 -28 c-53 -84 -78 -131 -75 -145 2 -10 22 10 55 53 28 39 82 100 120 136 66 64 158 127 169 116 3 -3 -8 -13 -26 -22 -65 -34 -191 -179 -244 -282 -31 -60 1 -34 68 56 78 105 179 202 239 231 l42 21 -25 -21 c-114 -96 -277 -293 -268 -322 2 -6 38 31 80 83 74 93 140 160 208 211 41 30 159 92 166 86 2 -3 -25 -23 -60 -46 -94 -63 -180 -145 -230 -221 -25 -37 -48 -75 -52 -84 -12 -33 13 -16 47 31 48 67 159 181 213 220 25 18 46 31 46 29 0 -3 -31 -36 -68 -73 -38 -38 -85 -97 -105 -130 -99 -165 -75 -181 41 -26 85 114 137 170 149 159 4 -4 -7 -22 -24 -40 -41 -43 -113 -147 -113 -164 0 -26 16 -11 79 73 35 47 66 83 68 80 3 -3 -15 -33 -41 -67 -46 -61 -62 -117 -31 -105 8 3 15 3 15 0 0 -2 -21 -46 -46 -97 -72 -141 -118 -296 -143 -472 -7 -54 0 -228 13 -280 2 -11 5 -29 6 -40 1 -14 5 -10 11 13 5 18 16 32 25 32 25 0 36 49 43 190 7 144 6 145 28 -32 3 -27 10 -48 16 -48 10 0 7 117 -9 320 -7 97 4 80 51 -80 60 -204 71 -186 31 51 -28 163 -42 306 -27 273 11 -26 51 -255 51 -295 0 -15 3 -30 8 -33 4 -2 6 102 4 232 l-3 237 36 40 c32 36 36 37 31 15 -13 -56 -37 -252 -33 -268 4 -18 10 13 28 151 6 48 13 86 16 84 2 -3 -1 -50 -6 -106 -11 -106 0 -246 21 -266 7 -7 9 -3 5 13 -3 12 -1 22 4 22 5 0 9 -13 9 -30 0 -16 5 -30 10 -30 6 0 10 30 10 69 0 96 16 208 47 325 19 70 29 93 34 80 4 -13 9 2 14 44 4 34 12 62 17 62 6 0 8 -12 4 -27 -12 -52 -27 -548 -21 -663 6 -104 27 -263 41 -299 3 -11 8 -9 20 8 14 19 14 38 4 145 -14 165 -24 640 -12 632 5 -3 12 -36 16 -73 4 -37 16 -123 26 -190 11 -68 21 -146 21 -175 1 -29 5 -66 9 -83 7 -29 8 -29 9 10 1 52 -17 355 -25 420 -3 28 -4 48 -1 45 3 -3 20 -91 37 -195 33 -198 37 -221 45 -213 3 2 -16 125 -41 272 -24 148 -43 270 -41 273 6 5 33 -98 57 -212 10 -49 19 -81 19 -70 2 33 17 3 34 -66 23 -93 91 -553 111 -749 13 -125 19 -440 8 -440 -6 0 -17 -3 -26 -6 -11 -4 -28 15 -62 68 -74 116 -135 191 -146 180 -13 -13 4 -43 61 -112 77 -91 79 -96 18 -47 -32 26 -65 47 -73 47 -25 0 0 -33 65 -86 33 -27 58 -50 56 -52 -2 -2 -23 8 -48 22 -42 25 -77 34 -77 19 0 -4 23 -31 51 -59 29 -30 48 -57 44 -63 -7 -12 -66 -6 -97 11 -10 5 -18 5 -18 0 0 -5 11 -14 25 -20 14 -6 25 -16 25 -22 0 -5 7 -10 16 -10 10 0 14 -6 10 -15 -3 -8 -2 -15 3 -15 5 0 14 7 21 15 17 20 31 19 23 -1 -3 -9 -2 -15 3 -13 5 3 34 16 65 31 94 43 221 62 247 36 9 -9 13 -7 18 5 13 34 23 16 26 -44 l3 -61 25 24 c14 13 31 33 38 44 10 16 11 13 6 -26 l-6 -45 30 41 c16 22 47 49 68 59 53 25 131 31 174 13 41 -17 67 -13 50 8 -7 7 -9 18 -5 25 6 8 10 7 16 -2 6 -10 9 -5 9 16 0 17 -5 37 -10 45 -7 12 -11 8 -16 -17 -4 -18 -10 -33 -15 -33 -12 0 -12 1 6 43 19 45 19 47 0 47 -11 0 -10 7 7 36 29 49 11 68 -33 35 l-32 -24 32 46 c32 47 41 82 19 75 -7 -3 -32 -28 -55 -57 -24 -28 -43 -49 -43 -45 0 4 11 38 25 77 14 38 23 72 21 75 -3 3 -9 -4 -12 -14 -39 -108 -65 -168 -83 -190 -12 -15 -21 -24 -21 -21 0 3 27 66 60 139 33 73 60 139 60 148 -1 21 -23 -22 -96 -183 -51 -113 -63 -133 -68 -113 -10 41 -8 454 4 576 11 124 47 318 61 336 5 6 7 13 4 16 -5 4 89 296 98 305 5 4 0 -55 -13 -157 -4 -36 -4 -71 0 -79 12 -22 18 9 25 129 7 121 22 210 36 210 11 0 11 -116 0 -220 -5 -41 -4 -79 0 -84 5 -6 9 0 10 15 1 16 3 19 6 7 15 -60 33 38 33 182 0 79 38 257 67 313 20 40 24 30 13 -39 -41 -255 -48 -334 -32 -334 5 0 15 12 23 28 l13 27 3 -35 c8 -93 15 -122 28 -116 9 3 18 -8 26 -32 7 -20 17 -46 24 -57 7 -11 18 -41 25 -67 7 -27 17 -48 23 -48 12 0 8 39 -32 305 -31 203 -34 232 -27 224 3 -3 17 -74 31 -159 23 -134 36 -204 60 -309 4 -13 8 -21 11 -18 8 7 -83 593 -103 667 -6 22 -4 23 9 12 22 -17 62 -160 50 -175 -21 -27 31 -162 122 -312 l36 -60 1 50 c1 28 3 42 6 33 2 -10 8 -18 13 -18 5 0 4 14 -2 32 -8 23 -8 33 -1 35 12 4 -26 159 -72 292 -14 41 -25 84 -25 95 0 11 -12 33 -27 49 -32 35 -19 28 52 -24 48 -35 100 -57 93 -39 -6 16 -132 123 -162 137 l-31 14 30 -6 c17 -4 44 -17 60 -29 47 -36 94 -57 134 -61 30 -3 37 0 38 15 1 10 -9 28 -23 41 -13 12 -24 27 -24 32 0 5 22 -11 50 -37 50 -47 64 -54 75 -36 4 6 35 8 78 5 l72 -5 -34 29 c-19 15 -31 33 -27 39 11 18 -35 52 -94 69 -101 29 -319 4 -371 -43 -15 -13 -17 -8 -22 68 -2 46 -14 108 -25 138 -11 30 -23 73 -27 95 -8 56 -28 83 -23 33 5 -46 -6 -49 -21 -6 -6 17 -13 29 -16 26 -3 -3 3 -28 14 -57 30 -73 16 -63 -20 15 -16 37 -32 65 -35 62 -3 -3 -2 -30 2 -59 5 -39 14 -60 34 -78 15 -15 40 -48 56 -76 28 -49 28 -50 3 -30 -13 11 -39 33 -56 49 -52 47 -50 22 3 -39 27 -31 50 -51 52 -45 4 12 22 3 22 -11 0 -6 -4 -7 -10 -4 -6 3 -10 0 -10 -7 0 -7 -18 7 -40 32 -55 63 -50 36 10 -46 27 -37 48 -70 46 -72 -8 -7 -46 18 -131 87 -47 38 -112 82 -144 99 -71 38 -171 66 -185 52 -13 -13 -43 -13 -48 0 -6 19 -267 -60 -413 -124 -87 -39 -55 -15 50 38 88 44 257 103 425 148 65 18 84 27 82 39 -2 13 10 17 50 22 72 7 115 24 100 39 -9 9 -41 9 -131 -1 -146 -15 -291 -49 -405 -95 -85 -34 -112 -40 -58 -12 27 14 423 151 512 176 30 9 39 15 26 18 -10 2 -38 -1 -61 -8 -24 -7 -48 -10 -53 -7 -5 4 -49 2 -97 -3 -74 -8 -105 -17 -179 -53 -153 -74 -247 -153 -367 -310 -16 -20 -17 -17 -24 59 -4 43 -10 84 -15 89 -4 6 -18 45 -30 88 -22 75 -40 107 -40 71 0 -28 -16 -4 -34 51 -22 66 -33 84 -44 67 -6 -9 -15 -2 -33 25 -28 43 -43 48 -47 15 -3 -22 -4 -22 -32 8 -21 23 -37 30 -65 30 -32 0 -36 -2 -25 -15 9 -11 9 -15 1 -15 -6 0 -14 7 -17 15 -7 17 -24 21 -24 5z m142 -52 c39 -48 62 -87 55 -94 -3 -3 -15 12 -28 32 -13 21 -36 53 -52 71 -16 18 -25 33 -19 33 5 0 25 -19 44 -42z m90 -56 c27 -61 15 -64 -21 -6 -34 52 -45 108 -15 69 9 -11 25 -39 36 -63z m37 -14 c10 -30 9 -31 -4 -14 -8 11 -15 26 -15 33 0 22 8 14 19 -19z m686 -42 c-44 -12 -91 -26 -105 -30 -23 -8 -23 -8 -6 10 22 21 96 43 151 43 35 0 30 -3 -40 -23z m-701 -77 c6 -8 -6 3 -26 25 -20 22 -34 44 -31 49 3 5 14 -6 25 -25 11 -18 25 -40 32 -49z m-53 29 l33 -43 -37 34 c-33 31 -46 51 -33 51 2 0 19 -19 37 -42z m98 -23 c0 -5 -6 -1 -14 9 -8 11 -15 27 -15 35 1 17 29 -26 29 -44z m766 0 c-164 -28 -226 -44 -361 -94 -118 -44 -152 -47 -58 -5 150 66 379 123 499 122 37 0 16 -6 -80 -23z m-700 -90 c14 -54 25 -105 24 -114 -1 -18 -59 186 -59 208 0 31 11 0 35 -94z m-30 -11 c6 -28 5 -28 -14 6 -11 19 -20 46 -20 60 1 24 1 24 14 -6 8 -17 17 -44 20 -60z m495 2 c-111 -34 -227 -82 -297 -121 -47 -26 -53 -21 -23 17 23 30 118 67 275 108 148 39 175 37 45 -4z m-511 -37 c32 -55 22 -59 -12 -4 -14 25 -23 45 -19 45 5 0 19 -18 31 -41z m556 -17 c-6 -5 -71 -33 -145 -62 -74 -29 -168 -69 -208 -87 -41 -19 -76 -32 -79 -30 -20 20 141 95 339 157 107 33 105 33 93 22z m236 -9 c12 -12 -65 -7 -116 8 -23 6 -14 8 37 6 38 -2 73 -8 79 -14z m-126 -14 c43 0 54 -3 40 -9 -11 -5 -36 -9 -55 -9 -19 -1 -42 -6 -50 -11 -17 -11 -13 -12 55 -11 l50 0 -41 -14 c-66 -21 -89 -36 -73 -45 7 -5 26 -6 41 -3 28 5 29 4 32 -37 1 -18 26 -16 119 11 38 11 71 18 74 16 2 -3 -29 -17 -69 -32 -80 -30 -84 -33 -76 -40 2 -3 27 2 53 10 31 9 51 11 55 5 4 -6 31 -4 73 6 l67 17 19 -24 19 -24 -66 -8 c-131 -15 -248 -62 -352 -142 -67 -52 -87 -74 -92 -100 -2 -14 2 -20 15 -19 21 2 22 -9 2 -26 -17 -14 -20 -30 -5 -30 5 0 40 26 77 58 93 80 133 98 53 24 -104 -96 -64 -81 51 19 98 86 155 126 165 116 3 -2 -34 -37 -81 -78 -48 -40 -82 -75 -76 -77 13 -4 144 95 151 114 3 9 10 16 15 16 6 0 44 18 87 39 42 22 82 39 90 39 7 0 -7 -9 -31 -20 -81 -37 -171 -111 -237 -194 -59 -74 -152 -239 -183 -326 l-13 -35 -18 70 c-41 159 -139 327 -260 447 l-78 76 109 53 c60 29 109 57 109 62 0 5 -6 7 -12 4 -7 -3 -53 -24 -103 -46 -49 -22 -103 -42 -120 -45 -47 -9 55 38 207 95 73 28 137 54 142 59 19 19 -3 19 -75 1 -40 -11 -75 -19 -76 -17 -7 7 174 73 192 70 11 -2 47 -4 80 -5z m-647 -42 c6 -5 12 -14 12 -19 0 -10 -41 12 -81 43 -24 20 -24 20 16 2 22 -9 46 -21 53 -26z m861 14 c21 -16 22 -19 6 -25 -10 -4 -21 -2 -24 3 -4 5 -41 1 -91 -10 -126 -28 -137 -22 -30 15 115 41 109 40 139 17z m-724 -30 c-14 -28 -35 -49 -35 -36 0 7 42 65 47 65 2 0 -3 -13 -12 -29z m840 -52 c61 -46 73 -72 28 -60 -16 4 -28 14 -28 22 0 10 -11 14 -34 12 -24 -1 -30 2 -22 10 17 17 13 29 -9 22 -15 -5 -18 -3 -14 9 7 19 3 20 -66 1 -30 -8 -56 -12 -58 -10 -7 6 122 44 136 40 6 -3 37 -23 67 -46z m-1330 36 c-30 -12 -95 -22 -95 -15 0 5 15 11 33 13 45 5 74 6 62 2z m115 -4 c0 -5 -7 -11 -15 -15 -15 -5 -20 5 -8 17 9 10 23 9 23 -2z m210 -27 c31 -6 33 -8 13 -15 -26 -9 -96 8 -87 22 3 5 13 8 22 5 10 -2 33 -8 52 -12z m390 6 c-8 -5 -19 -10 -25 -10 -5 0 -3 5 5 10 8 5 20 10 25 10 6 0 3 -5 -5 -10z m768 -132 c-25 -19 -43 -24 -33 -8 3 6 -1 17 -10 26 -20 21 -13 29 13 15 36 -19 42 -13 44 47 l2 57 3 -60 c4 -52 1 -61 -19 -77z m-1588 118 c0 -2 -25 -18 -55 -35 -30 -17 -90 -66 -132 -109 -45 -44 -64 -59 -45 -35 44 56 136 139 181 163 36 19 51 24 51 16z m-130 -16 c-8 -5 -19 -10 -25 -10 -5 0 -3 5 5 10 8 5 20 10 25 10 6 0 3 -5 -5 -10z m470 -4 c0 -2 -19 -16 -43 -29 -66 -39 -138 -108 -203 -194 -76 -102 -82 -108 -50 -47 45 85 123 171 203 224 67 45 93 58 93 46z m1605 -6 c7 -12 -32 -12 -60 0 -16 7 -13 9 17 9 20 1 40 -3 43 -9z m102 -21 c24 -11 43 -25 43 -30 0 -12 -7 -11 -31 1 -27 15 -24 1 8 -32 l27 -28 -46 0 c-42 0 -47 3 -59 32 -11 26 -11 32 1 36 9 3 6 10 -11 23 l-24 19 24 0 c14 0 44 -9 68 -21z m-207 1 c0 -5 -7 -10 -16 -10 -8 0 -12 5 -9 10 3 6 10 10 16 10 5 0 9 -4 9 -10z m88 -6 c20 -6 59 -60 50 -70 -2 -2 -26 14 -52 36 -47 39 -46 46 2 34z m-1498 -8 c0 -2 -29 -20 -64 -40 -98 -55 -118 -46 -29 13 39 26 93 42 93 27z m1345 -24 c-3 -3 -11 0 -18 7 -9 10 -8 11 6 5 10 -3 15 -9 12 -12z m77 -13 l33 -31 -30 20 c-16 10 -39 24 -50 30 -17 10 -18 11 -3 12 10 0 32 -14 50 -31z m-2118 -25 c-25 -26 -72 -80 -106 -120 -33 -41 -63 -74 -65 -74 -2 0 14 27 36 59 47 69 151 181 168 181 7 0 -8 -21 -33 -46z m556 32 c0 -2 -8 -10 -17 -17 -16 -13 -17 -12 -4 4 13 16 21 21 21 13z m1207 -36 c4 -12 2 -12 -5 -2 -7 11 -19 9 -60 -6 -32 -13 -50 -16 -49 -8 1 6 -3 10 -10 9 -7 -2 -10 4 -6 13 8 21 125 16 130 -6z m-772 -86 c70 -71 136 -166 185 -264 33 -65 73 -170 65 -170 -7 0 -55 98 -55 113 0 30 -143 238 -222 321 -93 100 -70 100 27 0z m525 71 c0 -6 -57 -35 -70 -35 -22 0 -8 18 23 28 39 12 47 13 47 7z m411 -11 c17 -8 29 -17 27 -20 -7 -6 -68 19 -68 28 0 11 7 10 41 -8z m-147 -9 c-4 -8 -10 -12 -16 -9 -15 9 -44 -23 -126 -136 -95 -132 -102 -140 -62 -63 17 34 53 88 79 119 59 74 141 132 125 89z m-1260 -81 c-36 -57 -60 -83 -77 -84 -5 0 0 14 10 31 22 39 94 121 100 116 2 -3 -13 -31 -33 -63z m152 5 c-31 -71 -56 -183 -66 -294 -7 -83 -7 -85 -9 -28 -2 100 48 331 81 370 20 25 18 6 -6 -48z m729 49 c-11 -6 -47 -29 -79 -51 -32 -22 -55 -34 -51 -27 10 16 125 90 139 90 6 0 2 -6 -9 -12z m285 -1 c0 -2 -10 -12 -21 -23 -22 -19 -22 -19 -10 4 10 18 31 31 31 19z m58 -24 c-35 -41 -175 -275 -219 -368 -50 -104 -90 -236 -88 -289 1 -23 4 -18 10 19 17 89 60 207 74 201 8 -3 15 7 19 26 3 17 8 29 11 27 8 -9 -17 -84 -35 -104 -22 -25 -40 -79 -40 -120 0 -18 -7 -52 -16 -76 -8 -24 -17 -64 -19 -89 -2 -25 -13 -99 -24 -165 -38 -219 -52 -382 -50 -573 1 -101 -1 -185 -4 -188 -2 -3 -8 12 -12 33 -9 51 -24 76 -40 69 -7 -2 -16 3 -20 12 -6 15 -8 14 -19 -7 -11 -19 -14 -21 -19 -7 -4 11 -18 16 -42 16 -20 0 -34 4 -30 10 3 5 1 71 -5 147 -28 371 -44 471 -140 884 -33 141 -60 260 -60 265 0 5 31 -47 68 -115 64 -118 92 -153 92 -116 0 18 -79 224 -105 275 -9 18 -14 34 -12 36 7 7 186 -328 204 -382 20 -61 19 -60 38 -41 18 19 14 45 -22 126 -33 77 -21 75 16 -2 34 -72 54 -166 31 -152 -8 5 -11 3 -8 -5 2 -8 10 -16 17 -18 10 -3 12 9 8 54 -3 33 -9 74 -12 93 -6 26 -5 33 6 29 17 -6 38 23 95 135 24 48 47 87 50 87 3 0 4 -6 1 -12 -3 -7 -12 -30 -21 -50 -9 -21 -13 -38 -9 -38 5 0 19 26 32 58 32 75 108 205 144 245 l29 32 -20 -35 c-10 -19 -43 -77 -71 -127 -55 -97 -67 -148 -24 -102 13 13 57 74 99 134 90 130 144 198 152 191 3 -3 -2 -14 -10 -23z m256 -17 c8 -30 3 -29 -34 9 l-34 35 32 -12 c17 -7 33 -21 36 -32z m-134 1 c0 -18 -2 -19 -10 -7 -13 20 -13 43 0 35 6 -3 10 -16 10 -28z m-1185 -67 c-10 -33 -20 -58 -23 -55 -3 3 3 32 13 65 10 33 20 58 23 55 3 -3 -3 -32 -13 -65z m138 23 c11 -68 29 -282 25 -295 -3 -7 -12 55 -22 137 -9 83 -19 160 -22 173 -2 12 0 22 5 22 4 0 11 -17 14 -37z m140 -68 c19 -44 60 -136 92 -203 31 -68 55 -126 52 -128 -3 -3 -69 113 -138 246 -27 51 -71 196 -55 179 8 -8 30 -50 49 -94z m601 48 c-19 -27 -52 -69 -72 -95 -21 -26 -55 -80 -76 -120 -22 -40 -49 -85 -60 -99 -12 -15 -27 -35 -33 -45 -11 -16 -11 -15 -3 8 16 47 71 151 116 219 40 60 145 179 158 179 3 0 -10 -21 -30 -47z m-264 12 c-18 -21 -80 -58 -87 -51 -3 3 5 10 18 15 13 6 35 19 49 30 30 24 37 27 20 6z m40 2 c0 -2 -12 -14 -27 -28 l-28 -24 24 28 c23 25 31 32 31 24z m669 -184 c21 -79 37 -143 35 -143 -14 0 -44 108 -89 310 l-6 25 11 -24 c6 -14 28 -89 49 -168z m30 127 c0 -13 -1 -13 -8 0 -5 8 -12 26 -15 40 l-7 25 15 -25 c9 -14 15 -32 15 -40z m-20 -5 c0 -5 -6 1 -14 15 -8 14 -14 30 -14 35 0 6 6 -1 14 -15 8 -14 14 -29 14 -35z m-1119 24 c0 -6 -4 -7 -10 -4 -5 3 -10 11 -10 16 0 6 5 7 10 4 6 -3 10 -11 10 -16z m921 -101 l-9 -33 -1 41 c-1 23 2 57 7 75 l7 34 3 -42 c2 -22 -1 -56 -7 -75z m-80 61 c-6 -24 -9 -28 -10 -12 -1 24 9 56 16 50 2 -3 0 -20 -6 -38z m-822 -29 c0 -9 -4 -8 -9 5 -5 11 -9 27 -9 35 0 9 4 8 9 -5 5 -11 9 -27 9 -35z m177 -52 c57 -92 160 -316 150 -326 -6 -6 -86 156 -86 175 0 7 -7 13 -15 13 -8 0 -15 4 -15 10 0 8 -81 186 -97 213 -2 4 -2 7 1 7 3 0 31 -42 62 -92z m955 -57 c10 -36 23 -67 28 -70 18 -12 23 -67 6 -81 -13 -11 -15 -9 -15 9 0 12 -16 76 -35 142 -19 67 -35 124 -34 127 1 13 32 -64 50 -127z m-1274 -68 c-2 -37 -3 -9 -3 62 0 72 1 102 3 68 2 -34 2 -93 0 -130z m926 152 c-3 -9 -8 -14 -10 -11 -3 3 -2 9 2 15 9 16 15 13 8 -4z m144 -142 c-2 -32 -3 -8 -3 52 0 61 1 87 3 58 2 -29 2 -78 0 -110z m-1347 43 l-5 -98 -16 71 c-15 68 -15 73 3 102 11 17 20 30 21 28 1 -2 0 -48 -3 -103z m1584 24 c4 -24 3 -29 -3 -15 -4 11 -11 36 -15 55 -4 24 -3 29 3 15 4 -11 11 -36 15 -55z m-279 -40 c-4 -16 -11 -33 -17 -37 -8 -4 -9 0 -5 11 4 10 7 34 7 54 1 31 2 34 11 19 6 -10 8 -31 4 -47z m303 -55 c0 -16 -2 -15 -8 5 -11 34 -11 60 0 35 5 -11 8 -29 8 -40z m-1737 -30 c-10 -39 -28 -114 -41 -167 -24 -101 -46 -153 -34 -83 14 93 81 332 89 323 2 -2 -5 -35 -14 -73z m115 -282 c-1 -2 -13 35 -25 82 -13 47 -34 107 -47 132 -13 26 -21 49 -19 52 3 2 5 -1 5 -8 0 -28 18 2 25 41 7 39 10 26 36 -126 16 -94 27 -171 25 -173z m1424 202 c22 -143 22 -140 15 -133 -8 8 -45 205 -45 240 0 59 11 21 30 -107z m-1517 -105 l5 -105 -15 83 c-8 46 -12 95 -8 109 3 14 7 24 9 22 2 -2 6 -51 9 -109z m-48 -177 c-15 -28 -15 -28 -11 -3 3 14 9 52 13 85 l8 60 3 -57 c2 -38 -2 -67 -13 -85z m702 115 c-3 -8 -6 -5 -6 6 -1 11 2 17 5 13 3 -3 4 -12 1 -19z m-250 -188 l0 -55 -7 55 c-5 30 -8 84 -7 120 l0 65 7 -65 c4 -36 8 -90 7 -120z m277 90 c4 -21 3 -31 -3 -25 -5 6 -12 33 -15 60 -6 52 5 31 18 -35z m401 -52 c-12 -59 -28 -153 -36 -208 -7 -56 -16 -103 -21 -107 -6 -3 -7 15 -3 43 12 82 54 307 66 347 20 72 17 33 -6 -75z m-1164 -90 c-9 -31 -9 -30 -10 23 -1 31 2 78 7 105 l7 49 3 -72 c2 -40 -1 -87 -7 -105z m40 22 l-9 -55 -1 45 c0 25 2 56 6 70 12 41 14 0 4 -60z m734 60 c3 -5 1 -10 -4 -10 -6 0 -11 5 -11 10 0 6 2 10 4 10 3 0 8 -4 11 -10z m-25 -16 c0 -8 -4 -12 -10 -9 -5 3 -10 10 -10 16 0 5 5 9 10 9 6 0 10 -7 10 -16z m48 -95 c7 -37 12 -79 12 -94 0 -52 -12 -17 -26 72 -16 107 -16 110 -6 98 5 -6 14 -40 20 -76z m-38 51 c0 -5 -4 -10 -10 -10 -5 0 -10 5 -10 10 0 6 5 10 10 10 6 0 10 -4 10 -10z m14 -87 c4 -28 2 -54 -2 -57 -10 -6 -22 48 -22 99 0 46 17 17 24 -42z m11 -102 c3 -5 1 -12 -5 -16 -5 -3 -10 1 -10 9 0 18 6 21 15 7z m22 -28 c-3 -10 -5 -4 -5 12 0 17 2 24 5 18 2 -7 2 -21 0 -30z m-17 -13 c0 -5 -5 -10 -11 -10 -5 0 -7 5 -4 10 3 6 8 10 11 10 2 0 4 -4 4 -10z m33 -132 c3 -63 1 -117 -4 -122 -5 -6 -9 7 -10 35 0 24 -3 79 -5 122 -3 42 -1 77 4 77 5 0 12 -51 15 -112z m-33 86 c0 -8 -4 -12 -10 -9 -5 3 -10 10 -10 16 0 5 5 9 10 9 6 0 10 -7 10 -16z m311 -74 c-9 -23 -10 -23 -10 12 -1 20 2 45 7 55 6 14 8 12 10 -12 2 -17 -1 -42 -7 -55z m-314 -37 c-3 -10 -5 -2 -5 17 0 19 2 27 5 18 2 -10 2 -26 0 -35z m313 -57 c0 -30 -4 -58 -10 -61 -6 -4 -10 17 -10 54 0 34 4 61 10 61 6 0 10 -24 10 -54z m-253 -3 c-3 -10 -5 -4 -5 12 0 17 2 24 5 18 2 -7 2 -21 0 -30z m-17 -98 c0 -19 -4 -35 -10 -35 -5 0 -10 16 -10 35 0 19 5 35 10 35 6 0 10 -16 10 -35z m260 -15 c0 -22 -4 -40 -10 -40 -11 0 -14 63 -3 73 11 12 13 8 13 -33z m235 -42 c-14 -24 -40 -67 -57 -95 -29 -51 -48 -73 -48 -56 0 12 118 193 125 193 3 0 -6 -19 -20 -42z m-208 -120 c-2 -29 -3 -6 -3 52 0 58 1 81 3 53 2 -29 2 -77 0 -105z m-267 63 c0 -44 -4 -60 -16 -65 -10 -4 -13 -2 -7 7 4 6 8 21 9 32 2 65 5 85 9 85 3 0 5 -27 5 -59z m502 -13 c-39 -56 -82 -102 -89 -94 -3 3 2 18 12 32 25 38 97 115 102 110 3 -3 -9 -24 -25 -48z m-261 -23 c2 -88 2 -93 -1 -107 -4 -18 -18 79 -19 130 -1 23 4 42 9 42 6 0 11 -29 11 -65z m115 -52 c-8 -15 -15 -25 -16 -21 0 12 23 58 27 54 3 -2 -2 -17 -11 -33z m136 -3 c-17 -16 -34 -25 -37 -20 -6 10 55 63 63 55 3 -3 -8 -19 -26 -35z m-689 -30 c8 -30 -4 -25 -48 21 l-40 41 41 -20 c23 -12 44 -30 47 -42z m277 40 c0 -5 -2 -10 -4 -10 -3 0 -8 5 -11 10 -3 6 -1 10 4 10 6 0 11 -4 11 -10z m-150 -20 c-8 -5 -19 -10 -25 -10 -5 0 -3 5 5 10 8 5 20 10 25 10 6 0 3 -5 -5 -10z m124 1 c4 -5 -34 -23 -84 -39 -55 -19 -92 -27 -96 -21 -8 13 -7 14 57 43 55 25 113 33 123 17z m71 -30 c0 -11 -15 -15 -57 -15 l-57 -1 32 17 c37 20 82 20 82 -1z m245 -1 c0 -5 -5 -10 -11 -10 -5 0 -7 5 -4 10 3 6 8 10 11 10 2 0 4 -4 4 -10z m63 3 c-7 -2 -21 -2 -30 0 -10 3 -4 5 12 5 17 0 24 -2 18 -5z m-93 -12 c0 -5 -13 -14 -30 -21 -16 -7 -35 -18 -41 -26 -15 -18 -29 -18 -29 1 0 8 6 15 14 15 7 0 19 7 26 15 7 8 16 13 20 10 5 -3 11 -1 15 5 8 12 25 13 25 1z m-485 -31 c3 -5 1 -10 -4 -10 -6 0 -11 5 -11 10 0 6 2 10 4 10 3 0 8 -4 11 -10z m332 -12 c-3 -8 -6 -5 -6 6 -1 11 2 17 5 13 3 -3 4 -12 1 -19z" fill="#efede8"/>
<path d="M3819 7381 c-35 -28 -20 -30 31 -4 38 20 41 23 18 23 -14 0 -36 -9 -49 -19z" fill="#efede8"/>
<path d="M4165 7382 l50 -17 -140 -6 c-157 -7 -148 -6 -141 -17 2 -4 47 -4 98 1 124 13 246 -2 321 -39 31 -16 57 -31 57 -34 0 -3 -27 -24 -60 -47 -33 -24 -60 -47 -60 -53 0 -18 50 -10 88 14 117 74 250 114 389 118 61 1 88 -3 126 -20 26 -11 47 -16 47 -11 0 5 -8 13 -17 16 -10 4 -23 13 -29 21 -8 11 -41 17 -105 22 -52 4 -76 8 -54 9 30 1 47 9 69 31 32 33 16 42 -18 11 -23 -21 -83 -30 -105 -17 -11 7 -8 12 10 22 23 13 21 14 -23 11 -30 -1 -48 -7 -48 -14 0 -18 -29 -16 -36 2 -4 8 -17 15 -29 15 -19 0 -24 -7 -30 -40 -5 -31 -14 -44 -35 -55 -26 -13 -33 -13 -77 7 -26 11 -59 29 -72 40 -18 14 -26 15 -32 7 -5 -9 -23 -5 -69 14 -34 15 -76 27 -93 26 -29 0 -28 -2 18 -17z m391 -39 c-2 -9 -7 -18 -13 -20 -6 -2 -8 7 -6 21 6 28 23 27 19 -1z m49 -3 c-27 -12 -35 -12 -35 0 0 6 12 10 28 9 24 0 25 -1 7 -9z" fill="#efede8"/>
<path d="M6973 7346 c-54 -59 -73 -107 -73 -184 0 -201 208 -349 380 -271 51 23 120 85 120 108 0 10 -14 1 -37 -23 -21 -22 -56 -47 -78 -57 -43 -20 -121 -25 -145 -9 -11 7 -7 10 18 10 110 0 215 113 216 232 1 47 -4 64 -29 99 -57 81 -173 115 -248 72 -35 -20 -81 -100 -75 -130 3 -12 9 -3 17 24 33 117 159 147 257 61 46 -41 64 -77 64 -131 0 -87 -79 -182 -171 -207 -91 -25 -145 18 -185 146 -31 100 -29 155 9 213 33 50 86 74 172 79 66 4 116 -7 198 -43 30 -13 20 24 -12 43 -23 14 -55 18 -155 20 l-126 3 -50 -47 c-54 -50 -83 -111 -95 -200 -9 -69 8 -126 53 -178 30 -34 27 -33 -10 6 -106 109 -103 255 8 365 29 29 47 53 39 53 -7 0 -35 -24 -62 -54z m51 -353 l27 -48 -31 30 c-46 44 -60 77 -59 142 l1 58 18 -67 c9 -36 30 -88 44 -115z" fill="#efede8"/>
<path d="M0 7343 c0 -6 10 -29 23 -50 30 -51 29 -145 -3 -226 -27 -71 -18 -89 11 -22 32 73 45 164 31 214 -13 40 -61 107 -62 84z" fill="#efede8"/>
<path d="M5811 6913 c-1 -13 -7 -22 -13 -20 -14 2 -15 -21 -3 -68 l8 -30 -34 31 c-34 32 -89 64 -109 64 -25 0 -6 -27 36 -49 58 -31 112 -92 152 -173 34 -68 74 -168 68 -168 -2 0 -22 33 -44 73 -48 87 -110 160 -152 177 -43 18 -47 6 -6 -19 64 -40 139 -136 177 -230 21 -51 26 -57 -64 71 -44 63 -67 83 -67 58 0 -6 21 -48 47 -93 25 -45 57 -107 70 -137 l23 -55 -24 29 c-14 16 -32 48 -42 70 -42 96 -115 204 -114 169 0 -5 23 -48 52 -98 105 -185 111 -210 32 -133 -118 114 -335 231 -455 245 -50 6 -139 -12 -139 -28 0 -5 23 -9 50 -9 35 0 49 -4 48 -12 -2 -9 14 -15 46 -18 66 -7 74 -30 11 -30 -70 0 -45 -20 28 -22 l62 -1 -50 -7 c-44 -6 -40 -7 40 -9 102 -3 102 -8 -3 -19 -40 -4 -74 -11 -75 -16 -1 -5 41 -10 93 -11 106 -1 208 -28 273 -71 49 -32 47 -38 -5 -15 -119 50 -254 58 -388 21 -47 -12 -89 -27 -94 -31 -13 -12 0 -12 42 0 39 12 41 6 5 -14 -39 -21 -77 -54 -70 -61 3 -4 20 5 36 19 50 41 135 79 173 75 32 -3 32 -4 -44 -48 -43 -25 -78 -49 -78 -53 0 -10 -8 -14 108 46 58 30 100 46 112 42 12 -4 23 1 32 13 13 19 14 19 88 1 97 -25 111 -39 37 -39 -46 0 -55 3 -51 15 8 19 -1 19 -62 0 -59 -18 -57 -18 -49 -5 10 16 -1 12 -47 -19 -24 -16 -53 -32 -65 -35 -13 -4 -23 -12 -23 -18 0 -6 7 -7 18 -2 9 4 51 9 92 11 70 3 73 2 50 -12 -14 -8 -35 -14 -47 -15 -13 0 -23 -4 -23 -10 0 -5 7 -10 15 -10 9 0 28 -8 42 -17 21 -14 48 -18 119 -18 l92 1 -81 -39 c-119 -55 -208 -110 -203 -123 2 -6 -31 -31 -75 -55 -97 -54 -108 -85 -21 -60 17 5 32 7 32 5 0 -16 -44 -87 -47 -76 -3 6 -8 12 -13 12 -10 0 -25 -108 -17 -116 3 -4 27 35 52 86 25 51 48 90 50 88 2 -2 -5 -35 -16 -73 -20 -73 -25 -120 -11 -111 5 3 21 37 37 76 15 38 30 68 32 66 2 -2 -3 -29 -12 -60 -9 -32 -14 -64 -11 -72 11 -29 31 -8 46 48 13 46 31 73 110 163 78 89 190 185 215 185 3 0 -7 -19 -21 -42 -31 -49 -93 -180 -119 -253 -10 -27 -22 -54 -25 -60 -14 -19 -99 -291 -125 -395 -14 -58 -29 -112 -32 -120 -3 -8 -5 -21 -4 -27 1 -7 -6 -13 -15 -13 -13 0 -14 -3 -5 -14 9 -11 8 -38 -8 -118 -11 -56 -25 -150 -32 -208 -6 -58 -16 -109 -20 -114 -5 -6 -9 -25 -9 -44 0 -29 -3 -32 -20 -27 -11 3 -20 2 -20 -4 0 -5 9 -13 20 -16 29 -9 14 -25 -24 -25 -21 0 -43 9 -60 25 -85 79 -282 129 -372 95 -42 -16 -23 -21 36 -10 96 18 260 -31 321 -96 12 -13 32 -25 43 -25 12 -1 -9 -5 -46 -10 -50 -7 -74 -15 -94 -34 -33 -30 -30 -31 30 -4 40 17 58 19 114 13 123 -12 191 -32 277 -78 47 -25 91 -46 99 -46 33 0 23 20 -29 56 -30 20 -55 39 -55 40 0 2 24 16 53 31 50 27 57 28 209 28 87 0 158 3 158 7 0 3 -44 9 -97 13 -144 9 -145 9 -60 29 89 21 155 16 225 -14 23 -10 42 -15 42 -11 0 4 -19 17 -42 27 -33 15 -65 19 -143 19 -89 0 -108 -4 -175 -31 -50 -21 -77 -28 -82 -21 -5 8 -13 6 -25 -5 -37 -32 -85 -50 -118 -44 -29 6 -33 11 -44 58 -10 44 -9 53 4 60 13 8 13 12 0 31 -12 20 -11 39 11 172 14 83 32 195 40 250 23 153 54 288 70 306 8 9 12 23 9 31 -12 30 65 285 127 422 39 85 129 248 135 243 2 -3 -21 -53 -51 -113 -52 -104 -97 -236 -95 -279 1 -12 5 -6 11 15 33 115 56 175 96 255 51 101 67 95 27 -11 -75 -197 -95 -259 -110 -333 -19 -90 -16 -142 4 -71 31 114 63 212 67 207 2 -2 -7 -49 -21 -103 -14 -55 -27 -124 -30 -154 l-5 -55 14 45 c12 43 13 42 8 -47 -5 -91 0 -107 25 -82 9 9 13 5 18 -17 11 -48 13 -51 14 -14 2 51 21 17 21 -37 0 -50 20 -70 21 -21 0 31 2 29 17 -19 26 -77 35 -77 27 2 -4 41 -12 75 -21 81 -8 6 -14 27 -14 47 0 31 2 34 22 29 20 -5 21 -3 15 36 -4 22 -16 62 -27 89 -20 48 -9 41 22 -16 18 -33 38 -41 38 -16 0 9 -16 65 -35 125 -31 96 -35 118 -29 170 4 33 10 60 15 60 4 0 10 -37 12 -82 2 -46 2 -12 0 74 -2 87 -6 166 -9 175 -5 14 -4 15 4 4 6 -8 13 -45 17 -83 4 -37 11 -68 16 -68 11 0 12 -10 -7 116 -8 58 -13 108 -10 111 3 3 14 -9 24 -26 13 -22 21 -60 26 -121 4 -49 13 -106 21 -127 l14 -38 1 30 c1 29 2 29 16 -10 8 -22 17 -47 21 -55 4 -8 12 -44 19 -80 12 -63 12 -61 7 55 -3 66 -11 160 -17 208 -12 85 -12 87 6 70 13 -14 22 -50 33 -138 29 -233 48 -336 62 -331 9 4 13 -5 13 -29 0 -19 -2 -35 -5 -35 -2 0 -16 21 -29 48 -30 56 -34 42 -6 -22 12 -29 26 -46 36 -46 15 0 16 13 10 152 -4 84 -5 150 -2 147 3 -3 12 -80 20 -171 8 -92 19 -175 25 -185 8 -14 9 -6 5 32 -5 43 0 33 34 -64 22 -62 44 -116 49 -120 5 -3 12 -14 16 -23 3 -10 11 -18 17 -18 6 0 9 3 6 8 -2 4 -14 71 -25 148 -13 85 -37 189 -61 264 -22 68 -38 125 -37 126 1 2 14 -18 27 -44 45 -83 32 -19 -20 101 -52 122 -72 185 -53 174 6 -4 32 -64 58 -134 53 -147 114 -283 127 -283 11 0 14 -13 -36 145 -25 77 -43 141 -42 143 2 1 27 -57 56 -130 60 -151 70 -172 76 -165 3 2 -5 28 -16 57 -30 76 -19 71 20 -10 32 -67 50 -87 50 -56 0 8 -7 22 -15 30 -22 22 -87 166 -75 166 6 0 10 5 10 10 0 6 -6 10 -14 10 -8 0 -19 15 -25 33 l-11 32 35 -40 c34 -39 46 -63 25 -50 -21 13 -8 -9 51 -91 56 -78 79 -99 79 -74 0 19 -37 83 -82 145 -24 33 -61 91 -82 128 -58 104 -152 198 -248 247 -44 23 -102 48 -129 56 -44 13 -48 17 -39 34 6 10 20 26 32 34 19 14 24 14 38 1 21 -19 38 -19 42 1 2 10 16 -3 38 -37 39 -58 67 -78 55 -38 -5 18 0 15 21 -13 25 -34 44 -48 44 -32 0 15 -104 186 -108 176 -2 -6 -11 -8 -19 -5 -12 5 -15 2 -10 -10 19 -46 17 -49 -6 -17 l-25 35 40 18 c23 9 42 16 43 15 21 -32 125 -228 125 -236 0 -7 5 -12 10 -12 16 0 13 8 -45 117 -30 56 -53 103 -51 103 2 0 48 -49 102 -110 55 -60 102 -110 107 -110 16 0 4 24 -45 88 l-51 67 76 -74 c81 -79 112 -90 56 -20 l-33 42 57 -38 c32 -21 61 -35 65 -31 4 4 -17 30 -46 58 -29 28 -45 47 -35 43 78 -31 146 -55 158 -55 29 0 14 15 -46 48 -33 19 -59 35 -57 37 2 1 44 -8 93 -21 140 -36 206 -30 107 10 -86 36 -167 77 -139 71 65 -13 250 -34 258 -29 22 13 5 24 -38 24 -27 0 -77 9 -111 20 -87 27 -227 45 -347 45 -154 -1 -307 -54 -391 -136 l-41 -41 -1 169 c-1 95 -8 203 -16 248 -15 91 -52 185 -71 185 -8 0 -18 12 -23 28 -9 24 -10 25 -11 5z m34 -116 c9 -29 19 -59 22 -67 5 -13 4 -13 -10 -2 -15 13 -57 110 -57 134 0 26 30 -18 45 -65z m61 -107 c9 -59 -3 -47 -20 19 -11 44 -11 50 0 39 7 -7 16 -33 20 -58z m-25 -223 c22 -37 39 -77 37 -88 -2 -14 -22 18 -61 93 -59 117 -48 114 24 -5z m-382 87 c13 -12 -8 -10 -29 2 l-25 15 25 -7 c14 -3 27 -8 29 -10z m67 -32 c-7 -7 -46 9 -46 18 0 5 11 4 25 -2 14 -6 23 -13 21 -16z m74 -37 c0 -11 -19 -4 -41 15 l-24 21 33 -16 c17 -8 32 -18 32 -20z m-30 -30 c25 -14 25 -14 -10 -8 -48 8 -73 22 -40 22 14 0 36 -6 50 -14z m777 -48 c93 -54 164 -100 159 -104 -5 -5 -130 57 -177 88 -20 13 -45 29 -55 36 -16 10 -17 12 -2 12 9 1 42 -14 75 -32z m177 -23 c72 -31 133 -59 136 -61 10 -11 -77 9 -150 34 -75 26 -170 69 -170 78 0 17 71 -3 184 -51z m-286 1 c17 -25 30 -45 29 -45 -2 0 -23 20 -47 45 -27 27 -38 45 -29 45 8 0 29 -20 47 -45z m345 28 c-7 -2 -19 -2 -25 0 -7 3 -2 5 12 5 14 0 19 -2 13 -5z m44 -9 c-3 -3 -12 -4 -19 -1 -8 3 -5 6 6 6 11 1 17 -2 13 -5z m-1138 -18 c-2 -2 -14 -8 -26 -14 -17 -9 -22 -9 -27 3 -4 11 2 15 26 15 17 0 29 -2 27 -4z m571 -32 c0 -23 -1 -24 -16 -10 -17 17 -20 16 -74 -23 l-35 -25 24 26 c21 24 75 57 94 58 4 0 7 -12 7 -26z m335 -40 l50 -46 -48 33 c-50 34 -76 59 -61 59 5 0 32 -21 59 -46z m-527 -20 c-3 -16 -7 -13 -21 13 -23 43 -21 52 4 26 12 -11 19 -29 17 -39z m-253 11 c-29 -14 -114 -21 -103 -9 6 5 90 21 118 22 8 0 2 -6 -15 -13z m145 5 c12 -8 9 -10 -13 -10 -16 0 -26 4 -22 10 8 12 16 12 35 0z m48 -48 c9 -9 25 -16 35 -14 9 2 17 -1 17 -7 0 -6 -4 -11 -9 -11 -5 0 -16 -3 -25 -6 -10 -4 -16 -1 -16 9 0 14 -31 31 -75 40 -11 3 -3 5 18 6 23 1 43 -5 55 -17z m-44 -16 l31 -13 -53 -11 c-74 -17 -204 -15 -227 2 -16 12 -13 15 41 29 65 18 156 14 208 -7z m249 -51 c39 -27 48 -39 21 -28 -12 4 -14 0 -10 -18 11 -51 26 -172 22 -176 -5 -5 -46 167 -46 195 0 11 -10 27 -22 35 -13 9 -18 16 -13 16 6 1 27 -10 48 -24z m-205 -11 c-9 -9 -21 -13 -28 -9 -14 9 5 25 30 25 12 0 12 -3 -2 -16z m423 -93 c29 -65 100 -273 95 -278 -2 -3 -14 22 -25 54 -59 159 -93 243 -103 249 -16 10 -27 -17 -21 -51 3 -21 -4 -11 -26 33 -39 81 -33 100 20 65 25 -17 47 -42 60 -72z m-511 76 c0 -2 -11 -14 -25 -27 -25 -23 -25 -23 -25 -2 0 11 8 23 18 25 24 7 32 7 32 4z m94 -22 c-9 -14 -19 -23 -22 -20 -5 4 26 45 35 45 2 0 -4 -11 -13 -25z m-227 -45 c-14 -11 -29 -20 -34 -20 -4 0 -14 -9 -21 -20 -7 -11 -17 -20 -22 -20 -21 0 -8 16 37 48 51 35 81 44 40 12z m47 6 c-3 -8 -13 -17 -22 -21 -13 -5 -13 -2 3 15 21 24 26 25 19 6z m423 -53 c-3 -10 -5 -2 -5 17 0 19 2 27 5 18 2 -10 2 -26 0 -35z m-412 17 c-10 -11 -20 -18 -23 -15 -7 6 18 35 31 35 5 0 2 -9 -8 -20z m249 -17 c-3 -21 -12 -44 -20 -52 -10 -11 -9 -2 3 37 20 61 27 67 17 15z m406 -5 c0 -14 -19 1 -31 25 -12 22 -12 22 10 3 11 -11 21 -23 21 -28z m-566 -41 c-14 -32 -30 -57 -35 -57 -5 0 5 27 22 61 38 76 49 72 13 -4z m-184 -21 c-75 -112 -92 -111 -27 1 25 42 50 66 75 72 1 1 -20 -32 -48 -73z m-58 -11 c-9 -26 -18 -42 -20 -36 -3 10 24 81 32 81 3 0 -3 -20 -12 -45z m863 3 l16 -33 -20 25 c-20 24 -26 40 -16 40 2 0 12 -15 20 -32z m-927 -53 c-18 -35 -33 -63 -35 -61 -6 5 25 97 37 111 29 35 28 10 -2 -50z m737 -25 c3 -41 3 -70 0 -65 -9 19 -22 156 -14 148 5 -5 11 -42 14 -83z m-805 50 c-19 -11 -39 -19 -45 -19 -5 0 6 8 25 19 19 11 40 19 45 19 6 0 -6 -8 -25 -19z m308 -95 c-18 -41 -34 -72 -36 -70 -7 7 50 145 59 145 4 0 -6 -34 -23 -75z m-229 -39 c-6 -26 -14 -44 -17 -42 -2 3 1 26 8 51 17 59 24 52 9 -9z m401 -56 c-11 -79 -29 -126 -30 -77 0 31 30 160 36 154 3 -2 0 -37 -6 -77z m434 -177 c28 -118 31 -143 15 -103 -22 52 -59 237 -58 285 l2 50 7 -60 c5 -33 20 -110 34 -172z m-349 136 c14 -45 24 -84 21 -86 -2 -2 -18 21 -35 51 -23 42 -29 62 -25 86 4 16 8 30 10 30 2 0 15 -37 29 -81z m-310 1 c-18 -51 -39 -87 -29 -50 10 37 32 90 38 90 3 0 -1 -18 -9 -40z m562 -12 c-2 -13 -4 -5 -4 17 -1 22 1 32 4 23 2 -10 2 -28 0 -40z m-316 -100 c-1 -62 -4 -114 -7 -117 -2 -2 -4 51 -4 119 0 68 3 121 6 117 4 -3 6 -57 5 -119z m440 -33 c12 -53 19 -98 17 -101 -3 -2 -13 31 -22 74 -9 43 -19 88 -23 100 -3 12 -3 22 0 22 3 0 15 -43 28 -95z m-463 -12 c1 -42 0 -74 -4 -70 -4 4 -14 1 -22 -5 -13 -11 -14 -4 -7 57 5 56 18 95 29 95 0 0 2 -35 4 -77z m-258 57 c0 -5 -5 -10 -11 -10 -5 0 -7 5 -4 10 3 6 8 10 11 10 2 0 4 -4 4 -10z m335 -47 l15 -48 -20 24 c-11 13 -20 37 -20 54 0 40 8 30 25 -30z m-360 -25 c-7 -33 -25 -62 -25 -41 0 15 21 73 27 73 2 0 2 -15 -2 -32z m-30 -98 c-4 -17 -9 -30 -11 -27 -2 2 -1 18 2 36 4 17 9 30 11 27 3 -2 2 -19 -2 -36z m802 -27 c-3 -10 -5 -4 -5 12 0 17 2 24 5 18 2 -7 2 -21 0 -30z m-790 -5 c-3 -8 -6 -5 -6 6 -1 11 2 17 5 13 3 -3 4 -12 1 -19z m-17 -88 c-7 -28 -16 -50 -22 -50 -5 0 -7 8 -4 18 3 9 10 37 17 62 16 60 24 33 9 -30z m16 -76 c-4 -14 -9 -24 -12 -21 -3 2 -2 17 2 31 3 15 9 25 11 22 3 -3 2 -17 -1 -32z m-26 2 c0 -11 -19 -15 -25 -6 -3 5 1 10 9 10 9 0 16 -2 16 -4z m-12 -44 c2 -7 -2 -10 -12 -6 -9 3 -16 11 -16 16 0 13 23 5 28 -10z m19 -54 c-3 -8 -6 -5 -6 6 -1 11 2 17 5 13 3 -3 4 -12 1 -19z m-33 -3 c3 -9 0 -15 -9 -15 -8 0 -15 7 -15 15 0 8 4 15 9 15 5 0 11 -7 15 -15z m-6 -49 c6 -30 -8 -66 -24 -66 -13 0 -15 7 -10 31 3 17 6 38 6 46 0 20 24 11 28 -11z m29 -18 c-3 -8 -6 -5 -6 6 -1 11 2 17 5 13 3 -3 4 -12 1 -19z m-43 -97 c-10 -45 -14 -52 -24 -46 -11 7 -14 68 -4 78 15 15 34 -6 28 -32z m-24 -102 c0 -32 -3 -39 -20 -39 -11 0 -20 5 -20 11 0 5 5 7 10 4 6 -4 10 10 10 35 0 25 4 39 10 35 6 -3 10 -24 10 -46z m-10 -115 c0 -13 -4 -24 -10 -24 -5 0 -10 14 -10 31 0 17 4 28 10 24 6 -3 10 -17 10 -31z m-43 -76 c-3 -7 -5 -2 -5 12 0 14 2 19 5 13 2 -7 2 -19 0 -25z m46 -14 c-3 -8 -9 -14 -13 -14 -14 0 -21 17 -14 34 5 12 10 14 20 6 7 -7 10 -18 7 -26z m40 -34 c3 -11 1 -20 -4 -20 -5 0 -9 9 -9 20 0 11 2 20 4 20 2 0 6 -9 9 -20z m-38 0 c13 -6 15 -9 5 -9 -8 0 -22 4 -30 9 -18 12 -2 12 25 0z" fill="#efede8"/>
<path d="M3654 6740 c-43 -9 -118 -65 -148 -109 -67 -96 -130 -319 -148 -523 -22 -233 14 -701 72 -948 39 -166 70 -312 70 -327 0 -6 -15 -15 -32 -18 -56 -12 -203 -80 -283 -130 -83 -52 -195 -149 -195 -170 0 -8 24 10 54 40 64 65 169 134 279 185 112 52 147 59 62 13 -115 -63 -245 -145 -245 -156 0 -5 12 -1 28 9 96 63 206 123 146 80 -10 -8 -16 -17 -12 -21 4 -4 23 6 44 21 77 59 158 103 171 92 10 -8 13 -6 13 5 0 11 19 22 58 34 83 26 332 26 380 0 18 -10 49 -20 68 -22 43 -6 130 -49 142 -71 7 -12 11 -13 16 -5 5 7 -9 28 -32 51 l-39 39 46 16 c25 9 81 19 124 22 42 3 77 10 77 14 0 17 -118 9 -185 -12 -37 -11 -79 -21 -93 -21 -28 0 -150 27 -158 35 -3 3 7 67 20 143 61 334 72 468 57 684 -21 291 -104 804 -145 896 -37 80 -156 167 -212 154z m91 -71 c60 -72 104 -186 160 -420 53 -223 75 -599 34 -604 -14 -3 -17 21 -22 189 -7 224 -26 380 -66 538 -28 113 -76 228 -93 228 -6 0 -8 -3 -6 -7 94 -184 131 -361 149 -726 l12 -238 -29 -29 c-46 -44 -65 -45 -120 -5 -108 77 -131 87 -197 88 -46 1 -73 -5 -104 -21 -23 -12 -44 -22 -46 -22 -3 0 -10 72 -17 161 -13 168 -6 314 25 475 28 150 109 311 193 387 54 48 90 49 127 6z m-232 -79 c-20 -33 -38 -59 -40 -56 -6 6 14 43 44 84 37 50 36 38 -4 -28z m353 -93 c14 -43 23 -81 20 -84 -3 -4 -6 0 -6 8 0 8 -16 52 -36 99 -48 117 -49 119 -25 85 11 -16 33 -65 47 -108z m-473 -787 c4 -60 3 -87 -3 -74 -10 26 -16 185 -6 173 2 -2 6 -47 9 -99z m603 -230 c-3 -96 -10 -191 -15 -210 -7 -26 -8 -12 -3 50 4 47 6 175 6 285 -2 168 0 188 8 125 5 -41 7 -154 4 -250z m-323 156 c23 -14 58 -39 77 -55 l34 -29 -28 5 c-15 3 -61 23 -102 44 -87 45 -139 50 -197 19 -36 -19 -51 -14 -23 9 55 46 169 49 239 7z m281 -21 c-4 -8 -10 -15 -15 -15 -4 0 -6 7 -3 15 4 8 10 15 15 15 4 0 6 -7 3 -15z m-351 -8 c26 -11 23 -12 -35 -12 -47 0 -73 -6 -100 -22 -21 -12 -40 -18 -42 -14 -6 9 31 45 54 54 27 10 94 6 123 -6z m-193 -27 c0 -5 -4 -10 -10 -10 -5 0 -10 5 -10 10 0 6 5 10 10 10 6 0 10 -4 10 -10z m525 -233 c-15 -167 -48 -419 -60 -458 -5 -14 -22 -17 -98 -18 -51 0 -116 -7 -144 -15 -29 -8 -55 -11 -57 -8 -8 15 -55 170 -61 202 -4 19 -22 105 -40 190 -19 85 -35 187 -37 225 l-3 70 45 23 c37 19 56 23 105 19 33 -3 80 -13 105 -22 92 -36 202 -26 242 22 11 14 13 12 16 -16 2 -18 -4 -114 -13 -214z m-517 117 c-3 -27 -4 -26 -9 8 -3 22 -1 34 4 29 5 -5 7 -21 5 -37z m9 -66 c-3 -8 -6 -5 -6 6 -1 11 2 17 5 13 3 -3 4 -12 1 -19z m528 -220 c-4 -62 -13 -140 -21 -173 l-14 -60 5 86 c4 94 25 259 33 259 2 0 1 -51 -3 -112z m-420 -325 c4 -14 2 -23 -4 -23 -6 0 -11 3 -11 8 0 4 -3 18 -6 32 -8 31 11 16 21 -17z m365 17 c0 -5 -5 -10 -11 -10 -5 0 -7 5 -4 10 3 6 8 10 11 10 2 0 4 -4 4 -10z" fill="#efede8"/>
<path d="M3756 5048 c3 -40 8 -75 10 -77 2 -2 4 30 4 72 0 48 -4 77 -11 77 -7 0 -8 -24 -3 -72z" fill="#efede8"/>
<path d="M3825 5036 c-4 -46 -5 -90 -2 -98 2 -7 7 19 11 57 4 39 10 82 12 98 3 15 1 27 -4 27 -6 0 -13 -38 -17 -84z" fill="#efede8"/>
<path d="M7243 5273 c-18 -7 -16 -44 12 -216 35 -212 36 -216 25 -192 -5 11 -39 100 -76 198 -37 97 -71 177 -77 177 -12 0 -10 -7 58 -179 31 -79 55 -145 52 -147 -2 -2 -18 32 -35 75 -40 97 -96 185 -146 229 -83 73 -70 20 40 -159 46 -75 84 -141 84 -148 0 -6 -38 22 -84 62 -45 41 -92 80 -104 86 -62 33 -14 -71 66 -143 31 -28 85 -79 121 -114 l66 -63 -109 56 c-104 52 -150 64 -190 49 -29 -11 -19 -41 17 -49 17 -4 38 -9 44 -10 27 -6 222 -129 264 -165 l44 -40 -55 30 c-30 16 -63 30 -72 30 -10 0 -46 16 -81 35 -64 35 -101 43 -112 25 -4 -6 -11 -8 -16 -5 -14 9 -29 -4 -23 -20 4 -8 27 -21 53 -29 26 -8 72 -28 102 -44 30 -17 86 -43 124 -57 90 -34 152 -70 158 -92 4 -17 5 -17 6 0 2 29 -28 65 -64 77 -18 6 -39 18 -46 26 -18 22 71 -13 91 -36 14 -15 16 5 17 214 l1 231 -18 -85 c-9 -47 -20 -78 -23 -70 -3 8 -11 56 -16 105 -15 119 -61 337 -75 351 -6 7 -17 10 -23 7z m-80 -235 c6 -22 5 -22 -8 -4 -17 22 -20 40 -6 32 5 -3 11 -16 14 -28z m144 -50 c-3 -8 -6 -5 -6 6 -1 11 2 17 5 13 3 -3 4 -12 1 -19z m-247 -43 c19 -19 32 -35 29 -35 -3 0 -20 16 -39 35 -19 19 -32 35 -29 35 3 0 20 -16 39 -35z m150 -114 c0 -8 -1 -12 -2 -10 -2 3 -34 38 -73 78 l-70 74 72 -64 c40 -35 73 -70 73 -78z m118 24 c0 -22 -3 -19 -9 15 -10 60 -9 108 2 55 4 -22 8 -53 7 -70z m-68 10 c0 -5 -5 -3 -10 5 -5 8 -10 20 -10 25 0 6 5 3 10 -5 5 -8 10 -19 10 -25z m-235 -45 c13 -6 15 -9 5 -9 -8 0 -22 4 -30 9 -18 12 -2 12 25 0z m352 -92 c-3 -7 -5 -2 -5 12 0 14 2 19 5 13 2 -7 2 -19 0 -25z m-106 -34 c62 -41 69 -49 69 -79 0 -21 6 -35 16 -39 9 -4 14 -9 11 -12 -8 -9 -48 6 -42 16 11 18 -29 70 -73 96 -46 26 -62 41 -62 57 0 13 11 8 81 -39z m96 -21 c-3 -10 -5 -4 -5 12 0 17 2 24 5 18 2 -7 2 -21 0 -30z m-17 17 c0 -5 -5 -10 -11 -10 -5 0 -7 5 -4 10 3 6 8 10 11 10 2 0 4 -4 4 -10z m-160 -90 c57 -38 42 -38 -30 0 -34 18 -47 29 -35 29 11 1 40 -13 65 -29z" fill="#efede8"/>
<path d="M19 5063 c-7 -23 -13 -109 -14 -213 -2 -198 -3 -199 50 88 25 136 25 163 -1 141 -12 -10 -13 -9 -8 5 3 9 1 16 -4 16 -6 0 -17 -17 -23 -37z m11 -168 c-13 -60 -18 -74 -15 -40 6 62 29 165 32 145 1 -8 -6 -55 -17 -105z" fill="#efede8"/>
<path d="M150 4992 c-95 -167 -150 -369 -150 -546 0 -74 4 -106 13 -109 9 -4 9 -6 0 -6 -8 -1 -13 -15 -13 -37 0 -30 4 -37 29 -45 22 -8 27 -15 24 -33 -3 -13 0 -27 6 -30 7 -5 11 2 11 18 0 28 15 42 26 24 4 -6 11 -29 14 -50 7 -34 5 -38 -9 -32 -9 3 -35 12 -58 20 l-42 13 2 -46 c2 -44 4 -47 42 -60 22 -8 50 -11 61 -9 18 5 22 0 27 -31 4 -20 5 -39 3 -41 -2 -2 -32 9 -66 23 -34 14 -65 24 -68 21 -8 -9 -2 -13 73 -45 51 -21 71 -35 73 -50 4 -26 19 -28 25 -3 4 14 5 14 6 -3 0 -11 -6 -45 -14 -75 -18 -65 -18 -70 -5 -70 5 0 12 16 16 36 3 19 10 32 14 27 10 -10 30 -151 30 -208 0 -25 5 -45 10 -45 11 0 7 163 -6 248 -8 51 12 95 95 211 67 94 126 215 141 288 20 95 -15 84 -71 -21 l-36 -68 5 58 c4 53 3 57 -15 52 -18 -5 -16 4 19 99 21 57 38 111 38 119 0 52 -53 -41 -116 -202 -55 -143 -105 -254 -113 -254 -4 0 -12 14 -18 31 -11 28 -8 39 31 118 77 154 122 298 137 441 4 47 11 102 15 124 11 61 -16 41 -48 -35 l-27 -64 -1 53 c0 105 -29 56 -103 -175 -25 -76 -50 -164 -57 -196 -8 -32 -16 -60 -20 -62 -4 -2 -15 20 -25 49 l-19 54 41 104 c22 56 45 117 51 133 6 17 11 25 11 18 1 -6 -17 -70 -39 -142 -39 -128 -51 -186 -30 -150 13 22 138 457 146 508 4 28 3 41 -5 41 -12 0 -13 -3 -16 -42 -4 -48 -26 -115 -39 -115 -9 0 -3 34 22 116 19 64 37 124 39 134 13 43 -17 8 -67 -81z m-30 -178 c-76 -244 -93 -294 -103 -294 -4 0 -6 8 -3 18 3 9 15 60 26 112 11 52 28 118 37 145 18 58 82 189 89 183 2 -3 -18 -76 -46 -164z m166 -114 c-17 -58 -25 -75 -25 -54 -1 32 40 166 46 149 1 -6 -8 -48 -21 -95z m-96 -175 c-50 -148 -60 -200 -39 -207 6 -2 3 -20 -9 -48 -21 -47 -21 -47 -41 20 -10 31 -6 54 23 160 19 69 49 166 66 215 18 50 35 99 38 110 4 12 8 -4 10 -40 2 -50 -6 -85 -48 -210z m23 -60 c-62 -178 -74 -169 -18 14 19 62 35 116 36 120 0 3 4 -3 8 -14 6 -14 -3 -52 -26 -120z m37 14 c-17 -50 -35 -99 -41 -108 -13 -19 -13 -21 32 117 18 57 35 99 37 93 2 -5 -11 -51 -28 -102z m61 -96 c-12 -20 -14 -14 -5 12 4 9 9 14 11 11 3 -2 0 -13 -6 -23z m123 -64 c-23 -76 -109 -238 -120 -226 -5 5 93 236 112 265 23 35 26 22 8 -39z m-399 41 c3 -6 -1 -7 -9 -4 -18 7 -21 14 -7 14 6 0 13 -4 16 -10z m256 -27 c-12 -20 -14 -14 -5 12 4 9 9 14 11 11 3 -2 0 -13 -6 -23z m39 -97 c-14 -75 -62 -199 -84 -221 -9 -9 -16 -26 -16 -38 0 -12 -5 -29 -10 -37 -18 -28 -11 16 21 133 41 150 93 281 97 248 2 -14 -1 -52 -8 -85z m-266 68 c9 -24 0 -28 -24 -11 -15 11 -18 16 -8 20 22 9 26 8 32 -9z m175 -173 c-7 -22 -20 -48 -30 -57 -15 -14 -14 -6 8 45 29 68 41 75 22 12z m-138 -1 c10 0 19 -7 19 -15 0 -21 -24 -19 -51 6 -19 16 -20 19 -6 15 10 -3 27 -6 38 -6z" fill="#efede8"/>
<path d="M6970 4588 c0 -18 106 -81 275 -164 77 -38 143 -70 148 -72 4 -2 7 14 7 36 0 35 -4 41 -30 52 -16 7 -30 18 -30 25 0 19 -78 52 -156 67 -37 6 -82 22 -101 35 -35 24 -59 30 -48 13 9 -14 -1 -12 -35 5 -23 12 -30 13 -30 3z m296 -119 c41 -17 73 -33 71 -35 -5 -6 -139 44 -151 56 -16 16 1 12 80 -21z" fill="#efede8"/>
<path d="M1485 4490 c-132 -74 -352 -78 -554 -10 -66 22 -81 24 -81 12 0 -5 18 -14 40 -21 22 -6 40 -16 40 -21 0 -5 8 -9 18 -8 9 2 53 -6 97 -17 118 -29 345 -28 437 1 65 21 67 21 84 3 21 -23 61 -36 142 -44 70 -8 242 3 242 15 0 4 -64 8 -143 7 -143 0 -204 10 -227 38 -9 11 -3 11 36 -1 57 -17 146 -18 247 -3 70 10 107 23 97 32 -3 3 -41 -1 -85 -9 -152 -25 -261 -14 -310 32 -14 13 -27 23 -28 23 -1 -1 -24 -14 -52 -29z m39 -26 c-61 -25 -91 -26 -39 -1 28 13 54 22 60 19 5 -3 -5 -11 -21 -18z" fill="#efede8"/>
<path d="M7000 4454 c0 -9 23 -26 57 -41 32 -15 52 -28 45 -31 -22 -7 -12 -20 28 -36 22 -9 40 -20 40 -25 0 -9 132 -47 193 -55 35 -4 37 -3 37 23 0 32 -13 39 -244 130 -140 55 -156 59 -156 35z" fill="#efede8"/>
<path d="M2100 4416 c-33 -18 -169 -52 -270 -67 -94 -15 -169 -4 -269 36 -69 28 -47 30 -230 -20 -150 -41 -336 -43 -411 -5 -45 23 -50 24 -50 10 0 -6 21 -20 48 -32 40 -19 64 -22 172 -21 128 1 220 15 338 54 l62 21 88 -33 c75 -28 99 -33 177 -32 132 1 385 62 385 92 0 14 -9 13 -40 -3z" fill="#efede8"/>
<path d="M650 4382 c0 -23 193 -95 303 -112 99 -16 391 -8 467 13 48 13 63 13 130 1 143 -28 491 -12 459 21 -3 2 -32 0 -65 -5 -92 -15 -299 -12 -390 6 -74 15 -84 15 -135 -1 -70 -22 -332 -31 -452 -16 -80 9 -122 23 -304 98 -7 3 -13 1 -13 -5z" fill="#efede8"/>
<path d="M7075 4320 c-3 -6 2 -13 12 -16 96 -31 175 -74 97 -52 -20 5 -45 7 -56 5 -12 -3 -31 6 -53 27 -19 18 -37 31 -39 29 -11 -12 11 -37 63 -73 73 -49 295 -153 299 -139 7 19 -7 37 -35 43 -42 11 -175 68 -170 73 6 6 159 -46 172 -58 14 -14 35 -11 35 5 0 8 -10 18 -22 22 -13 3 -63 30 -113 59 -85 50 -158 85 -176 85 -4 0 -11 -5 -14 -10z" fill="#efede8"/>
<path d="M7040 4216 c0 -8 4 -17 10 -21 5 -3 7 -12 3 -20 -3 -8 0 -15 7 -15 9 0 10 -3 1 -13 -14 -18 -4 -27 29 -27 36 0 85 -21 201 -86 54 -30 100 -54 103 -54 3 0 6 6 6 13 0 7 -18 24 -41 36 -46 26 -47 41 0 17 34 -18 41 -19 41 -8 0 5 -69 42 -152 82 -84 40 -165 82 -180 92 -23 16 -28 17 -28 4z" fill="#efede8"/>
<path d="M3535 4168 c-18 -36 -30 -198 -14 -198 10 0 13 13 28 134 7 48 10 90 8 93 -3 2 -13 -11 -22 -29z" fill="#efede8"/>
<path d="M3702 4123 c-28 -24 -94 -148 -90 -169 2 -13 13 -5 41 29 27 34 34 47 22 47 -14 0 -14 3 0 30 8 16 27 41 42 55 31 28 17 35 -15 8z" fill="#efede8"/>
<path d="M3116 4102 c-13 -21 74 -162 99 -162 22 0 19 6 -30 70 -25 32 -49 69 -53 81 -6 14 -11 18 -16 11z" fill="#efede8"/>
<path d="M3290 4104 c0 -14 34 -62 53 -73 17 -11 19 -11 13 4 -3 9 -6 24 -6 33 0 14 -2 15 -9 3 -8 -12 -12 -10 -22 12 -11 24 -29 37 -29 21z" fill="#efede8"/>
<path d="M5718 4015 c-54 -43 -128 -143 -128 -173 0 -10 -8 -8 -28 7 -50 35 -109 44 -180 27 -65 -15 -112 -39 -112 -56 0 -14 13 -12 61 10 24 11 55 20 68 20 21 0 112 -34 164 -61 23 -13 33 -5 56 40 11 20 40 60 65 88 25 28 46 56 46 62 0 6 18 22 40 36 22 14 40 30 40 35 0 22 -38 7 -92 -35z m-197 -171 c17 -8 29 -18 26 -20 -3 -3 -22 4 -44 15 -21 11 -32 20 -25 21 7 0 27 -7 43 -16z" fill="#efede8"/>
<path d="M0 3986 c0 -7 23 -23 51 -35 57 -23 79 -26 79 -11 0 6 -6 10 -12 10 -7 0 -37 11 -65 25 -38 17 -53 20 -53 11z" fill="#efede8"/>
<path d="M2980 3943 c0 -12 120 -74 120 -63 0 9 -97 70 -112 70 -5 0 -8 -3 -8 -7z" fill="#efede8"/>
<path d="M3810 3887 c-41 -29 -43 -32 -21 -35 22 -4 81 40 81 60 0 14 -13 8 -60 -25z" fill="#efede8"/>
<path d="M3352 3862 c-69 -25 -157 -86 -182 -128 -29 -46 -34 -92 -20 -171 30 -163 117 -246 259 -246 85 0 147 28 223 103 43 43 60 69 72 111 21 67 13 167 -17 221 -52 95 -220 150 -335 110z m216 -41 c20 -10 48 -32 62 -47 l25 -27 -38 28 c-21 15 -61 36 -90 46 -42 14 -46 18 -24 18 15 1 44 -8 65 -18z m-274 -35 c-21 -19 -41 -32 -44 -29 -7 6 57 63 72 63 6 0 -6 -15 -28 -34z m209 13 c12 -6 43 -32 69 -57 88 -85 98 -194 27 -292 -41 -57 -83 -80 -145 -80 -128 0 -244 118 -244 251 0 56 52 127 119 161 57 30 134 37 174 17z m176 -146 c12 -44 13 -79 2 -108 -6 -14 -10 -1 -14 44 -3 37 -16 84 -31 114 l-25 52 29 -32 c16 -18 34 -49 39 -70z m-496 31 c-10 -28 -19 -42 -21 -32 -3 17 27 92 34 85 2 -2 -4 -26 -13 -53z m0 -114 c3 -11 1 -18 -4 -14 -5 3 -9 12 -9 20 0 20 7 17 13 -6z m183 -220 c60 -23 27 -27 -41 -4 -45 16 -125 82 -125 104 0 5 26 -10 58 -35 33 -25 81 -54 108 -65z" fill="#efede8"/>
<path d="M5914 3798 c-32 -35 -68 -75 -79 -90 -19 -25 -22 -26 -60 -16 -52 14 -208 -18 -213 -44 -4 -22 34 -27 76 -10 30 11 38 10 93 -14 33 -15 64 -34 69 -43 7 -13 12 -10 27 17 10 17 21 32 26 32 4 0 7 7 7 16 0 8 11 32 25 52 14 20 25 44 25 53 0 8 18 30 40 48 36 29 53 61 32 61 -4 0 -35 -28 -68 -62z m-129 -132 c16 -6 25 -14 20 -17 -6 -3 -26 3 -45 13 -40 20 -21 24 25 4z m4 -42 c14 -12 -19 -1 -35 12 -18 14 -18 14 6 3 14 -6 27 -13 29 -15z" fill="#efede8"/>
<path d="M2876 3773 c-27 -27 25 -68 100 -80 35 -6 43 4 22 26 -11 11 -7 12 20 6 19 -4 32 -3 32 4 0 5 -21 13 -47 17 -27 4 -64 13 -85 20 -20 7 -39 10 -42 7z m74 -43 c19 -11 29 -19 22 -20 -16 0 -82 27 -82 34 0 11 25 5 60 -14z" fill="#efede8"/>
<path d="M3830 3630 c0 -5 7 -10 16 -10 8 0 13 -4 9 -9 -3 -6 11 -13 32 -16 21 -3 46 -8 55 -10 40 -7 24 14 -24 34 -55 23 -88 27 -88 11z" fill="#efede8"/>
<path d="M1035 3579 c-94 -14 -232 -56 -305 -94 -65 -35 -158 -105 -173 -130 -14 -25 11 -25 41 0 37 31 40 31 44 0 l3 -25 45 31 c25 16 68 41 95 55 28 13 39 16 25 7 -48 -34 -80 -72 -80 -95 0 -19 4 -17 25 18 41 68 173 124 295 124 45 0 72 -8 141 -41 182 -88 352 -125 466 -101 66 15 193 71 193 86 0 7 20 22 45 34 48 23 125 88 125 105 0 6 -15 -3 -32 -19 -18 -17 -42 -37 -52 -44 -18 -14 -18 -13 -11 10 l7 25 -26 -25 c-29 -27 -111 -48 -187 -49 -80 -1 -231 30 -339 71 -176 66 -226 74 -345 57z m283 -70 c241 -85 269 -91 362 -85 47 3 99 8 115 12 17 4 27 3 23 -1 -14 -15 -125 -35 -198 -35 -91 0 -146 14 -265 68 -138 62 -177 72 -278 73 -67 1 -84 4 -62 10 62 17 181 0 303 -42z m-348 4 c-96 -34 -178 -72 -238 -110 -40 -25 -75 -43 -77 -41 -2 2 4 18 15 36 32 52 191 121 280 121 19 -1 28 -3 20 -6z m231 -9 c42 -9 88 -29 117 -48 26 -18 64 -44 85 -59 81 -56 214 -57 364 -2 82 30 72 15 -14 -20 -52 -22 -90 -29 -159 -33 -116 -6 -212 18 -365 89 -142 66 -204 72 -324 34 -20 -6 -20 -6 0 6 31 20 135 47 183 48 24 1 74 -6 113 -15z m258 -96 c29 -10 79 -23 110 -27 l56 -9 -65 -1 c-65 -1 -123 17 -173 55 -19 14 -20 16 -2 9 11 -4 44 -16 74 -27z" fill="#efede8"/>
<path d="M2985 3443 c-35 -19 -45 -28 -32 -31 16 -3 107 42 107 53 0 11 -28 2 -75 -22z" fill="#efede8"/>
<path d="M3730 3450 c0 -5 4 -10 9 -10 5 0 16 -6 23 -13 27 -26 136 -69 143 -57 6 10 -137 90 -160 90 -8 0 -15 -4 -15 -10z" fill="#efede8"/>
<path d="M3140 3267 c-38 -51 -44 -66 -36 -83 9 -20 11 -19 37 19 15 23 25 45 23 49 -3 5 4 20 15 34 12 15 21 31 21 35 0 20 -17 4 -60 -54z" fill="#efede8"/>
<path d="M3570 3299 c0 -14 103 -142 118 -146 4 -2 13 1 21 6 12 8 11 16 -10 48 -14 21 -29 47 -33 58 -5 15 -9 16 -15 6 -7 -11 -11 -10 -19 5 -6 10 -14 15 -18 11 -4 -4 -16 0 -26 10 -14 13 -18 13 -18 2z" fill="#efede8"/>
<path d="M4934 3269 c-23 -11 -70 -49 -104 -85 l-63 -65 -23 28 c-20 26 -27 28 -91 27 -67 0 -133 -18 -133 -35 0 -5 -22 -20 -50 -34 -41 -21 -49 -29 -46 -48 3 -12 5 -24 5 -27 1 -2 8 5 16 18 26 36 99 73 159 79 68 7 98 0 132 -32 30 -27 54 -33 54 -12 0 34 61 96 120 123 33 16 60 32 60 36 0 4 8 8 18 8 26 0 34 11 21 27 -15 18 -27 17 -75 -8z" fill="#efede8"/>
<path d="M6148 3252 c-31 -20 -112 -122 -139 -175 -30 -57 -76 -188 -98 -275 -18 -72 -26 -119 -51 -327 -36 -292 -8 -557 104 -1000 l54 -210 -92 -59 c-108 -69 -151 -108 -177 -158 -32 -61 -3 -55 64 15 150 156 382 241 555 204 35 -8 65 -10 67 -6 3 4 -1 10 -7 13 -7 4 -2 4 12 0 14 -3 39 -5 55 -5 l30 2 -35 -31 c-19 -18 -27 -29 -17 -26 12 4 17 0 17 -17 1 -18 4 -15 20 15 25 47 61 59 196 65 76 4 116 1 165 -12 110 -30 111 -30 107 -10 -1 10 -21 25 -43 33 -56 22 -293 21 -352 -1 -25 -10 -45 -12 -48 -6 -4 5 -18 9 -32 9 -29 0 -29 -16 2 150 56 309 89 759 66 915 -60 397 -146 688 -251 840 -48 70 -117 93 -172 57z m61 -5 c-2 -1 -13 -9 -24 -17 -19 -14 -19 -14 -6 3 7 9 18 17 24 17 6 0 8 -1 6 -3z m31 -39 c0 -7 -5 -20 -10 -28 -8 -12 -10 -9 -10 13 0 15 5 27 10 27 6 0 10 -6 10 -12z m-43 -215 c-4 -126 -3 -267 3 -333 6 -63 13 -159 17 -212 6 -95 5 -97 -21 -129 -26 -30 -27 -38 -24 -103 3 -43 9 -70 15 -69 6 1 17 -5 26 -15 12 -14 16 -83 22 -414 l7 -398 -35 0 c-20 0 -63 -9 -96 -19 -59 -18 -73 -17 -50 6 7 7 8 17 1 29 -22 42 -112 459 -131 607 -58 447 2 883 154 1123 41 64 103 144 112 144 3 0 3 -98 0 -217z m100 195 c32 -36 57 -92 106 -243 87 -266 120 -491 120 -825 0 -241 -42 -618 -85 -768 -13 -43 -14 -44 -48 -38 -19 3 -56 6 -82 6 -35 0 -48 4 -48 14 0 8 5 16 11 18 8 3 9 105 3 383 l-9 380 33 33 c27 28 32 40 32 82 0 45 -4 54 -42 92 l-43 43 -4 180 c-2 98 0 289 4 422 8 257 10 267 52 221z m-233 -83 c-9 -14 -18 -25 -21 -25 -5 0 5 18 20 38 17 22 18 13 1 -13z m153 -357 c-1 -46 -3 -11 -3 77 0 88 2 125 3 83 2 -42 2 -114 0 -160z m-310 -185 c-3 -10 -5 -2 -5 17 0 19 2 27 5 18 2 -10 2 -26 0 -35z m651 -313 l0 -95 -13 130 c-7 72 -15 157 -18 190 -5 47 -2 39 13 -35 11 -57 19 -133 18 -190z m-661 -282 c-3 -8 -6 -5 -6 6 -1 11 2 17 5 13 3 -3 4 -12 1 -19z m637 -173 c-4 -53 -10 -93 -14 -88 -8 8 10 197 17 189 3 -2 1 -47 -3 -101z m-607 -37 c-3 -8 -6 -5 -6 6 -1 11 2 17 5 13 3 -3 4 -12 1 -19z m10 -60 c-3 -7 -5 -2 -5 12 0 14 2 19 5 13 2 -7 2 -19 0 -25z m10 -60 c-3 -7 -5 -2 -5 12 0 14 2 19 5 13 2 -7 2 -19 0 -25z m322 -225 l-2 -48 -6 40 c-7 38 -5 55 5 55 2 0 3 -21 3 -47z m191 -88 c-16 -41 -21 -25 -7 20 6 22 13 33 15 24 1 -9 -2 -28 -8 -44z m-620 -198 c0 -2 -12 -14 -27 -28 l-28 -24 24 28 c23 25 31 32 31 24z" fill="#efede8"/>
<path d="M3328 3223 c-22 -27 -50 -107 -38 -111 5 -2 10 -11 10 -20 0 -14 2 -14 14 -2 13 14 46 114 46 139 0 16 -15 13 -32 -6z" fill="#efede8"/>
<path d="M3469 3163 c-14 -37 -4 -54 12 -18 l13 30 3 -30 c6 -55 13 -76 24 -69 10 6 7 49 -7 97 -8 26 -33 21 -45 -10z" fill="#efede8"/>
<path d="M2056 3129 c-71 -20 -139 -89 -181 -182 -37 -84 -84 -291 -95 -417 -18 -200 21 -706 68 -880 12 -41 30 -120 41 -175 12 -55 24 -110 27 -122 5 -17 2 -23 -10 -23 -29 0 -186 -68 -269 -117 -82 -48 -218 -165 -205 -178 3 -4 25 14 49 39 23 26 72 66 109 91 74 49 238 131 246 123 3 -3 -28 -24 -69 -46 -97 -52 -190 -112 -184 -118 2 -3 42 19 88 47 46 29 75 42 65 30 -26 -29 -7 -27 35 5 51 38 151 96 156 90 3 -3 12 1 19 9 42 41 320 56 404 21 25 -10 55 -20 67 -21 45 -6 91 -26 113 -50 13 -14 27 -25 32 -25 17 0 7 23 -26 56 l-34 34 65 20 c36 11 87 20 115 20 30 0 47 4 43 10 -11 17 -89 11 -174 -15 -78 -23 -85 -24 -139 -10 -31 8 -65 15 -75 15 -23 0 -24 -12 24 255 31 169 33 194 32 400 0 157 -5 252 -17 330 -10 61 -21 145 -26 187 -17 150 -71 410 -96 459 -38 77 -147 152 -198 138z m86 -66 c60 -66 95 -158 154 -400 34 -139 37 -161 41 -355 5 -179 4 -208 -9 -208 -12 0 -16 31 -21 178 -12 318 -60 580 -128 691 -30 49 -33 32 -4 -22 29 -51 68 -196 90 -332 17 -99 39 -475 31 -519 -6 -34 -43 -65 -78 -66 -16 0 -44 14 -70 35 -94 76 -180 94 -267 55 -24 -11 -44 -20 -46 -20 -1 0 -8 71 -15 158 -11 137 -10 174 5 295 24 205 58 313 132 424 73 110 135 139 185 86z m-216 -78 c-42 -68 -51 -79 -37 -43 12 33 62 110 68 105 2 -2 -12 -30 -31 -62z m300 -7 c27 -53 58 -147 51 -154 -2 -2 -12 22 -21 54 -10 31 -29 78 -42 105 -14 26 -22 47 -19 47 2 0 16 -23 31 -52z m-413 -808 c3 -56 2 -83 -3 -65 -8 30 -13 172 -6 164 2 -2 6 -47 9 -99z m568 -155 c0 -93 -3 -195 -8 -225 -5 -37 -8 29 -8 203 0 141 3 243 8 225 4 -18 7 -109 8 -203z m-313 85 c47 -25 111 -80 92 -80 -7 0 -47 16 -87 36 -91 46 -145 52 -196 25 -21 -10 -37 -15 -35 -9 2 6 20 19 38 30 48 25 139 24 188 -2z m268 -37 c-10 -10 -19 5 -10 18 6 11 8 11 12 0 2 -7 1 -15 -2 -18z m-321 3 l30 -14 -42 5 c-37 5 -77 -4 -145 -32 -31 -12 -20 14 15 35 37 23 98 25 142 6z m-185 -26 c0 -5 -2 -10 -4 -10 -3 0 -8 5 -11 10 -3 6 -1 10 4 10 6 0 11 -4 11 -10z m495 -187 c-8 -103 -25 -246 -35 -317 -23 -148 -24 -159 -10 -151 6 3 10 2 10 -3 0 -6 -34 -8 -82 -5 -56 3 -104 0 -148 -10 -36 -9 -68 -13 -71 -9 -11 12 -56 154 -64 202 -4 25 -20 104 -35 175 -16 72 -32 160 -35 197 l-7 66 41 21 c55 29 125 27 219 -5 68 -24 80 -25 126 -15 28 6 62 20 76 31 14 10 26 17 28 15 2 -2 -4 -88 -13 -192z m-487 81 c-3 -27 -4 -26 -9 8 -3 22 -1 34 4 29 5 -5 7 -21 5 -37z m492 -400 c-12 -83 -34 -144 -26 -69 3 22 11 92 18 155 12 106 13 111 16 55 2 -33 -1 -96 -8 -141z m-386 -160 c8 -22 7 -34 -3 -34 -5 0 -11 11 -13 25 -6 28 6 34 16 9z" fill="#efede8"/>
<path d="M2151 1583 c0 -15 4 -48 8 -73 8 -44 9 -44 10 22 0 37 -3 70 -9 73 -6 4 -10 -6 -9 -22z" fill="#efede8"/>
<path d="M2226 1593 c-2 -10 -7 -52 -10 -93 -8 -95 9 -63 18 38 7 68 3 93 -8 55z" fill="#efede8"/>
<path d="M28 2942 c-21 -12 -28 -24 -27 -47 1 -16 3 -23 6 -15 2 8 18 24 35 35 34 22 48 45 26 45 -7 0 -25 -8 -40 -18z" fill="#efede8"/>
<path d="M7345 2869 c-28 -30 -59 -73 -69 -96 l-19 -42 -26 18 c-50 36 -103 43 -179 26 -67 -16 -118 -47 -107 -65 3 -6 28 1 55 15 27 14 59 25 71 25 27 0 171 -58 180 -72 4 -6 21 13 38 45 18 30 50 76 72 101 30 33 40 53 37 72 -3 26 -4 25 -53 -27z m-137 -132 c7 -5 11 -12 8 -14 -5 -5 -66 25 -66 33 0 7 42 -6 58 -19z" fill="#efede8"/>
<path d="M185 2692 c-38 -41 -75 -82 -82 -92 -11 -15 -19 -17 -45 -9 -53 15 -58 12 -58 -31 0 -22 4 -40 9 -40 4 0 24 -11 44 -24 l35 -24 12 29 c7 16 19 29 26 29 8 0 14 9 14 21 0 11 9 34 21 50 11 16 22 36 23 45 1 8 19 32 40 53 21 22 36 45 34 53 -3 8 -31 -15 -73 -60z m-111 -133 c20 -18 0 -17 -34 2 -35 19 -35 19 -5 13 17 -4 34 -10 39 -15z m-18 -30 c8 -14 -10 -11 -32 6 -18 13 -18 14 4 8 12 -3 25 -9 28 -14z" fill="#efede8"/>
<path d="M7320 2583 c-63 -15 -90 -28 -90 -43 0 -15 52 -17 80 -4 21 11 35 12 55 4 36 -14 35 -14 35 25 0 19 -3 35 -7 34 -5 0 -37 -8 -73 -16z" fill="#efede8"/>
<path d="M4176 2546 c-3 -13 -14 -26 -24 -28 -22 -6 -66 -121 -81 -213 -21 -124 -28 -314 -16 -420 l7 -70 -53 52 c-62 59 -120 90 -239 128 -92 29 -278 49 -318 34 -13 -5 -64 -14 -115 -19 -51 -6 -134 -22 -186 -36 -52 -14 -112 -24 -135 -22 -32 2 -41 -1 -44 -14 -2 -12 3 -18 15 -18 25 0 239 27 283 36 52 10 36 1 -86 -53 -60 -26 -111 -52 -112 -58 -2 -15 70 -6 173 20 49 13 99 26 110 30 23 8 -17 -19 -87 -59 -49 -28 -61 -46 -30 -46 9 0 55 16 102 35 46 19 85 33 87 31 1 -1 -25 -26 -57 -55 -52 -46 -67 -71 -41 -71 4 0 35 20 69 45 34 25 62 43 62 41 0 -3 -19 -26 -41 -52 -27 -32 -37 -50 -29 -52 7 -3 18 1 25 9 6 8 44 46 84 84 l73 70 -62 -85 c-80 -110 -60 -118 34 -14 39 44 92 102 119 129 l48 50 -36 -65 c-56 -101 -87 -169 -82 -183 3 -6 10 1 16 17 6 15 38 75 71 132 33 57 60 108 60 114 0 5 6 10 14 10 16 0 86 -28 86 -35 0 -5 -48 -77 -57 -85 -3 -3 2 9 11 27 20 40 20 57 2 50 -8 -3 -17 -1 -19 6 -2 7 -8 4 -15 -8 -7 -11 -35 -58 -62 -104 -28 -46 -50 -88 -50 -93 0 -20 21 -5 51 37 35 48 47 58 28 24 -7 -14 -8 -24 -1 -31 10 -10 62 50 85 100 12 25 27 29 27 7 0 -8 6 -15 14 -15 7 0 19 7 26 15 18 22 29 19 67 -21 l34 -37 -68 -22 c-197 -63 -337 -179 -443 -370 -19 -33 -50 -82 -71 -110 -77 -105 -123 -195 -98 -195 14 0 17 4 106 128 36 50 68 91 70 89 6 -7 -77 -182 -92 -193 -19 -14 -31 -64 -15 -64 6 0 33 46 60 103 27 56 49 99 50 95 0 -4 -13 -42 -30 -84 -16 -43 -27 -80 -25 -83 8 -7 10 -3 85 184 40 99 76 184 81 189 5 6 -18 -71 -51 -169 -64 -191 -65 -195 -51 -195 14 0 79 140 127 278 24 67 55 144 69 170 l26 47 -6 -40 c-4 -22 -32 -96 -62 -165 -62 -141 -75 -182 -51 -163 8 7 23 31 33 53 31 70 27 36 -9 -76 -47 -148 -62 -210 -80 -339 -9 -60 -19 -128 -22 -149 -5 -28 -4 -37 4 -32 7 4 12 16 12 27 0 11 5 17 10 14 12 -8 38 51 75 170 42 138 56 150 28 25 -5 -20 -3 -23 7 -13 8 8 17 56 23 120 5 60 15 151 22 203 l12 95 -1 -175 c-1 -146 1 -175 13 -175 9 0 25 25 38 59 30 72 23 87 -8 17 -12 -28 -25 -51 -30 -51 -5 0 -9 19 -9 43 0 30 3 38 10 27 5 -8 11 -12 14 -9 8 7 51 287 66 419 7 65 18 112 28 126 25 34 30 29 22 -18 -8 -41 -23 -197 -35 -355 -3 -45 -1 -73 5 -73 6 0 10 25 10 56 0 34 8 72 20 100 11 24 23 58 27 74 7 40 21 48 15 9 -3 -17 0 -29 7 -29 6 0 11 13 11 29 0 17 4 32 9 35 5 4 12 50 16 104 7 93 29 171 54 186 14 9 14 11 -4 -104 -16 -106 -19 -178 -6 -145 5 11 12 49 16 85 4 36 11 72 17 80 6 11 8 6 4 -15 -3 -16 -7 -111 -10 -210 -2 -105 -1 -138 3 -78 3 56 9 104 12 107 3 3 10 -28 15 -70 10 -74 9 -81 -27 -192 -21 -63 -39 -126 -41 -140 -5 -45 19 -34 52 23 17 30 33 55 35 55 1 0 -10 -33 -26 -73 -38 -97 -39 -163 -1 -125 9 9 12 -5 11 -63 -1 -50 -4 -64 -8 -44 -9 41 -18 17 -27 -75 -8 -83 5 -89 26 -13 17 65 30 76 30 27 0 -29 3 -35 10 -24 5 8 10 31 10 50 0 19 4 46 7 60 7 23 8 21 14 -15 l6 -40 8 42 c8 45 14 50 33 31 25 -25 30 10 20 142 -6 72 -6 73 4 23 12 -57 31 -75 22 -20 -17 99 -37 194 -55 254 -10 37 -19 72 -19 78 1 20 48 -112 70 -200 38 -146 55 -137 24 13 -20 98 -57 214 -102 322 -35 86 -64 181 -58 188 14 13 118 -209 147 -313 29 -108 41 -132 33 -71 -9 78 -51 193 -114 314 -33 61 -56 112 -52 112 11 0 124 -202 162 -290 74 -168 155 -442 144 -484 -4 -16 -1 -27 9 -33 19 -10 67 -234 92 -423 2 -14 17 -108 34 -209 28 -172 29 -185 13 -209 -15 -23 -15 -25 2 -38 10 -7 15 -17 11 -23 -10 -17 41 -13 56 5 11 14 14 13 23 -3 9 -16 11 -16 17 7 7 24 7 24 8 3 1 -13 6 -23 12 -23 8 0 10 17 6 53 -12 112 -47 346 -65 434 -14 67 -16 95 -8 103 8 8 6 14 -7 21 -9 6 -15 14 -12 19 3 5 1 17 -4 27 -5 10 -24 76 -40 146 -69 285 -216 668 -318 830 -14 22 -19 36 -11 32 70 -41 154 -115 246 -218 98 -109 112 -130 126 -182 17 -67 30 -85 48 -67 10 10 8 30 -9 95 -11 45 -20 83 -18 85 1 1 17 -35 35 -80 38 -95 60 -128 60 -88 0 14 -11 64 -23 112 -13 48 -19 85 -14 81 5 -3 29 -48 54 -99 25 -52 49 -96 54 -100 10 -6 10 55 0 100 -7 33 -28 46 -33 20 -2 -10 -13 6 -30 40 -26 56 -26 57 -5 49 32 -11 82 -10 84 2 1 6 -44 36 -100 68 -92 53 -158 98 -99 67 13 -6 26 -9 29 -7 8 9 -105 77 -222 134 l-110 54 66 -6 c75 -6 165 8 190 31 9 8 23 14 31 12 7 -2 15 2 16 7 2 6 -10 13 -25 16 -15 4 -39 11 -53 17 -20 9 -9 11 60 10 47 0 93 -4 102 -9 10 -6 19 -5 23 1 3 5 -10 16 -29 24 -43 18 -129 76 -123 83 3 2 55 -21 116 -51 61 -31 116 -56 121 -56 22 0 -1 19 -62 50 -35 18 -72 41 -83 51 -19 19 -19 19 17 19 47 0 99 -22 177 -77 35 -24 66 -41 69 -38 7 7 -41 49 -80 70 -16 9 -28 18 -28 21 0 6 34 0 64 -12 9 -3 16 -2 16 3 0 15 -190 66 -266 71 -89 6 -186 -11 -284 -48 -75 -29 -75 -29 -45 -5 35 29 86 55 135 67 118 32 171 39 238 35 65 -4 95 4 78 20 -3 4 -48 9 -98 13 l-93 7 97 1 c106 2 147 21 51 24 -57 2 -57 2 17 7 87 7 99 24 23 31 -69 7 -58 28 17 32 41 2 55 7 54 18 -1 12 10 14 58 12 34 -2 58 0 58 6 0 14 -87 42 -131 42 -127 0 -401 -140 -561 -288 -59 -55 -61 -56 -54 -27 4 17 22 55 40 85 75 123 118 210 104 210 -15 0 -48 -51 -112 -175 -25 -49 -55 -101 -66 -115 l-20 -25 9 26 c15 41 85 178 125 245 40 66 42 74 22 74 -15 0 -90 -95 -133 -167 -28 -48 -37 -55 -23 -19 39 103 117 213 196 276 57 45 60 64 5 36 -46 -24 -121 -116 -173 -213 -54 -100 -58 -101 -23 -8 62 166 139 275 232 327 29 16 53 34 53 38 0 34 -66 9 -135 -52 -25 -22 -45 -38 -45 -35 0 2 7 24 15 48 19 52 13 78 -12 58 -15 -13 -16 -11 -9 14 3 15 2 27 -3 27 -5 0 -12 -11 -15 -24z m28 -63 c-9 -40 -63 -153 -73 -153 -10 0 40 142 58 164 19 23 22 20 15 -11z m-83 -60 c-12 -20 -14 -14 -5 12 4 9 9 14 11 11 3 -2 0 -13 -6 -23z m-13 -103 c-15 -63 -32 -77 -24 -20 6 39 23 76 32 67 2 -1 -2 -23 -8 -47z m67 -207 c-15 -25 -45 -83 -66 -127 -36 -75 -38 -78 -39 -46 0 27 15 59 60 128 62 96 92 127 45 45z m416 31 c-19 -8 -36 -12 -39 -9 -6 6 37 24 58 24 8 0 0 -6 -19 -15z m-61 -23 c0 -5 -13 -11 -29 -14 -16 -3 -46 -18 -66 -32 -21 -14 -42 -25 -48 -25 -16 0 -2 11 61 46 58 34 82 41 82 25z m-32 -80 c10 -6 5 -10 -16 -14 -16 -3 -43 -9 -58 -12 -28 -6 -28 -5 6 14 39 23 49 24 68 12z m-993 -56 c-73 -45 -298 -122 -327 -113 -11 4 228 112 281 128 14 5 40 9 56 9 l30 0 -40 -24z m130 15 c-3 -5 -12 -10 -18 -10 -7 0 -32 -14 -57 -31 -67 -45 -230 -127 -230 -115 0 2 43 30 95 62 53 33 110 69 128 81 33 22 93 32 82 13z m35 -60 c-56 -64 -89 -93 -52 -45 13 17 34 47 49 68 14 20 32 37 40 37 9 0 -6 -24 -37 -60z m-380 40 c-14 -4 -36 -8 -50 -8 -22 0 -22 1 5 8 17 4 39 8 50 8 16 0 15 -2 -5 -8z m1235 -98 c-1 -1 -21 5 -45 13 -58 21 -94 20 -86 -1 5 -14 1 -16 -31 -10 -21 3 -49 6 -63 6 -40 1 -3 17 86 38 l78 19 31 -31 c18 -17 31 -32 30 -34z m55 53 c0 -18 -8 -18 -40 0 l-25 14 33 1 c22 0 32 -5 32 -15z m-645 -26 c30 -18 84 -69 73 -69 -3 0 -25 16 -48 35 -46 38 -65 43 -90 20 -15 -14 -16 -12 -12 15 4 26 8 30 26 24 11 -3 35 -14 51 -25z m-398 -7 c-10 -10 -38 -33 -65 -51 l-47 -33 55 51 c53 49 91 71 57 33z m567 -48 c-15 -31 -19 -34 -25 -18 -4 13 0 27 14 41 28 31 32 22 11 -23z m136 6 c12 -8 9 -10 -13 -10 -16 0 -26 4 -22 10 8 12 16 12 35 0z m230 -11 c20 -6 17 -7 -20 -7 -25 0 -63 6 -85 13 l-40 14 60 -6 c32 -3 71 -9 85 -14z m-258 -37 c-30 -10 -60 -25 -67 -35 -9 -13 -20 -17 -34 -12 -12 3 -19 11 -15 16 3 5 14 7 25 4 13 -4 19 -2 19 9 0 17 48 34 95 34 24 0 19 -3 -23 -16z m226 -19 c39 -9 72 -20 72 -24 0 -19 -88 -31 -175 -25 -84 5 -172 22 -163 31 10 10 117 34 153 34 22 1 73 -6 113 -16z m-484 -61 c-14 -12 -25 -43 -38 -104 -9 -48 -23 -107 -31 -130 l-14 -43 6 50 c3 28 11 83 17 123 7 39 9 72 5 72 -4 0 -9 -8 -11 -17 -3 -17 -4 -17 -10 -1 -5 12 5 24 40 47 48 31 73 33 36 3z m245 -12 c3 0 0 -5 -6 -11 -13 -13 -49 -3 -56 15 -5 11 1 12 26 5 18 -5 34 -9 36 -9z m-422 -7 c-4 -3 -3 -11 2 -17 5 -7 -5 -39 -25 -81 -32 -66 -33 -68 -28 -29 4 28 2 44 -6 49 -23 14 -30 0 -146 -308 -15 -37 -28 -66 -30 -64 -6 6 82 259 111 319 14 28 25 57 25 64 0 6 21 26 48 43 45 30 63 38 49 24z m393 -68 c0 -5 -9 1 -20 15 -11 14 -20 30 -20 35 0 6 9 -1 20 -15 11 -14 20 -29 20 -35z m114 46 c11 -4 21 -18 23 -31 3 -24 3 -24 -29 5 -18 17 -35 31 -37 33 -10 5 26 0 43 -7z m-415 -122 c-12 -83 -25 -112 -15 -34 11 82 18 116 23 112 2 -2 -2 -38 -8 -78z m589 29 c23 -16 42 -37 42 -46 -1 -13 -7 -9 -26 13 -13 17 -29 29 -34 28 -5 -2 -24 11 -42 28 -28 26 -29 29 -8 19 14 -7 44 -26 68 -42z m-63 -6 c-3 -3 -18 7 -33 23 l-27 28 33 -23 c18 -12 31 -25 27 -28z m-780 -11 c-15 -31 -35 -49 -35 -33 0 10 39 62 46 62 2 0 -2 -13 -11 -29z m448 -13 c8 -24 18 -52 23 -63 7 -17 6 -18 -8 -7 -9 7 -19 29 -23 48 -3 20 -9 42 -12 50 -3 8 -3 14 0 14 3 0 12 -19 20 -42z m298 11 c13 -26 7 -24 -22 7 -17 19 -19 23 -6 18 10 -3 22 -15 28 -25z m-85 -137 c-8 -7 -8 -8 -44 76 -44 99 -39 103 9 8 22 -43 38 -81 35 -84z m216 23 c66 -123 44 -114 -44 18 -59 88 -60 90 -28 71 22 -13 47 -43 72 -89z m-942 46 c0 -5 -9 -19 -21 -32 l-20 -24 17 33 c19 33 24 38 24 23z m984 -56 c9 -27 12 -45 7 -40 -4 6 -13 24 -19 40 -5 17 -13 39 -17 50 -6 13 -5 17 2 10 6 -5 18 -32 27 -60z m-961 30 c-3 -9 -8 -14 -10 -11 -3 3 -2 9 2 15 9 16 15 13 8 -4z m182 -72 c-4 -43 -12 -85 -17 -93 -9 -15 -3 82 9 143 11 53 15 26 8 -50z m860 -6 c9 -32 15 -61 12 -63 -3 -3 -36 67 -66 139 -2 5 6 3 17 -4 12 -8 27 -36 37 -72z m75 37 c25 -13 34 -22 20 -18 -45 12 -101 45 -72 44 4 -1 27 -12 52 -26z m-1191 -62 c-6 -18 -17 -32 -24 -32 -8 0 -21 -10 -29 -22 -9 -12 -16 -18 -16 -12 0 12 71 106 77 101 1 -2 -2 -18 -8 -35z m825 -34 c16 -40 31 -79 33 -85 3 -7 1 -13 -3 -13 -5 0 -22 35 -39 77 -16 42 -31 80 -33 85 -2 4 0 8 5 8 5 0 21 -33 37 -72z m270 -83 l6 -40 -14 35 c-7 20 -16 51 -20 70 l-6 35 14 -30 c8 -17 17 -48 20 -70z m-464 -26 c17 -66 20 -96 13 -112 -10 -22 -15 -1 -39 166 -10 66 3 40 26 -54z m-465 -11 c-13 -116 -70 -366 -81 -355 -2 2 12 73 31 158 19 85 35 171 35 191 0 37 8 68 17 68 3 0 2 -28 -2 -62z m395 2 c0 -27 -11 -59 -31 -96 -17 -30 -33 -53 -36 -50 -6 6 51 186 60 186 4 0 7 -18 7 -40z m39 -94 c1 -107 -6 -93 -12 24 -3 55 -1 87 3 75 5 -11 9 -56 9 -99z m-372 2 c-2 -18 -4 -6 -4 27 0 33 2 48 4 33 2 -15 2 -42 0 -60z m668 21 c23 -69 13 -72 -14 -3 -24 63 -25 67 -12 59 5 -3 17 -28 26 -56z m-810 -189 c-19 -80 -33 -125 -30 -100 8 63 59 278 62 260 2 -8 -13 -80 -32 -160z m470 68 c-6 -40 -30 -87 -39 -77 -6 6 34 132 40 126 3 -3 3 -25 -1 -49z m101 -67 c7 -73 7 -73 -15 -60 -19 12 -21 23 -21 99 1 78 2 83 15 60 7 -14 17 -59 21 -99z m274 84 c0 -8 -2 -15 -4 -15 -2 0 -6 7 -10 15 -3 8 -1 15 4 15 6 0 10 -7 10 -15z m-333 -117 c-2 -24 -4 -7 -4 37 0 44 2 63 4 43 2 -21 2 -57 0 -80z m353 75 c0 -5 11 -47 25 -96 13 -48 20 -85 15 -82 -5 3 -11 20 -15 38 -4 17 -15 56 -26 85 -22 61 -22 62 -9 62 6 0 10 -3 10 -7z m-383 -135 c-3 -7 -5 -2 -5 12 0 14 2 19 5 13 2 -7 2 -19 0 -25z m400 -50 c-3 -8 -6 -5 -6 6 -1 11 2 17 5 13 3 -3 4 -12 1 -19z m32 -85 c20 -65 20 -87 2 -67 -8 8 -31 101 -31 124 0 25 11 4 29 -57z m-42 -35 c-3 -7 -5 -2 -5 12 0 14 2 19 5 13 2 -7 2 -19 0 -25z m21 -83 l1 -20 -9 20 c-5 11 -8 31 -8 45 l0 25 8 -25 c4 -14 8 -34 8 -45z m52 21 c0 -2 -7 -9 -15 -16 -12 -10 -15 -10 -15 4 0 9 7 16 15 16 8 0 15 -2 15 -4z m10 -45 c0 -5 -7 -11 -15 -15 -15 -5 -20 5 -8 17 9 10 23 9 23 -2z m-5 -41 c-3 -5 -11 -10 -16 -10 -6 0 -7 5 -4 10 3 6 11 10 16 10 6 0 7 -4 4 -10z m-35 -26 c0 -8 -4 -12 -10 -9 -5 3 -10 13 -10 21 0 8 5 12 10 9 6 -3 10 -13 10 -21z m38 -25 c-18 -12 -23 8 -6 28 12 15 13 15 16 -2 2 -10 -2 -21 -10 -26z m25 -112 c-19 -11 -20 -9 -31 41 -8 35 -7 44 7 52 13 7 18 1 27 -38 9 -38 8 -49 -3 -55z m-53 43 c0 -16 -2 -30 -4 -30 -2 0 -6 14 -8 30 -3 17 -1 30 4 30 4 0 8 -13 8 -30z m75 -101 c5 -30 3 -44 -6 -50 -7 -4 -16 -6 -20 -3 -12 7 -15 84 -4 88 20 9 23 5 30 -35z m15 -110 c0 -24 5 -39 13 -39 8 0 7 -4 -3 -10 -26 -17 -30 -11 -30 46 0 34 4 53 10 49 6 -3 10 -24 10 -46z m-53 -51 c-3 -8 -6 -5 -6 6 -1 11 2 17 5 13 3 -3 4 -12 1 -19z m83 -25 c0 -5 -12 -9 -27 -10 -19 -1 -22 1 -12 8 17 11 39 12 39 2z m-20 -58 c0 -24 -5 -35 -15 -35 -18 0 -20 41 -3 58 17 17 18 16 18 -23z" fill="#efede8"/>
<path d="M928 2383 c-9 -10 -40 -72 -68 -138 -51 -117 -91 -182 -76 -125 3 14 9 69 12 123 5 73 4 97 -5 97 -19 0 -52 -86 -62 -164 -5 -39 -15 -102 -21 -141 l-12 -70 -13 99 c-16 112 -32 160 -62 176 -31 16 -35 -4 -16 -75 10 -39 15 -106 15 -195 0 -74 4 -141 9 -149 5 -8 7 -21 3 -29 -9 -24 -20 14 -21 69 -1 26 -8 66 -16 89 -8 23 -15 57 -15 74 0 49 -19 106 -35 106 -8 0 -15 5 -15 10 0 6 -7 10 -16 10 -12 0 -15 -7 -11 -27 3 -16 13 -73 22 -128 8 -55 22 -125 30 -156 19 -72 19 -113 1 -128 -12 -10 -14 -1 -13 56 0 56 -5 81 -31 140 -23 52 -30 79 -26 102 5 24 3 31 -10 31 -10 0 -16 9 -16 24 0 14 -4 28 -10 31 -15 9 -12 -130 4 -221 8 -44 18 -110 21 -148 4 -38 9 -76 12 -83 3 -9 0 -11 -10 -7 -9 3 -20 30 -27 67 -18 94 -68 298 -73 304 -3 3 -11 2 -17 -2 -12 -7 -8 -62 6 -99 4 -10 1 -16 -9 -16 -13 0 -15 -9 -11 -52 6 -57 40 -175 53 -183 5 -2 14 -25 21 -50 12 -42 11 -46 -11 -65 -26 -21 -20 -26 11 -10 31 17 31 -5 0 -35 l-28 -27 -26 81 c-16 49 -26 105 -26 140 0 96 -26 208 -44 190 -2 -2 2 -29 10 -59 17 -65 13 -101 -5 -47 -7 20 -17 37 -22 37 -12 0 -11 57 1 81 8 13 7 19 0 19 -20 0 -31 -54 -26 -120 7 -85 42 -289 56 -326 6 -16 17 -32 23 -36 8 -5 4 -15 -15 -34 l-26 -27 -11 39 c-9 34 -30 165 -60 374 -5 30 -6 61 -4 68 3 6 0 12 -6 12 -6 0 -11 -5 -11 -12 0 -7 -12 -23 -27 -36 -26 -22 -26 -24 -11 -50 16 -26 24 -75 47 -282 10 -85 30 -155 38 -133 2 6 0 29 -6 50 -6 21 -10 67 -10 103 l1 65 20 -105 c15 -82 17 -109 8 -124 -10 -16 -9 -18 5 -12 14 5 15 4 7 -7 -6 -7 -34 -21 -61 -31 -52 -18 -86 -45 -40 -31 13 4 31 10 39 12 17 6 -78 -90 -130 -129 -19 -15 -32 -29 -29 -32 6 -6 133 87 182 133 16 14 38 27 50 28 12 0 90 3 172 6 83 3 168 10 190 17 69 19 115 42 115 58 0 12 -13 14 -77 9 l-78 -6 38 22 c25 14 35 26 32 37 -4 12 15 20 92 40 53 14 98 30 100 36 5 14 -107 1 -222 -26 -119 -28 -235 -49 -235 -41 0 3 8 16 18 29 14 18 35 25 112 37 114 17 248 55 321 90 150 73 191 97 183 105 -6 6 -33 4 -69 -5 -33 -7 -61 -12 -63 -11 -1 2 17 16 40 32 32 21 38 29 26 32 -23 5 -224 -50 -344 -93 -53 -19 -98 -35 -100 -35 -2 0 1 9 8 20 7 11 20 20 28 20 28 0 465 151 480 166 23 23 -5 18 -68 -12 -36 -17 -58 -22 -64 -16 -7 7 30 23 106 48 64 21 116 41 116 44 0 11 -215 -10 -270 -26 -30 -9 -93 -31 -139 -50 -47 -19 -87 -31 -90 -28 -8 8 14 20 134 70 238 100 320 144 273 144 -9 0 -8 3 2 10 8 5 11 12 8 16 -6 6 -89 -24 -222 -81 -32 -14 -14 8 114 134 84 82 150 156 148 163 -12 34 -43 15 -161 -101 -68 -67 -126 -121 -130 -121 -3 0 42 68 100 150 95 136 116 172 88 152 -6 -4 -43 -56 -84 -117 -86 -128 -125 -174 -56 -67 58 91 84 149 94 212 9 58 1 78 -21 53z m-158 -244 c-12 -82 -18 -104 -25 -97 -3 3 2 44 11 92 20 105 29 108 14 5z m105 41 c-9 -16 -18 -30 -21 -30 -2 0 2 14 11 30 9 17 18 30 21 30 2 0 -2 -13 -11 -30z m-226 -30 c0 -9 -4 -8 -9 5 -5 11 -9 27 -9 35 0 9 4 8 9 -5 5 -11 9 -27 9 -35z m98 28 c-3 -8 -6 -5 -6 6 -1 11 2 17 5 13 3 -3 4 -12 1 -19z m133 -164 c-25 -25 -58 -55 -75 -67 -16 -11 2 9 40 46 81 76 100 88 35 21z m-315 -69 c5 -33 4 -47 -3 -40 -5 6 -12 32 -16 60 -4 30 -3 46 3 40 5 -6 13 -32 16 -60z m110 -19 c4 -68 2 -77 -16 -87 -24 -13 -38 -4 -21 13 7 7 12 38 12 69 0 55 8 95 17 86 2 -3 6 -39 8 -81z m233 -16 c-49 -22 -91 -40 -95 -39 -13 1 151 78 167 78 8 0 -24 -17 -72 -39z m-404 -95 c5 -46 5 -47 -5 -15 -16 55 -22 98 -10 80 5 -8 12 -37 15 -65z m216 61 c0 -3 -4 -8 -10 -11 -5 -3 -10 -1 -10 4 0 6 5 11 10 11 6 0 10 -2 10 -4z m25 -16 c-3 -5 -12 -10 -18 -10 -7 0 -6 4 3 10 19 12 23 12 15 0z m-147 -116 c-11 -11 -13 -3 -14 49 l-1 62 14 -49 c12 -40 13 -51 1 -62z m317 65 c-155 -51 -295 -89 -295 -81 0 10 191 83 269 104 36 9 84 17 106 16 34 0 21 -6 -80 -39z m-601 -155 c9 -34 16 -75 15 -90 -1 -28 -49 135 -48 166 0 27 16 -10 33 -76z m371 37 c-60 -20 -112 -35 -114 -34 -15 11 36 35 109 52 126 29 128 23 5 -18z m205 -20 c-25 -17 -99 -45 -170 -65 -154 -45 -180 -55 -180 -72 0 -12 -69 -38 -78 -29 -3 2 8 19 23 37 31 37 101 66 294 123 146 43 171 44 111 6z m75 -19 c-11 -9 -126 -52 -141 -52 -22 0 38 30 87 43 68 19 65 18 54 9z m-475 -57 c0 -24 -25 -23 -26 1 -1 15 3 21 12 17 8 -3 14 -11 14 -18z m283 -4 c-23 -19 -199 -68 -209 -58 -5 5 197 74 221 76 6 0 0 -8 -12 -18z m-48 -50 c-45 -16 -146 -37 -118 -25 22 10 138 42 153 42 8 0 -7 -7 -35 -17z m-352 -94 c-10 -16 -23 6 -22 36 l1 32 13 -30 c7 -16 11 -33 8 -38z m304 -3 c-3 -3 -12 -4 -19 -1 -8 3 -5 6 6 6 11 1 17 -2 13 -5z m-40 -10 c-3 -3 -12 -4 -19 -1 -8 3 -5 6 6 6 11 1 17 -2 13 -5z m13 -40 c0 -10 -110 -54 -187 -75 -46 -13 -85 -18 -101 -14 -24 7 -20 10 43 32 129 45 245 72 245 57z m-220 -28 c-19 -7 -42 -11 -50 -7 -10 4 -5 8 15 12 52 11 72 8 35 -5z m250 -47 c-47 -17 -255 -39 -225 -24 23 12 194 43 235 43 l45 1 -55 -20z m-350 -18 c0 -11 -31 -24 -39 -16 -3 3 1 10 9 15 19 12 30 12 30 1z" fill="#efede8"/>
<path d="M6180 1189 c0 -5 5 -7 10 -4 6 3 10 8 10 11 0 2 -4 4 -10 4 -5 0 -10 -5 -10 -11z" fill="#efede8"/>
<path d="M6170 1110 c0 -5 5 -10 11 -10 5 0 7 5 4 10 -3 6 -8 10 -11 10 -2 0 -4 -4 -4 -10z" fill="#efede8"/>
<path d="M1570 730 c-8 -5 -85 -38 -170 -74 -172 -72 -231 -84 -329 -66 -45 8 -67 8 -74 1 -8 -8 -5 -11 9 -11 10 0 24 -8 30 -18 11 -17 8 -18 -47 -14 -73 5 -109 -3 -109 -26 0 -11 3 -13 8 -5 5 7 71 12 207 15 224 5 235 7 410 93 108 53 105 53 216 -11 42 -24 79 -44 83 -44 4 0 39 -14 78 -31 65 -29 75 -30 146 -23 78 7 162 35 162 54 0 6 -43 10 -117 10 -182 0 -235 12 -313 69 -64 48 -144 92 -164 90 -6 0 -18 -4 -26 -9z m107 -46 c25 -14 43 -28 40 -30 -6 -7 -107 38 -107 47 0 15 22 10 67 -17z m-360 -100 c-3 -3 -12 -4 -19 -1 -8 3 -5 6 6 6 11 1 17 -2 13 -5z m750 -22 c55 2 79 0 72 -7 -20 -20 -269 -7 -269 14 0 4 26 4 58 -1 31 -5 94 -8 139 -6z m-904 -9 c-13 -2 -35 -2 -50 0 -16 2 -5 4 22 4 28 0 40 -2 28 -4z" fill="#efede8"/>
<path d="M6235 709 c-61 -41 -206 -109 -277 -129 -93 -27 -279 -36 -416 -21 -57 6 -109 8 -115 4 -22 -13 50 -23 218 -30 246 -9 356 17 550 128 l87 50 92 -40 c135 -59 236 -81 411 -88 154 -6 345 3 345 16 0 4 -111 8 -247 8 -280 1 -323 8 -499 83 -51 22 -99 40 -106 40 -7 0 -26 -9 -43 -21z" fill="#efede8"/>
<path d="M6370 560 c0 -5 13 -10 28 -10 16 0 51 -7 78 -15 57 -17 64 -18 64 -6 0 9 -115 41 -150 41 -11 0 -20 -4 -20 -10z" fill="#efede8"/>
<path d="M6115 529 c-38 -11 -106 -21 -150 -24 -44 -2 -84 -4 -88 -5 -5 0 -5 -5 -2 -10 9 -15 150 -3 247 20 l77 18 128 -33 c154 -40 255 -55 371 -55 100 0 242 19 242 33 0 5 -21 5 -52 0 -79 -12 -345 -9 -413 6 -33 7 -107 26 -164 42 -120 33 -105 33 -196 8z" fill="#efede8"/>
<path d="M6740 409 c-36 -4 -127 -10 -203 -14 -76 -5 -140 -12 -144 -18 -4 -6 43 -7 133 -2 213 11 294 19 295 30 1 13 -6 13 -81 4z" fill="#efede8"/>
<path d="M1615 345 c-44 -24 -109 -51 -145 -60 -78 -20 -114 -34 -107 -41 2 -3 33 2 67 11 34 9 64 14 67 12 6 -7 -72 -36 -117 -43 -22 -4 -40 -11 -40 -16 0 -11 58 -1 129 23 30 11 62 19 73 19 10 0 61 16 113 36 l95 37 41 -27 c62 -42 114 -56 232 -66 60 -5 115 -14 122 -20 29 -24 292 46 363 95 12 9 22 23 22 32 0 14 -4 13 -22 -4 -28 -25 -77 -51 -109 -57 -13 -2 -52 -13 -86 -25 -37 -13 -86 -21 -120 -20 l-58 1 65 18 c84 23 116 36 126 51 5 9 2 10 -12 4 -61 -25 -117 -35 -196 -35 -75 0 -96 4 -138 25 -27 14 -74 31 -103 39 -30 8 -73 24 -95 35 -57 29 -76 27 -167 -24z m155 10 c22 -13 23 -14 5 -14 -11 0 -36 7 -55 14 l-35 13 30 1 c17 0 41 -6 55 -14z m-55 -24 c-13 -12 -127 -53 -132 -48 -7 7 99 57 121 57 12 0 16 -4 11 -9z m143 -26 c27 -14 76 -31 108 -39 51 -12 54 -14 24 -15 -69 -1 -207 49 -194 71 7 11 6 11 62 -17z" fill="#efede8"/>
<path d="M5010 95 c-68 -19 -209 -87 -192 -93 7 -2 45 12 85 32 95 47 194 64 278 48 69 -13 88 -9 43 9 -47 18 -154 20 -214 4z" fill="#efede8"/>
<path d="M900 38 c0 -26 16 -34 65 -36 l50 -1 -35 16 c-19 8 -43 19 -52 24 -24 12 -28 11 -28 -3z" fill="#efede8"/>
<path d="M7087 26 c-21 -8 -42 -17 -45 -21 -8 -9 33 -2 62 10 14 6 17 5 11 -4 -6 -10 2 -11 36 -5 53 10 81 10 134 1 l40 -7 -34 16 c-49 22 -157 28 -204 10z" fill="#efede8"/>
<path d="M3916 19 c-22 -5 -41 -10 -42 -12 -1 -1 64 -2 144 -2 134 -1 143 0 97 11 -60 14 -145 15 -199 3z" fill="#efede8"/>
<path d="M4698 3 c7 -3 16 -2 19 1 4 3 -2 6 -13 5 -11 0 -14 -3 -6 -6z" fill="#efede8"/>
</g>
</svg>