<?xml version="1.0" standalone="no"?>
<!DOCTYPE svg PUBLIC "-//W3C//DTD SVG 20010904//EN"
 "http://www.w3.org/TR/2001/REC-SVG-20010904/DTD/svg10.dtd">
<svg version="1.0" xmlns="http://www.w3.org/2000/svg"
 width="300.000000pt" height="299.000000pt" viewBox="0 0 300.000000 299.000000"
 preserveAspectRatio="xMidYMid meet">
<metadata>
Created by potrace 1.10, written by Peter Selinger 2001-2011
</metadata>
<g transform="translate(0.000000,299.000000) scale(0.100000,-0.100000)"
fill="#000000" stroke="none">
<path d="M1530 2833 c-79 -25 -94 -54 -91 -170 1 -64 7 -105 19 -129 19 -41
14 -46 -53 -65 -52 -15 -105 -42 -144 -75 -28 -23 -153 -182 -273 -346 -42
-57 -56 -108 -40 -143 6 -14 7 -27 3 -30 -16 -10 -21 -71 -11 -145 6 -41 15
-128 22 -193 10 -106 9 -120 -6 -150 -12 -22 -16 -49 -14 -87 3 -52 5 -56 38
-72 19 -9 45 -27 57 -39 31 -31 37 -19 23 41 -7 27 -9 58 -4 68 6 13 9 9 13
-17 8 -48 31 -53 31 -7 0 19 5 46 11 59 9 21 8 30 -9 53 -23 33 -42 122 -42
200 0 90 5 91 76 24 67 -62 105 -80 128 -61 14 12 66 -1 66 -15 0 -4 -20 -28
-44 -54 -74 -79 -102 -147 -131 -324 -20 -118 -28 -141 -55 -156 -34 -18 -52
-54 -41 -83 9 -24 6 -29 -38 -61 -83 -59 -570 -483 -676 -589 l-30 -29 113 6
c430 24 863 263 1355 745 222 217 369 401 433 538 39 82 42 108 14 123 -27 14
-108 -15 -207 -75 -158 -96 -440 -323 -402 -325 15 0 41 18 214 149 140 106
315 211 353 211 51 0 -70 -199 -239 -395 -141 -163 -379 -385 -564 -526 -243
-185 -488 -311 -719 -370 -84 -22 -226 -37 -226 -25 0 9 69 73 260 241 197
173 195 172 285 244 99 80 114 98 115 137 0 20 10 39 30 59 33 32 46 63 59
150 28 181 50 240 121 325 53 64 57 84 24 115 -20 18 -38 25 -68 25 -44 0 -67
12 -129 67 -47 42 -72 42 -98 1 -17 -28 -20 -45 -16 -113 3 -44 15 -109 26
-144 l22 -64 -20 -21 c-12 -12 -21 -27 -21 -34 0 -18 -20 -25 -35 -12 -19 16
-19 57 1 111 17 49 14 160 -11 304 -7 44 -12 98 -9 120 2 22 5 70 8 107 4 77
3 75 135 248 141 183 191 231 277 264 89 33 109 53 99 98 -13 65 -17 215 -6
237 16 28 77 43 125 30 31 -9 41 -18 58 -55 25 -58 33 -107 20 -130 -14 -24 3
-68 33 -84 19 -10 30 -10 55 0 21 9 55 11 114 6 56 -5 92 -3 112 5 28 12 89
22 204 34 46 5 70 1 149 -27 92 -32 119 -52 87 -64 -9 -4 -29 5 -47 20 -29 25
-37 26 -132 25 -76 -1 -120 -7 -172 -23 -38 -13 -110 -29 -160 -36 -89 -13
-90 -14 -139 -64 -26 -28 -80 -88 -118 -134 -41 -49 -95 -100 -131 -124 -70
-45 -127 -109 -127 -141 0 -14 21 -40 57 -72 125 -109 231 -224 272 -293 22
-39 41 -78 41 -88 0 -28 -36 -76 -91 -124 -56 -48 -109 -114 -109 -137 0 -26
218 187 234 228 19 46 17 52 -53 159 -68 105 -133 175 -233 251 -42 33 -80 64
-84 70 -7 12 83 109 102 109 18 0 86 58 127 108 20 26 57 67 80 92 24 25 56
62 71 83 15 20 31 35 36 32 14 -9 181 22 239 44 39 15 80 21 154 22 111 2 101
6 164 -75 29 -36 59 -30 41 9 -16 37 -3 41 32 11 17 -14 38 -26 45 -26 29 0
23 19 -15 44 -68 45 -44 58 33 19 36 -18 49 -7 20 17 -31 25 -29 31 8 18 38
-13 48 -4 24 22 -28 31 -90 46 -121 30 -21 -12 -29 -12 -53 3 -16 9 -37 17
-48 17 -10 0 -43 9 -73 21 -41 15 -68 19 -110 15 -169 -16 -199 -22 -219 -40
-18 -17 -26 -18 -60 -8 -47 15 -148 16 -156 2 -3 -5 -18 -10 -32 -10 -23 0
-25 3 -18 28 18 66 -1 173 -37 212 -37 40 -109 60 -158 43z"/>
<path d="M1510 1621 c0 -5 17 -28 38 -52 l39 -43 -23 -34 c-13 -19 -29 -61
-35 -94 -11 -53 -15 -61 -42 -70 l-29 -11 4 -68 5 -69 -91 -61 c-50 -34 -103
-73 -117 -86 -15 -14 -29 -21 -32 -16 -11 17 132 288 202 384 76 105 87 131
77 185 -9 48 -32 30 -38 -30 -4 -35 -20 -65 -72 -135 -36 -50 -66 -92 -66 -94
0 -2 -20 -38 -44 -81 -64 -113 -92 -191 -78 -221 8 -17 20 -25 36 -25 29 0
232 134 248 164 6 12 10 40 9 64 -2 35 3 49 27 76 17 20 32 50 36 75 3 24 17
64 30 89 18 36 21 53 14 72 -18 48 -98 114 -98 81z"/>
</g>
</svg>
