<svg xmlns="http://www.w3.org/2000/svg" version="1.0" width="1300.000000pt" height="883.000000pt" viewBox="0 0 1300.000000 883.000000" preserveAspectRatio="xMidYMid meet">

<g transform="translate(0.000000,883.000000) scale(0.100000,-0.100000)" fill="#bf5300" stroke="none">
<path d="M6307 8314 c-16 -16 0 -38 135 -190 276 -310 452 -534 640 -814 429 -641 686 -1225 793 -1805 63 -342 53 -541 -30 -614 -81 -71 -156 -49 -295 84 -116 112 -135 125 -180 125 -61 0 -112 -65 -141 -180 -20 -80 -18 -331 5 -445 9 -49 41 -200 71 -335 66 -301 85 -426 85 -567 0 -124 -22 -227 -66 -314 -34 -68 -120 -152 -178 -174 -61 -23 -155 -17 -218 14 -136 69 -279 298 -471 751 -40 96 -98 232 -127 303 -40 94 -59 127 -71 127 -23 0 -34 19 -21 32 12 12 4 41 -9 33 -13 -9 -38 38 -37 70 1 46 -44 121 -65 108 -7 -4 -8 1 -3 13 5 14 4 16 -4 8 -7 -7 -7 -18 -1 -35 5 -13 10 -17 10 -9 1 22 24 -5 28 -32 3 -23 3 -23 -13 -3 -18 22 -18 21 15 -50 12 -27 25 -52 29 -55 4 -3 15 -23 24 -45 234 -559 295 -701 364 -835 119 -235 228 -371 340 -426 81 -40 183 -41 264 -3 76 36 143 108 191 204 94 190 90 398 -18 880 -73 330 -84 394 -90 536 -8 200 21 335 81 374 25 16 27 16 68 -8 24 -14 76 -60 117 -102 96 -99 152 -129 237 -123 80 5 126 38 162 117 68 147 23 564 -109 1000 -65 218 -142 409 -269 666 -274 556 -608 1041 -1087 1576 -127 141 -143 156 -156 143z m-67 -3989 c0 -12 -19 -12 -23 0 -4 9 -1 12 9 8 7 -3 14 -7 14 -8z" fill="#bf5300"/>
<path d="M2525 5153 c-496 -43 -980 -252 -1329 -574 -413 -380 -656 -971 -659 -1599 -1 -246 26 -442 90 -645 33 -105 112 -272 146 -309 15 -16 27 -33 27 -38 0 -5 17 -26 38 -47 20 -21 52 -54 70 -74 35 -38 56 -48 46 -22 -4 8 -1 15 4 15 6 0 9 -9 7 -20 -3 -14 5 -25 26 -35 16 -9 29 -13 29 -10 0 3 9 -4 20 -15 28 -28 121 -52 203 -51 92 0 156 22 305 105 71 39 139 69 172 75 102 21 212 -17 299 -101 48 -47 106 -118 96 -118 -4 0 -64 7 -133 16 -70 9 -182 17 -249 18 -109 1 -124 -1 -150 -20 -15 -12 -29 -30 -31 -42 -16 -109 543 -381 1063 -517 399 -103 772 -142 1265 -132 289 7 413 15 598 43 193 28 298 76 272 124 -22 40 -56 49 -335 80 -222 24 -282 38 -388 87 -72 34 -80 35 -116 24 -27 -8 -53 -27 -81 -62 -40 -47 -44 -49 -60 -34 -14 13 -23 14 -39 6 -14 -8 -22 -8 -26 0 -4 5 -19 8 -33 5 -15 -3 -33 -2 -40 3 -10 6 -5 14 22 30 45 28 83 74 109 131 18 37 21 64 20 155 -1 155 -28 242 -199 630 -49 111 -52 129 -42 235 6 68 -28 45 -154 -104 -193 -227 -196 -233 -158 -375 11 -40 26 -129 35 -196 16 -135 30 -183 70 -243 14 -21 28 -55 32 -75 5 -33 3 -38 -21 -47 -15 -5 -61 -10 -101 -10 -68 0 -81 -4 -160 -44 -60 -31 -85 -40 -85 -30 0 8 -7 17 -15 20 -8 4 -15 14 -15 25 0 10 -7 22 -16 27 -15 8 -15 10 0 15 13 5 15 11 6 27 -11 21 2 29 93 59 20 7 51 26 67 43 26 26 30 36 30 87 0 102 -47 219 -184 455 -47 82 -88 164 -92 182 -9 48 17 87 135 204 69 68 121 130 148 176 23 39 49 77 58 84 12 10 10 3 -5 -23 -18 -31 -20 -40 -9 -53 6 -8 18 -13 26 -10 9 4 12 -3 10 -26 -1 -25 2 -33 18 -36 11 -3 26 -13 33 -24 8 -11 20 -17 28 -14 8 3 14 -1 14 -9 0 -7 7 -21 16 -29 32 -32 77 20 90 104 9 54 30 72 123 110 209 86 281 133 324 214 20 38 22 54 20 191 -1 83 -6 182 -11 222 -4 39 -5 70 0 67 15 -9 140 -227 183 -316 70 -150 79 -244 35 -345 -27 -62 -60 -101 -149 -177 -44 -38 -91 -85 -104 -105 -37 -56 -69 -151 -70 -207 -1 -46 4 -60 46 -124 31 -46 54 -94 64 -137 15 -60 15 -77 -1 -217 -9 -83 -16 -178 -16 -211 1 -100 46 -174 119 -196 20 -5 189 -14 376 -19 383 -9 484 -20 725 -81 193 -49 357 -114 726 -289 268 -128 458 -213 544 -245 280 -104 449 -152 670 -189 231 -39 368 -50 632 -50 242 -1 247 0 277 22 17 13 37 20 43 16 6 -4 8 -3 5 3 -4 7 -87 8 -239 5 -247 -5 -404 4 -643 39 -392 56 -697 164 -1330 469 -351 169 -544 241 -784 291 -190 39 -322 51 -651 58 -280 6 -329 9 -357 24 -66 35 -80 104 -59 279 29 232 18 341 -43 425 -69 96 -73 124 -31 238 20 52 39 76 145 180 143 141 166 180 173 297 2 44 -1 98 -7 125 -26 101 -135 310 -261 498 -26 39 -63 104 -82 145 -62 134 -163 220 -257 220 -54 0 -101 -25 -181 -96 -36 -32 -55 -47 -43 -33 43 47 56 97 56 209 0 68 -5 119 -15 146 -13 36 -13 43 0 63 24 35 -13 101 -75 138 -41 24 -58 28 -123 27 -75 0 -120 -14 -164 -53 -49 -43 -82 -165 -52 -190 15 -12 21 -10 51 19 35 34 35 34 35 9 0 -13 7 -34 15 -46 10 -14 13 -32 9 -52 l-7 -31 -23 25 c-30 33 -67 32 -94 -2 -36 -46 1 -124 66 -140 31 -7 39 -15 54 -55 20 -54 17 -54 -49 -4 -47 35 -84 33 -188 -10 -65 -27 -110 -38 -173 -44 -69 -6 -109 -17 -210 -58 -218 -89 -316 -100 -466 -50 -56 18 -67 19 -75 7 -5 -8 -6 -22 -3 -32 5 -15 2 -18 -13 -14 -58 18 -90 18 -103 2 -13 -15 -11 -20 12 -40 14 -12 28 -30 30 -40 1 -10 12 -23 23 -29 11 -6 26 -19 33 -28 7 -10 21 -18 30 -18 10 0 23 -9 30 -20 15 -25 33 -25 80 -1 27 14 50 17 87 14 33 -3 73 2 120 15 49 14 115 22 220 27 83 3 200 15 260 26 133 23 175 24 221 4 83 -35 149 -115 228 -280 60 -125 137 -236 209 -302 l46 -42 56 24 c147 66 195 100 195 139 0 13 -13 52 -29 87 -67 148 -118 433 -92 512 25 76 96 90 160 31 71 -64 99 -119 116 -230 24 -155 31 -411 13 -454 -34 -79 -94 -121 -290 -200 -110 -45 -141 -68 -156 -117 -13 -39 -15 -41 -34 -30 -40 23 -57 45 -51 67 4 16 0 23 -16 27 -21 5 -21 5 5 35 47 57 10 87 -63 49 -47 -24 -92 -71 -129 -136 -16 -27 -81 -105 -146 -171 -65 -67 -122 -134 -128 -149 -27 -71 -7 -131 100 -311 110 -181 181 -367 166 -429 -8 -32 -50 -58 -148 -91 -86 -28 -108 -46 -91 -74 8 -11 8 -21 2 -27 -11 -11 -2 -43 12 -43 5 0 9 -11 9 -25 0 -15 8 -29 23 -36 12 -7 28 -20 35 -31 20 -27 45 -22 144 29 83 43 99 48 182 53 107 8 120 12 136 49 15 37 6 71 -42 158 -35 65 -40 85 -58 218 -11 80 -29 179 -40 220 -20 73 -20 75 -2 110 10 20 60 87 112 149 l94 113 22 -66 c12 -36 46 -118 74 -181 128 -285 170 -420 170 -549 0 -130 -31 -187 -142 -262 -50 -35 -59 -44 -56 -67 2 -22 9 -28 36 -30 17 -2 32 -8 32 -13 0 -5 15 -9 33 -9 17 0 56 -2 86 -4 43 -5 61 -2 88 15 18 11 33 24 33 28 0 3 13 21 29 39 38 40 64 41 141 2 83 -42 192 -65 415 -90 197 -21 274 -36 259 -50 -33 -31 -257 -70 -510 -89 -177 -14 -691 -14 -849 -1 -516 43 -1017 180 -1450 396 -198 98 -306 176 -281 201 15 15 299 6 439 -15 105 -15 144 -25 160 -40 33 -30 114 -67 187 -86 87 -23 255 -33 275 -16 29 24 18 50 -32 72 -47 21 -353 87 -405 88 -21 0 -42 18 -100 88 -133 156 -231 208 -378 200 -71 -4 -85 -9 -186 -63 -201 -108 -243 -124 -324 -125 -48 0 -138 24 -200 54 -38 18 -50 21 -50 10 0 -8 5 -13 11 -11 6 1 14 -4 16 -11 4 -11 1 -12 -16 -3 -11 7 -21 19 -21 29 -1 16 -35 54 -90 97 -20 16 -22 16 -11 3 8 -11 9 -18 3 -18 -6 0 -17 9 -25 20 -8 11 -17 17 -20 13 -13 -12 -7 13 6 26 9 11 9 13 0 7 -8 -5 -13 -1 -13 10 0 9 -16 42 -35 73 -91 151 -160 362 -196 606 -20 132 -18 481 4 620 102 659 420 1166 927 1479 480 297 1030 401 1555 294 237 -48 499 -156 695 -285 282 -187 432 -374 621 -775 138 -291 177 -351 255 -388 35 -18 58 -21 103 -18 93 7 162 46 271 157 148 151 228 311 310 625 48 183 73 256 101 288 l19 23 19 -22 c10 -12 42 -81 71 -154 75 -186 125 -246 198 -235 49 7 88 41 119 104 25 52 28 68 29 172 1 63 2 121 3 128 2 22 36 13 77 -21 63 -52 79 -63 70 -49 -10 17 9 15 24 -3 11 -14 7 -19 -12 -16 -12 2 -10 -2 17 -39 16 -21 25 -28 25 -18 0 9 -6 19 -12 22 -7 4 -3 4 9 2 20 -4 20 -1 -8 38 -48 66 -101 118 -136 132 -41 18 -54 17 -79 0 -17 -13 -20 -31 -24 -158 -5 -137 -6 -147 -33 -187 -49 -74 -105 -80 -149 -14 -14 21 -49 98 -79 172 -75 188 -118 226 -179 161 -33 -35 -67 -128 -110 -295 -46 -180 -77 -269 -131 -380 -124 -256 -348 -433 -478 -379 -77 32 -109 81 -246 369 -148 310 -221 422 -390 590 -142 143 -276 236 -469 330 -331 160 -725 237 -1061 208z m3565 -567 c0 -3 -4 -8 -10 -11 -5 -3 -10 -1 -10 4 0 6 5 11 10 11 6 0 10 -2 10 -4z m-2793 -343 c14 -10 33 -30 42 -43 14 -21 10 -20 -22 8 -33 28 -45 32 -95 32 -58 0 -117 -21 -173 -61 -16 -11 -29 -16 -29 -10 0 18 54 73 85 88 43 19 159 11 192 -14z m-37 -53 c11 -7 2 -9 -32 -8 -27 1 -48 5 -48 10 0 11 62 10 80 -2z m67 -76 c31 -42 42 -182 22 -276 -14 -63 -50 -101 -111 -116 -40 -10 -45 -9 -69 14 -35 34 -73 143 -61 175 6 13 15 47 21 75 11 46 10 54 -9 87 l-21 35 23 17 c31 23 186 15 205 -11z m-292 -176 c8 -20 10 -34 4 -37 -15 -5 -49 30 -49 51 0 30 30 20 45 -14z m603 -144 c60 -30 66 -42 18 -36 -49 6 -109 -28 -132 -75 -43 -87 4 -395 86 -571 l31 -67 -27 -21 c-14 -12 -62 -38 -105 -57 l-79 -36 -57 67 c-72 86 -106 140 -175 282 -64 131 -130 211 -204 252 -72 38 -113 41 -248 18 -66 -12 -199 -25 -296 -30 -135 -6 -188 -13 -227 -28 -71 -27 -175 -20 -212 15 -14 12 -32 23 -40 23 -11 0 -10 4 4 13 11 9 15 19 10 27 -6 10 -1 12 26 6 173 -37 257 -25 474 66 92 39 134 51 180 53 79 3 115 11 196 46 37 16 80 29 95 29 15 0 58 -21 101 -50 41 -27 84 -50 96 -50 12 -1 33 -7 47 -15 14 -8 43 -14 66 -15 48 0 88 24 177 106 50 46 92 70 133 73 5 1 33 -11 62 -25z m-2735 -1895 c4 -16 3 -18 -9 -8 -7 6 -11 15 -8 20 8 13 11 11 17 -12z m1543 -315 c71 -14 134 -30 139 -36 19 -19 -193 18 -255 45 -50 22 -30 20 116 -9z" fill="#bf5300"/>
<path d="M6200 4395 c0 -8 4 -15 10 -15 5 0 7 7 4 15 -4 8 -8 15 -10 15 -2 0 -4 -7 -4 -15z" fill="#bf5300"/>
<path d="M6245 4300 c-3 -5 -1 -10 4 -10 6 0 11 5 11 10 0 6 -2 10 -4 10 -3 0 -8 -4 -11 -10z" fill="#bf5300"/>
<path d="M11220 1489 c-324 -29 -622 -118 -1385 -414 -772 -300 -1157 -410 -1665 -475 -135 -17 -197 -30 -147 -30 9 0 17 -5 17 -11 0 -8 -12 -10 -35 -6 -20 3 -35 2 -35 -4 0 -31 432 28 740 102 322 77 644 187 1385 474 430 166 724 256 990 302 128 21 467 24 570 5 194 -38 392 -109 634 -227 123 -60 156 -73 168 -64 21 18 5 30 -145 104 -435 214 -717 277 -1092 244z" fill="#bf5300"/>
</g>
</svg>