<svg xmlns="http://www.w3.org/2000/svg" xmlns:xlink="http://www.w3.org/1999/xlink" width="192px" height="192px" viewBox="0 0 192 192" version="1.1">
<g id="surface1">
<path style=" stroke:none;fill-rule:nonzero;fill:#bf5300;fill-opacity:1;" d="M 94.371094 56.261719 C 94.214844 57.324219 94.429688 62.539062 94.675781 63.539062 C 94.847656 64.277344 94.847656 64.507812 94.628906 65.230469 C 94.476562 65.753906 94.398438 66.523438 94.429688 67.261719 C 94.460938 68.152344 94.382812 68.628906 94.152344 69.230469 C 93.785156 70.167969 93.769531 70.9375 94.09375 71.90625 C 94.355469 72.660156 94.832031 73.046875 95.308594 72.863281 C 95.507812 72.800781 95.539062 72.628906 95.460938 72.046875 C 95.382812 71.445312 95.445312 71.0625 95.832031 70.03125 C 96.339844 68.644531 96.398438 68.109375 96.136719 67.152344 C 96.015625 66.707031 96.015625 66.277344 96.152344 65.460938 C 96.308594 64.539062 96.308594 64.183594 96.09375 63.125 C 95.921875 62.324219 95.863281 61.601562 95.9375 61.125 C 96 60.644531 95.9375 59.9375 95.800781 59.214844 C 95.660156 58.585938 95.507812 57.601562 95.460938 57.015625 C 95.324219 55.660156 95.277344 55.539062 94.847656 55.539062 C 94.523438 55.539062 94.460938 55.628906 94.371094 56.261719 Z M 94.371094 56.261719 "/>
<path style=" stroke:none;fill-rule:nonzero;fill:#bf5300;fill-opacity:1;" d="M 108.585938 58.628906 C 108.230469 58.832031 106.292969 61.554688 105.800781 62.539062 C 105.585938 62.953125 105.125 63.644531 104.753906 64.0625 C 104.125 64.785156 104.09375 64.863281 104.0625 65.832031 C 104.03125 67.371094 103.214844 69.152344 101.9375 70.492188 C 101.109375 71.355469 100.921875 71.628906 100.847656 72.214844 C 100.707031 73.109375 100.816406 73.382812 101.308594 73.382812 C 101.601562 73.382812 101.691406 73.308594 101.691406 73.03125 C 101.691406 72.523438 102.0625 72.078125 103.078125 71.382812 C 104.691406 70.277344 105.0625 69.628906 105.847656 66.324219 C 106.078125 65.339844 106.339844 64.738281 106.921875 63.863281 C 107.984375 62.230469 109.261719 59.492188 109.199219 58.96875 C 109.152344 58.507812 108.96875 58.398438 108.585938 58.628906 Z M 108.585938 58.628906 "/>
<path style=" stroke:none;fill-rule:nonzero;fill:#bf5300;fill-opacity:1;" d="M 80.03125 59.109375 C 79.921875 59.214844 79.847656 59.398438 79.847656 59.554688 C 79.847656 59.921875 81.507812 63.355469 82.078125 64.152344 C 82.339844 64.539062 82.722656 65.230469 82.90625 65.707031 C 83.09375 66.183594 83.585938 66.953125 84.015625 67.429688 C 84.429688 67.890625 84.90625 68.601562 85.0625 68.984375 C 85.230469 69.371094 85.554688 69.847656 85.785156 70.03125 C 87.136719 71.167969 87.355469 71.414062 87.539062 72.078125 C 87.785156 72.984375 88.230469 73.539062 88.691406 73.539062 C 89.214844 73.539062 89.246094 73.246094 88.863281 71.90625 C 88.429688 70.382812 88.277344 70.109375 87.585938 69.585938 C 87.199219 69.292969 86.863281 68.800781 86.507812 68 C 86.214844 67.371094 85.722656 66.539062 85.398438 66.152344 C 85.078125 65.769531 84.691406 65.09375 84.554688 64.644531 C 84.246094 63.722656 82.109375 60.382812 81.261719 59.492188 C 80.691406 58.90625 80.339844 58.800781 80.03125 59.109375 Z M 80.03125 59.109375 "/>
<path style=" stroke:none;fill-rule:nonzero;fill:#bf5300;fill-opacity:1;" d="M 180.230469 59.847656 C 179.507812 60.644531 176.246094 62.09375 171.460938 63.753906 C 167.183594 65.246094 164.847656 66.125 163.554688 66.707031 C 162.292969 67.292969 161.769531 67.339844 160.308594 66.984375 C 158.355469 66.523438 157.832031 66.460938 157.507812 66.628906 C 156.96875 66.921875 157.261719 67.644531 158.371094 68.722656 C 159.675781 69.984375 159.921875 70.675781 159.800781 72.832031 C 159.738281 73.921875 159.507812 75.199219 159.03125 77.152344 C 158.644531 78.675781 157.738281 82.617188 157 85.921875 C 154.601562 96.769531 152.890625 102.847656 150.9375 107.539062 C 150.046875 109.660156 149.816406 109.96875 148.199219 111.167969 C 147.585938 111.628906 147.078125 112.09375 147.078125 112.214844 C 147.078125 112.800781 148.691406 113.371094 152.691406 114.167969 C 155.953125 114.816406 156.382812 114.9375 160.585938 116.246094 C 162.03125 116.707031 163.382812 117.078125 163.585938 117.078125 C 163.9375 117.078125 164.617188 116.507812 164.617188 116.214844 C 164.617188 116.136719 164.292969 115.753906 163.90625 115.382812 C 162.183594 113.691406 161.183594 111.539062 161.183594 109.460938 C 161.183594 107.570312 162.046875 103.816406 162.753906 102.675781 C 163.339844 101.738281 165.015625 101.292969 167.539062 101.429688 C 170.382812 101.601562 172.863281 102.414062 173.953125 103.570312 C 175.0625 104.722656 175.738281 107.015625 175.753906 109.691406 C 175.753906 112.398438 175.261719 113.707031 173.847656 114.691406 C 173.382812 115.015625 173.152344 115.292969 173.152344 115.523438 C 173.152344 115.816406 173.429688 115.96875 175.308594 116.691406 C 176.492188 117.136719 178.570312 117.9375 179.921875 118.460938 C 186.707031 121.078125 190.324219 122.015625 190.90625 121.324219 C 191.167969 121.015625 190.785156 120.292969 189.90625 119.382812 C 189.125 118.570312 188.675781 117.539062 187.398438 113.628906 C 185.660156 108.308594 184.492188 103.015625 182.539062 91.617188 C 181.90625 87.890625 181.03125 83.152344 180.601562 81.078125 C 180.167969 79 179.476562 75.644531 179.0625 73.617188 C 178.644531 71.585938 178.230469 69.152344 178.136719 68.230469 C 177.847656 65.398438 178.292969 64.167969 180.214844 62.601562 C 181.9375 61.199219 182.355469 59.675781 181.0625 59.570312 C 180.660156 59.539062 180.445312 59.617188 180.230469 59.847656 Z M 171.078125 85.308594 C 172.261719 90.707031 173.199219 95.152344 173.152344 95.199219 C 173.0625 95.292969 164.617188 94.660156 164.492188 94.554688 C 164.445312 94.507812 165.339844 90.429688 166.445312 85.507812 C 168.691406 75.644531 168.769531 75.324219 168.847656 75.414062 C 168.890625 75.445312 169.890625 79.890625 171.078125 85.308594 Z M 171.078125 85.308594 "/>
<path style=" stroke:none;fill-rule:nonzero;fill:#bf5300;fill-opacity:1;" d="M 18.308594 60.398438 C 18.09375 60.429688 17.398438 60.539062 16.769531 60.628906 C 14.152344 61.015625 11.046875 62.324219 8.847656 63.953125 C 5.015625 66.832031 2.847656 70.585938 2.660156 74.691406 C 2.507812 78.199219 3.675781 81.09375 6.308594 83.691406 C 8.460938 85.816406 10.847656 87.136719 16.875 89.554688 C 22.953125 91.984375 24.523438 92.832031 26.167969 94.570312 C 28.046875 96.539062 28.753906 99.292969 28.078125 101.921875 C 27.292969 104.875 24.539062 107.554688 21.382812 108.398438 C 20.03125 108.753906 17.875 108.753906 16.691406 108.398438 C 14.660156 107.800781 12.769531 106.398438 12.152344 105.046875 C 11.890625 104.476562 11.707031 102.617188 11.90625 102.617188 C 11.9375 102.617188 12.371094 102.816406 12.847656 103.078125 C 14.429688 103.90625 16.277344 103.628906 17.691406 102.355469 C 19.03125 101.152344 19.523438 99.644531 19.230469 97.691406 C 18.800781 94.90625 16.628906 92.785156 13.382812 91.984375 C 12.046875 91.644531 9.382812 91.722656 7.953125 92.125 C 3.371094 93.414062 0.769531 97 0.769531 101.984375 C 0.769531 105.9375 2.644531 109.847656 6.046875 113 C 11.523438 118.109375 19.078125 119.601562 26.078125 116.96875 C 31.199219 115.046875 35.507812 110.890625 37.585938 105.847656 C 41.183594 97.152344 37.875 88.644531 29.308594 84.539062 C 28.382812 84.09375 26.199219 83.183594 24.460938 82.539062 C 16.953125 79.707031 14.523438 77.785156 13.753906 74.109375 C 13.460938 72.722656 13.570312 71.753906 14.167969 70.523438 C 15.230469 68.292969 17.984375 66.816406 21.382812 66.644531 C 24.109375 66.523438 26.199219 67.078125 27.617188 68.324219 C 28.398438 69.015625 28.921875 70.152344 28.921875 71.183594 C 28.921875 72.832031 28.398438 73.261719 27.324219 72.492188 C 25.628906 71.277344 23.753906 71.570312 23.152344 73.152344 C 22.539062 74.722656 23.167969 76.875 24.660156 78.371094 C 27.675781 81.382812 32.816406 81.078125 36.152344 77.675781 C 38.644531 75.152344 39.125 71.660156 37.445312 68.183594 C 35.769531 64.675781 30.832031 61.863281 24.445312 60.785156 C 22.628906 60.460938 19.136719 60.246094 18.308594 60.398438 Z M 18.308594 60.398438 "/>
<path style=" stroke:none;fill-rule:nonzero;fill:#bf5300;fill-opacity:1;" d="M 99.9375 62.03125 C 99.800781 62.570312 99.507812 63.96875 99.292969 65.152344 C 98.832031 67.722656 98.382812 69.539062 98 70.398438 C 97.800781 70.875 97.753906 71.199219 97.847656 71.675781 C 98.015625 72.585938 98.152344 72.644531 98.152344 71.816406 C 98.152344 71.371094 98.292969 70.875 98.523438 70.445312 C 98.722656 70.078125 99.015625 69.183594 99.152344 68.460938 C 99.292969 67.738281 99.570312 66.523438 99.769531 65.738281 C 100.109375 64.429688 100.460938 62.261719 100.460938 61.429688 C 100.460938 60.753906 100.183594 61.078125 99.9375 62.03125 Z M 99.9375 62.03125 "/>
<path style=" stroke:none;fill-rule:nonzero;fill:#bf5300;fill-opacity:1;" d="M 88.109375 63.445312 C 88.0625 63.554688 88.261719 64.0625 88.570312 64.554688 C 89.554688 66.199219 90.414062 68.0625 90.753906 69.308594 C 91.183594 70.863281 91.617188 71.832031 91.921875 71.9375 C 92.0625 72 92.199219 72.015625 92.230469 71.96875 C 92.355469 71.863281 91.554688 68.984375 91.078125 67.753906 C 90.492188 66.308594 89.863281 65.136719 89.046875 64.03125 C 88.429688 63.199219 88.246094 63.078125 88.109375 63.445312 Z M 88.109375 63.445312 "/>
<path style=" stroke:none;fill-rule:nonzero;fill:#bf5300;fill-opacity:1;" d="M 110.125 65.644531 C 109.90625 65.890625 109.429688 66.554688 109.078125 67.152344 C 108.722656 67.738281 108.0625 68.617188 107.617188 69.09375 C 107.09375 69.628906 106.722656 70.199219 106.601562 70.617188 C 106.460938 71.0625 106.125 71.554688 105.585938 72.09375 C 105 72.675781 104.769531 73.015625 104.769531 73.324219 L 104.769531 73.738281 L 105.523438 73.0625 C 105.9375 72.691406 106.445312 72.261719 106.660156 72.125 C 106.890625 71.96875 107.152344 71.539062 107.308594 71.09375 C 107.476562 70.570312 107.832031 70.03125 108.429688 69.414062 C 109.230469 68.601562 110.675781 66.308594 110.875 65.554688 C 111 65.09375 110.601562 65.136719 110.125 65.644531 Z M 110.125 65.644531 "/>
<path style=" stroke:none;fill-rule:nonzero;fill:#bf5300;fill-opacity:1;" d="M 47.414062 66.800781 C 46.875 67.339844 47.476562 68.355469 48.921875 69.382812 C 50.277344 70.355469 50.539062 70.847656 50.523438 72.339844 C 50.492188 73.460938 50.429688 73.660156 49.570312 75.492188 C 48.199219 78.382812 47.769531 79.96875 46.382812 87.246094 C 45.675781 91.015625 42.628906 103.167969 41.691406 106.03125 C 40.617188 109.308594 40.183594 110.125 38.984375 111.183594 C 38.078125 111.984375 37.539062 112.691406 37.539062 113.03125 C 37.554688 113.585938 37.800781 113.554688 45.554688 111.921875 C 49.816406 111.03125 53.398438 110.277344 53.507812 110.230469 C 53.628906 110.183594 53.691406 109.984375 53.660156 109.738281 C 53.628906 109.398438 53.460938 109.230469 52.90625 108.96875 C 51.046875 108.09375 50.324219 105.816406 51.0625 103.152344 C 51.292969 102.308594 51.476562 101.96875 51.921875 101.601562 C 53.03125 100.628906 57.152344 99.601562 60.628906 99.429688 C 62.308594 99.355469 62.445312 99.371094 62.738281 99.660156 C 63.214844 100.136719 63.554688 101.429688 63.644531 103.152344 C 63.722656 104.601562 63.707031 104.753906 63.339844 105.476562 C 62.953125 106.230469 62.0625 107.167969 61.398438 107.539062 C 61.167969 107.660156 61.078125 107.847656 61.078125 108.230469 C 61.078125 109.214844 61.585938 109.261719 64.847656 108.523438 C 66.015625 108.246094 66.863281 108.152344 67.617188 108.183594 C 68.460938 108.214844 68.753906 108.167969 68.9375 107.984375 C 69.339844 107.585938 71.078125 107.261719 73.847656 107.078125 C 75.246094 106.984375 76.96875 106.847656 77.691406 106.753906 C 78.414062 106.675781 81.246094 106.570312 84 106.523438 C 86.753906 106.476562 89.230469 106.371094 89.507812 106.277344 C 90.046875 106.125 90.308594 105.675781 90.183594 105.199219 C 90.152344 105.046875 89.753906 104.738281 89.324219 104.539062 C 88.355469 104.0625 87.691406 103.199219 87.230469 101.847656 C 86.800781 100.585938 86.707031 98.09375 86.875 92.382812 L 87 88.382812 L 87.816406 89.460938 C 88.984375 91 90.445312 94.09375 91.617188 97.460938 C 93.507812 102.96875 94.800781 106.046875 95.078125 105.753906 C 95.339844 105.492188 96.308594 103.0625 97.601562 99.429688 C 99.046875 95.355469 99.753906 93.628906 100.570312 92.152344 C 101.292969 90.863281 102.507812 89.078125 103 88.617188 L 103.382812 88.261719 L 103.382812 101.9375 L 102.9375 102.628906 C 102.398438 103.476562 101.675781 104.136719 100.722656 104.675781 C 99.847656 105.167969 99.691406 105.460938 100.09375 105.847656 C 100.355469 106.109375 100.816406 106.152344 104.921875 106.308594 C 112.371094 106.570312 115.921875 106.921875 121.230469 107.953125 C 130.507812 109.722656 132.691406 110.078125 135.847656 110.246094 C 139.308594 110.429688 141.785156 109.847656 143.9375 108.324219 C 146.03125 106.863281 147.628906 104.722656 148.476562 102.261719 C 150.460938 96.445312 148.429688 90.660156 143.476562 88.136719 C 142.753906 87.769531 142.152344 87.429688 142.167969 87.382812 C 142.167969 87.339844 142.601562 86.953125 143.125 86.523438 C 145.90625 84.246094 147.355469 81.214844 147.183594 78 C 147 74.429688 145.492188 72.308594 142.398438 71.277344 C 141.199219 70.875 141.03125 70.863281 138 70.863281 C 135.277344 70.863281 134.382812 70.9375 131.539062 71.355469 C 127.078125 72.015625 125.507812 72.136719 123.152344 72.046875 C 120.9375 71.953125 118.460938 72.167969 117.355469 72.539062 C 116.492188 72.847656 115.585938 73.617188 115.445312 74.183594 C 115.355469 74.570312 115.414062 74.628906 116.03125 74.90625 C 117.644531 75.601562 118.675781 77.707031 118.492188 79.953125 C 118.445312 80.523438 118.492188 84.628906 118.601562 89.078125 C 118.816406 97.832031 118.722656 101.230469 118.214844 102.738281 C 117.90625 103.675781 116.863281 104.9375 116.152344 105.230469 C 115.890625 105.339844 115.382812 105.382812 115.015625 105.355469 C 113.832031 105.214844 112.96875 104.277344 112.414062 102.539062 C 112.09375 101.507812 112.078125 101.230469 112.09375 95.617188 C 112.09375 92.398438 112.136719 87.199219 112.167969 84.078125 C 112.261719 77.617188 112.261719 77.628906 113.601562 76.136719 C 114.324219 75.339844 114.585938 74.675781 114.308594 74.398438 C 113.953125 74.0625 111.96875 74.277344 109.152344 74.96875 C 106.125 75.722656 105.0625 75.921875 102.628906 76.152344 C 101.675781 76.246094 100.953125 76.382812 100.875 76.507812 C 100.816406 76.601562 99.921875 78.382812 98.90625 80.460938 C 96.90625 84.554688 95.554688 86.953125 95.308594 86.875 C 95.015625 86.785156 93.984375 85.078125 91.9375 81.277344 L 89.875 77.460938 L 88.90625 77.371094 C 88.371094 77.308594 87.03125 77.261719 85.921875 77.246094 C 83.292969 77.214844 81.445312 76.9375 78.078125 76.015625 C 74.324219 74.984375 74.507812 75.015625 74.382812 75.371094 C 74.339844 75.539062 74.371094 75.953125 74.460938 76.308594 C 74.601562 76.800781 74.847656 77.109375 75.707031 77.816406 C 76.921875 78.800781 77.355469 79.554688 77.847656 81.476562 C 78.523438 84.136719 78.628906 87.292969 78.214844 93.628906 C 78.078125 95.875 78 98.523438 78.03125 100.03125 L 78.109375 102.601562 L 77.675781 103.339844 C 77.136719 104.246094 76.953125 104.476562 76.460938 104.816406 C 75.476562 105.492188 74.554688 104.863281 73.492188 102.785156 C 72.167969 100.199219 70.90625 95.675781 68.9375 86.585938 C 67.371094 79.277344 67.046875 78.09375 66.09375 76.109375 C 64.230469 72.261719 64.523438 70.339844 67.261719 68.339844 C 68.324219 67.570312 68.371094 67.476562 68.0625 67.167969 C 67.644531 66.753906 67.183594 66.738281 64.832031 67.0625 C 60.769531 67.628906 58.183594 67.847656 55.554688 67.847656 C 52.445312 67.847656 51.398438 67.691406 49.921875 67.09375 C 48.753906 66.601562 47.738281 66.476562 47.414062 66.800781 Z M 135.476562 77.199219 C 136.414062 77.628906 137.277344 78.460938 137.628906 79.308594 C 138.136719 80.554688 137.832031 82.570312 136.9375 83.800781 C 136.015625 85.078125 133.875 85.675781 129.816406 85.800781 L 127.691406 85.875 L 127.691406 81.9375 C 127.691406 78.183594 127.707031 77.984375 128 77.691406 C 128.691406 77 129.832031 76.785156 132.539062 76.816406 C 134.398438 76.847656 134.800781 76.90625 135.476562 77.199219 Z M 58.046875 81.414062 C 58.660156 81.890625 59.261719 83.847656 60.371094 88.921875 C 60.738281 90.660156 61.09375 92.199219 61.152344 92.339844 C 61.398438 92.9375 58.585938 93.675781 55.015625 93.9375 L 53.492188 94.046875 L 53.601562 93.214844 C 53.9375 90.539062 56.308594 83.125 57.308594 81.601562 C 57.585938 81.183594 57.691406 81.152344 58.046875 81.414062 Z M 135.199219 92.382812 C 137.847656 92.984375 139.230469 94.675781 139.230469 97.308594 C 139.230469 101.398438 136.015625 102.785156 129.429688 101.523438 L 127.691406 101.199219 L 127.691406 92.617188 L 128.046875 92.539062 C 129.847656 92.125 133.691406 92.046875 135.199219 92.382812 Z M 135.199219 92.382812 "/>
<path style=" stroke:none;fill-rule:nonzero;fill:#bf5300;fill-opacity:1;" d="M 77.921875 68.152344 C 77.753906 68.414062 78.890625 69.460938 80 70.078125 C 80.769531 70.492188 81.246094 70.890625 81.554688 71.339844 C 81.800781 71.691406 82.324219 72.199219 82.707031 72.460938 C 83.078125 72.722656 83.570312 73.214844 83.769531 73.554688 C 84.078125 74.03125 84.246094 74.152344 84.617188 74.152344 C 84.875 74.152344 85.078125 74.078125 85.078125 73.984375 C 85.078125 73.785156 83.476562 72.152344 83.0625 71.90625 C 82.921875 71.832031 82.554688 71.398438 82.230469 70.9375 C 81.769531 70.308594 81.429688 70.03125 80.785156 69.738281 C 80.324219 69.539062 79.554688 69.0625 79.078125 68.675781 C 78.152344 67.953125 78.078125 67.921875 77.921875 68.152344 Z M 77.921875 68.152344 "/>
<path style=" stroke:none;fill-rule:nonzero;fill:#bf5300;fill-opacity:1;" d="M 101.539062 110.167969 C 100.382812 110.371094 99.109375 111.03125 98.539062 111.738281 C 98.136719 112.261719 98.078125 112.476562 98.015625 113.554688 C 97.96875 114.570312 98.015625 114.847656 98.292969 115.292969 C 98.832031 116.136719 100.125 117.125 101.9375 118.0625 C 103.738281 118.96875 104.460938 119.507812 104.460938 119.921875 C 104.460938 120.277344 103.769531 120.875 102.984375 121.167969 C 102.398438 121.398438 102.167969 121.398438 101.476562 121.246094 C 100.152344 120.953125 99.953125 120.722656 99.628906 119.0625 C 99.554688 118.691406 99.460938 118.644531 98.523438 118.570312 C 97.953125 118.507812 97.429688 118.507812 97.371094 118.554688 C 97.292969 118.601562 97.230469 119 97.230469 119.445312 C 97.230469 122.382812 99.738281 124.214844 103.078125 123.707031 C 105.015625 123.398438 106.277344 122.644531 106.921875 121.382812 C 107.953125 119.371094 107.09375 117.644531 104.570312 116.660156 C 103.722656 116.324219 103.230469 115.984375 102.339844 115.152344 C 101.414062 114.277344 101.214844 114 101.292969 113.753906 C 101.476562 113.152344 102.90625 112.785156 103.921875 113.0625 C 104.816406 113.308594 104.953125 113.429688 105.0625 114.09375 C 105.152344 114.644531 105.199219 114.691406 105.617188 114.660156 C 105.875 114.628906 106.398438 114.722656 106.800781 114.863281 C 107.691406 115.152344 108.214844 115.03125 108.109375 114.570312 C 107.539062 112.230469 107.199219 111.601562 106.183594 110.9375 C 104.890625 110.109375 103.414062 109.863281 101.539062 110.167969 Z M 101.539062 110.167969 "/>
<path style=" stroke:none;fill-rule:nonzero;fill:#bf5300;fill-opacity:1;" d="M 87.847656 110.382812 C 87.0625 110.492188 85.847656 110.539062 84.832031 110.492188 C 82.675781 110.398438 81.445312 110.539062 81.355469 110.890625 C 81.308594 111.03125 81.371094 111.90625 81.476562 112.847656 C 81.601562 113.769531 81.675781 115.753906 81.675781 117.230469 C 81.660156 119.382812 81.722656 120.261719 81.984375 121.585938 C 82.167969 122.492188 82.308594 123.445312 82.308594 123.707031 L 82.308594 124.152344 L 83.585938 124.0625 C 84.277344 124.015625 84.9375 123.953125 85.046875 123.90625 C 85.308594 123.832031 85.277344 123.230469 84.90625 120.816406 C 84.738281 119.660156 84.644531 118.675781 84.722656 118.601562 C 84.800781 118.523438 85.261719 118.539062 85.753906 118.617188 C 86.429688 118.722656 86.875 118.707031 87.601562 118.539062 C 88.109375 118.414062 88.769531 118.308594 89.046875 118.308594 L 89.554688 118.308594 L 89.507812 116.875 C 89.460938 115.476562 89.460938 115.460938 89.046875 115.414062 C 88.832031 115.382812 88.125 115.476562 87.507812 115.601562 C 86.800781 115.753906 86.046875 115.800781 85.570312 115.738281 C 84.863281 115.660156 84.753906 115.601562 84.675781 115.246094 C 84.628906 115.03125 84.523438 114.539062 84.445312 114.167969 C 84.277344 113.445312 84.429688 113.167969 84.921875 113.308594 C 85.675781 113.507812 86.847656 113.539062 87.707031 113.371094 C 88.246094 113.277344 89.308594 113.152344 90.0625 113.09375 L 91.414062 113 L 91.445312 111.617188 L 91.460938 110.230469 L 90.308594 110.214844 C 89.675781 110.199219 88.570312 110.277344 87.847656 110.382812 Z M 87.847656 110.382812 "/>
<path style=" stroke:none;fill-rule:nonzero;fill:#bf5300;fill-opacity:1;" d="M 110 110.9375 C 109.890625 111.109375 109.753906 112.398438 109.675781 113.785156 C 109.601562 115.167969 109.429688 116.738281 109.292969 117.261719 C 109.125 117.953125 109.046875 119.046875 109.015625 121.09375 L 108.984375 123.96875 L 109.539062 124.0625 C 109.832031 124.109375 110.371094 124.214844 110.722656 124.277344 C 111.847656 124.523438 111.90625 124.398438 112 121.675781 L 112.078125 119.308594 L 113 119.199219 C 113.507812 119.152344 114.230469 119.167969 114.617188 119.261719 C 115 119.339844 115.585938 119.445312 115.921875 119.507812 L 116.539062 119.617188 L 116.539062 121.382812 C 116.539062 122.355469 116.492188 123.523438 116.429688 123.953125 C 116.324219 124.738281 116.339844 124.769531 116.675781 124.769531 C 116.875 124.769531 117.339844 124.875 117.691406 125 C 118.628906 125.324219 119.0625 125.292969 119.214844 124.875 C 119.382812 124.445312 119.507812 123.398438 119.628906 121.460938 C 119.675781 120.617188 119.890625 119.199219 120.109375 118.308594 C 120.445312 116.921875 120.476562 116.492188 120.398438 115.152344 C 120.339844 114.308594 120.355469 113.246094 120.429688 112.800781 C 120.570312 112 120.554688 111.96875 120.183594 111.832031 C 119.96875 111.753906 119.398438 111.644531 118.921875 111.585938 L 118.046875 111.492188 L 117.863281 112.214844 C 117.738281 112.738281 117.398438 115.769531 117.382812 116.644531 C 117.382812 116.863281 116.398438 116.769531 115.398438 116.460938 C 114.644531 116.214844 114.199219 116.167969 113.523438 116.246094 L 112.644531 116.339844 L 112.539062 114.507812 C 112.476562 113.492188 112.460938 112.292969 112.476562 111.832031 L 112.539062 111.015625 L 112 110.90625 C 110.429688 110.585938 110.183594 110.585938 110 110.9375 Z M 110 110.9375 "/>
<path style=" stroke:none;fill-rule:nonzero;fill:#bf5300;fill-opacity:1;" d="M 72.847656 111.476562 C 72 111.585938 70.890625 111.722656 70.382812 111.769531 C 68.769531 111.9375 68.769531 111.9375 68.769531 112.601562 C 68.769531 112.9375 68.90625 113.921875 69.09375 114.800781 C 69.261719 115.675781 69.476562 117.382812 69.539062 118.617188 C 69.617188 120.078125 69.785156 121.277344 70 122.078125 C 70.183594 122.753906 70.382812 123.722656 70.429688 124.230469 L 70.539062 125.152344 L 71.921875 125.09375 C 72.691406 125.0625 73.339844 125.015625 73.371094 124.984375 C 73.523438 124.847656 73.355469 123.183594 73.0625 121.816406 C 72.875 121 72.769531 120.230469 72.816406 120.09375 C 72.875 119.9375 73.109375 119.847656 73.445312 119.847656 C 73.890625 119.847656 74.09375 119.96875 74.691406 120.644531 C 75.09375 121.09375 75.539062 121.691406 75.691406 122.015625 C 76.109375 122.800781 76.691406 123.476562 77.445312 123.984375 C 78.046875 124.398438 78.136719 124.414062 79.507812 124.339844 C 80.722656 124.277344 80.921875 124.230469 80.921875 124 C 80.921875 123.863281 80.398438 123.167969 79.769531 122.492188 C 79.136719 121.800781 78.445312 120.890625 78.230469 120.476562 C 78.03125 120.0625 77.675781 119.523438 77.460938 119.292969 C 77.246094 119.0625 77.078125 118.863281 77.078125 118.863281 C 77.078125 118.847656 77.445312 118.570312 77.890625 118.246094 C 79.691406 116.9375 80.277344 114.984375 79.382812 113.246094 C 78.539062 111.570312 76.414062 111 72.847656 111.476562 Z M 75.875 114.308594 C 76.984375 114.617188 77 115.414062 75.9375 116.136719 C 75.230469 116.628906 72.847656 117.523438 72.691406 117.355469 C 72.585938 117.246094 72.136719 115.355469 72.09375 114.847656 C 72.078125 114.570312 72.230469 114.523438 73.460938 114.371094 C 75.339844 114.136719 75.230469 114.136719 75.875 114.308594 Z M 75.875 114.308594 "/>
<path style=" stroke:none;fill-rule:nonzero;fill:#bf5300;fill-opacity:1;" d="M 65.492188 112.617188 C 64.398438 112.691406 64.167969 112.847656 64.246094 113.429688 C 64.277344 113.617188 64.492188 114.9375 64.722656 116.382812 C 65.261719 119.785156 65.292969 121.90625 64.785156 122.984375 L 64.429688 123.722656 L 63.214844 123.660156 C 61.570312 123.570312 61.339844 123.382812 60.507812 121.398438 C 59.738281 119.617188 59.308594 117.800781 59.152344 115.753906 L 59.046875 114.355469 L 57.675781 114.246094 C 56.921875 114.183594 56.214844 114.183594 56.125 114.246094 C 55.90625 114.382812 56.0625 117.230469 56.371094 118.691406 C 56.847656 120.9375 57.738281 123.09375 58.570312 124.015625 C 59.414062 124.953125 61.476562 126.429688 62.09375 126.554688 C 62.382812 126.601562 63.0625 126.617188 63.601562 126.585938 C 64.460938 126.539062 64.707031 126.429688 65.660156 125.800781 C 66.261719 125.398438 66.921875 124.863281 67.136719 124.601562 C 68.167969 123.382812 68.277344 120.832031 67.476562 116.644531 C 67.183594 115.152344 66.90625 113.644531 66.863281 113.324219 C 66.816406 112.984375 66.722656 112.675781 66.660156 112.628906 C 66.601562 112.570312 66.0625 112.570312 65.492188 112.617188 Z M 65.492188 112.617188 "/>
<path style=" stroke:none;fill-rule:nonzero;fill:#bf5300;fill-opacity:1;" d="M 125.355469 113.136719 C 123.292969 113.875 121.847656 116.199219 121.339844 119.585938 C 121.125 121.03125 121.308594 122.078125 122 123.492188 C 122.769531 125.0625 124.0625 125.953125 126.167969 126.398438 C 128.675781 126.921875 130.601562 126.460938 132.109375 124.953125 C 133.492188 123.570312 134.0625 121.875 134.0625 119.078125 C 134.0625 117.617188 134 117.152344 133.722656 116.445312 C 133.261719 115.292969 132.339844 114.261719 131.339844 113.800781 C 129.691406 113.03125 126.628906 112.691406 125.355469 113.136719 Z M 129.277344 116.109375 C 130.675781 116.554688 131.261719 118.046875 130.921875 120.429688 C 130.554688 123.078125 129.261719 124.246094 127.136719 123.863281 C 125.246094 123.507812 124.308594 122.476562 124.308594 120.753906 C 124.308594 119.339844 125.167969 116.921875 125.90625 116.324219 C 126.644531 115.707031 127.785156 115.628906 129.277344 116.109375 Z M 129.277344 116.109375 "/>
<path style=" stroke:none;fill-rule:nonzero;fill:#bf5300;fill-opacity:1;" d="M 136.863281 115.507812 C 136.722656 115.90625 136.445312 117.109375 136.230469 118.183594 C 136.015625 119.261719 135.644531 120.644531 135.398438 121.261719 C 135.152344 121.875 134.863281 122.96875 134.769531 123.691406 C 134.585938 124.984375 134.246094 126.875 134.078125 127.460938 C 134 127.738281 134.152344 127.816406 135.308594 128.199219 C 136.015625 128.445312 136.675781 128.601562 136.738281 128.554688 C 136.984375 128.414062 137.382812 126.890625 137.601562 125.339844 C 137.707031 124.523438 137.832031 123.800781 137.875 123.769531 C 137.921875 123.722656 138.601562 123.800781 139.398438 123.9375 C 140.890625 124.199219 142.617188 124.167969 143.722656 123.847656 C 144.738281 123.554688 145.722656 122.769531 146.183594 121.863281 C 147.414062 119.507812 145.96875 117.152344 142.769531 116.261719 C 141.167969 115.816406 137.921875 114.953125 137.507812 114.863281 C 137.136719 114.769531 137.078125 114.832031 136.863281 115.507812 Z M 141 118.785156 C 142.921875 119.308594 143.660156 119.816406 143.460938 120.460938 C 143.277344 121.046875 142.261719 121.382812 140.617188 121.382812 C 139.816406 121.382812 139.0625 121.324219 138.953125 121.261719 C 138.800781 121.152344 138.800781 120.875 138.9375 119.90625 C 139.167969 118.324219 139.183594 118.277344 139.492188 118.371094 C 139.644531 118.414062 140.324219 118.601562 141 118.785156 Z M 141 118.785156 "/>
<path style=" stroke:none;fill-rule:nonzero;fill:#bf5300;fill-opacity:1;" d="M 48.707031 115.921875 C 45.816406 116.9375 44.617188 118.660156 45.308594 120.785156 C 45.460938 121.246094 45.722656 121.785156 45.90625 121.984375 C 46.523438 122.660156 48.183594 123.371094 49.800781 123.617188 C 53.230469 124.152344 53.921875 124.660156 52.875 125.847656 C 52.078125 126.738281 51.707031 126.921875 50.628906 126.921875 C 49.398438 126.921875 49.09375 126.738281 48.628906 125.769531 C 48.308594 125.09375 48.277344 125.0625 47.800781 125.167969 C 47.523438 125.230469 47.03125 125.324219 46.691406 125.371094 C 45.90625 125.492188 45.863281 125.738281 46.398438 126.921875 C 47.585938 129.570312 50.339844 130.230469 53.492188 128.628906 C 55.199219 127.769531 56.167969 126.429688 56.183594 124.921875 C 56.199219 122.875 54.984375 121.863281 52.230469 121.601562 C 51.109375 121.492188 48.675781 120.414062 48.523438 119.96875 C 48.339844 119.382812 49.355469 118.644531 50.628906 118.398438 C 51.230469 118.292969 52.152344 118.539062 52.152344 118.832031 C 52.152344 118.921875 52.261719 119.167969 52.398438 119.355469 C 52.617188 119.675781 52.660156 119.675781 53.078125 119.460938 C 53.324219 119.339844 53.90625 119.230469 54.382812 119.230469 C 54.984375 119.230469 55.261719 119.167969 55.324219 119 C 55.429688 118.722656 54.460938 117.136719 53.800781 116.492188 C 52.753906 115.476562 50.644531 115.230469 48.707031 115.921875 Z M 48.707031 115.921875 "/>
<path style=" stroke:none;fill-rule:nonzero;fill:#bf5300;fill-opacity:1;" d="M 67.445312 127.96875 C 66.691406 128.015625 66.644531 128.046875 66.554688 128.492188 C 66.339844 129.554688 66.355469 129.570312 67.554688 129.523438 C 68.890625 129.476562 69 129.601562 68.832031 130.96875 C 68.738281 131.738281 68.722656 134.9375 68.816406 135.015625 C 68.832031 135.03125 69.167969 135.09375 69.585938 135.136719 L 70.308594 135.246094 L 70.308594 129.554688 L 71.199219 129.460938 C 71.675781 129.414062 72.183594 129.355469 72.308594 129.339844 C 72.617188 129.292969 72.722656 128.183594 72.429688 128.09375 C 72.136719 128 68.371094 127.90625 67.445312 127.96875 Z M 67.445312 127.96875 "/>
<path style=" stroke:none;fill-rule:nonzero;fill:#bf5300;fill-opacity:1;" d="M 74.644531 128.03125 C 74.570312 128.136719 74.277344 128.832031 74.015625 129.570312 C 73.769531 130.308594 73.398438 131.199219 73.214844 131.554688 C 73.046875 131.90625 72.722656 132.769531 72.507812 133.445312 C 72.308594 134.136719 72.09375 134.816406 72.046875 134.953125 C 71.984375 135.183594 72.078125 135.214844 72.785156 135.152344 C 73.570312 135.109375 73.628906 135.078125 73.785156 134.585938 L 73.96875 134.078125 L 75.398438 134.09375 L 76.847656 134.09375 L 77.015625 134.617188 C 77.183594 135.109375 77.214844 135.125 78.015625 135.152344 L 78.847656 135.167969 L 78.570312 134.246094 C 78.03125 132.507812 77.722656 131.617188 77.167969 130.230469 C 76.125 127.675781 76.246094 127.847656 75.476562 127.847656 C 75.109375 127.847656 74.738281 127.9375 74.644531 128.03125 Z M 75.800781 130.875 C 75.890625 131.199219 76.0625 131.675781 76.167969 131.953125 C 76.277344 132.230469 76.324219 132.492188 76.277344 132.554688 C 76.214844 132.601562 75.800781 132.601562 75.339844 132.554688 L 74.507812 132.445312 L 74.863281 131.570312 C 75.0625 131.09375 75.230469 130.601562 75.230469 130.492188 C 75.230469 130.078125 75.644531 130.339844 75.800781 130.875 Z M 75.800781 130.875 "/>
<path style=" stroke:none;fill-rule:nonzero;fill:#bf5300;fill-opacity:1;" d="M 80.832031 128.136719 C 79.660156 128.675781 79 130.136719 79.109375 132.046875 C 79.152344 132.96875 79.230469 133.308594 79.585938 133.832031 C 80.414062 135.078125 81.628906 135.460938 83.324219 135 C 84.785156 134.601562 84.875 134.492188 84.984375 132.800781 L 85.09375 131.382812 L 83.691406 131.382812 L 83.691406 132.277344 C 83.691406 133.445312 83.492188 133.707031 82.492188 133.816406 C 81.753906 133.875 81.660156 133.847656 81.152344 133.339844 C 80.660156 132.847656 80.617188 132.738281 80.617188 131.863281 C 80.617188 130.308594 81.199219 129.382812 82.167969 129.382812 C 82.601562 129.382812 83.230469 129.984375 83.230469 130.398438 C 83.230469 130.539062 83.445312 130.585938 83.96875 130.570312 C 84.660156 130.539062 84.691406 130.523438 84.660156 130.109375 C 84.539062 128.371094 82.554688 127.355469 80.832031 128.136719 Z M 80.832031 128.136719 "/>
<path style=" stroke:none;fill-rule:nonzero;fill:#bf5300;fill-opacity:1;" d="M 85.953125 128.109375 C 85.863281 128.414062 85.785156 132 85.816406 133.863281 L 85.847656 135.03125 L 86.570312 135.136719 C 86.953125 135.183594 87.324219 135.199219 87.371094 135.152344 C 87.414062 135.109375 87.429688 134.445312 87.414062 133.707031 L 87.382812 132.355469 L 87.953125 132.277344 C 88.847656 132.152344 89.675781 132.308594 89.753906 132.601562 C 89.800781 132.738281 89.863281 133.355469 89.875 133.953125 C 89.921875 134.875 89.96875 135.078125 90.167969 135.078125 C 90.308594 135.078125 90.644531 135.125 90.90625 135.167969 L 91.382812 135.261719 L 91.371094 132.523438 C 91.355469 131 91.308594 129.355469 91.246094 128.847656 L 91.152344 127.921875 L 90.585938 127.875 C 90.046875 127.832031 90.015625 127.863281 89.921875 128.339844 C 89.875 128.617188 89.847656 129.261719 89.875 129.769531 L 89.921875 130.691406 L 88.707031 130.691406 C 88.03125 130.691406 87.476562 130.628906 87.445312 130.539062 C 87.414062 130.460938 87.339844 129.832031 87.277344 129.152344 L 87.152344 127.921875 L 86.585938 127.875 C 86.152344 127.847656 86.015625 127.890625 85.953125 128.109375 Z M 85.953125 128.109375 "/>
<path style=" stroke:none;fill-rule:nonzero;fill:#bf5300;fill-opacity:1;" d="M 94.570312 128.261719 C 94.445312 128.507812 94.230469 129.078125 94.078125 129.539062 C 93.921875 130 93.617188 130.769531 93.382812 131.230469 C 93.152344 131.691406 92.785156 132.675781 92.554688 133.429688 C 92.324219 134.167969 92.109375 134.863281 92.0625 134.984375 C 92 135.152344 92.167969 135.183594 92.832031 135.167969 C 93.660156 135.152344 93.660156 135.152344 93.832031 134.585938 L 94 134.015625 L 96.890625 134.078125 L 97.0625 134.617188 C 97.214844 135.136719 97.246094 135.152344 98.046875 135.152344 L 98.863281 135.167969 L 98.339844 133.382812 C 98.0625 132.414062 97.738281 131.476562 97.628906 131.308594 C 97.523438 131.136719 97.199219 130.371094 96.921875 129.617188 C 96.644531 128.847656 96.355469 128.136719 96.261719 128.03125 C 96.183594 127.9375 95.816406 127.847656 95.445312 127.847656 C 94.875 127.847656 94.753906 127.90625 94.570312 128.261719 Z M 95.691406 130.492188 C 95.691406 130.601562 95.863281 131.09375 96.0625 131.585938 C 96.492188 132.628906 96.429688 132.707031 95.292969 132.539062 C 94.722656 132.460938 94.601562 132.382812 94.675781 132.183594 C 95.183594 130.644531 95.339844 130.308594 95.507812 130.308594 C 95.601562 130.308594 95.691406 130.398438 95.691406 130.492188 Z M 95.691406 130.492188 "/>
<path style=" stroke:none;fill-rule:nonzero;fill:#bf5300;fill-opacity:1;" d="M 100.199219 127.953125 C 99.324219 128.015625 99.382812 127.921875 99.324219 129.183594 C 99.308594 129.429688 99.492188 129.460938 101.109375 129.460938 C 102.09375 129.460938 102.953125 129.523438 103.015625 129.585938 C 103.09375 129.644531 102.554688 130.277344 101.847656 130.96875 C 101.125 131.675781 100.246094 132.601562 99.875 133.046875 C 99.292969 133.738281 99.230469 133.890625 99.308594 134.371094 C 99.414062 134.890625 99.414062 134.890625 100.429688 135 C 101 135.0625 102.324219 135.125 103.382812 135.136719 L 105.308594 135.152344 L 105.339844 133.707031 L 104.167969 133.601562 C 103.523438 133.539062 102.96875 133.476562 102.921875 133.492188 C 102.875 133.492188 102.585938 133.554688 102.277344 133.601562 C 101.371094 133.769531 101.523438 133.371094 102.96875 131.9375 C 104.96875 129.9375 105.382812 129.371094 105.382812 128.628906 L 105.382812 128 L 104.199219 128 C 103.539062 128 102.554688 127.96875 102 127.9375 C 101.445312 127.90625 100.628906 127.90625 100.199219 127.953125 Z M 100.199219 127.953125 "/>
<path style=" stroke:none;fill-rule:nonzero;fill:#bf5300;fill-opacity:1;" d="M 107.769531 128.015625 C 107.109375 128.199219 106.382812 129.015625 106.09375 129.890625 C 105.785156 130.785156 105.769531 132.753906 106.0625 133.429688 C 107 135.675781 110.769531 135.800781 111.90625 133.628906 C 112.523438 132.429688 112.324219 130.015625 111.507812 128.890625 C 110.875 128 109.167969 127.601562 107.769531 128.015625 Z M 110.109375 129.722656 C 110.738281 130.414062 110.96875 132.109375 110.523438 132.9375 C 110.292969 133.382812 109.523438 133.847656 108.984375 133.847656 C 108.523438 133.847656 107.738281 133.371094 107.554688 132.984375 C 107.152344 132.09375 107.445312 130.03125 108.046875 129.617188 C 108.570312 129.246094 109.722656 129.308594 110.109375 129.722656 Z M 110.109375 129.722656 "/>
<path style=" stroke:none;fill-rule:nonzero;fill:#bf5300;fill-opacity:1;" d="M 112.984375 128.875 C 112.921875 129.445312 112.921875 130.507812 112.96875 131.246094 C 113.0625 132.753906 113.324219 133.398438 114.261719 134.398438 C 115.078125 135.277344 115.816406 135.398438 117 134.863281 C 117.738281 134.523438 117.90625 134.371094 118.199219 133.738281 C 118.507812 133.078125 118.539062 132.753906 118.539062 130.585938 C 118.539062 129.261719 118.492188 128.136719 118.445312 128.09375 C 118.398438 128.046875 118.125 127.984375 117.832031 127.96875 L 117.308594 127.921875 L 117.230469 130.230469 C 117.167969 132.183594 117.109375 132.617188 116.847656 133.078125 C 116.460938 133.722656 115.96875 133.832031 115.292969 133.398438 C 114.863281 133.136719 114.785156 132.96875 114.617188 132.03125 C 114.492188 131.398438 114.445312 130.371094 114.492188 129.554688 C 114.570312 128.277344 114.554688 128.152344 114.292969 128.152344 C 114.136719 128.152344 113.96875 128.078125 113.921875 128 C 113.875 127.90625 113.660156 127.847656 113.460938 127.847656 C 113.125 127.847656 113.09375 127.921875 112.984375 128.875 Z M 112.984375 128.875 "/>
<path style=" stroke:none;fill-rule:nonzero;fill:#bf5300;fill-opacity:1;" d="M 120.136719 127.953125 L 119.261719 128.015625 L 119.199219 128.660156 C 119.152344 129.015625 119.152344 129.371094 119.199219 129.429688 C 119.230469 129.507812 119.753906 129.539062 120.371094 129.507812 L 121.460938 129.460938 L 121.460938 132.183594 C 121.460938 133.675781 121.507812 134.9375 121.554688 134.984375 C 121.585938 135.03125 121.9375 135.078125 122.308594 135.109375 L 123 135.152344 L 123 129.628906 L 123.382812 129.523438 C 123.601562 129.460938 124.09375 129.414062 124.507812 129.398438 L 125.230469 129.382812 L 125.230469 128 L 123.890625 128 C 123.136719 128 122.199219 127.96875 121.769531 127.9375 C 121.355469 127.90625 120.617188 127.921875 120.136719 127.953125 Z M 120.136719 127.953125 "/>
<path style=" stroke:none;fill-rule:nonzero;fill:#bf5300;fill-opacity:1;" d="M 55.769531 132.339844 C 55.601562 132.429688 55.230469 132.722656 54.953125 132.984375 C 54.261719 133.628906 53.523438 133.628906 52.617188 132.953125 C 51.675781 132.277344 51.570312 132.339844 52.371094 133.078125 C 53.523438 134.136719 54.339844 134.199219 55.523438 133.292969 C 56.445312 132.585938 56.953125 132.601562 57.90625 133.382812 C 58.539062 133.90625 58.753906 134 59.371094 134 C 60.109375 134 60.429688 133.847656 61.371094 133.03125 C 61.800781 132.660156 61.984375 132.601562 62.414062 132.660156 C 62.707031 132.722656 63.183594 132.9375 63.460938 133.152344 C 64.199219 133.707031 64.308594 133.628906 63.691406 133 C 62.707031 131.984375 61.707031 131.9375 60.601562 132.863281 C 59.691406 133.617188 59.136719 133.554688 58.03125 132.601562 C 57.628906 132.246094 57.382812 132.152344 56.800781 132.152344 C 56.398438 132.152344 55.9375 132.246094 55.769531 132.339844 Z M 55.769531 132.339844 "/>
<path style=" stroke:none;fill-rule:nonzero;fill:#bf5300;fill-opacity:1;" d="M 130.832031 132.769531 C 129.644531 133.738281 129.429688 133.738281 127.753906 132.675781 C 127.445312 132.492188 127.539062 132.617188 128.03125 133.109375 C 129.125 134.167969 130.03125 134.199219 131.183594 133.246094 C 131.9375 132.628906 132.585938 132.617188 133.261719 133.214844 C 133.96875 133.832031 134.355469 134 135 134 C 135.644531 134 136.246094 133.722656 136.753906 133.167969 C 137.429688 132.445312 138.125 132.476562 139.382812 133.339844 C 139.722656 133.570312 139.722656 133.539062 139.308594 133.09375 C 138.738281 132.445312 137.953125 132.109375 137.382812 132.230469 C 137.136719 132.277344 136.617188 132.570312 136.199219 132.863281 C 135.800781 133.152344 135.292969 133.382812 135.078125 133.382812 C 134.863281 133.382812 134.324219 133.109375 133.863281 132.769531 C 133.167969 132.246094 132.921875 132.152344 132.308594 132.152344 C 131.675781 132.152344 131.460938 132.246094 130.832031 132.769531 Z M 130.832031 132.769531 "/>
</g>
</svg>