<svg xmlns="http://www.w3.org/2000/svg" xmlns:xlink="http://www.w3.org/1999/xlink" width="512px" height="512px" viewBox="0 0 512 512" version="1.1">
<g id="surface1">
<path style=" stroke:none;fill-rule:nonzero;fill:#bf5300;fill-opacity:1;" d="M 251.652344 150.03125 C 251.242188 152.863281 251.816406 166.769531 252.472656 169.4375 C 252.921875 171.40625 252.921875 172.019531 252.347656 173.949219 C 251.9375 175.34375 251.734375 177.394531 251.816406 179.363281 C 251.898438 181.742188 251.691406 183.015625 251.078125 184.617188 C 250.09375 187.117188 250.050781 189.167969 250.914062 191.753906 C 251.609375 193.765625 252.882812 194.789062 254.152344 194.296875 C 254.6875 194.132812 254.769531 193.683594 254.5625 192.125 C 254.359375 190.523438 254.523438 189.496094 255.546875 186.75 C 256.902344 183.054688 257.066406 181.621094 256.371094 179.078125 C 256.042969 177.886719 256.042969 176.738281 256.410156 174.5625 C 256.820312 172.101562 256.820312 171.160156 256.246094 168.328125 C 255.792969 166.195312 255.628906 164.265625 255.835938 162.996094 C 256 161.722656 255.835938 159.835938 255.464844 157.90625 C 255.097656 156.226562 254.6875 153.601562 254.5625 152.042969 C 254.195312 148.429688 254.070312 148.101562 252.921875 148.101562 C 252.0625 148.101562 251.898438 148.347656 251.652344 150.03125 Z M 251.652344 150.03125 "/>
<path style=" stroke:none;fill-rule:nonzero;fill:#bf5300;fill-opacity:1;" d="M 289.558594 156.347656 C 288.617188 156.882812 283.445312 164.144531 282.132812 166.769531 C 281.558594 167.875 280.328125 169.722656 279.34375 170.832031 C 277.660156 172.757812 277.578125 172.964844 277.496094 175.546875 C 277.414062 179.652344 275.242188 184.410156 271.835938 187.980469 C 269.621094 190.277344 269.128906 191.015625 268.921875 192.574219 C 268.554688 194.953125 268.839844 195.691406 270.152344 195.691406 C 270.933594 195.691406 271.179688 195.488281 271.179688 194.75 C 271.179688 193.394531 272.164062 192.207031 274.871094 190.359375 C 279.179688 187.40625 280.164062 185.683594 282.257812 176.863281 C 282.871094 174.234375 283.570312 172.636719 285.128906 170.296875 C 287.957031 165.949219 291.363281 158.644531 291.199219 157.25 C 291.078125 156.019531 290.585938 155.734375 289.558594 156.347656 Z M 289.558594 156.347656 "/>
<path style=" stroke:none;fill-rule:nonzero;fill:#bf5300;fill-opacity:1;" d="M 213.414062 157.621094 C 213.128906 157.90625 212.921875 158.398438 212.921875 158.808594 C 212.921875 159.792969 217.355469 168.945312 218.871094 171.078125 C 219.570312 172.101562 220.59375 173.949219 221.085938 175.21875 C 221.578125 176.492188 222.890625 178.542969 224.042969 179.816406 C 225.148438 181.046875 226.421875 182.933594 226.832031 183.957031 C 227.28125 184.984375 228.144531 186.257812 228.757812 186.75 C 232.371094 189.785156 232.945312 190.441406 233.4375 192.207031 C 234.09375 194.625 235.28125 196.101562 236.511719 196.101562 C 237.90625 196.101562 237.988281 195.324219 236.964844 191.753906 C 235.816406 187.691406 235.40625 186.953125 233.558594 185.558594 C 232.535156 184.78125 231.628906 183.464844 230.6875 181.332031 C 229.90625 179.652344 228.59375 177.4375 227.734375 176.410156 C 226.871094 175.382812 225.847656 173.578125 225.476562 172.390625 C 224.65625 169.929688 218.953125 161.027344 216.699219 158.644531 C 215.179688 157.085938 214.234375 156.800781 213.414062 157.621094 Z M 213.414062 157.621094 "/>
<path style=" stroke:none;fill-rule:nonzero;fill:#bf5300;fill-opacity:1;" d="M 480.617188 159.589844 C 478.6875 161.722656 469.988281 165.578125 457.230469 170.011719 C 445.824219 173.988281 439.589844 176.328125 436.144531 177.886719 C 432.78125 179.445312 431.382812 179.570312 427.488281 178.625 C 422.277344 177.394531 420.882812 177.230469 420.019531 177.683594 C 418.585938 178.460938 419.363281 180.390625 422.316406 183.261719 C 425.804688 186.625 426.460938 188.472656 426.132812 194.214844 C 425.96875 197.128906 425.355469 200.535156 424.082031 205.742188 C 423.054688 209.804688 420.636719 220.308594 418.667969 229.128906 C 412.265625 258.050781 407.710938 274.257812 402.503906 286.769531 C 400.125 292.429688 399.507812 293.25 395.199219 296.453125 C 393.558594 297.683594 392.207031 298.914062 392.207031 299.242188 C 392.207031 300.800781 396.511719 302.316406 407.179688 304.453125 C 415.875 306.175781 417.027344 306.503906 428.226562 309.988281 C 432.082031 311.21875 435.691406 312.207031 436.226562 312.207031 C 437.167969 312.207031 438.972656 310.6875 438.972656 309.90625 C 438.972656 309.703125 438.113281 308.675781 437.085938 307.691406 C 432.492188 303.179688 429.824219 297.4375 429.824219 291.898438 C 429.824219 286.851562 432.125 276.839844 434.011719 273.804688 C 435.570312 271.300781 440.042969 270.113281 446.769531 270.480469 C 454.359375 270.933594 460.964844 273.109375 463.875 276.183594 C 466.832031 279.261719 468.636719 285.375 468.675781 292.511719 C 468.675781 299.734375 467.363281 303.21875 463.589844 305.847656 C 462.359375 306.707031 461.742188 307.445312 461.742188 308.0625 C 461.742188 308.839844 462.480469 309.25 467.488281 311.179688 C 470.644531 312.371094 476.183594 314.503906 479.792969 315.898438 C 497.886719 322.871094 507.527344 325.375 509.085938 323.527344 C 509.785156 322.707031 508.757812 320.78125 506.421875 318.359375 C 504.328125 316.183594 503.136719 313.4375 499.734375 303.015625 C 495.097656 288.820312 491.980469 274.707031 486.769531 244.308594 C 485.085938 234.378906 482.75 221.742188 481.601562 216.207031 C 480.453125 210.667969 478.605469 201.722656 477.496094 196.308594 C 476.390625 190.890625 475.28125 184.410156 475.035156 181.949219 C 474.257812 174.398438 475.445312 171.117188 480.574219 166.933594 C 485.167969 163.199219 486.277344 159.136719 482.832031 158.851562 C 481.765625 158.769531 481.191406 158.972656 480.617188 159.589844 Z M 456.207031 227.488281 C 459.363281 241.886719 461.867188 253.742188 461.742188 253.867188 C 461.496094 254.113281 438.972656 252.429688 438.644531 252.144531 C 438.523438 252.019531 440.902344 241.148438 443.855469 228.019531 C 449.847656 201.722656 450.050781 200.863281 450.257812 201.109375 C 450.378906 201.191406 453.046875 213.046875 456.207031 227.488281 Z M 456.207031 227.488281 "/>
<path style=" stroke:none;fill-rule:nonzero;fill:#bf5300;fill-opacity:1;" d="M 48.820312 161.066406 C 48.246094 161.148438 46.398438 161.4375 44.71875 161.683594 C 37.742188 162.707031 29.457031 166.195312 23.589844 170.542969 C 13.375 178.214844 7.589844 188.226562 7.097656 199.179688 C 6.6875 208.535156 9.804688 216.246094 16.820312 223.179688 C 22.5625 228.839844 28.921875 232.371094 45.003906 238.808594 C 61.210938 245.292969 65.394531 247.546875 69.785156 252.183594 C 74.789062 257.4375 76.675781 264.78125 74.871094 271.792969 C 72.78125 279.671875 65.4375 286.808594 57.027344 289.066406 C 53.414062 290.011719 47.671875 290.011719 44.511719 289.066406 C 39.097656 287.464844 34.050781 283.734375 32.410156 280.125 C 31.710938 278.605469 31.21875 273.640625 31.753906 273.640625 C 31.835938 273.640625 32.984375 274.175781 34.257812 274.871094 C 38.480469 277.085938 43.40625 276.347656 47.179688 272.945312 C 50.75 269.742188 52.0625 265.722656 51.28125 260.511719 C 50.132812 253.085938 44.347656 247.425781 35.691406 245.292969 C 32.125 244.390625 25.027344 244.59375 21.210938 245.660156 C 8.984375 249.109375 2.050781 258.667969 2.050781 271.957031 C 2.050781 282.503906 7.054688 292.921875 16.125 301.332031 C 30.726562 314.953125 50.871094 318.933594 69.539062 311.917969 C 83.199219 306.789062 94.6875 295.710938 100.226562 282.257812 C 109.824219 259.078125 101.003906 236.390625 78.152344 225.4375 C 75.691406 224.246094 69.867188 221.824219 65.230469 220.101562 C 45.210938 212.554688 38.726562 207.425781 36.675781 197.621094 C 35.898438 193.929688 36.183594 191.34375 37.785156 188.0625 C 40.617188 182.113281 47.957031 178.175781 57.027344 177.722656 C 64.289062 177.394531 69.867188 178.871094 73.640625 182.195312 C 75.734375 184.042969 77.128906 187.078125 77.128906 189.824219 C 77.128906 194.214844 75.734375 195.363281 72.863281 193.3125 C 68.347656 190.070312 63.34375 190.851562 61.742188 195.078125 C 60.101562 199.261719 61.785156 205.003906 65.765625 208.984375 C 73.804688 217.027344 87.507812 216.207031 96.410156 207.136719 C 103.054688 200.410156 104.328125 191.097656 99.855469 181.824219 C 95.382812 172.472656 82.214844 164.964844 65.191406 162.09375 C 60.347656 161.230469 51.035156 160.65625 48.820312 161.066406 Z M 48.820312 161.066406 "/>
<path style=" stroke:none;fill-rule:nonzero;fill:#bf5300;fill-opacity:1;" d="M 266.503906 165.414062 C 266.132812 166.851562 265.355469 170.585938 264.78125 173.742188 C 263.546875 180.59375 262.359375 185.4375 261.332031 187.734375 C 260.800781 189.003906 260.675781 189.867188 260.921875 191.136719 C 261.375 193.558594 261.742188 193.722656 261.742188 191.507812 C 261.742188 190.316406 262.113281 189.003906 262.726562 187.855469 C 263.261719 186.871094 264.042969 184.492188 264.410156 182.5625 C 264.78125 180.636719 265.519531 177.394531 266.050781 175.300781 C 266.953125 171.816406 267.898438 166.03125 267.898438 163.816406 C 267.898438 162.011719 267.160156 162.871094 266.503906 165.414062 Z M 266.503906 165.414062 "/>
<path style=" stroke:none;fill-rule:nonzero;fill:#bf5300;fill-opacity:1;" d="M 234.953125 169.191406 C 234.832031 169.476562 235.363281 170.832031 236.183594 172.144531 C 238.808594 176.535156 241.109375 181.496094 242.011719 184.820312 C 243.160156 188.964844 244.308594 191.546875 245.128906 191.835938 C 245.496094 192 245.867188 192.042969 245.949219 191.917969 C 246.277344 191.628906 244.144531 183.957031 242.871094 180.675781 C 241.3125 176.820312 239.628906 173.703125 237.457031 170.75 C 235.816406 168.535156 235.324219 168.207031 234.953125 169.191406 Z M 234.953125 169.191406 "/>
<path style=" stroke:none;fill-rule:nonzero;fill:#bf5300;fill-opacity:1;" d="M 293.660156 175.054688 C 293.085938 175.710938 291.816406 177.476562 290.871094 179.078125 C 289.929688 180.636719 288.164062 182.972656 286.972656 184.246094 C 285.578125 185.683594 284.59375 187.199219 284.265625 188.308594 C 283.898438 189.496094 282.996094 190.808594 281.558594 192.246094 C 280 193.804688 279.382812 194.707031 279.382812 195.527344 L 279.382812 196.636719 L 281.394531 194.832031 C 282.503906 193.847656 283.855469 192.699219 284.429688 192.328125 C 285.046875 191.917969 285.742188 190.769531 286.152344 189.578125 C 286.605469 188.183594 287.546875 186.75 289.148438 185.109375 C 291.28125 182.933594 295.136719 176.820312 295.671875 174.808594 C 296 173.578125 294.933594 173.703125 293.660156 175.054688 Z M 293.660156 175.054688 "/>
<path style=" stroke:none;fill-rule:nonzero;fill:#bf5300;fill-opacity:1;" d="M 126.441406 178.132812 C 125.003906 179.570312 126.605469 182.277344 130.460938 185.027344 C 134.070312 187.609375 134.769531 188.921875 134.726562 192.902344 C 134.644531 195.898438 134.480469 196.429688 132.183594 201.3125 C 128.535156 209.027344 127.382812 213.25 123.691406 232.65625 C 121.804688 242.707031 113.683594 275.117188 111.179688 282.75 C 108.308594 291.488281 107.160156 293.660156 103.957031 296.492188 C 101.539062 298.625 100.101562 300.511719 100.101562 301.414062 C 100.144531 302.890625 100.800781 302.808594 121.476562 298.460938 C 132.839844 296.082031 142.398438 294.070312 142.6875 293.949219 C 143.015625 293.824219 143.179688 293.292969 143.097656 292.636719 C 143.015625 291.734375 142.5625 291.28125 141.085938 290.585938 C 136.125 288.246094 134.195312 282.175781 136.164062 275.078125 C 136.78125 272.820312 137.273438 271.917969 138.460938 270.933594 C 141.414062 268.347656 152.410156 265.601562 161.683594 265.148438 C 166.152344 264.945312 166.523438 264.984375 167.300781 265.765625 C 168.574219 267.035156 169.476562 270.480469 169.722656 275.078125 C 169.929688 278.933594 169.886719 279.34375 168.902344 281.273438 C 167.875 283.28125 165.496094 285.785156 163.734375 286.769531 C 163.117188 287.097656 162.871094 287.589844 162.871094 288.617188 C 162.871094 291.242188 164.226562 291.363281 172.921875 289.394531 C 176.042969 288.65625 178.296875 288.410156 180.308594 288.492188 C 182.5625 288.574219 183.34375 288.453125 183.835938 287.957031 C 184.902344 286.890625 189.539062 286.03125 196.921875 285.539062 C 200.65625 285.292969 205.25 284.921875 207.179688 284.675781 C 209.109375 284.472656 216.65625 284.183594 224 284.0625 C 231.34375 283.9375 237.949219 283.652344 238.6875 283.40625 C 240.125 282.996094 240.820312 281.804688 240.492188 280.535156 C 240.410156 280.125 239.34375 279.300781 238.195312 278.769531 C 235.609375 277.496094 233.847656 275.199219 232.617188 271.589844 C 231.464844 268.226562 231.21875 261.578125 231.671875 246.359375 L 232 235.691406 L 234.175781 238.5625 C 237.292969 242.667969 241.191406 250.914062 244.308594 259.898438 C 249.355469 274.585938 252.800781 282.789062 253.539062 282.011719 C 254.234375 281.3125 256.820312 274.832031 260.265625 265.148438 C 264.125 254.277344 266.011719 249.683594 268.183594 245.742188 C 270.113281 242.296875 273.355469 237.539062 274.667969 236.308594 L 275.691406 235.363281 L 275.691406 271.835938 L 274.503906 273.683594 C 273.066406 275.9375 271.136719 277.703125 268.59375 279.136719 C 266.257812 280.453125 265.847656 281.230469 266.914062 282.257812 C 267.609375 282.953125 268.839844 283.078125 279.792969 283.488281 C 299.652344 284.183594 309.128906 285.128906 323.28125 287.875 C 348.019531 292.59375 353.847656 293.539062 362.257812 293.988281 C 371.488281 294.480469 378.09375 292.921875 383.835938 288.863281 C 389.414062 284.964844 393.683594 279.261719 395.9375 272.699219 C 401.230469 257.191406 395.816406 241.765625 382.605469 235.035156 C 380.675781 234.050781 379.078125 233.148438 379.117188 233.027344 C 379.117188 232.902344 380.265625 231.875 381.660156 230.726562 C 389.085938 224.65625 392.945312 216.574219 392.492188 208 C 392 198.480469 387.980469 192.820312 379.734375 190.070312 C 376.535156 189.003906 376.082031 188.964844 368 188.964844 C 360.738281 188.964844 358.359375 189.167969 350.769531 190.277344 C 338.871094 192.042969 334.6875 192.371094 328.410156 192.125 C 322.503906 191.875 315.898438 192.453125 312.945312 193.4375 C 310.644531 194.257812 308.226562 196.308594 307.855469 197.824219 C 307.609375 198.851562 307.773438 199.015625 309.414062 199.753906 C 313.722656 201.601562 316.472656 207.21875 315.980469 213.210938 C 315.855469 214.726562 315.980469 225.683594 316.265625 237.539062 C 316.839844 260.882812 316.59375 269.949219 315.242188 273.96875 C 314.421875 276.472656 311.628906 279.835938 309.742188 280.617188 C 309.046875 280.902344 307.691406 281.027344 306.707031 280.945312 C 303.546875 280.574219 301.25 278.070312 299.773438 273.4375 C 298.914062 270.6875 298.871094 269.949219 298.914062 254.972656 C 298.914062 246.398438 299.035156 232.535156 299.117188 224.207031 C 299.363281 206.972656 299.363281 207.015625 302.933594 203.035156 C 304.863281 200.902344 305.558594 199.136719 304.820312 198.398438 C 303.875 197.496094 298.585938 198.070312 291.078125 199.917969 C 282.996094 201.929688 280.164062 202.460938 273.683594 203.078125 C 271.136719 203.324219 269.210938 203.691406 269.003906 204.019531 C 268.839844 204.265625 266.460938 209.027344 263.753906 214.5625 C 258.421875 225.476562 254.808594 231.875 254.152344 231.671875 C 253.375 231.425781 250.625 226.871094 245.167969 216.738281 L 239.671875 206.5625 L 237.085938 206.316406 C 235.652344 206.152344 232.082031 206.03125 229.128906 205.988281 C 222.113281 205.90625 217.191406 205.167969 208.207031 202.707031 C 198.195312 199.957031 198.6875 200.042969 198.359375 200.984375 C 198.234375 201.4375 198.316406 202.542969 198.5625 203.488281 C 198.933594 204.800781 199.589844 205.621094 201.886719 207.507812 C 205.128906 210.132812 206.277344 212.144531 207.589844 217.273438 C 209.394531 224.371094 209.683594 232.78125 208.574219 249.683594 C 208.207031 255.671875 208 262.726562 208.082031 266.75 L 208.289062 273.601562 L 207.136719 275.570312 C 205.703125 277.988281 205.210938 278.605469 203.898438 279.507812 C 201.273438 281.3125 198.808594 279.628906 195.980469 274.09375 C 192.453125 267.199219 189.085938 255.136719 183.835938 230.890625 C 179.652344 211.40625 178.789062 208.246094 176.246094 202.953125 C 171.28125 192.699219 172.0625 187.570312 179.363281 182.234375 C 182.195312 180.183594 182.316406 179.9375 181.496094 179.117188 C 180.390625 178.011719 179.160156 177.96875 172.882812 178.832031 C 162.050781 180.347656 155.160156 180.921875 148.144531 180.921875 C 139.855469 180.921875 137.066406 180.511719 133.128906 178.914062 C 130.011719 177.601562 127.300781 177.273438 126.441406 178.132812 Z M 361.273438 205.867188 C 363.773438 207.015625 366.070312 209.230469 367.015625 211.488281 C 368.371094 214.808594 367.546875 220.183594 365.167969 223.464844 C 362.707031 226.871094 357.003906 228.472656 346.175781 228.800781 L 340.511719 229.003906 L 340.511719 218.503906 C 340.511719 208.492188 340.554688 207.957031 341.332031 207.179688 C 343.179688 205.332031 346.214844 204.757812 353.4375 204.839844 C 358.398438 204.921875 359.464844 205.085938 361.273438 205.867188 Z M 154.789062 217.109375 C 156.429688 218.378906 158.03125 223.589844 160.984375 237.128906 C 161.96875 241.765625 162.914062 245.867188 163.078125 246.234375 C 163.734375 247.835938 156.226562 249.804688 146.707031 250.503906 L 142.644531 250.789062 L 142.933594 248.574219 C 143.835938 241.4375 150.152344 221.660156 152.820312 217.601562 C 153.558594 216.492188 153.847656 216.410156 154.789062 217.109375 Z M 360.535156 246.359375 C 367.589844 247.957031 371.28125 252.472656 371.28125 259.488281 C 371.28125 270.398438 362.707031 274.09375 345.148438 270.726562 L 340.511719 269.867188 L 340.511719 246.972656 L 341.457031 246.769531 C 346.257812 245.660156 356.511719 245.457031 360.535156 246.359375 Z M 360.535156 246.359375 "/>
<path style=" stroke:none;fill-rule:nonzero;fill:#bf5300;fill-opacity:1;" d="M 207.792969 181.742188 C 207.34375 182.441406 210.378906 185.230469 213.332031 186.871094 C 215.382812 187.980469 216.65625 189.046875 217.476562 190.234375 C 218.132812 191.179688 219.527344 192.535156 220.554688 193.230469 C 221.539062 193.929688 222.851562 195.242188 223.382812 196.144531 C 224.207031 197.414062 224.65625 197.742188 225.640625 197.742188 C 226.339844 197.742188 226.871094 197.539062 226.871094 197.292969 C 226.871094 196.757812 222.605469 192.410156 221.496094 191.753906 C 221.128906 191.546875 220.144531 190.398438 219.28125 189.167969 C 218.050781 187.488281 217.148438 186.75 215.425781 185.96875 C 214.195312 185.4375 212.144531 184.164062 210.871094 183.136719 C 208.410156 181.210938 208.207031 181.128906 207.792969 181.742188 Z M 207.792969 181.742188 "/>
<path style=" stroke:none;fill-rule:nonzero;fill:#bf5300;fill-opacity:1;" d="M 270.769531 293.785156 C 267.691406 294.316406 264.289062 296.082031 262.769531 297.96875 C 261.703125 299.363281 261.539062 299.9375 261.375 302.808594 C 261.25 305.519531 261.375 306.257812 262.113281 307.445312 C 263.546875 309.703125 266.996094 312.328125 271.835938 314.832031 C 276.636719 317.25 278.5625 318.6875 278.5625 319.792969 C 278.5625 320.738281 276.71875 322.339844 274.625 323.117188 C 273.066406 323.734375 272.453125 323.734375 270.605469 323.324219 C 267.078125 322.542969 266.542969 321.929688 265.683594 317.496094 C 265.476562 316.511719 265.230469 316.390625 262.726562 316.183594 C 261.210938 316.019531 259.816406 316.019531 259.652344 316.144531 C 259.445312 316.265625 259.28125 317.332031 259.28125 318.523438 C 259.28125 326.359375 265.96875 331.242188 274.871094 329.886719 C 280.042969 329.066406 283.40625 327.054688 285.128906 323.691406 C 287.875 318.316406 285.578125 313.722656 278.851562 311.097656 C 276.59375 310.195312 275.28125 309.292969 272.902344 307.078125 C 270.441406 304.738281 269.90625 304 270.113281 303.34375 C 270.605469 301.742188 274.421875 300.757812 277.128906 301.496094 C 279.507812 302.152344 279.875 302.480469 280.164062 304.246094 C 280.410156 305.722656 280.535156 305.847656 281.640625 305.765625 C 282.339844 305.683594 283.734375 305.929688 284.800781 306.296875 C 287.179688 307.078125 288.574219 306.75 288.289062 305.519531 C 286.769531 299.28125 285.867188 297.601562 283.160156 295.835938 C 279.710938 293.621094 275.773438 292.964844 270.769531 293.785156 Z M 270.769531 293.785156 "/>
<path style=" stroke:none;fill-rule:nonzero;fill:#bf5300;fill-opacity:1;" d="M 234.257812 294.359375 C 232.164062 294.644531 228.921875 294.769531 226.214844 294.644531 C 220.472656 294.398438 217.191406 294.769531 216.945312 295.710938 C 216.820312 296.082031 216.984375 298.421875 217.273438 300.921875 C 217.601562 303.382812 217.804688 308.675781 217.804688 312.617188 C 217.765625 318.359375 217.929688 320.699219 218.625 324.226562 C 219.117188 326.644531 219.488281 329.191406 219.488281 329.886719 L 219.488281 331.078125 L 222.890625 330.832031 C 224.738281 330.707031 226.503906 330.542969 226.789062 330.421875 C 227.488281 330.214844 227.40625 328.617188 226.421875 322.175781 C 225.96875 319.097656 225.722656 316.472656 225.929688 316.265625 C 226.132812 316.0625 227.363281 316.101562 228.675781 316.308594 C 230.480469 316.59375 231.671875 316.554688 233.601562 316.101562 C 234.953125 315.773438 236.71875 315.488281 237.457031 315.488281 L 238.808594 315.488281 L 238.6875 311.671875 C 238.5625 307.9375 238.5625 307.898438 237.457031 307.773438 C 236.882812 307.691406 234.996094 307.9375 233.355469 308.265625 C 231.464844 308.675781 229.457031 308.800781 228.183594 308.636719 C 226.296875 308.429688 226.011719 308.265625 225.804688 307.324219 C 225.683594 306.75 225.394531 305.4375 225.191406 304.453125 C 224.738281 302.523438 225.148438 301.785156 226.460938 302.152344 C 228.472656 302.6875 231.589844 302.769531 233.886719 302.316406 C 235.324219 302.070312 238.152344 301.742188 240.164062 301.578125 L 243.773438 301.332031 L 243.855469 297.640625 L 243.898438 293.949219 L 240.820312 293.90625 C 239.136719 293.867188 236.183594 294.070312 234.257812 294.359375 Z M 234.257812 294.359375 "/>
<path style=" stroke:none;fill-rule:nonzero;fill:#bf5300;fill-opacity:1;" d="M 293.332031 295.835938 C 293.046875 296.289062 292.675781 299.734375 292.472656 303.425781 C 292.265625 307.117188 291.816406 311.300781 291.445312 312.699219 C 290.996094 314.542969 290.789062 317.457031 290.707031 322.914062 L 290.625 330.585938 L 292.101562 330.832031 C 292.882812 330.953125 294.316406 331.242188 295.261719 331.40625 C 298.257812 332.0625 298.421875 331.734375 298.667969 324.472656 L 298.871094 318.152344 L 301.332031 317.867188 C 302.6875 317.742188 304.617188 317.785156 305.640625 318.03125 C 306.667969 318.234375 308.226562 318.523438 309.128906 318.6875 L 310.769531 318.972656 L 310.769531 323.691406 C 310.769531 326.277344 310.644531 329.394531 310.480469 330.542969 C 310.195312 332.636719 310.234375 332.71875 311.136719 332.71875 C 311.671875 332.71875 312.902344 333.003906 313.847656 333.332031 C 316.347656 334.195312 317.496094 334.113281 317.90625 333.003906 C 318.359375 331.855469 318.6875 329.066406 319.015625 323.898438 C 319.136719 321.640625 319.710938 317.867188 320.289062 315.488281 C 321.191406 311.792969 321.273438 310.644531 321.066406 307.078125 C 320.902344 304.820312 320.945312 301.988281 321.148438 300.800781 C 321.519531 298.667969 321.476562 298.585938 320.492188 298.214844 C 319.917969 298.011719 318.398438 297.722656 317.128906 297.558594 L 314.789062 297.3125 L 314.296875 299.242188 C 313.96875 300.636719 313.066406 308.71875 313.027344 311.054688 C 313.027344 311.628906 310.398438 311.382812 307.734375 310.5625 C 305.722656 309.90625 304.535156 309.785156 302.726562 309.988281 L 300.390625 310.234375 L 300.101562 305.355469 C 299.9375 302.644531 299.898438 299.445312 299.9375 298.214844 L 300.101562 296.042969 L 298.667969 295.753906 C 294.480469 294.890625 293.824219 294.890625 293.332031 295.835938 Z M 293.332031 295.835938 "/>
<path style=" stroke:none;fill-rule:nonzero;fill:#bf5300;fill-opacity:1;" d="M 194.257812 297.273438 C 192 297.558594 189.046875 297.929688 187.691406 298.050781 C 183.382812 298.503906 183.382812 298.503906 183.382812 300.265625 C 183.382812 301.167969 183.753906 303.792969 184.246094 306.132812 C 184.699219 308.472656 185.273438 313.027344 185.4375 316.308594 C 185.640625 320.207031 186.09375 323.40625 186.667969 325.539062 C 187.160156 327.34375 187.691406 329.929688 187.816406 331.28125 L 188.101562 333.742188 L 191.792969 333.578125 C 193.847656 333.496094 195.570312 333.375 195.652344 333.292969 C 196.0625 332.921875 195.609375 328.492188 194.832031 324.839844 C 194.339844 322.667969 194.050781 320.617188 194.175781 320.246094 C 194.339844 319.835938 194.953125 319.589844 195.855469 319.589844 C 197.046875 319.589844 197.578125 319.917969 199.179688 321.722656 C 200.246094 322.914062 201.4375 324.511719 201.847656 325.375 C 202.953125 327.464844 204.511719 329.273438 206.523438 330.625 C 208.125 331.734375 208.371094 331.773438 212.019531 331.570312 C 215.261719 331.40625 215.792969 331.28125 215.792969 330.667969 C 215.792969 330.296875 214.398438 328.453125 212.71875 326.644531 C 211.035156 324.800781 209.191406 322.378906 208.617188 321.273438 C 208.082031 320.164062 207.136719 318.726562 206.5625 318.113281 C 205.988281 317.496094 205.539062 316.964844 205.539062 316.964844 C 205.539062 316.921875 206.523438 316.183594 207.710938 315.324219 C 212.511719 311.835938 214.070312 306.625 211.691406 301.988281 C 209.4375 297.519531 203.773438 296 194.257812 297.273438 Z M 202.339844 304.820312 C 205.292969 305.640625 205.332031 307.773438 202.503906 309.703125 C 200.617188 311.015625 194.257812 313.394531 193.847656 312.945312 C 193.558594 312.65625 192.371094 307.609375 192.246094 306.257812 C 192.207031 305.519531 192.617188 305.394531 195.898438 304.984375 C 200.902344 304.371094 200.617188 304.371094 202.339844 304.820312 Z M 202.339844 304.820312 "/>
<path style=" stroke:none;fill-rule:nonzero;fill:#bf5300;fill-opacity:1;" d="M 174.644531 300.308594 C 171.734375 300.511719 171.117188 300.921875 171.324219 302.480469 C 171.40625 302.972656 171.980469 306.503906 172.59375 310.359375 C 174.03125 319.425781 174.113281 325.085938 172.757812 327.957031 L 171.816406 329.929688 L 168.574219 329.765625 C 164.183594 329.519531 163.570312 329.027344 161.355469 323.734375 C 159.300781 318.972656 158.152344 314.132812 157.742188 308.675781 L 157.457031 304.945312 L 153.804688 304.65625 C 151.792969 304.492188 149.90625 304.492188 149.660156 304.65625 C 149.085938 305.027344 149.496094 312.617188 150.316406 316.511719 C 151.589844 322.503906 153.96875 328.246094 156.183594 330.707031 C 158.441406 333.210938 163.9375 337.148438 165.578125 337.476562 C 166.359375 337.601562 168.164062 337.640625 169.601562 337.558594 C 171.898438 337.4375 172.554688 337.148438 175.097656 335.464844 C 176.699219 334.398438 178.460938 332.964844 179.035156 332.265625 C 181.785156 329.027344 182.070312 322.214844 179.9375 311.054688 C 179.160156 307.078125 178.421875 303.054688 178.296875 302.195312 C 178.175781 301.292969 177.929688 300.472656 177.765625 300.347656 C 177.601562 300.183594 176.164062 300.183594 174.644531 300.308594 Z M 174.644531 300.308594 "/>
<path style=" stroke:none;fill-rule:nonzero;fill:#bf5300;fill-opacity:1;" d="M 334.277344 301.703125 C 328.78125 303.671875 324.921875 309.867188 323.570312 318.890625 C 322.996094 322.75 323.488281 325.539062 325.332031 329.3125 C 327.382812 333.496094 330.832031 335.875 336.453125 337.066406 C 343.136719 338.460938 348.265625 337.230469 352.289062 333.210938 C 355.980469 329.519531 357.496094 325.003906 357.496094 317.539062 C 357.496094 313.640625 357.332031 312.410156 356.59375 310.523438 C 355.363281 307.445312 352.902344 304.699219 350.234375 303.464844 C 345.847656 301.414062 337.683594 300.511719 334.277344 301.703125 Z M 344.738281 309.621094 C 348.472656 310.808594 350.03125 314.789062 349.128906 321.148438 C 348.144531 328.207031 344.699219 331.324219 339.035156 330.296875 C 333.988281 329.355469 331.488281 326.605469 331.488281 322.011719 C 331.488281 318.234375 333.785156 311.792969 335.753906 310.195312 C 337.722656 308.554688 340.757812 308.347656 344.738281 309.621094 Z M 344.738281 309.621094 "/>
<path style=" stroke:none;fill-rule:nonzero;fill:#bf5300;fill-opacity:1;" d="M 364.964844 308.019531 C 364.59375 309.085938 363.855469 312.289062 363.28125 315.160156 C 362.707031 318.03125 361.722656 321.722656 361.066406 323.363281 C 360.410156 325.003906 359.628906 327.917969 359.382812 329.847656 C 358.890625 333.292969 357.988281 338.339844 357.539062 339.898438 C 357.332031 340.636719 357.742188 340.839844 360.820312 341.867188 C 362.707031 342.523438 364.472656 342.933594 364.636719 342.808594 C 365.292969 342.441406 366.359375 338.378906 366.933594 334.234375 C 367.21875 332.0625 367.546875 330.132812 367.671875 330.050781 C 367.792969 329.929688 369.601562 330.132812 371.734375 330.503906 C 375.710938 331.199219 380.308594 331.117188 383.261719 330.257812 C 385.96875 329.476562 388.59375 327.382812 389.824219 324.964844 C 393.109375 318.6875 389.25 312.410156 380.71875 310.03125 C 376.453125 308.839844 367.792969 306.542969 366.6875 306.296875 C 365.703125 306.050781 365.539062 306.214844 364.964844 308.019531 Z M 376 316.757812 C 381.128906 318.152344 383.097656 319.507812 382.5625 321.230469 C 382.070312 322.789062 379.363281 323.691406 374.972656 323.691406 C 372.839844 323.691406 370.832031 323.527344 370.542969 323.363281 C 370.132812 323.078125 370.132812 322.339844 370.503906 319.753906 C 371.117188 315.527344 371.160156 315.40625 371.980469 315.652344 C 372.390625 315.773438 374.195312 316.265625 376 316.757812 Z M 376 316.757812 "/>
<path style=" stroke:none;fill-rule:nonzero;fill:#bf5300;fill-opacity:1;" d="M 129.886719 309.128906 C 122.175781 311.835938 118.972656 316.429688 120.820312 322.09375 C 121.230469 323.324219 121.929688 324.757812 122.421875 325.292969 C 124.0625 327.097656 128.492188 328.984375 132.800781 329.640625 C 141.949219 331.078125 143.792969 332.429688 141.003906 335.589844 C 138.871094 337.96875 137.886719 338.460938 135.015625 338.460938 C 131.734375 338.460938 130.914062 337.96875 129.683594 335.382812 C 128.820312 333.578125 128.738281 333.496094 127.464844 333.785156 C 126.726562 333.949219 125.414062 334.195312 124.511719 334.316406 C 122.421875 334.644531 122.296875 335.300781 123.734375 338.460938 C 126.890625 345.519531 134.234375 347.28125 142.644531 343.015625 C 147.199219 340.71875 149.785156 337.148438 149.824219 333.128906 C 149.867188 327.671875 146.625 324.964844 139.28125 324.265625 C 136.289062 323.980469 129.804688 321.109375 129.394531 319.917969 C 128.902344 318.359375 131.609375 316.390625 135.015625 315.734375 C 136.617188 315.445312 139.078125 316.101562 139.078125 316.882812 C 139.078125 317.128906 139.363281 317.785156 139.734375 318.277344 C 140.308594 319.136719 140.429688 319.136719 141.539062 318.5625 C 142.195312 318.234375 143.753906 317.949219 145.027344 317.949219 C 146.625 317.949219 147.363281 317.785156 147.527344 317.332031 C 147.816406 316.59375 145.230469 312.371094 143.464844 310.644531 C 140.675781 307.9375 135.054688 307.28125 129.886719 309.128906 Z M 129.886719 309.128906 "/>
<path style=" stroke:none;fill-rule:nonzero;fill:#bf5300;fill-opacity:1;" d="M 179.855469 341.25 C 177.847656 341.375 177.722656 341.457031 177.476562 342.644531 C 176.902344 345.476562 176.945312 345.519531 180.144531 345.394531 C 183.710938 345.273438 184 345.601562 183.546875 349.25 C 183.300781 351.300781 183.261719 359.835938 183.507812 360.042969 C 183.546875 360.082031 184.453125 360.246094 185.558594 360.371094 L 187.488281 360.65625 L 187.488281 345.476562 L 189.867188 345.230469 C 191.136719 345.109375 192.492188 344.945312 192.820312 344.902344 C 193.640625 344.78125 193.929688 341.824219 193.148438 341.578125 C 192.371094 341.332031 182.316406 341.085938 179.855469 341.25 Z M 179.855469 341.25 "/>
<path style=" stroke:none;fill-rule:nonzero;fill:#bf5300;fill-opacity:1;" d="M 199.054688 341.414062 C 198.851562 341.703125 198.070312 343.546875 197.375 345.519531 C 196.71875 347.488281 195.734375 349.867188 195.242188 350.808594 C 194.789062 351.753906 193.929688 354.050781 193.355469 355.855469 C 192.820312 357.703125 192.246094 359.507812 192.125 359.875 C 191.957031 360.492188 192.207031 360.574219 194.09375 360.410156 C 196.183594 360.289062 196.347656 360.207031 196.757812 358.890625 L 197.25 357.539062 L 201.066406 357.578125 L 204.921875 357.578125 L 205.375 358.972656 C 205.824219 360.289062 205.90625 360.328125 208.042969 360.410156 L 210.257812 360.453125 L 209.519531 357.988281 C 208.082031 353.355469 207.261719 350.972656 205.785156 347.28125 C 202.996094 340.472656 203.324219 340.921875 201.273438 340.921875 C 200.289062 340.921875 199.300781 341.167969 199.054688 341.414062 Z M 202.132812 349.003906 C 202.378906 349.867188 202.832031 351.136719 203.117188 351.875 C 203.40625 352.617188 203.527344 353.3125 203.40625 353.476562 C 203.242188 353.601562 202.132812 353.601562 200.902344 353.476562 L 198.6875 353.191406 L 199.628906 350.851562 C 200.164062 349.578125 200.617188 348.265625 200.617188 347.980469 C 200.617188 346.871094 201.722656 347.570312 202.132812 349.003906 Z M 202.132812 349.003906 "/>
<path style=" stroke:none;fill-rule:nonzero;fill:#bf5300;fill-opacity:1;" d="M 215.546875 341.703125 C 212.429688 343.136719 210.667969 347.035156 210.953125 352.125 C 211.078125 354.585938 211.28125 355.488281 212.226562 356.882812 C 214.441406 360.207031 217.683594 361.230469 222.195312 360 C 226.09375 358.933594 226.339844 358.644531 226.625 354.132812 L 226.914062 350.359375 L 223.179688 350.359375 L 223.179688 352.738281 C 223.179688 355.855469 222.644531 356.554688 219.980469 356.839844 C 218.011719 357.003906 217.765625 356.921875 216.410156 355.570312 C 215.097656 354.257812 214.972656 353.96875 214.972656 351.628906 C 214.972656 347.488281 216.535156 345.027344 219.117188 345.027344 C 220.265625 345.027344 221.949219 346.625 221.949219 347.734375 C 221.949219 348.101562 222.523438 348.226562 223.917969 348.183594 C 225.765625 348.101562 225.847656 348.0625 225.765625 346.953125 C 225.4375 342.316406 220.144531 339.609375 215.546875 341.703125 Z M 215.546875 341.703125 "/>
<path style=" stroke:none;fill-rule:nonzero;fill:#bf5300;fill-opacity:1;" d="M 229.210938 341.621094 C 228.964844 342.441406 228.757812 352 228.839844 356.964844 L 228.921875 360.082031 L 230.851562 360.371094 C 231.875 360.492188 232.863281 360.535156 232.984375 360.410156 C 233.109375 360.289062 233.148438 358.523438 233.109375 356.554688 L 233.027344 352.945312 L 234.542969 352.738281 C 236.921875 352.410156 239.136719 352.820312 239.34375 353.601562 C 239.464844 353.96875 239.628906 355.609375 239.671875 357.210938 C 239.792969 359.671875 239.917969 360.207031 240.453125 360.207031 C 240.820312 360.207031 241.722656 360.328125 242.421875 360.453125 L 243.691406 360.699219 L 243.652344 353.394531 C 243.609375 349.332031 243.488281 344.945312 243.324219 343.589844 L 243.078125 341.128906 L 241.558594 341.003906 C 240.125 340.882812 240.042969 340.964844 239.792969 342.234375 C 239.671875 342.972656 239.589844 344.699219 239.671875 346.050781 L 239.792969 348.511719 L 236.554688 348.511719 C 234.75 348.511719 233.273438 348.347656 233.191406 348.101562 C 233.109375 347.898438 232.902344 346.214844 232.738281 344.410156 L 232.410156 341.128906 L 230.890625 341.003906 C 229.742188 340.921875 229.375 341.046875 229.210938 341.621094 Z M 229.210938 341.621094 "/>
<path style=" stroke:none;fill-rule:nonzero;fill:#bf5300;fill-opacity:1;" d="M 252.183594 342.03125 C 251.855469 342.6875 251.28125 344.207031 250.871094 345.4375 C 250.460938 346.667969 249.640625 348.71875 249.027344 349.949219 C 248.410156 351.179688 247.425781 353.804688 246.808594 355.816406 C 246.195312 357.785156 245.621094 359.628906 245.496094 359.957031 C 245.332031 360.410156 245.785156 360.492188 247.546875 360.453125 C 249.765625 360.410156 249.765625 360.410156 250.214844 358.890625 L 250.667969 357.375 L 258.378906 357.539062 L 258.832031 358.972656 C 259.242188 360.371094 259.324219 360.410156 261.457031 360.410156 L 263.628906 360.453125 L 262.234375 355.691406 C 261.496094 353.109375 260.636719 350.605469 260.347656 350.152344 C 260.0625 349.703125 259.199219 347.652344 258.460938 345.640625 C 257.722656 343.589844 256.945312 341.703125 256.699219 341.414062 C 256.492188 341.167969 255.507812 340.921875 254.523438 340.921875 C 253.003906 340.921875 252.675781 341.085938 252.183594 342.03125 Z M 255.179688 347.980469 C 255.179688 348.265625 255.628906 349.578125 256.164062 350.890625 C 257.3125 353.683594 257.148438 353.886719 254.113281 353.4375 C 252.59375 353.230469 252.265625 353.027344 252.472656 352.492188 C 253.824219 348.390625 254.234375 347.488281 254.6875 347.488281 C 254.933594 347.488281 255.179688 347.734375 255.179688 347.980469 Z M 255.179688 347.980469 "/>
<path style=" stroke:none;fill-rule:nonzero;fill:#bf5300;fill-opacity:1;" d="M 267.199219 341.210938 C 264.863281 341.375 265.027344 341.128906 264.863281 344.492188 C 264.820312 345.148438 265.3125 345.230469 269.621094 345.230469 C 272.246094 345.230469 274.542969 345.394531 274.707031 345.558594 C 274.914062 345.722656 273.476562 347.40625 271.589844 349.25 C 269.660156 351.136719 267.324219 353.601562 266.339844 354.789062 C 264.78125 356.636719 264.617188 357.046875 264.820312 358.316406 C 265.109375 359.710938 265.109375 359.710938 267.816406 360 C 269.332031 360.164062 272.863281 360.328125 275.691406 360.371094 L 280.820312 360.410156 L 280.863281 358.480469 L 280.902344 356.554688 L 277.785156 356.265625 C 276.0625 356.101562 274.585938 355.9375 274.460938 355.980469 C 274.339844 355.980469 273.558594 356.144531 272.738281 356.265625 C 270.316406 356.71875 270.726562 355.652344 274.585938 351.835938 C 279.917969 346.503906 281.027344 344.984375 281.027344 343.015625 L 281.027344 341.332031 L 277.867188 341.332031 C 276.101562 341.332031 273.476562 341.25 272 341.167969 C 270.523438 341.085938 268.347656 341.085938 267.199219 341.210938 Z M 267.199219 341.210938 "/>
<path style=" stroke:none;fill-rule:nonzero;fill:#bf5300;fill-opacity:1;" d="M 287.382812 341.375 C 285.621094 341.867188 283.691406 344.042969 282.914062 346.378906 C 282.09375 348.757812 282.050781 354.011719 282.832031 355.816406 C 285.332031 361.804688 295.382812 362.132812 298.421875 356.347656 C 300.0625 353.148438 299.527344 346.707031 297.355469 343.710938 C 295.671875 341.332031 291.117188 340.265625 287.382812 341.375 Z M 293.621094 345.929688 C 295.300781 347.773438 295.917969 352.289062 294.726562 354.503906 C 294.113281 355.691406 292.0625 356.921875 290.625 356.921875 C 289.394531 356.921875 287.300781 355.652344 286.808594 354.625 C 285.742188 352.246094 286.523438 346.75 288.125 345.640625 C 289.519531 344.65625 292.59375 344.820312 293.621094 345.929688 Z M 293.621094 345.929688 "/>
<path style=" stroke:none;fill-rule:nonzero;fill:#bf5300;fill-opacity:1;" d="M 301.292969 343.671875 C 301.128906 345.191406 301.128906 348.019531 301.25 349.988281 C 301.496094 354.011719 302.195312 355.734375 304.699219 358.398438 C 306.871094 360.738281 308.839844 361.066406 312 359.628906 C 313.96875 358.726562 314.421875 358.316406 315.199219 356.636719 C 316.019531 354.871094 316.101562 354.011719 316.101562 348.226562 C 316.101562 344.699219 315.980469 341.703125 315.855469 341.578125 C 315.734375 341.457031 314.996094 341.292969 314.214844 341.25 L 312.820312 341.128906 L 312.617188 347.28125 C 312.453125 352.492188 312.289062 353.640625 311.589844 354.871094 C 310.5625 356.59375 309.25 356.882812 307.445312 355.734375 C 306.296875 355.035156 306.09375 354.585938 305.640625 352.082031 C 305.3125 350.398438 305.191406 347.652344 305.3125 345.476562 C 305.519531 342.070312 305.476562 341.742188 304.78125 341.742188 C 304.371094 341.742188 303.917969 341.539062 303.792969 341.332031 C 303.671875 341.085938 303.097656 340.921875 302.5625 340.921875 C 301.660156 340.921875 301.578125 341.128906 301.292969 343.671875 Z M 301.292969 343.671875 "/>
<path style=" stroke:none;fill-rule:nonzero;fill:#bf5300;fill-opacity:1;" d="M 320.371094 341.210938 L 318.03125 341.375 L 317.867188 343.097656 C 317.742188 344.042969 317.742188 344.984375 317.867188 345.148438 C 317.949219 345.355469 319.34375 345.4375 320.984375 345.355469 L 323.898438 345.230469 L 323.898438 352.492188 C 323.898438 356.472656 324.019531 359.835938 324.144531 359.957031 C 324.226562 360.082031 325.167969 360.207031 326.152344 360.289062 L 328 360.410156 L 328 345.683594 L 329.027344 345.394531 C 329.601562 345.230469 330.914062 345.109375 332.019531 345.066406 L 333.949219 345.027344 L 333.949219 341.332031 L 330.378906 341.332031 C 328.371094 341.332031 325.867188 341.25 324.71875 341.167969 C 323.609375 341.085938 321.640625 341.128906 320.371094 341.210938 Z M 320.371094 341.210938 "/>
<path style=" stroke:none;fill-rule:nonzero;fill:#bf5300;fill-opacity:1;" d="M 148.71875 352.902344 C 148.265625 353.148438 147.28125 353.929688 146.542969 354.625 C 144.699219 356.347656 142.726562 356.347656 140.308594 354.542969 C 137.804688 352.738281 137.519531 352.902344 139.652344 354.871094 C 142.726562 357.703125 144.902344 357.867188 148.0625 355.445312 C 150.523438 353.558594 151.875 353.601562 154.421875 355.691406 C 156.101562 357.085938 156.675781 357.332031 158.316406 357.332031 C 160.289062 357.332031 161.148438 356.921875 163.652344 354.75 C 164.800781 353.765625 165.292969 353.601562 166.441406 353.765625 C 167.21875 353.929688 168.492188 354.503906 169.230469 355.078125 C 171.199219 356.554688 171.488281 356.347656 169.847656 354.667969 C 167.21875 351.957031 164.554688 351.835938 161.601562 354.296875 C 159.179688 356.308594 157.703125 356.144531 154.75 353.601562 C 153.683594 352.65625 153.027344 352.410156 151.464844 352.410156 C 150.398438 352.410156 149.167969 352.65625 148.71875 352.902344 Z M 148.71875 352.902344 "/>
<path style=" stroke:none;fill-rule:nonzero;fill:#bf5300;fill-opacity:1;" d="M 348.882812 354.050781 C 345.722656 356.636719 345.148438 356.636719 340.675781 353.804688 C 339.855469 353.3125 340.101562 353.640625 341.414062 354.953125 C 344.328125 357.785156 346.75 357.867188 349.824219 355.324219 C 351.835938 353.683594 353.558594 353.640625 355.363281 355.242188 C 357.25 356.882812 358.277344 357.332031 360 357.332031 C 361.722656 357.332031 363.324219 356.59375 364.675781 355.117188 C 366.480469 353.191406 368.328125 353.273438 371.691406 355.570312 C 372.59375 356.183594 372.59375 356.101562 371.488281 354.914062 C 369.96875 353.191406 367.875 352.289062 366.359375 352.617188 C 365.703125 352.738281 364.308594 353.519531 363.199219 354.296875 C 362.132812 355.078125 360.78125 355.691406 360.207031 355.691406 C 359.628906 355.691406 358.195312 354.953125 356.964844 354.050781 C 355.117188 352.65625 354.460938 352.410156 352.820312 352.410156 C 351.136719 352.410156 350.5625 352.65625 348.882812 354.050781 Z M 348.882812 354.050781 "/>
</g>
</svg>