<svg xmlns="http://www.w3.org/2000/svg" xmlns:xlink="http://www.w3.org/1999/xlink" width="32px" height="32px" viewBox="0 0 32 32" version="1.1">
<g id="surface1">
<path style=" stroke:none;fill-rule:nonzero;fill:#bf5300;fill-opacity:1;" d="M 15.726562 9.375 C 15.703125 9.554688 15.738281 10.421875 15.78125 10.589844 C 15.808594 10.710938 15.808594 10.75 15.773438 10.871094 C 15.746094 10.957031 15.734375 11.085938 15.738281 11.210938 C 15.742188 11.359375 15.730469 11.4375 15.691406 11.539062 C 15.628906 11.695312 15.628906 11.824219 15.683594 11.984375 C 15.726562 12.109375 15.804688 12.175781 15.882812 12.144531 C 15.917969 12.132812 15.921875 12.105469 15.910156 12.007812 C 15.898438 11.90625 15.90625 11.84375 15.972656 11.671875 C 16.054688 11.441406 16.066406 11.351562 16.023438 11.191406 C 16.003906 11.117188 16.003906 11.046875 16.027344 10.910156 C 16.050781 10.757812 16.050781 10.699219 16.015625 10.519531 C 15.988281 10.386719 15.976562 10.265625 15.988281 10.1875 C 16 10.109375 15.988281 9.988281 15.964844 9.871094 C 15.945312 9.765625 15.917969 9.601562 15.910156 9.503906 C 15.886719 9.277344 15.878906 9.257812 15.808594 9.257812 C 15.753906 9.257812 15.742188 9.273438 15.726562 9.375 Z M 15.726562 9.375 "/>
<path style=" stroke:none;fill-rule:nonzero;fill:#bf5300;fill-opacity:1;" d="M 18.097656 9.773438 C 18.039062 9.804688 17.714844 10.257812 17.632812 10.421875 C 17.597656 10.492188 17.519531 10.609375 17.457031 10.675781 C 17.355469 10.796875 17.347656 10.808594 17.34375 10.972656 C 17.339844 11.226562 17.203125 11.527344 16.988281 11.75 C 16.851562 11.890625 16.820312 11.9375 16.808594 12.035156 C 16.785156 12.183594 16.800781 12.230469 16.882812 12.230469 C 16.933594 12.230469 16.949219 12.21875 16.949219 12.171875 C 16.949219 12.085938 17.011719 12.011719 17.179688 11.898438 C 17.449219 11.710938 17.511719 11.605469 17.640625 11.054688 C 17.679688 10.890625 17.722656 10.789062 17.820312 10.644531 C 17.996094 10.371094 18.210938 9.914062 18.199219 9.828125 C 18.191406 9.75 18.160156 9.734375 18.097656 9.773438 Z M 18.097656 9.773438 "/>
<path style=" stroke:none;fill-rule:nonzero;fill:#bf5300;fill-opacity:1;" d="M 13.339844 9.851562 C 13.320312 9.871094 13.308594 9.898438 13.308594 9.925781 C 13.308594 9.988281 13.585938 10.558594 13.679688 10.691406 C 13.722656 10.757812 13.789062 10.871094 13.816406 10.953125 C 13.847656 11.03125 13.929688 11.160156 14.003906 11.238281 C 14.070312 11.316406 14.152344 11.433594 14.175781 11.496094 C 14.207031 11.5625 14.257812 11.640625 14.296875 11.671875 C 14.523438 11.863281 14.558594 11.902344 14.589844 12.011719 C 14.628906 12.164062 14.707031 12.257812 14.78125 12.257812 C 14.871094 12.257812 14.875 12.207031 14.808594 11.984375 C 14.738281 11.730469 14.710938 11.683594 14.597656 11.597656 C 14.535156 11.546875 14.476562 11.464844 14.417969 11.332031 C 14.371094 11.226562 14.289062 11.089844 14.234375 11.027344 C 14.179688 10.960938 14.117188 10.847656 14.09375 10.773438 C 14.042969 10.621094 13.683594 10.0625 13.542969 9.914062 C 13.449219 9.816406 13.390625 9.800781 13.339844 9.851562 Z M 13.339844 9.851562 "/>
<path style=" stroke:none;fill-rule:nonzero;fill:#bf5300;fill-opacity:1;" d="M 30.039062 9.972656 C 29.917969 10.109375 29.375 10.347656 28.578125 10.625 C 27.863281 10.875 27.472656 11.019531 27.257812 11.117188 C 27.046875 11.214844 26.960938 11.222656 26.71875 11.164062 C 26.390625 11.085938 26.304688 11.078125 26.25 11.105469 C 26.160156 11.152344 26.210938 11.273438 26.394531 11.453125 C 26.613281 11.664062 26.652344 11.78125 26.632812 12.136719 C 26.625 12.320312 26.585938 12.535156 26.503906 12.859375 C 26.441406 13.113281 26.289062 13.769531 26.167969 14.320312 C 25.765625 16.128906 25.480469 17.140625 25.15625 17.921875 C 25.007812 18.277344 24.96875 18.328125 24.699219 18.527344 C 24.597656 18.605469 24.511719 18.683594 24.511719 18.703125 C 24.511719 18.800781 24.78125 18.894531 25.449219 19.027344 C 25.992188 19.136719 26.0625 19.15625 26.765625 19.375 C 27.003906 19.453125 27.230469 19.511719 27.265625 19.511719 C 27.324219 19.511719 27.4375 19.417969 27.4375 19.371094 C 27.4375 19.355469 27.382812 19.292969 27.316406 19.230469 C 27.03125 18.949219 26.863281 18.589844 26.863281 18.242188 C 26.863281 17.929688 27.007812 17.300781 27.125 17.113281 C 27.222656 16.957031 27.503906 16.882812 27.921875 16.90625 C 28.398438 16.933594 28.808594 17.070312 28.992188 17.261719 C 29.175781 17.453125 29.289062 17.835938 29.292969 18.28125 C 29.292969 18.734375 29.210938 18.953125 28.972656 19.117188 C 28.898438 19.167969 28.859375 19.214844 28.859375 19.253906 C 28.859375 19.300781 28.90625 19.328125 29.21875 19.449219 C 29.414062 19.523438 29.761719 19.65625 29.988281 19.742188 C 31.117188 20.179688 31.71875 20.335938 31.816406 20.21875 C 31.863281 20.167969 31.796875 20.046875 31.652344 19.898438 C 31.519531 19.761719 31.445312 19.589844 31.234375 18.9375 C 30.945312 18.050781 30.75 17.167969 30.421875 15.269531 C 30.316406 14.648438 30.171875 13.859375 30.101562 13.511719 C 30.027344 13.167969 29.914062 12.609375 29.84375 12.269531 C 29.773438 11.929688 29.707031 11.527344 29.691406 11.371094 C 29.640625 10.898438 29.714844 10.695312 30.035156 10.433594 C 30.324219 10.199219 30.390625 9.945312 30.175781 9.929688 C 30.109375 9.921875 30.074219 9.9375 30.039062 9.972656 Z M 28.511719 14.21875 C 28.710938 15.117188 28.867188 15.859375 28.859375 15.867188 C 28.84375 15.882812 27.4375 15.777344 27.414062 15.757812 C 27.40625 15.75 27.554688 15.070312 27.742188 14.25 C 28.117188 12.609375 28.128906 12.554688 28.140625 12.570312 C 28.148438 12.574219 28.316406 13.316406 28.511719 14.21875 Z M 28.511719 14.21875 "/>
<path style=" stroke:none;fill-rule:nonzero;fill:#bf5300;fill-opacity:1;" d="M 3.050781 10.066406 C 3.015625 10.070312 2.898438 10.089844 2.792969 10.105469 C 2.359375 10.167969 1.839844 10.386719 1.472656 10.660156 C 0.835938 11.136719 0.472656 11.765625 0.445312 12.449219 C 0.417969 13.035156 0.613281 13.515625 1.050781 13.949219 C 1.410156 14.300781 1.808594 14.523438 2.8125 14.925781 C 3.824219 15.332031 4.085938 15.472656 4.363281 15.761719 C 4.675781 16.089844 4.792969 16.546875 4.679688 16.988281 C 4.546875 17.480469 4.089844 17.925781 3.5625 18.066406 C 3.339844 18.125 2.980469 18.125 2.78125 18.066406 C 2.445312 17.964844 2.128906 17.734375 2.027344 17.507812 C 1.980469 17.414062 1.953125 17.101562 1.984375 17.101562 C 1.988281 17.101562 2.0625 17.136719 2.140625 17.179688 C 2.40625 17.316406 2.710938 17.273438 2.949219 17.058594 C 3.171875 16.859375 3.253906 16.609375 3.207031 16.28125 C 3.132812 15.816406 2.773438 15.464844 2.230469 15.332031 C 2.007812 15.273438 1.5625 15.289062 1.324219 15.355469 C 0.5625 15.570312 0.128906 16.167969 0.128906 16.996094 C 0.128906 17.65625 0.441406 18.308594 1.007812 18.832031 C 1.921875 19.683594 3.179688 19.933594 4.347656 19.496094 C 5.199219 19.175781 5.917969 18.480469 6.265625 17.640625 C 6.863281 16.191406 6.3125 14.773438 4.882812 14.089844 C 4.730469 14.015625 4.367188 13.863281 4.078125 13.757812 C 2.824219 13.285156 2.421875 12.964844 2.292969 12.351562 C 2.242188 12.121094 2.261719 11.957031 2.363281 11.753906 C 2.539062 11.382812 2.996094 11.136719 3.5625 11.109375 C 4.019531 11.085938 4.367188 11.179688 4.601562 11.386719 C 4.734375 11.503906 4.820312 11.691406 4.820312 11.863281 C 4.820312 12.136719 4.734375 12.210938 4.554688 12.082031 C 4.273438 11.878906 3.957031 11.929688 3.859375 12.191406 C 3.757812 12.453125 3.863281 12.8125 4.109375 13.0625 C 4.613281 13.5625 5.46875 13.511719 6.027344 12.945312 C 6.441406 12.527344 6.519531 11.945312 6.242188 11.363281 C 5.960938 10.78125 5.136719 10.308594 4.074219 10.128906 C 3.773438 10.078125 3.191406 10.042969 3.050781 10.066406 Z M 3.050781 10.066406 "/>
<path style=" stroke:none;fill-rule:nonzero;fill:#bf5300;fill-opacity:1;" d="M 16.65625 10.339844 C 16.632812 10.429688 16.585938 10.660156 16.546875 10.859375 C 16.472656 11.289062 16.398438 11.589844 16.332031 11.734375 C 16.300781 11.8125 16.292969 11.867188 16.308594 11.945312 C 16.335938 12.097656 16.359375 12.109375 16.359375 11.96875 C 16.359375 11.894531 16.382812 11.8125 16.421875 11.742188 C 16.453125 11.679688 16.503906 11.53125 16.527344 11.410156 C 16.546875 11.289062 16.59375 11.085938 16.628906 10.957031 C 16.683594 10.738281 16.742188 10.375 16.742188 10.238281 C 16.742188 10.125 16.699219 10.179688 16.65625 10.339844 Z M 16.65625 10.339844 "/>
<path style=" stroke:none;fill-rule:nonzero;fill:#bf5300;fill-opacity:1;" d="M 14.683594 10.574219 C 14.675781 10.59375 14.710938 10.675781 14.761719 10.757812 C 14.925781 11.035156 15.070312 11.34375 15.125 11.550781 C 15.199219 11.808594 15.269531 11.972656 15.320312 11.988281 C 15.34375 12 15.367188 12.003906 15.371094 11.996094 C 15.390625 11.976562 15.257812 11.496094 15.179688 11.292969 C 15.082031 11.050781 14.976562 10.855469 14.839844 10.671875 C 14.738281 10.535156 14.707031 10.511719 14.683594 10.574219 Z M 14.683594 10.574219 "/>
<path style=" stroke:none;fill-rule:nonzero;fill:#bf5300;fill-opacity:1;" d="M 18.355469 10.941406 C 18.316406 10.980469 18.238281 11.09375 18.179688 11.191406 C 18.121094 11.289062 18.011719 11.4375 17.9375 11.515625 C 17.847656 11.605469 17.789062 11.699219 17.765625 11.769531 C 17.742188 11.84375 17.6875 11.925781 17.597656 12.015625 C 17.5 12.113281 17.460938 12.167969 17.460938 12.21875 L 17.460938 12.289062 L 17.585938 12.175781 C 17.65625 12.117188 17.742188 12.042969 17.777344 12.019531 C 17.816406 11.996094 17.859375 11.921875 17.882812 11.847656 C 17.914062 11.761719 17.972656 11.671875 18.070312 11.570312 C 18.207031 11.433594 18.445312 11.050781 18.480469 10.925781 C 18.5 10.847656 18.433594 10.855469 18.355469 10.941406 Z M 18.355469 10.941406 "/>
<path style=" stroke:none;fill-rule:nonzero;fill:#bf5300;fill-opacity:1;" d="M 7.902344 11.132812 C 7.8125 11.222656 7.914062 11.390625 8.152344 11.5625 C 8.378906 11.726562 8.421875 11.808594 8.421875 12.054688 C 8.414062 12.242188 8.40625 12.277344 8.261719 12.582031 C 8.035156 13.0625 7.960938 13.328125 7.730469 14.542969 C 7.613281 15.167969 7.105469 17.195312 6.949219 17.671875 C 6.769531 18.21875 6.699219 18.355469 6.496094 18.53125 C 6.347656 18.664062 6.257812 18.78125 6.257812 18.839844 C 6.257812 18.929688 6.300781 18.925781 7.59375 18.652344 C 8.300781 18.503906 8.898438 18.378906 8.917969 18.371094 C 8.9375 18.363281 8.949219 18.332031 8.945312 18.289062 C 8.9375 18.234375 8.910156 18.207031 8.816406 18.160156 C 8.507812 18.015625 8.386719 17.636719 8.511719 17.191406 C 8.546875 17.050781 8.578125 16.996094 8.652344 16.933594 C 8.839844 16.773438 9.527344 16.601562 10.105469 16.570312 C 10.382812 16.558594 10.40625 16.5625 10.457031 16.609375 C 10.535156 16.691406 10.59375 16.90625 10.609375 17.191406 C 10.621094 17.433594 10.617188 17.457031 10.554688 17.578125 C 10.492188 17.707031 10.34375 17.863281 10.234375 17.921875 C 10.195312 17.945312 10.179688 17.972656 10.179688 18.039062 C 10.179688 18.203125 10.265625 18.210938 10.808594 18.085938 C 11.003906 18.042969 11.144531 18.027344 11.269531 18.03125 C 11.410156 18.035156 11.457031 18.027344 11.488281 17.996094 C 11.554688 17.929688 11.847656 17.875 12.308594 17.847656 C 12.542969 17.832031 12.828125 17.808594 12.949219 17.792969 C 13.070312 17.78125 13.542969 17.761719 14 17.753906 C 14.457031 17.746094 14.871094 17.726562 14.917969 17.710938 C 15.007812 17.6875 15.050781 17.613281 15.03125 17.535156 C 15.027344 17.507812 14.957031 17.457031 14.886719 17.421875 C 14.726562 17.34375 14.617188 17.199219 14.539062 16.972656 C 14.464844 16.765625 14.453125 16.347656 14.480469 15.398438 L 14.5 14.730469 L 14.636719 14.910156 C 14.832031 15.167969 15.074219 15.683594 15.269531 16.242188 C 15.585938 17.160156 15.800781 17.675781 15.847656 17.625 C 15.890625 17.582031 16.050781 17.175781 16.265625 16.570312 C 16.507812 15.890625 16.625 15.605469 16.761719 15.359375 C 16.882812 15.144531 17.085938 14.847656 17.167969 14.769531 L 17.230469 14.710938 L 17.230469 16.988281 L 17.15625 17.105469 C 17.066406 17.246094 16.945312 17.355469 16.789062 17.445312 C 16.640625 17.527344 16.617188 17.578125 16.683594 17.640625 C 16.726562 17.683594 16.800781 17.691406 17.488281 17.71875 C 18.726562 17.761719 19.320312 17.820312 20.207031 17.992188 C 21.75 18.289062 22.117188 18.347656 22.640625 18.375 C 23.21875 18.40625 23.628906 18.308594 23.988281 18.054688 C 24.339844 17.808594 24.605469 17.453125 24.746094 17.042969 C 25.078125 16.074219 24.738281 15.109375 23.914062 14.691406 C 23.792969 14.628906 23.691406 14.570312 23.695312 14.5625 C 23.695312 14.554688 23.765625 14.492188 23.855469 14.421875 C 24.316406 14.042969 24.558594 13.535156 24.53125 13 C 24.5 12.40625 24.25 12.050781 23.734375 11.878906 C 23.535156 11.8125 23.503906 11.808594 23 11.808594 C 22.546875 11.808594 22.398438 11.824219 21.921875 11.890625 C 21.179688 12.003906 20.917969 12.023438 20.527344 12.007812 C 20.15625 11.992188 19.742188 12.027344 19.558594 12.089844 C 19.414062 12.140625 19.265625 12.269531 19.242188 12.363281 C 19.226562 12.429688 19.234375 12.4375 19.339844 12.484375 C 19.609375 12.601562 19.78125 12.953125 19.75 13.324219 C 19.742188 13.421875 19.75 14.105469 19.765625 14.847656 C 19.800781 16.304688 19.789062 16.871094 19.703125 17.125 C 19.652344 17.28125 19.476562 17.488281 19.359375 17.539062 C 19.316406 17.554688 19.230469 17.5625 19.167969 17.558594 C 18.972656 17.535156 18.828125 17.378906 18.734375 17.089844 C 18.683594 16.917969 18.679688 16.871094 18.683594 15.9375 C 18.683594 15.398438 18.691406 14.535156 18.695312 14.011719 C 18.710938 12.9375 18.710938 12.9375 18.933594 12.691406 C 19.054688 12.554688 19.097656 12.445312 19.050781 12.398438 C 18.992188 12.34375 18.660156 12.378906 18.191406 12.496094 C 17.6875 12.621094 17.511719 12.652344 17.105469 12.691406 C 16.945312 12.707031 16.824219 12.730469 16.8125 12.75 C 16.800781 12.765625 16.652344 13.0625 16.484375 13.410156 C 16.152344 14.09375 15.925781 14.492188 15.882812 14.480469 C 15.835938 14.464844 15.664062 14.179688 15.324219 13.546875 L 14.980469 12.910156 L 14.816406 12.894531 C 14.726562 12.882812 14.503906 12.875 14.320312 12.875 C 13.882812 12.871094 13.574219 12.824219 13.011719 12.667969 C 12.386719 12.496094 12.417969 12.503906 12.398438 12.5625 C 12.390625 12.589844 12.394531 12.660156 12.410156 12.71875 C 12.433594 12.800781 12.472656 12.851562 12.617188 12.96875 C 12.820312 13.132812 12.890625 13.257812 12.972656 13.578125 C 13.085938 14.023438 13.105469 14.546875 13.035156 15.605469 C 13.011719 15.980469 13 16.421875 13.003906 16.671875 L 13.019531 17.101562 L 12.945312 17.222656 C 12.855469 17.375 12.824219 17.414062 12.742188 17.46875 C 12.578125 17.582031 12.425781 17.476562 12.25 17.128906 C 12.027344 16.699219 11.816406 15.945312 11.488281 14.429688 C 11.226562 13.210938 11.175781 13.015625 11.015625 12.683594 C 10.707031 12.042969 10.753906 11.722656 11.210938 11.390625 C 11.386719 11.261719 11.394531 11.246094 11.34375 11.195312 C 11.273438 11.125 11.199219 11.125 10.804688 11.175781 C 10.128906 11.273438 9.699219 11.308594 9.257812 11.308594 C 8.742188 11.308594 8.566406 11.28125 8.320312 11.183594 C 8.125 11.101562 7.957031 11.078125 7.902344 11.132812 Z M 22.578125 12.867188 C 22.734375 12.9375 22.878906 13.078125 22.9375 13.21875 C 23.023438 13.425781 22.972656 13.761719 22.824219 13.964844 C 22.667969 14.179688 22.3125 14.28125 21.636719 14.300781 L 21.28125 14.3125 L 21.28125 13.65625 C 21.28125 13.03125 21.285156 12.996094 21.332031 12.949219 C 21.449219 12.832031 21.636719 12.796875 22.089844 12.800781 C 22.398438 12.808594 22.464844 12.816406 22.578125 12.867188 Z M 9.675781 13.570312 C 9.777344 13.648438 9.875 13.972656 10.0625 14.820312 C 10.125 15.109375 10.183594 15.367188 10.191406 15.390625 C 10.234375 15.488281 9.765625 15.613281 9.167969 15.65625 L 8.914062 15.675781 L 8.933594 15.535156 C 8.988281 15.089844 9.382812 13.855469 9.550781 13.601562 C 9.597656 13.53125 9.617188 13.527344 9.675781 13.570312 Z M 22.535156 15.398438 C 22.972656 15.496094 23.207031 15.78125 23.207031 16.21875 C 23.207031 16.898438 22.667969 17.128906 21.570312 16.921875 L 21.28125 16.867188 L 21.28125 15.4375 L 21.339844 15.421875 C 21.640625 15.355469 22.28125 15.339844 22.535156 15.398438 Z M 22.535156 15.398438 "/>
<path style=" stroke:none;fill-rule:nonzero;fill:#bf5300;fill-opacity:1;" d="M 12.988281 11.359375 C 12.957031 11.402344 13.148438 11.578125 13.332031 11.679688 C 13.460938 11.75 13.542969 11.816406 13.59375 11.890625 C 13.632812 11.949219 13.71875 12.035156 13.785156 12.078125 C 13.847656 12.121094 13.929688 12.203125 13.960938 12.257812 C 14.011719 12.339844 14.042969 12.359375 14.101562 12.359375 C 14.144531 12.359375 14.179688 12.347656 14.179688 12.332031 C 14.179688 12.296875 13.914062 12.027344 13.84375 11.984375 C 13.820312 11.972656 13.757812 11.898438 13.707031 11.824219 C 13.628906 11.71875 13.570312 11.671875 13.464844 11.625 C 13.386719 11.589844 13.257812 11.511719 13.179688 11.445312 C 13.027344 11.324219 13.011719 11.320312 12.988281 11.359375 Z M 12.988281 11.359375 "/>
<path style=" stroke:none;fill-rule:nonzero;fill:#bf5300;fill-opacity:1;" d="M 16.921875 18.363281 C 16.730469 18.394531 16.519531 18.503906 16.421875 18.625 C 16.355469 18.710938 16.347656 18.746094 16.335938 18.925781 C 16.328125 19.09375 16.335938 19.140625 16.382812 19.214844 C 16.472656 19.355469 16.6875 19.519531 16.988281 19.675781 C 17.289062 19.828125 17.410156 19.917969 17.410156 19.988281 C 17.410156 20.046875 17.292969 20.144531 17.164062 20.195312 C 17.066406 20.234375 17.027344 20.234375 16.914062 20.207031 C 16.691406 20.160156 16.660156 20.121094 16.605469 19.84375 C 16.59375 19.78125 16.578125 19.773438 16.421875 19.761719 C 16.324219 19.75 16.238281 19.75 16.226562 19.757812 C 16.214844 19.765625 16.207031 19.832031 16.207031 19.90625 C 16.207031 20.398438 16.625 20.703125 17.179688 20.617188 C 17.503906 20.566406 17.710938 20.441406 17.820312 20.230469 C 17.992188 19.894531 17.847656 19.609375 17.429688 19.445312 C 17.289062 19.386719 17.207031 19.332031 17.054688 19.191406 C 16.902344 19.046875 16.871094 19 16.882812 18.957031 C 16.914062 18.859375 17.152344 18.796875 17.320312 18.84375 C 17.46875 18.882812 17.492188 18.90625 17.511719 19.015625 C 17.527344 19.109375 17.535156 19.117188 17.601562 19.109375 C 17.644531 19.105469 17.734375 19.121094 17.800781 19.144531 C 17.949219 19.191406 18.035156 19.171875 18.019531 19.09375 C 17.921875 18.707031 17.867188 18.601562 17.699219 18.488281 C 17.480469 18.351562 17.234375 18.308594 16.921875 18.363281 Z M 16.921875 18.363281 "/>
<path style=" stroke:none;fill-rule:nonzero;fill:#bf5300;fill-opacity:1;" d="M 14.640625 18.398438 C 14.511719 18.414062 14.308594 18.421875 14.136719 18.414062 C 13.78125 18.398438 13.574219 18.421875 13.558594 18.480469 C 13.550781 18.503906 13.5625 18.652344 13.578125 18.808594 C 13.601562 18.960938 13.613281 19.292969 13.613281 19.539062 C 13.609375 19.898438 13.621094 20.042969 13.664062 20.265625 C 13.695312 20.414062 13.71875 20.574219 13.71875 20.617188 L 13.71875 20.691406 L 13.929688 20.675781 C 14.046875 20.667969 14.15625 20.660156 14.175781 20.652344 C 14.21875 20.636719 14.210938 20.539062 14.152344 20.136719 C 14.125 19.945312 14.109375 19.78125 14.121094 19.765625 C 14.132812 19.753906 14.210938 19.757812 14.292969 19.769531 C 14.40625 19.789062 14.480469 19.785156 14.601562 19.757812 C 14.683594 19.734375 14.792969 19.71875 14.839844 19.71875 L 14.925781 19.71875 L 14.917969 19.480469 C 14.910156 19.246094 14.910156 19.242188 14.839844 19.234375 C 14.804688 19.230469 14.6875 19.246094 14.585938 19.265625 C 14.464844 19.292969 14.339844 19.300781 14.261719 19.289062 C 14.144531 19.277344 14.125 19.265625 14.113281 19.207031 C 14.105469 19.171875 14.085938 19.089844 14.074219 19.027344 C 14.046875 18.90625 14.070312 18.863281 14.152344 18.882812 C 14.28125 18.917969 14.472656 18.921875 14.617188 18.894531 C 14.707031 18.878906 14.882812 18.859375 15.011719 18.847656 L 15.234375 18.832031 L 15.242188 18.601562 L 15.242188 18.371094 L 15.050781 18.371094 C 14.945312 18.367188 14.761719 18.378906 14.640625 18.398438 Z M 14.640625 18.398438 "/>
<path style=" stroke:none;fill-rule:nonzero;fill:#bf5300;fill-opacity:1;" d="M 18.332031 18.488281 C 18.316406 18.519531 18.292969 18.734375 18.28125 18.964844 C 18.265625 19.195312 18.238281 19.457031 18.214844 19.542969 C 18.1875 19.660156 18.175781 19.839844 18.167969 20.183594 L 18.164062 20.660156 L 18.257812 20.675781 C 18.304688 20.683594 18.394531 20.703125 18.453125 20.710938 C 18.640625 20.753906 18.652344 20.734375 18.667969 20.28125 L 18.679688 19.882812 L 18.832031 19.867188 C 18.917969 19.859375 19.039062 19.863281 19.101562 19.875 C 19.167969 19.890625 19.265625 19.90625 19.320312 19.917969 L 19.421875 19.9375 L 19.421875 20.230469 C 19.421875 20.390625 19.414062 20.585938 19.40625 20.660156 C 19.386719 20.789062 19.390625 20.792969 19.445312 20.792969 C 19.480469 20.792969 19.554688 20.8125 19.617188 20.832031 C 19.773438 20.886719 19.84375 20.882812 19.871094 20.8125 C 19.898438 20.742188 19.917969 20.566406 19.9375 20.242188 C 19.945312 20.101562 19.980469 19.867188 20.019531 19.71875 C 20.074219 19.488281 20.078125 19.414062 20.066406 19.191406 C 20.054688 19.050781 20.058594 18.875 20.070312 18.800781 C 20.09375 18.667969 20.09375 18.660156 20.03125 18.636719 C 19.996094 18.625 19.898438 18.609375 19.820312 18.597656 L 19.675781 18.582031 L 19.644531 18.703125 C 19.625 18.789062 19.566406 19.292969 19.5625 19.441406 C 19.5625 19.476562 19.398438 19.460938 19.234375 19.410156 C 19.109375 19.371094 19.035156 19.363281 18.921875 19.375 L 18.773438 19.390625 L 18.757812 19.085938 C 18.746094 18.914062 18.742188 18.714844 18.746094 18.636719 L 18.757812 18.503906 L 18.667969 18.484375 C 18.40625 18.429688 18.363281 18.429688 18.332031 18.488281 Z M 18.332031 18.488281 "/>
<path style=" stroke:none;fill-rule:nonzero;fill:#bf5300;fill-opacity:1;" d="M 12.140625 18.578125 C 12 18.597656 11.816406 18.621094 11.730469 18.628906 C 11.460938 18.65625 11.460938 18.65625 11.460938 18.765625 C 11.460938 18.824219 11.484375 18.988281 11.515625 19.132812 C 11.542969 19.28125 11.578125 19.5625 11.589844 19.769531 C 11.601562 20.011719 11.628906 20.210938 11.667969 20.347656 C 11.699219 20.457031 11.730469 20.621094 11.738281 20.707031 L 11.757812 20.859375 L 11.988281 20.847656 C 12.117188 20.84375 12.222656 20.835938 12.226562 20.832031 C 12.253906 20.808594 12.226562 20.53125 12.175781 20.300781 C 12.144531 20.167969 12.128906 20.039062 12.136719 20.015625 C 12.144531 19.988281 12.183594 19.972656 12.242188 19.972656 C 12.316406 19.972656 12.347656 19.996094 12.449219 20.109375 C 12.515625 20.183594 12.589844 20.28125 12.617188 20.335938 C 12.683594 20.464844 12.78125 20.578125 12.90625 20.664062 C 13.007812 20.734375 13.023438 20.734375 13.25 20.722656 C 13.453125 20.710938 13.488281 20.707031 13.488281 20.667969 C 13.488281 20.644531 13.398438 20.527344 13.292969 20.414062 C 13.191406 20.300781 13.074219 20.148438 13.039062 20.078125 C 13.003906 20.011719 12.945312 19.921875 12.910156 19.882812 C 12.875 19.84375 12.847656 19.808594 12.847656 19.808594 C 12.847656 19.808594 12.90625 19.761719 12.980469 19.707031 C 13.28125 19.488281 13.378906 19.164062 13.230469 18.875 C 13.089844 18.59375 12.734375 18.5 12.140625 18.578125 Z M 12.644531 19.050781 C 12.832031 19.101562 12.832031 19.234375 12.65625 19.355469 C 12.539062 19.4375 12.140625 19.585938 12.117188 19.558594 C 12.097656 19.542969 12.023438 19.226562 12.015625 19.140625 C 12.011719 19.09375 12.039062 19.085938 12.242188 19.0625 C 12.554688 19.023438 12.539062 19.023438 12.644531 19.050781 Z M 12.644531 19.050781 "/>
<path style=" stroke:none;fill-rule:nonzero;fill:#bf5300;fill-opacity:1;" d="M 10.914062 18.769531 C 10.734375 18.78125 10.695312 18.808594 10.707031 18.90625 C 10.710938 18.9375 10.75 19.15625 10.789062 19.398438 C 10.875 19.964844 10.882812 20.316406 10.796875 20.496094 L 10.738281 20.621094 L 10.535156 20.609375 C 10.261719 20.59375 10.222656 20.5625 10.085938 20.234375 C 9.957031 19.9375 9.882812 19.632812 9.859375 19.292969 L 9.839844 19.058594 L 9.613281 19.042969 C 9.488281 19.03125 9.371094 19.03125 9.355469 19.042969 C 9.316406 19.0625 9.34375 19.539062 9.394531 19.78125 C 9.472656 20.15625 9.625 20.515625 9.761719 20.667969 C 9.902344 20.824219 10.246094 21.070312 10.347656 21.09375 C 10.398438 21.101562 10.511719 21.101562 10.601562 21.097656 C 10.742188 21.089844 10.785156 21.070312 10.945312 20.964844 C 11.042969 20.898438 11.152344 20.808594 11.191406 20.765625 C 11.363281 20.5625 11.378906 20.136719 11.246094 19.441406 C 11.199219 19.191406 11.152344 18.941406 11.144531 18.886719 C 11.136719 18.832031 11.121094 18.78125 11.109375 18.773438 C 11.101562 18.761719 11.011719 18.761719 10.914062 18.769531 Z M 10.914062 18.769531 "/>
<path style=" stroke:none;fill-rule:nonzero;fill:#bf5300;fill-opacity:1;" d="M 20.890625 18.855469 C 20.546875 18.980469 20.308594 19.367188 20.222656 19.929688 C 20.1875 20.171875 20.21875 20.347656 20.332031 20.582031 C 20.460938 20.84375 20.675781 20.992188 21.027344 21.066406 C 21.445312 21.152344 21.765625 21.078125 22.019531 20.824219 C 22.25 20.59375 22.34375 20.3125 22.34375 19.847656 C 22.34375 19.601562 22.332031 19.527344 22.289062 19.40625 C 22.210938 19.214844 22.054688 19.042969 21.890625 18.964844 C 21.617188 18.839844 21.105469 18.78125 20.890625 18.855469 Z M 21.546875 19.351562 C 21.78125 19.425781 21.875 19.675781 21.820312 20.070312 C 21.757812 20.511719 21.542969 20.707031 21.191406 20.644531 C 20.875 20.585938 20.71875 20.414062 20.71875 20.125 C 20.71875 19.890625 20.863281 19.488281 20.984375 19.386719 C 21.109375 19.285156 21.296875 19.273438 21.546875 19.351562 Z M 21.546875 19.351562 "/>
<path style=" stroke:none;fill-rule:nonzero;fill:#bf5300;fill-opacity:1;" d="M 22.808594 19.25 C 22.789062 19.316406 22.742188 19.519531 22.707031 19.699219 C 22.667969 19.875 22.609375 20.109375 22.566406 20.210938 C 22.527344 20.3125 22.476562 20.496094 22.460938 20.617188 C 22.429688 20.832031 22.375 21.144531 22.347656 21.242188 C 22.332031 21.289062 22.359375 21.300781 22.550781 21.367188 C 22.667969 21.40625 22.78125 21.433594 22.789062 21.425781 C 22.832031 21.402344 22.898438 21.148438 22.933594 20.890625 C 22.953125 20.753906 22.972656 20.632812 22.980469 20.628906 C 22.988281 20.621094 23.101562 20.632812 23.234375 20.65625 C 23.480469 20.699219 23.769531 20.695312 23.953125 20.640625 C 24.125 20.59375 24.289062 20.460938 24.363281 20.308594 C 24.570312 19.917969 24.328125 19.527344 23.792969 19.375 C 23.527344 19.300781 22.988281 19.160156 22.917969 19.144531 C 22.855469 19.128906 22.847656 19.136719 22.808594 19.25 Z M 23.5 19.796875 C 23.820312 19.882812 23.945312 19.96875 23.910156 20.078125 C 23.878906 20.175781 23.710938 20.230469 23.4375 20.230469 C 23.300781 20.230469 23.175781 20.21875 23.160156 20.210938 C 23.132812 20.191406 23.132812 20.144531 23.15625 19.984375 C 23.195312 19.71875 23.199219 19.710938 23.25 19.726562 C 23.273438 19.734375 23.386719 19.765625 23.5 19.796875 Z M 23.5 19.796875 "/>
<path style=" stroke:none;fill-rule:nonzero;fill:#bf5300;fill-opacity:1;" d="M 8.117188 19.320312 C 7.636719 19.488281 7.4375 19.777344 7.550781 20.128906 C 7.578125 20.207031 7.621094 20.296875 7.652344 20.332031 C 7.753906 20.445312 8.03125 20.5625 8.300781 20.601562 C 8.871094 20.691406 8.988281 20.777344 8.8125 20.972656 C 8.679688 21.125 8.617188 21.152344 8.4375 21.152344 C 8.234375 21.152344 8.183594 21.125 8.105469 20.960938 C 8.050781 20.847656 8.046875 20.84375 7.964844 20.863281 C 7.921875 20.871094 7.839844 20.886719 7.78125 20.894531 C 7.652344 20.914062 7.644531 20.957031 7.734375 21.152344 C 7.929688 21.59375 8.390625 21.707031 8.914062 21.4375 C 9.199219 21.292969 9.363281 21.070312 9.363281 20.820312 C 9.367188 20.480469 9.164062 20.308594 8.707031 20.265625 C 8.519531 20.25 8.113281 20.070312 8.085938 19.996094 C 8.054688 19.898438 8.226562 19.773438 8.4375 19.734375 C 8.539062 19.714844 8.691406 19.757812 8.691406 19.804688 C 8.691406 19.820312 8.710938 19.863281 8.734375 19.890625 C 8.769531 19.945312 8.777344 19.945312 8.847656 19.910156 C 8.886719 19.890625 8.984375 19.871094 9.0625 19.871094 C 9.164062 19.871094 9.210938 19.863281 9.21875 19.832031 C 9.238281 19.789062 9.078125 19.523438 8.964844 19.414062 C 8.792969 19.246094 8.441406 19.207031 8.117188 19.320312 Z M 8.117188 19.320312 "/>
<path style=" stroke:none;fill-rule:nonzero;fill:#bf5300;fill-opacity:1;" d="M 11.242188 21.328125 C 11.117188 21.335938 11.109375 21.339844 11.09375 21.414062 C 11.054688 21.59375 11.058594 21.59375 11.257812 21.585938 C 11.480469 21.578125 11.5 21.601562 11.472656 21.828125 C 11.457031 21.957031 11.453125 22.488281 11.46875 22.503906 C 11.472656 22.503906 11.527344 22.515625 11.597656 22.523438 L 11.71875 22.542969 L 11.71875 21.59375 L 11.867188 21.578125 C 11.945312 21.570312 12.03125 21.558594 12.050781 21.554688 C 12.101562 21.546875 12.121094 21.363281 12.070312 21.347656 C 12.023438 21.332031 11.394531 21.316406 11.242188 21.328125 Z M 11.242188 21.328125 "/>
<path style=" stroke:none;fill-rule:nonzero;fill:#bf5300;fill-opacity:1;" d="M 12.441406 21.339844 C 12.429688 21.355469 12.378906 21.472656 12.335938 21.59375 C 12.292969 21.71875 12.234375 21.867188 12.203125 21.925781 C 12.175781 21.984375 12.121094 22.128906 12.085938 22.242188 C 12.050781 22.355469 12.015625 22.46875 12.007812 22.492188 C 11.996094 22.53125 12.011719 22.535156 12.128906 22.527344 C 12.261719 22.519531 12.273438 22.511719 12.296875 22.429688 L 12.328125 22.347656 L 12.808594 22.347656 L 12.835938 22.4375 C 12.863281 22.519531 12.871094 22.519531 13.003906 22.527344 L 13.140625 22.527344 L 13.09375 22.375 C 13.003906 22.085938 12.953125 21.9375 12.863281 21.707031 C 12.6875 21.28125 12.707031 21.308594 12.578125 21.308594 C 12.519531 21.308594 12.457031 21.324219 12.441406 21.339844 Z M 12.632812 21.8125 C 12.648438 21.867188 12.675781 21.945312 12.695312 21.992188 C 12.710938 22.039062 12.71875 22.082031 12.710938 22.09375 C 12.703125 22.101562 12.632812 22.101562 12.554688 22.09375 L 12.417969 22.074219 L 12.476562 21.929688 C 12.511719 21.847656 12.539062 21.765625 12.539062 21.75 C 12.539062 21.679688 12.609375 21.722656 12.632812 21.8125 Z M 12.632812 21.8125 "/>
<path style=" stroke:none;fill-rule:nonzero;fill:#bf5300;fill-opacity:1;" d="M 13.472656 21.355469 C 13.277344 21.445312 13.167969 21.691406 13.183594 22.007812 C 13.191406 22.160156 13.207031 22.21875 13.265625 22.304688 C 13.402344 22.511719 13.605469 22.578125 13.886719 22.5 C 14.128906 22.433594 14.144531 22.414062 14.164062 22.132812 L 14.183594 21.898438 L 13.949219 21.898438 L 13.949219 22.046875 C 13.949219 22.242188 13.914062 22.285156 13.75 22.300781 C 13.625 22.3125 13.609375 22.308594 13.527344 22.222656 C 13.445312 22.140625 13.4375 22.125 13.4375 21.976562 C 13.4375 21.71875 13.535156 21.5625 13.695312 21.5625 C 13.765625 21.5625 13.871094 21.664062 13.871094 21.734375 C 13.871094 21.757812 13.90625 21.765625 13.996094 21.761719 C 14.109375 21.757812 14.117188 21.753906 14.109375 21.683594 C 14.089844 21.394531 13.757812 21.226562 13.472656 21.355469 Z M 13.472656 21.355469 "/>
<path style=" stroke:none;fill-rule:nonzero;fill:#bf5300;fill-opacity:1;" d="M 14.324219 21.351562 C 14.308594 21.402344 14.296875 22 14.300781 22.308594 L 14.308594 22.503906 L 14.429688 22.523438 C 14.492188 22.53125 14.554688 22.535156 14.5625 22.527344 C 14.570312 22.519531 14.570312 22.40625 14.570312 22.285156 L 14.5625 22.058594 L 14.660156 22.046875 C 14.808594 22.027344 14.945312 22.050781 14.957031 22.101562 C 14.964844 22.125 14.976562 22.226562 14.980469 22.324219 C 14.988281 22.480469 14.996094 22.511719 15.027344 22.511719 C 15.050781 22.511719 15.109375 22.519531 15.152344 22.527344 L 15.230469 22.542969 L 15.226562 22.085938 C 15.226562 21.832031 15.21875 21.558594 15.207031 21.472656 L 15.191406 21.320312 L 15.097656 21.3125 C 15.007812 21.304688 15.003906 21.308594 14.988281 21.390625 C 14.980469 21.4375 14.972656 21.542969 14.980469 21.628906 L 14.988281 21.78125 L 14.785156 21.78125 C 14.671875 21.78125 14.578125 21.773438 14.574219 21.757812 C 14.570312 21.742188 14.554688 21.636719 14.546875 21.527344 L 14.527344 21.320312 L 14.429688 21.3125 C 14.359375 21.308594 14.335938 21.316406 14.324219 21.351562 Z M 14.324219 21.351562 "/>
<path style=" stroke:none;fill-rule:nonzero;fill:#bf5300;fill-opacity:1;" d="M 15.761719 21.375 C 15.742188 21.417969 15.707031 21.511719 15.679688 21.589844 C 15.652344 21.667969 15.601562 21.792969 15.5625 21.871094 C 15.527344 21.949219 15.464844 22.113281 15.425781 22.238281 C 15.386719 22.363281 15.351562 22.476562 15.34375 22.496094 C 15.332031 22.527344 15.363281 22.53125 15.472656 22.527344 C 15.609375 22.527344 15.609375 22.527344 15.636719 22.429688 L 15.667969 22.335938 L 15.90625 22.339844 L 16.148438 22.347656 L 16.175781 22.4375 C 16.203125 22.523438 16.207031 22.527344 16.339844 22.527344 L 16.476562 22.527344 L 16.390625 22.230469 C 16.34375 22.070312 16.289062 21.914062 16.273438 21.882812 C 16.253906 21.855469 16.199219 21.726562 16.152344 21.601562 C 16.109375 21.472656 16.058594 21.355469 16.042969 21.339844 C 16.03125 21.324219 15.96875 21.308594 15.90625 21.308594 C 15.8125 21.308594 15.792969 21.316406 15.761719 21.375 Z M 15.949219 21.75 C 15.949219 21.765625 15.976562 21.847656 16.011719 21.929688 C 16.082031 22.105469 16.070312 22.117188 15.882812 22.089844 C 15.789062 22.078125 15.765625 22.0625 15.78125 22.03125 C 15.863281 21.773438 15.890625 21.71875 15.917969 21.71875 C 15.933594 21.71875 15.949219 21.734375 15.949219 21.75 Z M 15.949219 21.75 "/>
<path style=" stroke:none;fill-rule:nonzero;fill:#bf5300;fill-opacity:1;" d="M 16.699219 21.324219 C 16.554688 21.335938 16.5625 21.320312 16.554688 21.53125 C 16.550781 21.570312 16.582031 21.578125 16.851562 21.578125 C 17.015625 21.578125 17.160156 21.585938 17.167969 21.597656 C 17.183594 21.609375 17.09375 21.710938 16.972656 21.828125 C 16.855469 21.945312 16.707031 22.101562 16.644531 22.175781 C 16.546875 22.289062 16.539062 22.316406 16.550781 22.394531 C 16.570312 22.480469 16.570312 22.480469 16.738281 22.5 C 16.832031 22.511719 17.054688 22.519531 17.230469 22.523438 L 17.550781 22.527344 L 17.554688 22.40625 L 17.554688 22.285156 L 17.363281 22.265625 C 17.253906 22.257812 17.160156 22.246094 17.152344 22.25 C 17.144531 22.25 17.097656 22.257812 17.046875 22.265625 C 16.894531 22.292969 16.921875 22.226562 17.160156 21.988281 C 17.496094 21.65625 17.5625 21.5625 17.5625 21.4375 L 17.5625 21.332031 L 17.367188 21.332031 C 17.257812 21.332031 17.09375 21.328125 17 21.324219 C 16.90625 21.316406 16.773438 21.316406 16.699219 21.324219 Z M 16.699219 21.324219 "/>
<path style=" stroke:none;fill-rule:nonzero;fill:#bf5300;fill-opacity:1;" d="M 17.960938 21.335938 C 17.851562 21.367188 17.730469 21.503906 17.683594 21.648438 C 17.628906 21.796875 17.628906 22.125 17.675781 22.238281 C 17.832031 22.613281 18.460938 22.632812 18.652344 22.273438 C 18.753906 22.070312 18.71875 21.667969 18.585938 21.480469 C 18.480469 21.332031 18.195312 21.265625 17.960938 21.335938 Z M 18.351562 21.621094 C 18.457031 21.734375 18.496094 22.019531 18.421875 22.15625 C 18.382812 22.230469 18.253906 22.308594 18.164062 22.308594 C 18.085938 22.308594 17.957031 22.226562 17.925781 22.164062 C 17.859375 22.015625 17.90625 21.671875 18.007812 21.601562 C 18.09375 21.542969 18.289062 21.550781 18.351562 21.621094 Z M 18.351562 21.621094 "/>
<path style=" stroke:none;fill-rule:nonzero;fill:#bf5300;fill-opacity:1;" d="M 18.832031 21.480469 C 18.820312 21.574219 18.820312 21.75 18.828125 21.875 C 18.84375 22.125 18.886719 22.234375 19.042969 22.398438 C 19.179688 22.546875 19.300781 22.566406 19.5 22.476562 C 19.625 22.421875 19.652344 22.394531 19.699219 22.289062 C 19.75 22.179688 19.757812 22.125 19.757812 21.765625 C 19.757812 21.542969 19.75 21.355469 19.742188 21.347656 C 19.734375 21.339844 19.6875 21.332031 19.636719 21.328125 L 19.550781 21.320312 L 19.539062 21.707031 C 19.527344 22.03125 19.519531 22.101562 19.472656 22.179688 C 19.410156 22.289062 19.328125 22.304688 19.214844 22.234375 C 19.144531 22.191406 19.128906 22.160156 19.101562 22.003906 C 19.082031 21.898438 19.074219 21.726562 19.082031 21.59375 C 19.09375 21.378906 19.09375 21.359375 19.046875 21.359375 C 19.023438 21.359375 18.996094 21.347656 18.988281 21.332031 C 18.980469 21.316406 18.945312 21.308594 18.910156 21.308594 C 18.855469 21.308594 18.847656 21.320312 18.832031 21.480469 Z M 18.832031 21.480469 "/>
<path style=" stroke:none;fill-rule:nonzero;fill:#bf5300;fill-opacity:1;" d="M 20.023438 21.324219 L 19.875 21.335938 L 19.867188 21.445312 C 19.859375 21.503906 19.859375 21.5625 19.867188 21.570312 C 19.871094 21.585938 19.957031 21.589844 20.0625 21.585938 L 20.242188 21.578125 L 20.242188 22.03125 C 20.242188 22.28125 20.25 22.488281 20.257812 22.496094 C 20.265625 22.503906 20.324219 22.511719 20.382812 22.519531 L 20.5 22.527344 L 20.5 21.605469 L 20.5625 21.585938 C 20.601562 21.578125 20.683594 21.570312 20.75 21.566406 L 20.871094 21.5625 L 20.871094 21.332031 L 20.648438 21.332031 C 20.523438 21.332031 20.367188 21.328125 20.292969 21.324219 C 20.226562 21.316406 20.101562 21.320312 20.023438 21.324219 Z M 20.023438 21.324219 "/>
<path style=" stroke:none;fill-rule:nonzero;fill:#bf5300;fill-opacity:1;" d="M 9.292969 22.054688 C 9.265625 22.070312 9.207031 22.121094 9.160156 22.164062 C 9.042969 22.273438 8.921875 22.273438 8.769531 22.160156 C 8.613281 22.046875 8.59375 22.054688 8.726562 22.179688 C 8.921875 22.355469 9.054688 22.367188 9.253906 22.214844 C 9.40625 22.097656 9.492188 22.101562 9.652344 22.230469 C 9.757812 22.316406 9.792969 22.332031 9.894531 22.332031 C 10.019531 22.332031 10.070312 22.308594 10.226562 22.171875 C 10.300781 22.109375 10.332031 22.101562 10.402344 22.109375 C 10.453125 22.121094 10.53125 22.15625 10.578125 22.191406 C 10.699219 22.285156 10.71875 22.273438 10.617188 22.167969 C 10.453125 21.996094 10.285156 21.988281 10.101562 22.144531 C 9.949219 22.269531 9.855469 22.257812 9.671875 22.101562 C 9.605469 22.042969 9.5625 22.027344 9.464844 22.027344 C 9.398438 22.027344 9.324219 22.042969 9.292969 22.054688 Z M 9.292969 22.054688 "/>
<path style=" stroke:none;fill-rule:nonzero;fill:#bf5300;fill-opacity:1;" d="M 21.804688 22.128906 C 21.609375 22.289062 21.570312 22.289062 21.292969 22.113281 C 21.242188 22.082031 21.257812 22.101562 21.339844 22.183594 C 21.519531 22.363281 21.671875 22.367188 21.863281 22.207031 C 21.988281 22.105469 22.097656 22.101562 22.210938 22.203125 C 22.328125 22.304688 22.390625 22.332031 22.5 22.332031 C 22.609375 22.332031 22.707031 22.289062 22.792969 22.195312 C 22.90625 22.074219 23.019531 22.078125 23.230469 22.222656 C 23.289062 22.261719 23.289062 22.257812 23.21875 22.183594 C 23.125 22.074219 22.992188 22.019531 22.898438 22.039062 C 22.855469 22.046875 22.769531 22.09375 22.699219 22.144531 C 22.632812 22.191406 22.546875 22.230469 22.511719 22.230469 C 22.476562 22.230469 22.386719 22.183594 22.308594 22.128906 C 22.195312 22.042969 22.152344 22.027344 22.050781 22.027344 C 21.945312 22.027344 21.910156 22.042969 21.804688 22.128906 Z M 21.804688 22.128906 "/>
</g>
</svg>