<svg xmlns="http://www.w3.org/2000/svg" xmlns:xlink="http://www.w3.org/1999/xlink" width="16px" height="16px" viewBox="0 0 16 16" version="1.1">
<g id="surface1">
<path style=" stroke:none;fill-rule:nonzero;fill:#bf5300;fill-opacity:1;" d="M 7.863281 4.6875 C 7.851562 4.777344 7.871094 5.210938 7.890625 5.292969 C 7.902344 5.355469 7.902344 5.375 7.886719 5.4375 C 7.875 5.480469 7.867188 5.542969 7.871094 5.605469 C 7.871094 5.679688 7.867188 5.71875 7.847656 5.769531 C 7.816406 5.847656 7.8125 5.910156 7.839844 5.992188 C 7.863281 6.054688 7.902344 6.085938 7.941406 6.070312 C 7.957031 6.066406 7.960938 6.050781 7.957031 6.003906 C 7.949219 5.953125 7.953125 5.921875 7.984375 5.835938 C 8.027344 5.71875 8.035156 5.675781 8.011719 5.597656 C 8 5.558594 8 5.523438 8.011719 5.457031 C 8.027344 5.378906 8.027344 5.347656 8.007812 5.261719 C 7.992188 5.195312 7.988281 5.132812 7.996094 5.09375 C 8 5.054688 7.996094 4.996094 7.984375 4.933594 C 7.972656 4.882812 7.957031 4.800781 7.957031 4.75 C 7.945312 4.636719 7.941406 4.628906 7.902344 4.628906 C 7.875 4.628906 7.871094 4.636719 7.863281 4.6875 Z M 7.863281 4.6875 "/>
<path style=" stroke:none;fill-rule:nonzero;fill:#bf5300;fill-opacity:1;" d="M 9.046875 4.886719 C 9.019531 4.902344 8.859375 5.128906 8.816406 5.210938 C 8.796875 5.246094 8.761719 5.304688 8.730469 5.339844 C 8.675781 5.398438 8.675781 5.40625 8.671875 5.484375 C 8.667969 5.613281 8.601562 5.761719 8.496094 5.875 C 8.425781 5.945312 8.410156 5.96875 8.402344 6.019531 C 8.390625 6.09375 8.402344 6.117188 8.441406 6.117188 C 8.464844 6.117188 8.472656 6.109375 8.472656 6.085938 C 8.472656 6.042969 8.503906 6.007812 8.589844 5.949219 C 8.722656 5.855469 8.753906 5.800781 8.820312 5.527344 C 8.839844 5.445312 8.863281 5.394531 8.910156 5.320312 C 9 5.1875 9.105469 4.957031 9.101562 4.914062 C 9.097656 4.875 9.082031 4.867188 9.046875 4.886719 Z M 9.046875 4.886719 "/>
<path style=" stroke:none;fill-rule:nonzero;fill:#bf5300;fill-opacity:1;" d="M 6.667969 4.925781 C 6.660156 4.933594 6.652344 4.949219 6.652344 4.960938 C 6.652344 4.992188 6.792969 5.28125 6.839844 5.347656 C 6.863281 5.378906 6.894531 5.4375 6.910156 5.476562 C 6.925781 5.515625 6.964844 5.578125 7 5.621094 C 7.035156 5.65625 7.074219 5.714844 7.089844 5.75 C 7.101562 5.78125 7.128906 5.820312 7.148438 5.835938 C 7.261719 5.929688 7.28125 5.953125 7.292969 6.007812 C 7.316406 6.082031 7.351562 6.128906 7.390625 6.128906 C 7.433594 6.128906 7.4375 6.105469 7.40625 5.992188 C 7.371094 5.867188 7.355469 5.84375 7.296875 5.796875 C 7.265625 5.773438 7.238281 5.734375 7.207031 5.667969 C 7.183594 5.613281 7.144531 5.542969 7.117188 5.511719 C 7.089844 5.480469 7.058594 5.425781 7.046875 5.386719 C 7.019531 5.308594 6.84375 5.03125 6.773438 4.957031 C 6.722656 4.910156 6.695312 4.898438 6.667969 4.925781 Z M 6.667969 4.925781 "/>
<path style=" stroke:none;fill-rule:nonzero;fill:#bf5300;fill-opacity:1;" d="M 15.019531 4.988281 C 14.957031 5.054688 14.6875 5.175781 14.289062 5.3125 C 13.933594 5.4375 13.738281 5.511719 13.628906 5.558594 C 13.523438 5.609375 13.480469 5.613281 13.359375 5.582031 C 13.195312 5.542969 13.152344 5.539062 13.125 5.550781 C 13.082031 5.578125 13.105469 5.636719 13.199219 5.726562 C 13.304688 5.832031 13.328125 5.890625 13.316406 6.070312 C 13.3125 6.160156 13.292969 6.265625 13.253906 6.429688 C 13.21875 6.554688 13.144531 6.882812 13.082031 7.160156 C 12.882812 8.0625 12.742188 8.570312 12.578125 8.960938 C 12.503906 9.136719 12.484375 9.164062 12.351562 9.265625 C 12.296875 9.300781 12.257812 9.339844 12.257812 9.351562 C 12.257812 9.398438 12.390625 9.449219 12.722656 9.515625 C 12.996094 9.566406 13.03125 9.578125 13.382812 9.6875 C 13.503906 9.726562 13.617188 9.757812 13.632812 9.757812 C 13.660156 9.757812 13.71875 9.707031 13.71875 9.683594 C 13.71875 9.679688 13.691406 9.644531 13.660156 9.617188 C 13.515625 9.472656 13.433594 9.292969 13.433594 9.121094 C 13.433594 8.964844 13.503906 8.652344 13.5625 8.554688 C 13.613281 8.476562 13.75 8.441406 13.960938 8.453125 C 14.199219 8.464844 14.40625 8.535156 14.496094 8.628906 C 14.589844 8.726562 14.644531 8.917969 14.644531 9.140625 C 14.644531 9.367188 14.605469 9.476562 14.488281 9.558594 C 14.449219 9.585938 14.429688 9.609375 14.429688 9.625 C 14.429688 9.652344 14.453125 9.664062 14.609375 9.722656 C 14.707031 9.761719 14.878906 9.828125 14.992188 9.871094 C 15.558594 10.089844 15.859375 10.167969 15.910156 10.109375 C 15.929688 10.085938 15.898438 10.023438 15.824219 9.949219 C 15.761719 9.878906 15.722656 9.792969 15.617188 9.46875 C 15.472656 9.027344 15.375 8.585938 15.210938 7.632812 C 15.160156 7.324219 15.085938 6.929688 15.050781 6.757812 C 15.015625 6.582031 14.957031 6.304688 14.921875 6.132812 C 14.886719 5.964844 14.851562 5.761719 14.84375 5.6875 C 14.820312 5.449219 14.859375 5.347656 15.019531 5.214844 C 15.160156 5.101562 15.195312 4.972656 15.089844 4.964844 C 15.054688 4.960938 15.039062 4.96875 15.019531 4.988281 Z M 14.257812 7.109375 C 14.355469 7.558594 14.433594 7.929688 14.429688 7.933594 C 14.421875 7.941406 13.71875 7.886719 13.707031 7.878906 C 13.703125 7.875 13.777344 7.535156 13.871094 7.125 C 14.058594 6.304688 14.0625 6.277344 14.070312 6.285156 C 14.074219 6.289062 14.15625 6.65625 14.257812 7.109375 Z M 14.257812 7.109375 "/>
<path style=" stroke:none;fill-rule:nonzero;fill:#bf5300;fill-opacity:1;" d="M 1.527344 5.035156 C 1.507812 5.035156 1.449219 5.042969 1.398438 5.050781 C 1.179688 5.085938 0.921875 5.195312 0.738281 5.328125 C 0.417969 5.570312 0.238281 5.882812 0.222656 6.222656 C 0.207031 6.515625 0.304688 6.757812 0.527344 6.972656 C 0.707031 7.152344 0.902344 7.261719 1.40625 7.460938 C 1.914062 7.664062 2.042969 7.734375 2.179688 7.878906 C 2.335938 8.042969 2.394531 8.273438 2.339844 8.492188 C 2.273438 8.738281 2.042969 8.960938 1.78125 9.035156 C 1.667969 9.0625 1.488281 9.0625 1.390625 9.035156 C 1.222656 8.984375 1.0625 8.867188 1.011719 8.753906 C 0.992188 8.707031 0.976562 8.550781 0.992188 8.550781 C 0.996094 8.550781 1.03125 8.566406 1.070312 8.589844 C 1.203125 8.660156 1.355469 8.636719 1.472656 8.53125 C 1.585938 8.429688 1.625 8.304688 1.601562 8.140625 C 1.566406 7.910156 1.386719 7.730469 1.117188 7.664062 C 1.003906 7.636719 0.78125 7.644531 0.664062 7.675781 C 0.28125 7.785156 0.0625 8.082031 0.0625 8.5 C 0.0625 8.828125 0.21875 9.152344 0.503906 9.417969 C 0.960938 9.84375 1.589844 9.964844 2.171875 9.746094 C 2.601562 9.585938 2.957031 9.242188 3.132812 8.820312 C 3.433594 8.097656 3.15625 7.386719 2.441406 7.042969 C 2.367188 7.007812 2.183594 6.933594 2.039062 6.878906 C 1.414062 6.640625 1.210938 6.480469 1.144531 6.175781 C 1.121094 6.058594 1.128906 5.980469 1.179688 5.875 C 1.269531 5.691406 1.5 5.566406 1.78125 5.554688 C 2.007812 5.542969 2.183594 5.589844 2.300781 5.695312 C 2.367188 5.75 2.410156 5.847656 2.410156 5.933594 C 2.410156 6.070312 2.367188 6.105469 2.277344 6.042969 C 2.136719 5.941406 1.980469 5.964844 1.929688 6.097656 C 1.878906 6.226562 1.929688 6.40625 2.054688 6.53125 C 2.304688 6.78125 2.734375 6.757812 3.011719 6.472656 C 3.21875 6.261719 3.261719 5.972656 3.121094 5.683594 C 2.980469 5.390625 2.570312 5.15625 2.039062 5.066406 C 1.886719 5.039062 1.59375 5.019531 1.527344 5.035156 Z M 1.527344 5.035156 "/>
<path style=" stroke:none;fill-rule:nonzero;fill:#bf5300;fill-opacity:1;" d="M 8.328125 5.167969 C 8.316406 5.214844 8.292969 5.332031 8.273438 5.429688 C 8.234375 5.644531 8.199219 5.792969 8.167969 5.867188 C 8.148438 5.90625 8.144531 5.933594 8.152344 5.972656 C 8.167969 6.046875 8.179688 6.054688 8.179688 5.984375 C 8.179688 5.949219 8.191406 5.90625 8.210938 5.871094 C 8.226562 5.839844 8.25 5.765625 8.261719 5.707031 C 8.273438 5.644531 8.296875 5.542969 8.3125 5.476562 C 8.34375 5.371094 8.371094 5.1875 8.371094 5.121094 C 8.371094 5.0625 8.347656 5.089844 8.328125 5.167969 Z M 8.328125 5.167969 "/>
<path style=" stroke:none;fill-rule:nonzero;fill:#bf5300;fill-opacity:1;" d="M 7.34375 5.289062 C 7.339844 5.296875 7.355469 5.339844 7.378906 5.378906 C 7.460938 5.515625 7.535156 5.671875 7.5625 5.777344 C 7.597656 5.90625 7.632812 5.984375 7.660156 5.996094 C 7.671875 6 7.683594 6 7.6875 5.996094 C 7.695312 5.988281 7.628906 5.75 7.589844 5.644531 C 7.542969 5.527344 7.488281 5.429688 7.421875 5.335938 C 7.371094 5.265625 7.355469 5.257812 7.34375 5.289062 Z M 7.34375 5.289062 "/>
<path style=" stroke:none;fill-rule:nonzero;fill:#bf5300;fill-opacity:1;" d="M 9.175781 5.46875 C 9.160156 5.492188 9.121094 5.546875 9.089844 5.597656 C 9.058594 5.644531 9.003906 5.71875 8.96875 5.757812 C 8.925781 5.800781 8.894531 5.851562 8.882812 5.882812 C 8.871094 5.921875 8.84375 5.960938 8.796875 6.007812 C 8.75 6.054688 8.730469 6.085938 8.730469 6.109375 L 8.730469 6.144531 L 8.792969 6.089844 C 8.828125 6.058594 8.871094 6.023438 8.886719 6.011719 C 8.90625 5.996094 8.929688 5.960938 8.941406 5.925781 C 8.957031 5.878906 8.984375 5.835938 9.035156 5.785156 C 9.101562 5.714844 9.222656 5.527344 9.238281 5.460938 C 9.25 5.425781 9.214844 5.429688 9.175781 5.46875 Z M 9.175781 5.46875 "/>
<path style=" stroke:none;fill-rule:nonzero;fill:#bf5300;fill-opacity:1;" d="M 3.953125 5.566406 C 3.90625 5.613281 3.957031 5.695312 4.078125 5.78125 C 4.191406 5.863281 4.210938 5.902344 4.210938 6.027344 C 4.207031 6.121094 4.203125 6.136719 4.128906 6.292969 C 4.015625 6.53125 3.980469 6.664062 3.867188 7.269531 C 3.804688 7.585938 3.550781 8.597656 3.472656 8.835938 C 3.382812 9.109375 3.347656 9.175781 3.25 9.265625 C 3.171875 9.332031 3.128906 9.390625 3.128906 9.417969 C 3.128906 9.464844 3.148438 9.460938 3.796875 9.328125 C 4.152344 9.253906 4.449219 9.191406 4.457031 9.1875 C 4.46875 9.183594 4.472656 9.164062 4.472656 9.144531 C 4.46875 9.117188 4.457031 9.101562 4.410156 9.082031 C 4.253906 9.007812 4.195312 8.816406 4.253906 8.597656 C 4.273438 8.527344 4.289062 8.496094 4.328125 8.464844 C 4.417969 8.386719 4.761719 8.300781 5.050781 8.285156 C 5.191406 8.28125 5.203125 8.28125 5.226562 8.304688 C 5.269531 8.34375 5.296875 8.453125 5.304688 8.597656 C 5.308594 8.714844 5.308594 8.730469 5.277344 8.789062 C 5.246094 8.851562 5.171875 8.929688 5.117188 8.960938 C 5.097656 8.972656 5.089844 8.988281 5.089844 9.019531 C 5.089844 9.101562 5.132812 9.105469 5.402344 9.042969 C 5.5 9.019531 5.570312 9.011719 5.632812 9.015625 C 5.707031 9.019531 5.730469 9.015625 5.746094 9 C 5.777344 8.964844 5.921875 8.9375 6.152344 8.921875 C 6.269531 8.914062 6.414062 8.902344 6.472656 8.894531 C 6.535156 8.890625 6.769531 8.878906 7 8.875 C 7.230469 8.875 7.4375 8.863281 7.457031 8.855469 C 7.503906 8.84375 7.527344 8.804688 7.515625 8.765625 C 7.511719 8.753906 7.480469 8.726562 7.445312 8.710938 C 7.363281 8.671875 7.308594 8.601562 7.269531 8.488281 C 7.234375 8.382812 7.226562 8.175781 7.238281 7.699219 L 7.25 7.367188 L 7.316406 7.457031 C 7.414062 7.582031 7.539062 7.839844 7.632812 8.121094 C 7.792969 8.582031 7.898438 8.835938 7.921875 8.8125 C 7.945312 8.792969 8.027344 8.589844 8.132812 8.285156 C 8.253906 7.945312 8.3125 7.800781 8.378906 7.679688 C 8.441406 7.570312 8.542969 7.421875 8.582031 7.382812 L 8.617188 7.355469 L 8.617188 8.496094 L 8.578125 8.550781 C 8.535156 8.625 8.472656 8.679688 8.394531 8.722656 C 8.320312 8.765625 8.308594 8.789062 8.339844 8.820312 C 8.363281 8.84375 8.402344 8.847656 8.742188 8.859375 C 9.363281 8.878906 9.660156 8.910156 10.101562 8.996094 C 10.875 9.144531 11.058594 9.171875 11.320312 9.1875 C 11.609375 9.203125 11.816406 9.152344 11.996094 9.027344 C 12.167969 8.90625 12.300781 8.726562 12.375 8.523438 C 12.539062 8.039062 12.371094 7.554688 11.957031 7.34375 C 11.894531 7.3125 11.847656 7.285156 11.847656 7.28125 C 11.847656 7.277344 11.882812 7.246094 11.925781 7.210938 C 12.160156 7.019531 12.28125 6.769531 12.265625 6.5 C 12.25 6.203125 12.125 6.027344 11.867188 5.941406 C 11.765625 5.90625 11.753906 5.90625 11.5 5.90625 C 11.273438 5.90625 11.199219 5.910156 10.960938 5.945312 C 10.589844 6 10.457031 6.011719 10.261719 6.003906 C 10.078125 5.996094 9.871094 6.015625 9.78125 6.042969 C 9.707031 6.070312 9.632812 6.132812 9.621094 6.183594 C 9.613281 6.214844 9.617188 6.21875 9.667969 6.242188 C 9.804688 6.300781 9.890625 6.476562 9.875 6.664062 C 9.871094 6.710938 9.875 7.050781 9.882812 7.421875 C 9.902344 8.152344 9.894531 8.4375 9.851562 8.5625 C 9.824219 8.640625 9.738281 8.746094 9.679688 8.769531 C 9.65625 8.777344 9.617188 8.78125 9.585938 8.78125 C 9.484375 8.769531 9.414062 8.691406 9.367188 8.542969 C 9.339844 8.457031 9.339844 8.4375 9.339844 7.96875 C 9.339844 7.699219 9.34375 7.265625 9.347656 7.007812 C 9.355469 6.46875 9.355469 6.46875 9.464844 6.34375 C 9.527344 6.277344 9.546875 6.222656 9.527344 6.199219 C 9.496094 6.171875 9.332031 6.191406 9.097656 6.246094 C 8.84375 6.308594 8.753906 6.328125 8.550781 6.347656 C 8.472656 6.355469 8.414062 6.367188 8.40625 6.375 C 8.402344 6.382812 8.328125 6.53125 8.242188 6.707031 C 8.074219 7.046875 7.960938 7.246094 7.941406 7.238281 C 7.917969 7.230469 7.832031 7.089844 7.660156 6.773438 L 7.488281 6.457031 L 7.410156 6.449219 C 7.363281 6.441406 7.253906 6.4375 7.160156 6.4375 C 6.941406 6.433594 6.789062 6.410156 6.507812 6.335938 C 6.195312 6.25 6.207031 6.25 6.199219 6.28125 C 6.195312 6.292969 6.199219 6.328125 6.207031 6.359375 C 6.214844 6.398438 6.238281 6.425781 6.308594 6.484375 C 6.410156 6.566406 6.445312 6.628906 6.488281 6.789062 C 6.542969 7.011719 6.550781 7.273438 6.519531 7.800781 C 6.507812 7.988281 6.5 8.210938 6.503906 8.335938 L 6.507812 8.550781 L 6.472656 8.613281 C 6.429688 8.6875 6.414062 8.707031 6.371094 8.734375 C 6.289062 8.792969 6.210938 8.738281 6.125 8.566406 C 6.015625 8.351562 5.910156 7.972656 5.746094 7.214844 C 5.613281 6.605469 5.585938 6.507812 5.507812 6.34375 C 5.351562 6.023438 5.375 5.863281 5.605469 5.695312 C 5.695312 5.628906 5.699219 5.625 5.671875 5.597656 C 5.636719 5.5625 5.597656 5.5625 5.402344 5.589844 C 5.0625 5.636719 4.847656 5.652344 4.628906 5.652344 C 4.371094 5.652344 4.285156 5.640625 4.160156 5.589844 C 4.0625 5.550781 3.976562 5.539062 3.953125 5.566406 Z M 11.289062 6.433594 C 11.367188 6.46875 11.441406 6.539062 11.46875 6.609375 C 11.511719 6.710938 11.484375 6.878906 11.410156 6.984375 C 11.335938 7.089844 11.15625 7.140625 10.816406 7.148438 L 10.640625 7.15625 L 10.640625 6.828125 C 10.640625 6.515625 10.640625 6.5 10.667969 6.472656 C 10.722656 6.417969 10.820312 6.398438 11.042969 6.402344 C 11.199219 6.402344 11.234375 6.410156 11.289062 6.433594 Z M 4.835938 6.785156 C 4.886719 6.824219 4.9375 6.988281 5.03125 7.410156 C 5.0625 7.554688 5.089844 7.683594 5.097656 7.695312 C 5.117188 7.746094 4.882812 7.804688 4.585938 7.828125 L 4.457031 7.835938 L 4.464844 7.769531 C 4.496094 7.542969 4.691406 6.925781 4.777344 6.800781 C 4.796875 6.765625 4.808594 6.761719 4.835938 6.785156 Z M 11.265625 7.699219 C 11.488281 7.75 11.601562 7.890625 11.601562 8.109375 C 11.601562 8.449219 11.335938 8.566406 10.785156 8.460938 L 10.640625 8.433594 L 10.640625 7.71875 L 10.671875 7.710938 C 10.820312 7.675781 11.140625 7.671875 11.265625 7.699219 Z M 11.265625 7.699219 "/>
<path style=" stroke:none;fill-rule:nonzero;fill:#bf5300;fill-opacity:1;" d="M 6.492188 5.679688 C 6.480469 5.703125 6.574219 5.789062 6.667969 5.839844 C 6.730469 5.875 6.769531 5.90625 6.796875 5.945312 C 6.816406 5.972656 6.859375 6.015625 6.890625 6.039062 C 6.921875 6.058594 6.964844 6.101562 6.980469 6.128906 C 7.007812 6.167969 7.019531 6.179688 7.050781 6.179688 C 7.074219 6.179688 7.089844 6.171875 7.089844 6.164062 C 7.089844 6.148438 6.957031 6.011719 6.921875 5.992188 C 6.910156 5.984375 6.878906 5.949219 6.851562 5.910156 C 6.8125 5.859375 6.785156 5.835938 6.730469 5.8125 C 6.695312 5.792969 6.628906 5.753906 6.589844 5.722656 C 6.511719 5.664062 6.507812 5.660156 6.492188 5.679688 Z M 6.492188 5.679688 "/>
<path style=" stroke:none;fill-rule:nonzero;fill:#bf5300;fill-opacity:1;" d="M 8.460938 9.179688 C 8.367188 9.199219 8.257812 9.253906 8.210938 9.3125 C 8.179688 9.355469 8.171875 9.375 8.167969 9.460938 C 8.164062 9.546875 8.167969 9.570312 8.191406 9.609375 C 8.234375 9.679688 8.34375 9.761719 8.496094 9.839844 C 8.644531 9.914062 8.707031 9.957031 8.707031 9.992188 C 8.707031 10.023438 8.648438 10.074219 8.582031 10.097656 C 8.535156 10.117188 8.515625 10.117188 8.457031 10.105469 C 8.347656 10.078125 8.328125 10.058594 8.300781 9.921875 C 8.296875 9.890625 8.289062 9.886719 8.210938 9.878906 C 8.164062 9.875 8.121094 9.875 8.113281 9.878906 C 8.109375 9.882812 8.101562 9.917969 8.101562 9.953125 C 8.101562 10.199219 8.3125 10.351562 8.589844 10.308594 C 8.75 10.285156 8.855469 10.21875 8.910156 10.117188 C 8.996094 9.949219 8.925781 9.804688 8.714844 9.722656 C 8.644531 9.695312 8.601562 9.664062 8.527344 9.597656 C 8.453125 9.523438 8.433594 9.5 8.441406 9.480469 C 8.457031 9.429688 8.574219 9.398438 8.660156 9.421875 C 8.734375 9.441406 8.746094 9.453125 8.753906 9.507812 C 8.761719 9.554688 8.765625 9.558594 8.800781 9.554688 C 8.824219 9.550781 8.867188 9.558594 8.898438 9.570312 C 8.972656 9.597656 9.019531 9.585938 9.007812 9.546875 C 8.960938 9.351562 8.933594 9.300781 8.847656 9.246094 C 8.742188 9.175781 8.617188 9.15625 8.460938 9.179688 Z M 8.460938 9.179688 "/>
<path style=" stroke:none;fill-rule:nonzero;fill:#bf5300;fill-opacity:1;" d="M 7.320312 9.199219 C 7.253906 9.207031 7.152344 9.210938 7.070312 9.207031 C 6.890625 9.199219 6.789062 9.210938 6.78125 9.242188 C 6.777344 9.253906 6.78125 9.324219 6.789062 9.402344 C 6.800781 9.480469 6.804688 9.644531 6.804688 9.769531 C 6.804688 9.949219 6.808594 10.023438 6.832031 10.132812 C 6.847656 10.207031 6.859375 10.289062 6.859375 10.308594 L 6.859375 10.347656 L 6.964844 10.339844 C 7.023438 10.335938 7.078125 10.328125 7.085938 10.324219 C 7.109375 10.320312 7.105469 10.269531 7.074219 10.066406 C 7.0625 9.972656 7.054688 9.890625 7.058594 9.882812 C 7.066406 9.875 7.105469 9.878906 7.144531 9.882812 C 7.203125 9.894531 7.238281 9.890625 7.300781 9.878906 C 7.34375 9.867188 7.398438 9.859375 7.421875 9.859375 L 7.460938 9.859375 L 7.457031 9.738281 C 7.457031 9.625 7.457031 9.621094 7.421875 9.617188 C 7.402344 9.617188 7.34375 9.625 7.292969 9.632812 C 7.234375 9.644531 7.171875 9.648438 7.128906 9.644531 C 7.070312 9.636719 7.0625 9.632812 7.054688 9.605469 C 7.050781 9.585938 7.042969 9.542969 7.039062 9.515625 C 7.023438 9.453125 7.035156 9.429688 7.078125 9.441406 C 7.140625 9.457031 7.238281 9.460938 7.308594 9.449219 C 7.355469 9.441406 7.441406 9.429688 7.503906 9.425781 L 7.617188 9.417969 L 7.621094 9.300781 L 7.621094 9.1875 L 7.527344 9.183594 C 7.472656 9.183594 7.378906 9.191406 7.320312 9.199219 Z M 7.320312 9.199219 "/>
<path style=" stroke:none;fill-rule:nonzero;fill:#bf5300;fill-opacity:1;" d="M 9.167969 9.246094 C 9.15625 9.257812 9.144531 9.367188 9.140625 9.480469 C 9.132812 9.597656 9.121094 9.726562 9.109375 9.773438 C 9.09375 9.828125 9.085938 9.921875 9.085938 10.089844 L 9.082031 10.332031 L 9.128906 10.339844 C 9.152344 10.34375 9.199219 10.351562 9.226562 10.355469 C 9.320312 10.375 9.324219 10.367188 9.332031 10.140625 L 9.339844 9.941406 L 9.417969 9.933594 C 9.457031 9.929688 9.519531 9.929688 9.550781 9.9375 C 9.582031 9.945312 9.632812 9.953125 9.660156 9.957031 L 9.710938 9.96875 L 9.710938 10.117188 C 9.710938 10.195312 9.707031 10.292969 9.703125 10.328125 C 9.695312 10.394531 9.695312 10.398438 9.722656 10.398438 C 9.738281 10.398438 9.777344 10.40625 9.808594 10.417969 C 9.886719 10.445312 9.921875 10.441406 9.933594 10.40625 C 9.949219 10.371094 9.957031 10.285156 9.96875 10.121094 C 9.972656 10.050781 9.992188 9.933594 10.007812 9.859375 C 10.039062 9.742188 10.039062 9.707031 10.035156 9.597656 C 10.027344 9.527344 10.03125 9.4375 10.035156 9.398438 C 10.046875 9.332031 10.046875 9.332031 10.015625 9.320312 C 9.996094 9.3125 9.949219 9.304688 9.910156 9.296875 L 9.835938 9.292969 L 9.820312 9.351562 C 9.8125 9.394531 9.785156 9.648438 9.78125 9.71875 C 9.78125 9.738281 9.699219 9.730469 9.617188 9.707031 C 9.554688 9.683594 9.515625 9.679688 9.460938 9.6875 L 9.386719 9.695312 L 9.378906 9.542969 C 9.375 9.457031 9.371094 9.359375 9.375 9.320312 L 9.378906 9.25 L 9.332031 9.242188 C 9.203125 9.214844 9.183594 9.214844 9.167969 9.246094 Z M 9.167969 9.246094 "/>
<path style=" stroke:none;fill-rule:nonzero;fill:#bf5300;fill-opacity:1;" d="M 6.070312 9.289062 C 6 9.296875 5.90625 9.308594 5.867188 9.3125 C 5.730469 9.328125 5.730469 9.328125 5.730469 9.382812 C 5.730469 9.410156 5.742188 9.492188 5.757812 9.566406 C 5.773438 9.640625 5.789062 9.78125 5.792969 9.882812 C 5.800781 10.007812 5.816406 10.105469 5.832031 10.171875 C 5.847656 10.230469 5.867188 10.308594 5.871094 10.351562 L 5.878906 10.429688 L 5.992188 10.425781 C 6.058594 10.421875 6.113281 10.417969 6.113281 10.414062 C 6.125 10.402344 6.113281 10.265625 6.089844 10.152344 C 6.074219 10.082031 6.0625 10.019531 6.066406 10.007812 C 6.074219 9.996094 6.09375 9.988281 6.121094 9.988281 C 6.15625 9.988281 6.175781 9.996094 6.222656 10.054688 C 6.257812 10.089844 6.292969 10.140625 6.308594 10.167969 C 6.34375 10.234375 6.390625 10.289062 6.453125 10.332031 C 6.503906 10.367188 6.511719 10.367188 6.625 10.363281 C 6.726562 10.355469 6.742188 10.351562 6.742188 10.332031 C 6.742188 10.320312 6.699219 10.265625 6.648438 10.207031 C 6.59375 10.148438 6.539062 10.074219 6.519531 10.039062 C 6.503906 10.003906 6.472656 9.960938 6.457031 9.941406 C 6.4375 9.921875 6.421875 9.90625 6.421875 9.90625 C 6.421875 9.902344 6.453125 9.878906 6.492188 9.855469 C 6.640625 9.746094 6.691406 9.582031 6.617188 9.4375 C 6.542969 9.296875 6.367188 9.25 6.070312 9.289062 Z M 6.324219 9.527344 C 6.414062 9.550781 6.417969 9.617188 6.328125 9.679688 C 6.269531 9.71875 6.070312 9.792969 6.058594 9.78125 C 6.046875 9.769531 6.011719 9.613281 6.007812 9.570312 C 6.007812 9.546875 6.019531 9.542969 6.121094 9.53125 C 6.277344 9.511719 6.269531 9.511719 6.324219 9.527344 Z M 6.324219 9.527344 "/>
<path style=" stroke:none;fill-rule:nonzero;fill:#bf5300;fill-opacity:1;" d="M 5.457031 9.382812 C 5.367188 9.390625 5.347656 9.402344 5.355469 9.453125 C 5.355469 9.46875 5.375 9.578125 5.394531 9.699219 C 5.4375 9.980469 5.441406 10.160156 5.398438 10.25 L 5.371094 10.308594 L 5.269531 10.304688 C 5.128906 10.296875 5.113281 10.28125 5.042969 10.117188 C 4.976562 9.96875 4.941406 9.816406 4.929688 9.644531 L 4.921875 9.53125 L 4.804688 9.519531 C 4.742188 9.515625 4.683594 9.515625 4.675781 9.519531 C 4.660156 9.53125 4.671875 9.769531 4.699219 9.890625 C 4.738281 10.078125 4.8125 10.257812 4.878906 10.335938 C 4.953125 10.414062 5.125 10.535156 5.175781 10.546875 C 5.199219 10.550781 5.253906 10.550781 5.300781 10.546875 C 5.371094 10.542969 5.390625 10.535156 5.472656 10.484375 C 5.523438 10.449219 5.578125 10.40625 5.59375 10.382812 C 5.679688 10.28125 5.691406 10.070312 5.625 9.71875 C 5.597656 9.597656 5.574219 9.46875 5.570312 9.445312 C 5.566406 9.414062 5.558594 9.390625 5.554688 9.386719 C 5.550781 9.378906 5.503906 9.378906 5.457031 9.382812 Z M 5.457031 9.382812 "/>
<path style=" stroke:none;fill-rule:nonzero;fill:#bf5300;fill-opacity:1;" d="M 10.445312 9.429688 C 10.273438 9.488281 10.152344 9.683594 10.113281 9.964844 C 10.09375 10.085938 10.109375 10.171875 10.167969 10.292969 C 10.230469 10.421875 10.339844 10.496094 10.515625 10.535156 C 10.722656 10.578125 10.882812 10.539062 11.007812 10.414062 C 11.125 10.296875 11.171875 10.15625 11.171875 9.921875 C 11.171875 9.800781 11.167969 9.761719 11.144531 9.703125 C 11.105469 9.609375 11.027344 9.523438 10.945312 9.484375 C 10.808594 9.417969 10.550781 9.390625 10.445312 9.429688 Z M 10.773438 9.675781 C 10.890625 9.710938 10.9375 9.835938 10.910156 10.035156 C 10.878906 10.257812 10.773438 10.355469 10.59375 10.320312 C 10.4375 10.292969 10.359375 10.207031 10.359375 10.0625 C 10.359375 9.945312 10.429688 9.742188 10.492188 9.695312 C 10.554688 9.640625 10.648438 9.636719 10.773438 9.675781 Z M 10.773438 9.675781 "/>
<path style=" stroke:none;fill-rule:nonzero;fill:#bf5300;fill-opacity:1;" d="M 11.40625 9.625 C 11.394531 9.660156 11.371094 9.757812 11.351562 9.847656 C 11.335938 9.9375 11.304688 10.054688 11.285156 10.105469 C 11.261719 10.15625 11.238281 10.246094 11.230469 10.308594 C 11.214844 10.414062 11.1875 10.574219 11.171875 10.621094 C 11.167969 10.644531 11.179688 10.652344 11.277344 10.683594 C 11.335938 10.703125 11.390625 10.714844 11.394531 10.710938 C 11.414062 10.703125 11.449219 10.574219 11.464844 10.445312 C 11.476562 10.375 11.484375 10.316406 11.488281 10.3125 C 11.492188 10.308594 11.550781 10.316406 11.617188 10.328125 C 11.742188 10.351562 11.882812 10.347656 11.976562 10.320312 C 12.0625 10.296875 12.144531 10.230469 12.183594 10.15625 C 12.285156 9.957031 12.164062 9.761719 11.898438 9.6875 C 11.765625 9.652344 11.492188 9.578125 11.457031 9.570312 C 11.429688 9.5625 11.421875 9.570312 11.40625 9.625 Z M 11.75 9.898438 C 11.910156 9.941406 11.972656 9.984375 11.957031 10.039062 C 11.941406 10.085938 11.855469 10.117188 11.71875 10.117188 C 11.652344 10.117188 11.589844 10.109375 11.578125 10.105469 C 11.566406 10.097656 11.566406 10.074219 11.578125 9.992188 C 11.597656 9.859375 11.597656 9.855469 11.625 9.863281 C 11.636719 9.867188 11.695312 9.882812 11.75 9.898438 Z M 11.75 9.898438 "/>
<path style=" stroke:none;fill-rule:nonzero;fill:#bf5300;fill-opacity:1;" d="M 4.058594 9.660156 C 3.816406 9.746094 3.71875 9.886719 3.777344 10.066406 C 3.789062 10.105469 3.808594 10.148438 3.824219 10.164062 C 3.875 10.222656 4.015625 10.28125 4.148438 10.300781 C 4.4375 10.347656 4.492188 10.386719 4.40625 10.488281 C 4.339844 10.5625 4.308594 10.578125 4.21875 10.578125 C 4.117188 10.578125 4.089844 10.5625 4.050781 10.480469 C 4.027344 10.425781 4.023438 10.421875 3.984375 10.429688 C 3.960938 10.4375 3.917969 10.445312 3.890625 10.449219 C 3.824219 10.457031 3.820312 10.476562 3.867188 10.578125 C 3.964844 10.796875 4.195312 10.851562 4.457031 10.71875 C 4.601562 10.648438 4.679688 10.535156 4.683594 10.410156 C 4.683594 10.238281 4.582031 10.15625 4.351562 10.132812 C 4.257812 10.125 4.054688 10.035156 4.042969 9.996094 C 4.027344 9.949219 4.113281 9.886719 4.21875 9.867188 C 4.269531 9.859375 4.347656 9.878906 4.347656 9.902344 C 4.347656 9.910156 4.355469 9.929688 4.367188 9.945312 C 4.382812 9.972656 4.386719 9.972656 4.421875 9.957031 C 4.445312 9.945312 4.492188 9.9375 4.53125 9.9375 C 4.582031 9.9375 4.605469 9.929688 4.609375 9.917969 C 4.621094 9.894531 4.539062 9.761719 4.484375 9.707031 C 4.394531 9.625 4.21875 9.601562 4.058594 9.660156 Z M 4.058594 9.660156 "/>
<path style=" stroke:none;fill-rule:nonzero;fill:#bf5300;fill-opacity:1;" d="M 5.621094 10.664062 C 5.558594 10.667969 5.554688 10.671875 5.546875 10.707031 C 5.527344 10.796875 5.53125 10.796875 5.628906 10.792969 C 5.742188 10.789062 5.75 10.800781 5.734375 10.914062 C 5.726562 10.976562 5.726562 11.246094 5.734375 11.25 C 5.734375 11.253906 5.765625 11.257812 5.796875 11.261719 L 5.859375 11.269531 L 5.859375 10.796875 L 5.933594 10.789062 C 5.972656 10.785156 6.015625 10.78125 6.027344 10.777344 C 6.050781 10.773438 6.058594 10.683594 6.035156 10.675781 C 6.011719 10.667969 5.699219 10.660156 5.621094 10.664062 Z M 5.621094 10.664062 "/>
<path style=" stroke:none;fill-rule:nonzero;fill:#bf5300;fill-opacity:1;" d="M 6.21875 10.667969 C 6.214844 10.679688 6.191406 10.734375 6.167969 10.796875 C 6.148438 10.859375 6.117188 10.933594 6.101562 10.960938 C 6.085938 10.992188 6.058594 11.0625 6.042969 11.121094 C 6.027344 11.179688 6.007812 11.234375 6.003906 11.246094 C 6 11.265625 6.007812 11.269531 6.066406 11.261719 C 6.128906 11.257812 6.136719 11.257812 6.148438 11.214844 L 6.164062 11.171875 L 6.285156 11.175781 L 6.402344 11.175781 L 6.417969 11.21875 C 6.433594 11.257812 6.433594 11.261719 6.5 11.261719 L 6.570312 11.265625 L 6.546875 11.1875 C 6.503906 11.042969 6.476562 10.96875 6.429688 10.851562 C 6.34375 10.640625 6.355469 10.652344 6.289062 10.652344 C 6.257812 10.652344 6.226562 10.660156 6.21875 10.667969 Z M 6.316406 10.90625 C 6.324219 10.933594 6.339844 10.972656 6.347656 10.996094 C 6.355469 11.019531 6.359375 11.042969 6.355469 11.046875 C 6.351562 11.050781 6.316406 11.050781 6.277344 11.046875 L 6.207031 11.039062 L 6.238281 10.964844 C 6.253906 10.925781 6.269531 10.882812 6.269531 10.875 C 6.269531 10.839844 6.304688 10.863281 6.316406 10.90625 Z M 6.316406 10.90625 "/>
<path style=" stroke:none;fill-rule:nonzero;fill:#bf5300;fill-opacity:1;" d="M 6.734375 10.679688 C 6.636719 10.722656 6.582031 10.84375 6.59375 11.003906 C 6.597656 11.082031 6.601562 11.109375 6.632812 11.152344 C 6.703125 11.257812 6.800781 11.289062 6.945312 11.25 C 7.066406 11.214844 7.074219 11.207031 7.082031 11.066406 L 7.089844 10.949219 L 6.972656 10.949219 L 6.972656 11.023438 C 6.972656 11.121094 6.957031 11.140625 6.875 11.152344 C 6.8125 11.15625 6.804688 11.152344 6.761719 11.113281 C 6.722656 11.070312 6.71875 11.0625 6.71875 10.988281 C 6.71875 10.859375 6.765625 10.78125 6.847656 10.78125 C 6.882812 10.78125 6.9375 10.832031 6.9375 10.867188 C 6.9375 10.878906 6.953125 10.882812 6.996094 10.878906 C 7.054688 10.878906 7.058594 10.875 7.054688 10.84375 C 7.042969 10.699219 6.878906 10.613281 6.734375 10.679688 Z M 6.734375 10.679688 "/>
<path style=" stroke:none;fill-rule:nonzero;fill:#bf5300;fill-opacity:1;" d="M 7.164062 10.675781 C 7.15625 10.703125 7.148438 11 7.152344 11.15625 L 7.152344 11.253906 L 7.214844 11.261719 C 7.246094 11.265625 7.277344 11.265625 7.28125 11.261719 C 7.285156 11.257812 7.285156 11.203125 7.285156 11.140625 L 7.28125 11.03125 L 7.328125 11.023438 C 7.402344 11.011719 7.472656 11.027344 7.480469 11.050781 C 7.484375 11.0625 7.488281 11.113281 7.488281 11.164062 C 7.492188 11.238281 7.496094 11.257812 7.515625 11.257812 C 7.527344 11.257812 7.554688 11.261719 7.574219 11.265625 L 7.617188 11.273438 L 7.613281 11.042969 C 7.613281 10.917969 7.609375 10.78125 7.605469 10.738281 L 7.597656 10.660156 L 7.546875 10.65625 C 7.503906 10.652344 7.5 10.65625 7.492188 10.695312 C 7.488281 10.71875 7.488281 10.773438 7.488281 10.8125 L 7.492188 10.890625 L 7.390625 10.890625 C 7.335938 10.890625 7.289062 10.886719 7.289062 10.878906 C 7.285156 10.871094 7.277344 10.820312 7.273438 10.761719 L 7.261719 10.660156 L 7.214844 10.65625 C 7.179688 10.652344 7.167969 10.65625 7.164062 10.675781 Z M 7.164062 10.675781 "/>
<path style=" stroke:none;fill-rule:nonzero;fill:#bf5300;fill-opacity:1;" d="M 7.878906 10.6875 C 7.871094 10.707031 7.851562 10.757812 7.839844 10.792969 C 7.828125 10.832031 7.800781 10.898438 7.78125 10.9375 C 7.761719 10.972656 7.730469 11.054688 7.710938 11.121094 C 7.695312 11.179688 7.675781 11.238281 7.671875 11.25 C 7.667969 11.261719 7.679688 11.265625 7.734375 11.265625 C 7.804688 11.261719 7.804688 11.261719 7.820312 11.214844 L 7.832031 11.167969 L 7.953125 11.171875 L 8.074219 11.171875 L 8.089844 11.21875 C 8.101562 11.261719 8.105469 11.261719 8.171875 11.261719 L 8.238281 11.265625 L 8.195312 11.117188 C 8.171875 11.035156 8.144531 10.957031 8.136719 10.941406 C 8.125 10.929688 8.101562 10.863281 8.078125 10.800781 C 8.054688 10.738281 8.03125 10.679688 8.023438 10.667969 C 8.015625 10.660156 7.984375 10.652344 7.953125 10.652344 C 7.90625 10.652344 7.894531 10.660156 7.878906 10.6875 Z M 7.972656 10.875 C 7.972656 10.882812 7.988281 10.925781 8.003906 10.964844 C 8.042969 11.050781 8.035156 11.058594 7.941406 11.042969 C 7.894531 11.039062 7.882812 11.03125 7.890625 11.015625 C 7.933594 10.886719 7.945312 10.859375 7.957031 10.859375 C 7.964844 10.859375 7.972656 10.867188 7.972656 10.875 Z M 7.972656 10.875 "/>
<path style=" stroke:none;fill-rule:nonzero;fill:#bf5300;fill-opacity:1;" d="M 8.351562 10.664062 C 8.277344 10.667969 8.28125 10.660156 8.277344 10.765625 C 8.277344 10.785156 8.292969 10.789062 8.425781 10.789062 C 8.507812 10.789062 8.578125 10.792969 8.585938 10.796875 C 8.589844 10.804688 8.546875 10.855469 8.488281 10.914062 C 8.425781 10.972656 8.355469 11.050781 8.324219 11.085938 C 8.273438 11.144531 8.269531 11.15625 8.277344 11.199219 C 8.285156 11.242188 8.285156 11.242188 8.371094 11.25 C 8.417969 11.253906 8.527344 11.261719 8.617188 11.261719 L 8.777344 11.261719 L 8.777344 11.140625 L 8.679688 11.132812 C 8.625 11.128906 8.582031 11.125 8.578125 11.125 C 8.574219 11.125 8.546875 11.128906 8.523438 11.132812 C 8.449219 11.148438 8.460938 11.113281 8.582031 10.996094 C 8.746094 10.828125 8.78125 10.78125 8.78125 10.71875 L 8.78125 10.667969 L 8.683594 10.667969 C 8.628906 10.667969 8.546875 10.664062 8.5 10.660156 C 8.453125 10.660156 8.386719 10.660156 8.351562 10.664062 Z M 8.351562 10.664062 "/>
<path style=" stroke:none;fill-rule:nonzero;fill:#bf5300;fill-opacity:1;" d="M 8.980469 10.667969 C 8.925781 10.683594 8.867188 10.75 8.839844 10.824219 C 8.816406 10.898438 8.8125 11.0625 8.839844 11.121094 C 8.917969 11.304688 9.230469 11.316406 9.324219 11.136719 C 9.375 11.035156 9.359375 10.835938 9.292969 10.742188 C 9.238281 10.667969 9.097656 10.632812 8.980469 10.667969 Z M 9.175781 10.808594 C 9.226562 10.867188 9.246094 11.007812 9.210938 11.078125 C 9.191406 11.117188 9.125 11.152344 9.082031 11.152344 C 9.042969 11.152344 8.976562 11.113281 8.960938 11.082031 C 8.929688 11.007812 8.953125 10.835938 9.003906 10.800781 C 9.046875 10.769531 9.144531 10.777344 9.175781 10.808594 Z M 9.175781 10.808594 "/>
<path style=" stroke:none;fill-rule:nonzero;fill:#bf5300;fill-opacity:1;" d="M 9.414062 10.738281 C 9.410156 10.789062 9.410156 10.875 9.414062 10.9375 C 9.421875 11.0625 9.445312 11.117188 9.523438 11.199219 C 9.589844 11.273438 9.652344 11.285156 9.75 11.238281 C 9.8125 11.210938 9.824219 11.199219 9.851562 11.144531 C 9.875 11.089844 9.878906 11.0625 9.878906 10.882812 C 9.878906 10.773438 9.875 10.679688 9.871094 10.675781 C 9.867188 10.671875 9.84375 10.664062 9.820312 10.664062 L 9.777344 10.660156 L 9.769531 10.851562 C 9.765625 11.015625 9.757812 11.050781 9.738281 11.089844 C 9.707031 11.144531 9.664062 11.152344 9.609375 11.117188 C 9.570312 11.09375 9.566406 11.082031 9.550781 11.003906 C 9.542969 10.949219 9.539062 10.863281 9.542969 10.796875 C 9.546875 10.691406 9.546875 10.679688 9.523438 10.679688 C 9.511719 10.679688 9.496094 10.671875 9.492188 10.667969 C 9.488281 10.660156 9.472656 10.652344 9.457031 10.652344 C 9.425781 10.652344 9.425781 10.660156 9.414062 10.738281 Z M 9.414062 10.738281 "/>
<path style=" stroke:none;fill-rule:nonzero;fill:#bf5300;fill-opacity:1;" d="M 10.011719 10.664062 L 9.9375 10.667969 L 9.933594 10.722656 C 9.929688 10.75 9.929688 10.78125 9.933594 10.785156 C 9.9375 10.792969 9.980469 10.792969 10.03125 10.792969 L 10.121094 10.789062 L 10.121094 11.015625 C 10.121094 11.140625 10.125 11.246094 10.128906 11.25 C 10.132812 11.253906 10.160156 11.257812 10.191406 11.257812 L 10.25 11.261719 L 10.25 10.800781 L 10.28125 10.792969 C 10.300781 10.789062 10.339844 10.785156 10.375 10.785156 L 10.4375 10.78125 L 10.4375 10.667969 L 10.324219 10.667969 C 10.261719 10.667969 10.183594 10.664062 10.148438 10.660156 C 10.113281 10.660156 10.050781 10.660156 10.011719 10.664062 Z M 10.011719 10.664062 "/>
<path style=" stroke:none;fill-rule:nonzero;fill:#bf5300;fill-opacity:1;" d="M 4.648438 11.027344 C 4.632812 11.035156 4.601562 11.058594 4.578125 11.082031 C 4.523438 11.136719 4.460938 11.136719 4.382812 11.078125 C 4.304688 11.023438 4.296875 11.027344 4.363281 11.089844 C 4.460938 11.179688 4.527344 11.183594 4.625 11.109375 C 4.703125 11.046875 4.746094 11.050781 4.824219 11.117188 C 4.878906 11.160156 4.894531 11.167969 4.949219 11.167969 C 5.007812 11.167969 5.035156 11.152344 5.113281 11.085938 C 5.148438 11.054688 5.164062 11.050781 5.203125 11.054688 C 5.226562 11.058594 5.265625 11.078125 5.289062 11.097656 C 5.351562 11.140625 5.359375 11.136719 5.308594 11.082031 C 5.226562 11 5.140625 10.996094 5.050781 11.070312 C 4.972656 11.132812 4.929688 11.128906 4.835938 11.050781 C 4.800781 11.019531 4.78125 11.011719 4.734375 11.011719 C 4.699219 11.011719 4.660156 11.019531 4.648438 11.027344 Z M 4.648438 11.027344 "/>
<path style=" stroke:none;fill-rule:nonzero;fill:#bf5300;fill-opacity:1;" d="M 10.902344 11.0625 C 10.804688 11.144531 10.785156 11.144531 10.644531 11.054688 C 10.621094 11.042969 10.628906 11.050781 10.667969 11.09375 C 10.761719 11.179688 10.835938 11.183594 10.933594 11.105469 C 10.996094 11.050781 11.046875 11.050781 11.105469 11.101562 C 11.164062 11.152344 11.195312 11.167969 11.25 11.167969 C 11.304688 11.167969 11.355469 11.144531 11.394531 11.097656 C 11.453125 11.039062 11.511719 11.039062 11.617188 11.113281 C 11.644531 11.128906 11.644531 11.128906 11.609375 11.089844 C 11.5625 11.039062 11.496094 11.007812 11.449219 11.019531 C 11.429688 11.023438 11.382812 11.046875 11.351562 11.070312 C 11.316406 11.097656 11.273438 11.117188 11.257812 11.117188 C 11.238281 11.117188 11.195312 11.09375 11.15625 11.0625 C 11.097656 11.019531 11.078125 11.011719 11.027344 11.011719 C 10.972656 11.011719 10.957031 11.019531 10.902344 11.0625 Z M 10.902344 11.0625 "/>
</g>
</svg>